<svg xmlns="http://www.w3.org/2000/svg" width="322.979" height="151.273" viewBox="0 0 322.979 151.273">
  <defs>
    <style>
      .cls-1 {
        fill: #b2eded;
      }

      .cls-2 {
        fill: #defafa;
      }
    </style>
  </defs>
  <g id="imgLose" transform="translate(-489.952 -104.862)">
    <path id="패스_4878" data-name="패스 4878" class="cls-1" d="M730.472,260.963a4.111,4.111,0,1,1-8.221,0c0-2.3,2.392-7.818,4.11-9.875C727.947,252.938,730.472,258.663,730.472,260.963Z" transform="translate(-116.682 -134.525)"/>
    <path id="패스_4908" data-name="패스 4908" class="cls-1" d="M730.472,260.963a4.111,4.111,0,1,1-8.221,0c0-2.3,2.392-7.818,4.11-9.875C727.947,252.938,730.472,258.663,730.472,260.963Z" transform="translate(58.318 -16.525)"/>
    <path id="패스_4890" data-name="패스 4890" class="cls-1" d="M647.878,195.384a5.482,5.482,0,1,1-10.962,0c0-3.066,3.189-10.424,5.48-13.168C644.512,184.683,647.878,192.318,647.878,195.384Z" transform="translate(-123.646 55.199)"/>
    <path id="패스_4891" data-name="패스 4891" class="cls-1" d="M931.276,134.389a5.482,5.482,0,1,1-10.963,0c0-3.066,3.19-10.424,5.481-13.168C927.91,123.688,931.276,131.322,931.276,134.389Z" transform="translate(-157.902 -16.359)"/>
    <path id="패스_4892" data-name="패스 4892" class="cls-2" d="M578.316,265.5a7.309,7.309,0,1,1-14.616,0c0-4.088,4.253-13.9,7.307-17.556C573.827,251.23,578.316,261.409,578.316,265.5Z" transform="translate(-73.748 -110.294)"/>
    <path id="패스_4898" data-name="패스 4898" class="cls-2" d="M859.718,210.312a7.308,7.308,0,1,1-14.616,0c0-4.088,4.253-13.9,7.307-17.556C855.23,196.045,859.718,206.224,859.718,210.312Z" transform="translate(-290.35 -2.207)"/>
    <path id="패스_4906" data-name="패스 4906" class="cls-1" d="M1057.443,183.348a8.8,8.8,0,1,1-17.6,0c0-4.924,5.121-16.734,8.8-21.14C1052.038,166.168,1057.443,178.424,1057.443,183.348Z" transform="translate(-244.512 10.768)"/>
    <path id="패스_4907" data-name="패스 4907" class="cls-1" d="M1130.461,308.825a5.481,5.481,0,1,1-10.962,0c0-3.066,3.189-10.423,5.479-13.168C1127.095,298.124,1130.461,305.758,1130.461,308.825Z" transform="translate(-371.607 -107.602)"/>
  </g>
</svg>
