<svg xmlns="http://www.w3.org/2000/svg" xmlns:xlink="http://www.w3.org/1999/xlink" width="115" height="59.5" viewBox="0 0 115 59.5">
  <defs>
    <style>
      .cls-1 {
        fill: #ffb42a;
      }

      .cls-2 {
        fill: #fff;
      }

      .cls-3 {
        fill: #b2e093;
        opacity: 0.645;
      }

      .cls-4 {
        fill: #131313;
      }

      .cls-5 {
        filter: url(#룰렛02);
      }
    </style>
    <filter id="룰렛02" x="23.5" y="0" width="69" height="35" filterUnits="userSpaceOnUse">
      <feOffset dy="1" input="SourceAlpha"/>
      <feGaussianBlur stdDeviation="2.5" result="blur"/>
      <feFlood flood-opacity="0.102"/>
      <feComposite operator="in" in2="blur"/>
      <feComposite in="SourceGraphic"/>
    </filter>
  </defs>
  <g id="그룹_9796" data-name="그룹 9796" transform="translate(3752 -18943.5)">
    <g class="cls-5" transform="matrix(1, 0, 0, 1, -3752, 18943.5)">
      <path id="룰렛02-2" data-name="룰렛02" class="cls-1" d="M10,0H44a10,10,0,0,1,0,20H10A10,10,0,0,1,10,0Z" transform="translate(31 6.5)"/>
    </g>
    <path id="패스_10675" data-name="패스 10675" class="cls-2" d="M-14.855.34V.66H-9.8a2.482,2.482,0,0,1,.46.035.8.8,0,0,1,.28.1.325.325,0,0,1,.135.16.619.619,0,0,1,.035.215A.685.685,0,0,1-8.92,1.4a.3.3,0,0,1-.135.155.812.812,0,0,1-.28.09,2.887,2.887,0,0,1-.46.03h-5.87a1.9,1.9,0,0,1-.44-.04.544.544,0,0,1-.245-.12.341.341,0,0,1-.1-.2,1.494,1.494,0,0,1-.02-.255V-.03a.763.763,0,0,1,.025-.2.355.355,0,0,1,.105-.17.573.573,0,0,1,.23-.12,1.437,1.437,0,0,1,.4-.045h4.99V-.85h-5.08a.883.883,0,0,1-.56-.125.477.477,0,0,1-.14-.375.48.48,0,0,1,.14-.345.79.79,0,0,1,.56-.145h2.21v-.42h-2.93a.862.862,0,0,1-.505-.115.448.448,0,0,1-.155-.385.448.448,0,0,1,.155-.355.763.763,0,0,1,.505-.135h7.47a.763.763,0,0,1,.505.135A.448.448,0,0,1-8.4-2.76a.448.448,0,0,1-.155.385.862.862,0,0,1-.505.115h-2.92v.42h2.12a1.153,1.153,0,0,1,.39.055.626.626,0,0,1,.23.135.384.384,0,0,1,.1.18.822.822,0,0,1,.025.2V-.18a.513.513,0,0,1-.14.38.931.931,0,0,1-.62.14Zm0-5.23v.32h5.16q.81,0,.81.48a.387.387,0,0,1-.195.38,1.418,1.418,0,0,1-.615.1h-5.97a1.7,1.7,0,0,1-.44-.045.583.583,0,0,1-.245-.125.345.345,0,0,1-.1-.2,1.584,1.584,0,0,1-.02-.26v-.97A.763.763,0,0,1-16.45-5.4a.355.355,0,0,1,.105-.17.573.573,0,0,1,.23-.12,1.437,1.437,0,0,1,.4-.045h4.99v-.29h-5.12a.808.808,0,0,1-.505-.125A.453.453,0,0,1-16.5-6.53a.488.488,0,0,1,.155-.355.694.694,0,0,1,.505-.155h5.99a1.153,1.153,0,0,1,.39.055.626.626,0,0,1,.23.135.384.384,0,0,1,.1.18.822.822,0,0,1,.025.2v1.03a.567.567,0,0,1-.14.4.863.863,0,0,1-.62.155Zm8.6,1.47H-4.8a1.759,1.759,0,0,1,.46.05.731.731,0,0,1,.28.135.421.421,0,0,1,.135.2.8.8,0,0,1,.035.235.964.964,0,0,1-.035.27.419.419,0,0,1-.135.2.731.731,0,0,1-.28.135,1.759,1.759,0,0,1-.46.05h-2.07a1.533,1.533,0,0,1-.44-.05.589.589,0,0,1-.245-.135.369.369,0,0,1-.105-.2,1.652,1.652,0,0,1-.02-.27V-4.41a2.711,2.711,0,0,1,.02-.345.507.507,0,0,1,.105-.26.525.525,0,0,1,.245-.16,1.4,1.4,0,0,1,.44-.055h1.02v-.48h-.92a1.759,1.759,0,0,1-.46-.05.689.689,0,0,1-.28-.14.451.451,0,0,1-.135-.2.8.8,0,0,1-.035-.235.964.964,0,0,1,.035-.27.448.448,0,0,1,.135-.21.689.689,0,0,1,.28-.14,1.759,1.759,0,0,1,.46-.05h1.63a1.4,1.4,0,0,1,.44.055.569.569,0,0,1,.245.15.424.424,0,0,1,.105.22,1.746,1.746,0,0,1,.02.275v1.52a2.711,2.711,0,0,1-.02.345.507.507,0,0,1-.105.26.525.525,0,0,1-.245.16,1.4,1.4,0,0,1-.44.055h-1.12Zm3.62,2.29a.765.765,0,0,0,.215.54,1.809,1.809,0,0,0,.55.39,3.583,3.583,0,0,0,.755.255A5.617,5.617,0,0,0-.275.18.824.824,0,0,1,.3.425a.718.718,0,0,1,.14.595.738.738,0,0,1-.115.32.653.653,0,0,1-.2.19.718.718,0,0,1-.27.09,1.506,1.506,0,0,1-.3.01,6.328,6.328,0,0,1-1.61-.345A4.2,4.2,0,0,1-3.395.52,3.575,3.575,0,0,1-4.04.955a4.957,4.957,0,0,1-.77.33,7.491,7.491,0,0,1-.835.225,6.358,6.358,0,0,1-.85.12,1.506,1.506,0,0,1-.3-.01.718.718,0,0,1-.27-.09.653.653,0,0,1-.205-.19.738.738,0,0,1-.115-.32.718.718,0,0,1,.14-.595A.824.824,0,0,1-6.665.18,6.751,6.751,0,0,0-5.81.065,3.573,3.573,0,0,0-5.05-.17a1.588,1.588,0,0,0,.545-.385A.846.846,0,0,0-4.3-1.14v-.02a.527.527,0,0,1,.22-.445,1,1,0,0,1,.61-.165,1,1,0,0,1,.61.165.527.527,0,0,1,.22.445Zm-.28-2.83H-3.3a1.451,1.451,0,0,1-.445-.055A.582.582,0,0,1-4-4.17a.47.47,0,0,1-.115-.225,1.4,1.4,0,0,1-.025-.275,1.247,1.247,0,0,1,.025-.245A.47.47,0,0,1-4-5.14.621.621,0,0,1-3.74-5.3,1.338,1.338,0,0,1-3.3-5.36h.38v-.87a.951.951,0,0,1,.19-.685.7.7,0,0,1,.51-.185.7.7,0,0,1,.5.185.934.934,0,0,1,.2.685v3.26a.985.985,0,0,1-.185.7.693.693,0,0,1-.5.18.729.729,0,0,1-.515-.18.949.949,0,0,1-.195-.7Zm2.01-2.27a.951.951,0,0,1,.19-.685A.7.7,0,0,1-.205-7.1.7.7,0,0,1,.3-6.915a.934.934,0,0,1,.195.685v3.76a.985.985,0,0,1-.185.7.693.693,0,0,1-.5.18A.729.729,0,0,1-.71-1.77a.949.949,0,0,1-.2-.7ZM7.675.87A4.89,4.89,0,0,1,6.515.745,2.2,2.2,0,0,1,5.65.335,1.842,1.842,0,0,1,5.105-.4a2.828,2.828,0,0,1-.19-1.1V-4.45a2.828,2.828,0,0,1,.19-1.1,1.842,1.842,0,0,1,.545-.735,2.2,2.2,0,0,1,.865-.41,4.89,4.89,0,0,1,1.16-.125,4.726,4.726,0,0,1,1.155.13,2.3,2.3,0,0,1,.88.42,1.877,1.877,0,0,1,.56.745,2.8,2.8,0,0,1,.2,1.105V-1.5a2.9,2.9,0,0,1-.22,1.09,1.906,1.906,0,0,1-.56.735,2.3,2.3,0,0,1-.87.415A4.619,4.619,0,0,1,7.675.87Zm1.05-5.31a2.793,2.793,0,0,0-.06-.52A.817.817,0,0,0,8.5-5.315a.677.677,0,0,0-.315-.2,1.68,1.68,0,0,0-.51-.065,1.721,1.721,0,0,0-.52.065.628.628,0,0,0-.31.2.846.846,0,0,0-.155.355,2.549,2.549,0,0,0-.045.515v2.95a2.491,2.491,0,0,0,.045.5.806.806,0,0,0,.155.35.644.644,0,0,0,.31.2,1.721,1.721,0,0,0,.52.065A1.008,1.008,0,0,0,8.51-.65a1.368,1.368,0,0,0,.215-.84Zm7.65,4.01a.672.672,0,0,1,.54.19.676.676,0,0,1,.16.45.744.744,0,0,1-.03.2.5.5,0,0,1-.11.2.618.618,0,0,1-.215.15.854.854,0,0,1-.345.06h-3.99A.749.749,0,0,1,11.77.57a.861.861,0,0,1-.2-.56,1.014,1.014,0,0,1,.18-.52,6.427,6.427,0,0,1,.76-.85q.47-.45.96-.89.36-.32.685-.625a6.7,6.7,0,0,0,.57-.6,3.486,3.486,0,0,0,.395-.575,1.159,1.159,0,0,0,.15-.55,2.167,2.167,0,0,0-.025-.325.772.772,0,0,0-.115-.3.676.676,0,0,0-.26-.23.989.989,0,0,0-.46-.09,1.526,1.526,0,0,0-.39.05,1,1,0,0,0-.33.15.741.741,0,0,0-.225.26.777.777,0,0,0-.085.37.5.5,0,0,1-.2.4.888.888,0,0,1-.585.165,1.142,1.142,0,0,1-.305-.04.784.784,0,0,1-.26-.125.617.617,0,0,1-.185-.225.754.754,0,0,1-.07-.34,1.5,1.5,0,0,1,.215-.8,2.039,2.039,0,0,1,.575-.61,2.733,2.733,0,0,1,.825-.39,3.444,3.444,0,0,1,.965-.135,3.627,3.627,0,0,1,1.1.155,2.347,2.347,0,0,1,.815.435,1.865,1.865,0,0,1,.5.675,2.137,2.137,0,0,1,.175.875,2.188,2.188,0,0,1-.155.825,3.4,3.4,0,0,1-.42.745,5.746,5.746,0,0,1-.625.71q-.36.35-.76.72-.32.29-.645.58a7.4,7.4,0,0,0-.655.67Z" transform="translate(-3694 18963)"/>
    <path id="하이라이트" class="cls-3" d="M0,0H115V11H0Z" transform="translate(-3752 18992)"/>
    <path id="패스_10676" data-name="패스 10676" class="cls-4" d="M-45.724-3V-.028H-42a2.249,2.249,0,0,1,.644.077.974.974,0,0,1,.392.21.668.668,0,0,1,.189.308,1.425,1.425,0,0,1,.049.385,1.269,1.269,0,0,1-.049.343.668.668,0,0,1-.189.308,1.039,1.039,0,0,1-.392.217A2.073,2.073,0,0,1-42,1.9h-9.73a2.073,2.073,0,0,1-.644-.084,1.039,1.039,0,0,1-.392-.217.668.668,0,0,1-.189-.308A1.269,1.269,0,0,1-53,.952a1.425,1.425,0,0,1,.049-.385.668.668,0,0,1,.189-.308.974.974,0,0,1,.392-.21,2.249,2.249,0,0,1,.644-.077h3.738V-3h-2.87a1.81,1.81,0,0,1-.616-.084.782.782,0,0,1-.343-.231.684.684,0,0,1-.147-.336,2.723,2.723,0,0,1-.028-.4V-8.582a1.138,1.138,0,0,1,.343-.959,1.277,1.277,0,0,1,.791-.259h7.938a1.538,1.538,0,0,1,.56.084.765.765,0,0,1,.322.224.725.725,0,0,1,.147.315,1.816,1.816,0,0,1,.035.357A1.579,1.579,0,0,1-41.9-8.5a.724.724,0,0,1-.147.308.879.879,0,0,1-.322.238,1.34,1.34,0,0,1-.56.1h-6.8v2.912h6.944a1.34,1.34,0,0,1,.56.1.879.879,0,0,1,.322.238.725.725,0,0,1,.147.315,1.622,1.622,0,0,1,.035.315,1.816,1.816,0,0,1-.035.357A.725.725,0,0,1-41.9-3.3a.765.765,0,0,1-.322.224,1.538,1.538,0,0,1-.56.084Zm5.908-5.768a1.425,1.425,0,0,1,.049-.385.625.625,0,0,1,.189-.3.964.964,0,0,1,.392-.2,2.462,2.462,0,0,1,.644-.07h4.158a2.462,2.462,0,0,1,.644.07.964.964,0,0,1,.392.2.625.625,0,0,1,.189.3,1.425,1.425,0,0,1,.049.385,1.2,1.2,0,0,1-.049.336.672.672,0,0,1-.189.3.974.974,0,0,1-.392.21,2.249,2.249,0,0,1-.644.077h-.784v.084a6.6,6.6,0,0,0,.084.938,2.667,2.667,0,0,0,.252.763,2.731,2.731,0,0,0,.511.686,6.786,6.786,0,0,0,.861.707,1.573,1.573,0,0,1,.6.728A.948.948,0,0,1-33-3.08a1.039,1.039,0,0,1-.371.357,1.088,1.088,0,0,1-.469.133,1.579,1.579,0,0,1-.322-.035.835.835,0,0,1-.322-.147,11.279,11.279,0,0,1-1.043-.9,8.254,8.254,0,0,1-.763-.854,8.8,8.8,0,0,1-.77.889,7.424,7.424,0,0,1-1.008.847,1.177,1.177,0,0,1-.392.189,2.145,2.145,0,0,1-.448.077A1.156,1.156,0,0,1-39.4-2.6a.856.856,0,0,1-.42-.378.948.948,0,0,1-.133-.854,1.574,1.574,0,0,1,.595-.728,7.339,7.339,0,0,0,.882-.721A3.242,3.242,0,0,0-37.912-6a2.95,2.95,0,0,0,.308-.8,4.875,4.875,0,0,0,.112-.959V-7.84h-1.05a2.249,2.249,0,0,1-.644-.077.974.974,0,0,1-.392-.21.672.672,0,0,1-.189-.3A1.2,1.2,0,0,1-39.816-8.764ZM-37,.294h7.588a2.073,2.073,0,0,1,.644.084A1.039,1.039,0,0,1-28.378.6.668.668,0,0,1-28.189.9a1.269,1.269,0,0,1,.049.343,1.425,1.425,0,0,1-.049.385.668.668,0,0,1-.189.308.974.974,0,0,1-.392.21,2.249,2.249,0,0,1-.644.077h-8.722a1.962,1.962,0,0,1-.616-.077.8.8,0,0,1-.343-.21.594.594,0,0,1-.147-.308,2.445,2.445,0,0,1-.028-.385V-.812a1.138,1.138,0,0,1,.343-.959,1.277,1.277,0,0,1,.791-.259,1.6,1.6,0,0,1,.427.056.865.865,0,0,1,.357.2A1.032,1.032,0,0,1-37.1-1.4a1.549,1.549,0,0,1,.1.588Zm6.062-5.432H-32.2a2.249,2.249,0,0,1-.644-.077.974.974,0,0,1-.392-.21.668.668,0,0,1-.189-.308,1.425,1.425,0,0,1-.049-.385,1.269,1.269,0,0,1,.049-.343.668.668,0,0,1,.189-.308,1.039,1.039,0,0,1,.392-.217A2.073,2.073,0,0,1-32.2-7.07h1.26V-8.722a1.138,1.138,0,0,1,.343-.959,1.277,1.277,0,0,1,.791-.259,1.6,1.6,0,0,1,.427.056.865.865,0,0,1,.357.2,1.032,1.032,0,0,1,.252.378,1.549,1.549,0,0,1,.1.588V-3a1.592,1.592,0,0,1-.1.6,1.032,1.032,0,0,1-.252.378.865.865,0,0,1-.357.2,1.6,1.6,0,0,1-.427.056,1.6,1.6,0,0,1-.427-.056.922.922,0,0,1-.364-.2.929.929,0,0,1-.252-.378A1.7,1.7,0,0,1-30.94-3Zm6.51,2.716a.664.664,0,0,1-.1.371.938.938,0,0,1-.259.266,1.1,1.1,0,0,1-.336.154,1.257,1.257,0,0,1-.322.049,1.284,1.284,0,0,1-.735-.2.745.745,0,0,1-.315-.637l-.21-6.118a1.061,1.061,0,0,1,.287-.777,1.263,1.263,0,0,1,.973-.329,1.25,1.25,0,0,1,.945.329,1.086,1.086,0,0,1,.315.777ZM-26.824.252a1.044,1.044,0,0,0,.4.889,1.592,1.592,0,0,0,.987.3,1.622,1.622,0,0,0,.994-.3,1.037,1.037,0,0,0,.406-.889,1.056,1.056,0,0,0-.406-.9,1.6,1.6,0,0,0-.994-.308,1.567,1.567,0,0,0-.987.308A1.063,1.063,0,0,0-26.824.252ZM-15.96.476V.924h7.084a3.475,3.475,0,0,1,.644.049,1.118,1.118,0,0,1,.392.14.456.456,0,0,1,.189.224.866.866,0,0,1,.049.3.959.959,0,0,1-.049.329.423.423,0,0,1-.189.217,1.136,1.136,0,0,1-.392.126,4.042,4.042,0,0,1-.644.042h-8.218A2.658,2.658,0,0,1-17.71,2.3a.762.762,0,0,1-.343-.168.478.478,0,0,1-.147-.273,2.091,2.091,0,0,1-.028-.357V-.042a1.068,1.068,0,0,1,.035-.273.5.5,0,0,1,.147-.238.8.8,0,0,1,.322-.168,2.011,2.011,0,0,1,.56-.063h6.986V-1.19H-17.29a1.236,1.236,0,0,1-.784-.175.668.668,0,0,1-.2-.525.671.671,0,0,1,.2-.483,1.107,1.107,0,0,1,.784-.2H-14.2v-.588h-4.1a1.206,1.206,0,0,1-.707-.161.627.627,0,0,1-.217-.539.627.627,0,0,1,.217-.5A1.068,1.068,0,0,1-18.3-4.55H-7.84a1.068,1.068,0,0,1,.707.189.627.627,0,0,1,.217.5.627.627,0,0,1-.217.539,1.206,1.206,0,0,1-.707.161h-4.088v.588H-8.96a1.615,1.615,0,0,1,.546.077.877.877,0,0,1,.322.189.538.538,0,0,1,.147.252,1.151,1.151,0,0,1,.035.28V-.252a.719.719,0,0,1-.2.532,1.3,1.3,0,0,1-.868.2Zm0-7.322V-6.4h7.224q1.134,0,1.134.672a.541.541,0,0,1-.273.532,1.986,1.986,0,0,1-.861.14h-8.358a2.373,2.373,0,0,1-.616-.063.816.816,0,0,1-.343-.175.482.482,0,0,1-.147-.28,2.217,2.217,0,0,1-.028-.364V-7.294a1.068,1.068,0,0,1,.035-.273.5.5,0,0,1,.147-.238.8.8,0,0,1,.322-.168,2.011,2.011,0,0,1,.56-.063h6.986v-.406h-7.168a1.131,1.131,0,0,1-.707-.175.634.634,0,0,1-.217-.525.684.684,0,0,1,.217-.5.971.971,0,0,1,.707-.217H-8.96a1.615,1.615,0,0,1,.546.077.877.877,0,0,1,.322.189.538.538,0,0,1,.147.252,1.151,1.151,0,0,1,.035.28v1.442a.794.794,0,0,1-.2.553,1.209,1.209,0,0,1-.868.217Zm11.9,2.058h2.044a2.462,2.462,0,0,1,.644.07,1.024,1.024,0,0,1,.392.189.589.589,0,0,1,.189.28,1.124,1.124,0,0,1,.049.329,1.349,1.349,0,0,1-.049.378.586.586,0,0,1-.189.287,1.024,1.024,0,0,1-.392.189A2.462,2.462,0,0,1-2.016-3h-2.9a2.147,2.147,0,0,1-.616-.07.825.825,0,0,1-.343-.189.516.516,0,0,1-.147-.287,2.313,2.313,0,0,1-.028-.378V-6.174a3.8,3.8,0,0,1,.028-.483.71.71,0,0,1,.147-.364.735.735,0,0,1,.343-.224,1.962,1.962,0,0,1,.616-.077h1.428v-.672H-4.774a2.462,2.462,0,0,1-.644-.07.964.964,0,0,1-.392-.2A.631.631,0,0,1-6-8.547a1.124,1.124,0,0,1-.049-.329A1.349,1.349,0,0,1-6-9.254a.628.628,0,0,1,.189-.294.964.964,0,0,1,.392-.2,2.462,2.462,0,0,1,.644-.07h2.282a1.962,1.962,0,0,1,.616.077.8.8,0,0,1,.343.21.594.594,0,0,1,.147.308,2.445,2.445,0,0,1,.028.385v2.128a3.8,3.8,0,0,1-.028.483.71.71,0,0,1-.147.364.735.735,0,0,1-.343.224,1.962,1.962,0,0,1-.616.077H-4.06ZM1.008-1.582a1.071,1.071,0,0,0,.3.756,2.533,2.533,0,0,0,.77.546A5.016,5.016,0,0,0,3.136.077,7.864,7.864,0,0,0,4.312.252,1.153,1.153,0,0,1,5.124.6a1,1,0,0,1,.2.833,1.034,1.034,0,0,1-.161.448.915.915,0,0,1-.287.266,1.006,1.006,0,0,1-.378.126,2.109,2.109,0,0,1-.42.014A8.859,8.859,0,0,1,1.82,1.8,5.877,5.877,0,0,1-.056.728a5,5,0,0,1-.9.609A6.94,6.94,0,0,1-2.037,1.8a10.488,10.488,0,0,1-1.169.315,8.9,8.9,0,0,1-1.19.168,2.109,2.109,0,0,1-.42-.014,1.006,1.006,0,0,1-.378-.126.915.915,0,0,1-.287-.266,1.034,1.034,0,0,1-.161-.448A1,1,0,0,1-5.446.6,1.153,1.153,0,0,1-4.634.252a9.452,9.452,0,0,0,1.2-.161A5,5,0,0,0-2.373-.238,2.223,2.223,0,0,0-1.61-.777,1.184,1.184,0,0,0-1.316-1.6v-.028a.738.738,0,0,1,.308-.623,1.4,1.4,0,0,1,.854-.231A1.4,1.4,0,0,1,.7-2.247a.738.738,0,0,1,.308.623ZM.616-5.544H.084a2.032,2.032,0,0,1-.623-.077A.815.815,0,0,1-.9-5.838a.657.657,0,0,1-.161-.315,1.967,1.967,0,0,1-.035-.385,1.746,1.746,0,0,1,.035-.343A.657.657,0,0,1-.9-7.2.869.869,0,0,1-.539-7.42,1.873,1.873,0,0,1,.084-7.5H.616V-8.722a1.331,1.331,0,0,1,.266-.959A.98.98,0,0,1,1.6-9.94a.985.985,0,0,1,.707.259,1.308,1.308,0,0,1,.273.959v4.564a1.379,1.379,0,0,1-.259.98.971.971,0,0,1-.707.252,1.021,1.021,0,0,1-.721-.252,1.329,1.329,0,0,1-.273-.98ZM3.43-8.722A1.331,1.331,0,0,1,3.7-9.681.98.98,0,0,1,4.41-9.94a.985.985,0,0,1,.707.259,1.308,1.308,0,0,1,.273.959v5.264a1.379,1.379,0,0,1-.259.98.971.971,0,0,1-.707.252A1.021,1.021,0,0,1,3.7-2.478a1.329,1.329,0,0,1-.273-.98ZM13.65.294h6.9A2.073,2.073,0,0,1,21.2.378,1.039,1.039,0,0,1,21.588.6.668.668,0,0,1,21.777.9a1.269,1.269,0,0,1,.049.343,1.425,1.425,0,0,1-.049.385.668.668,0,0,1-.189.308.974.974,0,0,1-.392.21,2.249,2.249,0,0,1-.644.077H12.516a1.962,1.962,0,0,1-.616-.077.8.8,0,0,1-.343-.21.594.594,0,0,1-.147-.308,2.445,2.445,0,0,1-.028-.385V-.2a1.329,1.329,0,0,1,.112-.581.957.957,0,0,1,.294-.364,1.163,1.163,0,0,1,.4-.189,1.7,1.7,0,0,1,.427-.056,1.134,1.134,0,0,1,.728.245A1.163,1.163,0,0,1,13.65-.2Zm5.53-9.016a1.138,1.138,0,0,1,.343-.959,1.277,1.277,0,0,1,.791-.259,1.6,1.6,0,0,1,.427.056.865.865,0,0,1,.357.2,1.032,1.032,0,0,1,.252.378,1.549,1.549,0,0,1,.1.588v2.254h.882a2.073,2.073,0,0,1,.644.084,1.039,1.039,0,0,1,.392.217.668.668,0,0,1,.189.308,1.269,1.269,0,0,1,.049.343,1.425,1.425,0,0,1-.049.385.668.668,0,0,1-.189.308.974.974,0,0,1-.392.21,2.249,2.249,0,0,1-.644.077h-.882v2.114a1.592,1.592,0,0,1-.1.6,1.032,1.032,0,0,1-.252.378.865.865,0,0,1-.357.2,1.6,1.6,0,0,1-.427.056,1.6,1.6,0,0,1-.427-.056.922.922,0,0,1-.364-.2.929.929,0,0,1-.252-.378,1.7,1.7,0,0,1-.091-.6ZM11.186-3.766a1.875,1.875,0,0,1,.728-1.68,4.165,4.165,0,0,1,2.282-.49,4.165,4.165,0,0,1,2.282.49,1.875,1.875,0,0,1,.728,1.68,2.648,2.648,0,0,1-.182,1.05,1.458,1.458,0,0,1-.546.658,2.461,2.461,0,0,1-.938.336,8.082,8.082,0,0,1-1.344.1,4.214,4.214,0,0,1-2.282-.483A1.841,1.841,0,0,1,11.186-3.766Zm-.56-3.444a1.205,1.205,0,0,1,.049-.364.515.515,0,0,1,.189-.259,1.023,1.023,0,0,1,.392-.161A3.052,3.052,0,0,1,11.9-8.05h4.592a3.052,3.052,0,0,1,.644.056,1.023,1.023,0,0,1,.392.161.515.515,0,0,1,.189.259,1.205,1.205,0,0,1,.049.364.99.99,0,0,1-.049.315.482.482,0,0,1-.189.245,1.106,1.106,0,0,1-.392.154,3.052,3.052,0,0,1-.644.056H11.9a3.052,3.052,0,0,1-.644-.056,1.106,1.106,0,0,1-.392-.154.482.482,0,0,1-.189-.245A.99.99,0,0,1,10.626-7.21Zm.882-2.058a.665.665,0,0,1,.245-.581,1.989,1.989,0,0,1,1.029-.175H15.61a1.989,1.989,0,0,1,1.029.175.665.665,0,0,1,.245.581.641.641,0,0,1-.245.539,1.863,1.863,0,0,1-1.029.189H12.782a1.863,1.863,0,0,1-1.029-.189A.641.641,0,0,1,11.508-9.268Zm1.862,5.5a.587.587,0,0,0,.154.434,1,1,0,0,0,.672.154,1,1,0,0,0,.679-.154.6.6,0,0,0,.147-.434.6.6,0,0,0-.147-.434,1,1,0,0,0-.679-.154,1,1,0,0,0-.672.154A.587.587,0,0,0,13.37-3.766ZM26.376-7.644H27.86v-.938a1.138,1.138,0,0,1,.343-.959,1.277,1.277,0,0,1,.791-.259,1.449,1.449,0,0,1,.413.056.819.819,0,0,1,.336.2.946.946,0,0,1,.231.378,1.782,1.782,0,0,1,.084.588v5.1a2.445,2.445,0,0,1-.028.385.594.594,0,0,1-.147.308.8.8,0,0,1-.343.21,1.962,1.962,0,0,1-.616.077H25.312a1.962,1.962,0,0,1-.616-.077.8.8,0,0,1-.343-.21.594.594,0,0,1-.147-.308,2.445,2.445,0,0,1-.028-.385v-5.1a1.21,1.21,0,0,1,.308-.959,1.135,1.135,0,0,1,.756-.259,1.6,1.6,0,0,1,.427.056.865.865,0,0,1,.357.2,1.032,1.032,0,0,1,.252.378,1.549,1.549,0,0,1,.1.588ZM26.838.294h7.5a2.073,2.073,0,0,1,.644.084A1.039,1.039,0,0,1,35.378.6.668.668,0,0,1,35.567.9a1.269,1.269,0,0,1,.049.343,1.425,1.425,0,0,1-.049.385.668.668,0,0,1-.189.308.974.974,0,0,1-.392.21,2.249,2.249,0,0,1-.644.077H25.7a1.962,1.962,0,0,1-.616-.077.8.8,0,0,1-.343-.21.594.594,0,0,1-.147-.308,2.445,2.445,0,0,1-.028-.385V-.644a1.138,1.138,0,0,1,.343-.959,1.277,1.277,0,0,1,.791-.259,1.6,1.6,0,0,1,.427.056.865.865,0,0,1,.357.2,1.032,1.032,0,0,1,.252.378,1.549,1.549,0,0,1,.1.588Zm6.02-5.488H31.822a2.1,2.1,0,0,1-.63-.077.87.87,0,0,1-.371-.217.684.684,0,0,1-.175-.315,1.65,1.65,0,0,1-.042-.385,1.467,1.467,0,0,1,.042-.343.684.684,0,0,1,.175-.315.927.927,0,0,1,.371-.224,1.938,1.938,0,0,1,.63-.084h1.036V-8.722a1.138,1.138,0,0,1,.343-.959,1.277,1.277,0,0,1,.791-.259,1.6,1.6,0,0,1,.427.056.865.865,0,0,1,.357.2,1.032,1.032,0,0,1,.252.378,1.549,1.549,0,0,1,.1.588V-2.87a1.592,1.592,0,0,1-.1.6,1.032,1.032,0,0,1-.252.378.865.865,0,0,1-.357.2,1.6,1.6,0,0,1-.427.056,1.6,1.6,0,0,1-.427-.056.922.922,0,0,1-.364-.2.929.929,0,0,1-.252-.378,1.7,1.7,0,0,1-.091-.6Zm-5-.658H26.376V-4.3H27.86ZM43.722-.21h2.184a2.073,2.073,0,0,1,.644.084,1.039,1.039,0,0,1,.392.217A.668.668,0,0,1,47.131.4a1.269,1.269,0,0,1,.049.343,1.425,1.425,0,0,1-.049.385.668.668,0,0,1-.189.308.974.974,0,0,1-.392.21,2.249,2.249,0,0,1-.644.077H42.588a1.962,1.962,0,0,1-.616-.077.8.8,0,0,1-.343-.21.594.594,0,0,1-.147-.308,2.445,2.445,0,0,1-.028-.385V-8.722a2.723,2.723,0,0,1,.028-.4.727.727,0,0,1,.147-.343.8.8,0,0,1,.343-.245,1.681,1.681,0,0,1,.616-.091h3.038a2.249,2.249,0,0,1,.644.077.974.974,0,0,1,.392.21.668.668,0,0,1,.189.308,1.425,1.425,0,0,1,.049.385,1.269,1.269,0,0,1-.049.343.668.668,0,0,1-.189.308,1.039,1.039,0,0,1-.392.217,2.073,2.073,0,0,1-.644.084h-1.9ZM49.91-3.262H47.642a2.1,2.1,0,0,1-.63-.077.87.87,0,0,1-.371-.217.684.684,0,0,1-.175-.315,1.65,1.65,0,0,1-.042-.385,1.467,1.467,0,0,1,.042-.343.684.684,0,0,1,.175-.315.927.927,0,0,1,.371-.224,1.938,1.938,0,0,1,.63-.084H49.91v-3.5a1.138,1.138,0,0,1,.343-.959,1.277,1.277,0,0,1,.791-.259,1.6,1.6,0,0,1,.427.056.865.865,0,0,1,.357.2,1.032,1.032,0,0,1,.252.378,1.549,1.549,0,0,1,.1.588V.84a1.592,1.592,0,0,1-.1.6,1.032,1.032,0,0,1-.252.378.865.865,0,0,1-.357.2,1.656,1.656,0,0,1-.854,0A.9.9,0,0,1,50,1.442a1.7,1.7,0,0,1-.091-.6Z" transform="translate(-3694 18996)"/>
  </g>
</svg>
