<svg xmlns="http://www.w3.org/2000/svg" xmlns:xlink="http://www.w3.org/1999/xlink" width="135" height="59.5" viewBox="0 0 135 59.5">
  <defs>
    <style>
      .cls-1 {
        fill: #ffb42a;
      }

      .cls-2 {
        fill: #fff;
      }

      .cls-3 {
        fill: #b2e093;
        opacity: 0.645;
      }

      .cls-4 {
        fill: #131313;
      }

      .cls-5 {
        filter: url(#룰렛01);
      }
    </style>
    <filter id="룰렛01" x="34.5" y="0" width="69" height="35" filterUnits="userSpaceOnUse">
      <feOffset dy="1" input="SourceAlpha"/>
      <feGaussianBlur stdDeviation="2.5" result="blur"/>
      <feFlood flood-opacity="0.102"/>
      <feComposite operator="in" in2="blur"/>
      <feComposite in="SourceGraphic"/>
    </filter>
  </defs>
  <g id="그룹_9795" data-name="그룹 9795" transform="translate(3948 -18881.5)">
    <g class="cls-5" transform="matrix(1, 0, 0, 1, -3948, 18881.5)">
      <path id="룰렛01-2" data-name="룰렛01" class="cls-1" d="M10,0H44a10,10,0,0,1,0,20H10A10,10,0,0,1,10,0Z" transform="translate(42 6.5)"/>
    </g>
    <path id="패스_10673" data-name="패스 10673" class="cls-2" d="M-14.215.34V.66h5.06A2.482,2.482,0,0,1-8.7.695a.8.8,0,0,1,.28.1.325.325,0,0,1,.135.16.619.619,0,0,1,.035.215A.685.685,0,0,1-8.28,1.4a.3.3,0,0,1-.135.155.812.812,0,0,1-.28.09,2.887,2.887,0,0,1-.46.03h-5.87a1.9,1.9,0,0,1-.44-.04.544.544,0,0,1-.245-.12.341.341,0,0,1-.105-.2,1.494,1.494,0,0,1-.02-.255V-.03a.763.763,0,0,1,.025-.2A.355.355,0,0,1-15.7-.4a.573.573,0,0,1,.23-.12,1.437,1.437,0,0,1,.4-.045h4.99V-.85h-5.08a.883.883,0,0,1-.56-.125.477.477,0,0,1-.14-.375.48.48,0,0,1,.14-.345.79.79,0,0,1,.56-.145h2.21v-.42h-2.93a.862.862,0,0,1-.505-.115.448.448,0,0,1-.155-.385.448.448,0,0,1,.155-.355.763.763,0,0,1,.505-.135h7.47a.763.763,0,0,1,.505.135.448.448,0,0,1,.155.355.448.448,0,0,1-.155.385.862.862,0,0,1-.505.115h-2.92v.42h2.12a1.153,1.153,0,0,1,.39.055.626.626,0,0,1,.23.135.384.384,0,0,1,.1.18.822.822,0,0,1,.025.2V-.18a.513.513,0,0,1-.14.38.931.931,0,0,1-.62.14Zm0-5.23v.32h5.16q.81,0,.81.48a.387.387,0,0,1-.195.38,1.418,1.418,0,0,1-.615.1h-5.97a1.7,1.7,0,0,1-.44-.045.583.583,0,0,1-.245-.125.345.345,0,0,1-.105-.2,1.584,1.584,0,0,1-.02-.26v-.97A.763.763,0,0,1-15.81-5.4a.355.355,0,0,1,.105-.17.573.573,0,0,1,.23-.12,1.437,1.437,0,0,1,.4-.045h4.99v-.29H-15.2a.808.808,0,0,1-.505-.125.453.453,0,0,1-.155-.375.488.488,0,0,1,.155-.355A.694.694,0,0,1-15.2-7.04h5.99a1.153,1.153,0,0,1,.39.055.626.626,0,0,1,.23.135.384.384,0,0,1,.1.18.822.822,0,0,1,.025.2v1.03a.567.567,0,0,1-.14.4.863.863,0,0,1-.62.155Zm8.6,1.47h1.46a1.759,1.759,0,0,1,.46.05.731.731,0,0,1,.28.135.421.421,0,0,1,.135.2.8.8,0,0,1,.035.235.964.964,0,0,1-.035.27.419.419,0,0,1-.135.2.731.731,0,0,1-.28.135,1.759,1.759,0,0,1-.46.05h-2.07a1.533,1.533,0,0,1-.44-.05.589.589,0,0,1-.245-.135.369.369,0,0,1-.105-.2,1.652,1.652,0,0,1-.02-.27V-4.41a2.711,2.711,0,0,1,.02-.345.507.507,0,0,1,.105-.26.525.525,0,0,1,.245-.16,1.4,1.4,0,0,1,.44-.055h1.02v-.48h-.92a1.759,1.759,0,0,1-.46-.05.689.689,0,0,1-.28-.14A.451.451,0,0,1-7-6.1a.8.8,0,0,1-.035-.235A.964.964,0,0,1-7-6.61a.448.448,0,0,1,.135-.21.689.689,0,0,1,.28-.14,1.759,1.759,0,0,1,.46-.05H-4.5a1.4,1.4,0,0,1,.44.055.569.569,0,0,1,.245.15.424.424,0,0,1,.105.22,1.746,1.746,0,0,1,.02.275v1.52a2.711,2.711,0,0,1-.02.345.507.507,0,0,1-.105.26.525.525,0,0,1-.245.16,1.4,1.4,0,0,1-.44.055h-1.12ZM-2-1.13a.765.765,0,0,0,.215.54,1.809,1.809,0,0,0,.55.39A3.583,3.583,0,0,0-.475.055,5.617,5.617,0,0,0,.365.18a.824.824,0,0,1,.58.245.718.718,0,0,1,.14.595.738.738,0,0,1-.115.32.653.653,0,0,1-.2.19.718.718,0,0,1-.27.09,1.506,1.506,0,0,1-.3.01,6.328,6.328,0,0,1-1.61-.345A4.2,4.2,0,0,1-2.755.52,3.575,3.575,0,0,1-3.4.955a4.957,4.957,0,0,1-.77.33,7.491,7.491,0,0,1-.835.225,6.358,6.358,0,0,1-.85.12,1.506,1.506,0,0,1-.3-.01.718.718,0,0,1-.27-.09.653.653,0,0,1-.205-.19.738.738,0,0,1-.115-.32.718.718,0,0,1,.14-.595A.824.824,0,0,1-6.025.18,6.751,6.751,0,0,0-5.17.065,3.573,3.573,0,0,0-4.41-.17a1.588,1.588,0,0,0,.545-.385.846.846,0,0,0,.21-.585v-.02a.527.527,0,0,1,.22-.445,1,1,0,0,1,.61-.165,1,1,0,0,1,.61.165A.527.527,0,0,1-2-1.16Zm-.28-2.83h-.38A1.451,1.451,0,0,1-3.1-4.015a.582.582,0,0,1-.255-.155.47.47,0,0,1-.115-.225A1.4,1.4,0,0,1-3.5-4.67a1.247,1.247,0,0,1,.025-.245.47.47,0,0,1,.115-.225A.621.621,0,0,1-3.1-5.3a1.338,1.338,0,0,1,.445-.06h.38v-.87a.951.951,0,0,1,.19-.685.7.7,0,0,1,.51-.185.7.7,0,0,1,.5.185.934.934,0,0,1,.2.685v3.26a.985.985,0,0,1-.185.7.693.693,0,0,1-.5.18.729.729,0,0,1-.515-.18.949.949,0,0,1-.195-.7Zm2.01-2.27a.951.951,0,0,1,.19-.685A.7.7,0,0,1,.435-7.1a.7.7,0,0,1,.505.185.934.934,0,0,1,.195.685v3.76a.985.985,0,0,1-.185.7.693.693,0,0,1-.5.18A.729.729,0,0,1-.07-1.77a.949.949,0,0,1-.2-.7ZM8.315.87A4.89,4.89,0,0,1,7.155.745,2.2,2.2,0,0,1,6.29.335,1.842,1.842,0,0,1,5.745-.4a2.828,2.828,0,0,1-.19-1.1V-4.45a2.828,2.828,0,0,1,.19-1.1,1.842,1.842,0,0,1,.545-.735,2.2,2.2,0,0,1,.865-.41,4.89,4.89,0,0,1,1.16-.125,4.726,4.726,0,0,1,1.155.13,2.3,2.3,0,0,1,.88.42,1.877,1.877,0,0,1,.56.745,2.8,2.8,0,0,1,.2,1.105V-1.5a2.9,2.9,0,0,1-.22,1.09,1.906,1.906,0,0,1-.56.735,2.3,2.3,0,0,1-.87.415A4.619,4.619,0,0,1,8.315.87Zm1.05-5.31a2.793,2.793,0,0,0-.06-.52.817.817,0,0,0-.165-.355.677.677,0,0,0-.315-.2,1.68,1.68,0,0,0-.51-.065,1.721,1.721,0,0,0-.52.065.628.628,0,0,0-.31.2.846.846,0,0,0-.155.355,2.549,2.549,0,0,0-.045.515v2.95a2.491,2.491,0,0,0,.045.5.806.806,0,0,0,.155.35.644.644,0,0,0,.31.2,1.721,1.721,0,0,0,.52.065A1.008,1.008,0,0,0,9.15-.65a1.368,1.368,0,0,0,.215-.84Zm4.36-.45q-.11.08-.225.155a2.575,2.575,0,0,1-.255.145,1.756,1.756,0,0,1-.265.105.974.974,0,0,1-.29.045.735.735,0,0,1-.28-.055.484.484,0,0,1-.225-.2.6.6,0,0,1-.115-.545.728.728,0,0,1,.345-.405l1.63-.95a.727.727,0,0,1,.26-.125,1.177,1.177,0,0,1,.32-.045.983.983,0,0,1,.59.18.643.643,0,0,1,.25.56V.05A.661.661,0,0,1,15.2.64a1.035,1.035,0,0,1-.6.18A1.16,1.16,0,0,1,14.28.775.85.85,0,0,1,14,.635.7.7,0,0,1,13.8.4.742.742,0,0,1,13.725.05Z" transform="translate(-3879 18901)"/>
    <path id="하이라이트" class="cls-3" d="M0,0H135V11H0Z" transform="translate(-3948 18930)"/>
    <path id="패스_10674" data-name="패스 10674" class="cls-4" d="M-60.578-5.082a4.043,4.043,0,0,1,1.316.189,2.23,2.23,0,0,1,.9.553,2.378,2.378,0,0,1,.532.9,4.733,4.733,0,0,1,.224,1.225V-.8a3.019,3.019,0,0,1-.707,2.114,3.057,3.057,0,0,1-2.261.7,4.345,4.345,0,0,1-1.358-.182,2.149,2.149,0,0,1-.889-.539,2.233,2.233,0,0,1-.511-.882A4.984,4.984,0,0,1-63.546-.8V-2.212a5.386,5.386,0,0,1,.2-1.232,2.221,2.221,0,0,1,.5-.9,2.171,2.171,0,0,1,.889-.553A4.248,4.248,0,0,1-60.578-5.082Zm4.844-3.64a1.138,1.138,0,0,1,.343-.959A1.277,1.277,0,0,1-54.6-9.94a1.6,1.6,0,0,1,.427.056.865.865,0,0,1,.357.2,1.032,1.032,0,0,1,.252.378,1.549,1.549,0,0,1,.1.588V-5.1h.8a2.073,2.073,0,0,1,.644.084,1.039,1.039,0,0,1,.392.217.668.668,0,0,1,.189.308,1.269,1.269,0,0,1,.049.343,1.425,1.425,0,0,1-.049.385.668.668,0,0,1-.189.308.974.974,0,0,1-.392.21,2.249,2.249,0,0,1-.644.077h-.8v4a1.592,1.592,0,0,1-.1.6,1.032,1.032,0,0,1-.252.378.865.865,0,0,1-.357.2,1.6,1.6,0,0,1-.427.056,1.6,1.6,0,0,1-.427-.056.922.922,0,0,1-.364-.2.929.929,0,0,1-.252-.378,1.7,1.7,0,0,1-.091-.6Zm-8.512,2.156a1.349,1.349,0,0,1,.049-.378.627.627,0,0,1,.189-.294.964.964,0,0,1,.392-.2,2.462,2.462,0,0,1,.644-.07h4.592a2.462,2.462,0,0,1,.644.07.964.964,0,0,1,.392.2.628.628,0,0,1,.189.294,1.349,1.349,0,0,1,.049.378,1.2,1.2,0,0,1-.049.336.628.628,0,0,1-.189.294,1.03,1.03,0,0,1-.392.2,2.249,2.249,0,0,1-.644.077h-4.592a2.249,2.249,0,0,1-.644-.077,1.03,1.03,0,0,1-.392-.2A.627.627,0,0,1-64.2-6.23,1.2,1.2,0,0,1-64.246-6.566Zm.882-2.59a1.349,1.349,0,0,1,.049-.378.628.628,0,0,1,.189-.294.964.964,0,0,1,.392-.2,2.462,2.462,0,0,1,.644-.07h2.828a2.462,2.462,0,0,1,.644.07.964.964,0,0,1,.392.2.627.627,0,0,1,.189.294,1.349,1.349,0,0,1,.049.378,1.2,1.2,0,0,1-.049.336.627.627,0,0,1-.189.294,1.03,1.03,0,0,1-.392.2,2.249,2.249,0,0,1-.644.077H-62.09a2.249,2.249,0,0,1-.644-.077,1.03,1.03,0,0,1-.392-.2.628.628,0,0,1-.189-.294A1.2,1.2,0,0,1-63.364-9.156Zm3.486,6.846a1.487,1.487,0,0,0-.063-.476.622.622,0,0,0-.168-.273.522.522,0,0,0-.231-.119,1.1,1.1,0,0,0-.238-.028.817.817,0,0,0-.231.035.508.508,0,0,0-.217.133.79.79,0,0,0-.168.287,1.637,1.637,0,0,0-.084.483V-.756a1.531,1.531,0,0,0,.063.5.73.73,0,0,0,.161.273.406.406,0,0,0,.224.119,1.53,1.53,0,0,0,.252.021,1.329,1.329,0,0,0,.231-.021A.4.4,0,0,0-60.13.014a.8.8,0,0,0,.168-.273,1.575,1.575,0,0,0,.084-.5Zm10.892-.532a1.81,1.81,0,0,1-.616-.084.782.782,0,0,1-.343-.231.684.684,0,0,1-.147-.336,2.723,2.723,0,0,1-.028-.4V-6.076a1.6,1.6,0,0,1,.091-.581.877.877,0,0,1,.252-.364.893.893,0,0,1,.364-.182,1.814,1.814,0,0,1,.427-.049h6.93v-.672h-7a1.431,1.431,0,0,1-.56-.091.858.858,0,0,1-.322-.224.674.674,0,0,1-.147-.294,1.48,1.48,0,0,1-.035-.315,1.712,1.712,0,0,1,.035-.35.674.674,0,0,1,.147-.3.745.745,0,0,1,.322-.21,1.666,1.666,0,0,1,.56-.077h8.134a1.681,1.681,0,0,1,.616.091.8.8,0,0,1,.343.245.732.732,0,0,1,.147.35,2.869,2.869,0,0,1,.028.406V-6.58a1.282,1.282,0,0,1-.273.847,1,1,0,0,1-.819.329h-6.972v.7h7.224a1.431,1.431,0,0,1,.56.091.858.858,0,0,1,.322.224.674.674,0,0,1,.147.3,1.52,1.52,0,0,1,.035.308,1.712,1.712,0,0,1-.035.35.674.674,0,0,1-.147.3.745.745,0,0,1-.322.21,1.666,1.666,0,0,1-.56.077Zm-2.1,1.666a1.425,1.425,0,0,1,.049-.385.625.625,0,0,1,.189-.3.964.964,0,0,1,.392-.2,2.462,2.462,0,0,1,.644-.07h9.73a2.462,2.462,0,0,1,.644.07.964.964,0,0,1,.392.2.625.625,0,0,1,.189.3,1.425,1.425,0,0,1,.049.385,1.2,1.2,0,0,1-.049.336.672.672,0,0,1-.189.3,1.039,1.039,0,0,1-.392.217,2.073,2.073,0,0,1-.644.084h-3.724V.84a1.592,1.592,0,0,1-.1.6,1.032,1.032,0,0,1-.252.378.865.865,0,0,1-.357.2,1.6,1.6,0,0,1-.427.056,1.6,1.6,0,0,1-.427-.056.922.922,0,0,1-.364-.2.929.929,0,0,1-.252-.378,1.7,1.7,0,0,1-.091-.6V-.238h-3.738a2.073,2.073,0,0,1-.644-.084,1.039,1.039,0,0,1-.392-.217.672.672,0,0,1-.189-.3A1.2,1.2,0,0,1-51.086-1.176ZM-31.248.294h6.9A2.073,2.073,0,0,1-23.7.378,1.039,1.039,0,0,1-23.31.6.668.668,0,0,1-23.121.9a1.269,1.269,0,0,1,.049.343,1.425,1.425,0,0,1-.049.385.668.668,0,0,1-.189.308.974.974,0,0,1-.392.21,2.249,2.249,0,0,1-.644.077h-8.036A1.962,1.962,0,0,1-33,2.149a.8.8,0,0,1-.343-.21.594.594,0,0,1-.147-.308,2.445,2.445,0,0,1-.028-.385V-.2A1.329,1.329,0,0,1-33.4-.777a.957.957,0,0,1,.294-.364,1.163,1.163,0,0,1,.4-.189,1.7,1.7,0,0,1,.427-.056,1.134,1.134,0,0,1,.728.245,1.163,1.163,0,0,1,.308.945Zm5.53-9.016a1.138,1.138,0,0,1,.343-.959,1.277,1.277,0,0,1,.791-.259,1.6,1.6,0,0,1,.427.056.865.865,0,0,1,.357.2,1.032,1.032,0,0,1,.252.378,1.549,1.549,0,0,1,.1.588v2.254h.882a2.073,2.073,0,0,1,.644.084,1.039,1.039,0,0,1,.392.217.668.668,0,0,1,.189.308,1.269,1.269,0,0,1,.049.343,1.425,1.425,0,0,1-.049.385.668.668,0,0,1-.189.308.974.974,0,0,1-.392.21,2.249,2.249,0,0,1-.644.077h-.882v2.114a1.592,1.592,0,0,1-.1.6,1.032,1.032,0,0,1-.252.378.865.865,0,0,1-.357.2,1.6,1.6,0,0,1-.427.056,1.6,1.6,0,0,1-.427-.056.922.922,0,0,1-.364-.2.929.929,0,0,1-.252-.378,1.7,1.7,0,0,1-.091-.6Zm-7.994,4.956a1.875,1.875,0,0,1,.728-1.68,4.165,4.165,0,0,1,2.282-.49,4.165,4.165,0,0,1,2.282.49,1.875,1.875,0,0,1,.728,1.68,2.648,2.648,0,0,1-.182,1.05,1.458,1.458,0,0,1-.546.658,2.461,2.461,0,0,1-.938.336,8.082,8.082,0,0,1-1.344.1,4.214,4.214,0,0,1-2.282-.483A1.841,1.841,0,0,1-33.712-3.766Zm-.56-3.444a1.205,1.205,0,0,1,.049-.364.515.515,0,0,1,.189-.259,1.023,1.023,0,0,1,.392-.161A3.052,3.052,0,0,1-33-8.05h4.592a3.052,3.052,0,0,1,.644.056,1.023,1.023,0,0,1,.392.161.515.515,0,0,1,.189.259,1.205,1.205,0,0,1,.049.364.99.99,0,0,1-.049.315.482.482,0,0,1-.189.245,1.106,1.106,0,0,1-.392.154,3.052,3.052,0,0,1-.644.056H-33a3.052,3.052,0,0,1-.644-.056,1.106,1.106,0,0,1-.392-.154.482.482,0,0,1-.189-.245A.99.99,0,0,1-34.272-7.21Zm.882-2.058a.665.665,0,0,1,.245-.581,1.989,1.989,0,0,1,1.029-.175h2.828a1.989,1.989,0,0,1,1.029.175.665.665,0,0,1,.245.581.641.641,0,0,1-.245.539,1.863,1.863,0,0,1-1.029.189h-2.828a1.863,1.863,0,0,1-1.029-.189A.641.641,0,0,1-33.39-9.268Zm1.862,5.5a.587.587,0,0,0,.154.434,1,1,0,0,0,.672.154,1,1,0,0,0,.679-.154.6.6,0,0,0,.147-.434.6.6,0,0,0-.147-.434,1,1,0,0,0-.679-.154,1,1,0,0,0-.672.154A.587.587,0,0,0-31.528-3.766Zm13.006-3.878h1.484v-.938a1.138,1.138,0,0,1,.343-.959A1.277,1.277,0,0,1-15.9-9.8a1.449,1.449,0,0,1,.413.056.819.819,0,0,1,.336.2.946.946,0,0,1,.231.378,1.782,1.782,0,0,1,.084.588v5.1a2.445,2.445,0,0,1-.028.385.594.594,0,0,1-.147.308.8.8,0,0,1-.343.21,1.962,1.962,0,0,1-.616.077h-3.612a1.962,1.962,0,0,1-.616-.077.8.8,0,0,1-.343-.21.594.594,0,0,1-.147-.308,2.445,2.445,0,0,1-.028-.385v-5.1a1.21,1.21,0,0,1,.308-.959,1.135,1.135,0,0,1,.756-.259,1.6,1.6,0,0,1,.427.056.865.865,0,0,1,.357.2,1.032,1.032,0,0,1,.252.378,1.549,1.549,0,0,1,.1.588ZM-18.06.294h7.5a2.073,2.073,0,0,1,.644.084A1.039,1.039,0,0,1-9.52.6.668.668,0,0,1-9.331.9a1.269,1.269,0,0,1,.049.343,1.425,1.425,0,0,1-.049.385.668.668,0,0,1-.189.308.974.974,0,0,1-.392.21,2.249,2.249,0,0,1-.644.077h-8.638a1.962,1.962,0,0,1-.616-.077.8.8,0,0,1-.343-.21.594.594,0,0,1-.147-.308,2.445,2.445,0,0,1-.028-.385V-.644a1.138,1.138,0,0,1,.343-.959,1.277,1.277,0,0,1,.791-.259,1.6,1.6,0,0,1,.427.056.865.865,0,0,1,.357.2,1.032,1.032,0,0,1,.252.378,1.549,1.549,0,0,1,.1.588Zm6.02-5.488h-1.036a2.1,2.1,0,0,1-.63-.077.87.87,0,0,1-.371-.217.684.684,0,0,1-.175-.315,1.65,1.65,0,0,1-.042-.385,1.467,1.467,0,0,1,.042-.343.684.684,0,0,1,.175-.315.927.927,0,0,1,.371-.224,1.938,1.938,0,0,1,.63-.084h1.036V-8.722a1.138,1.138,0,0,1,.343-.959,1.277,1.277,0,0,1,.791-.259,1.6,1.6,0,0,1,.427.056.865.865,0,0,1,.357.2,1.032,1.032,0,0,1,.252.378,1.549,1.549,0,0,1,.1.588V-2.87a1.592,1.592,0,0,1-.1.6,1.032,1.032,0,0,1-.252.378.865.865,0,0,1-.357.2,1.6,1.6,0,0,1-.427.056,1.6,1.6,0,0,1-.427-.056.922.922,0,0,1-.364-.2.929.929,0,0,1-.252-.378,1.7,1.7,0,0,1-.091-.6Zm-5-.658h-1.484V-4.3h1.484ZM-.938.476V.924H6.146A3.475,3.475,0,0,1,6.79.973a1.118,1.118,0,0,1,.392.14.456.456,0,0,1,.189.224.866.866,0,0,1,.049.3.959.959,0,0,1-.049.329.423.423,0,0,1-.189.217,1.136,1.136,0,0,1-.392.126,4.042,4.042,0,0,1-.644.042H-2.072A2.658,2.658,0,0,1-2.688,2.3a.762.762,0,0,1-.343-.168.478.478,0,0,1-.147-.273A2.091,2.091,0,0,1-3.206,1.5V-.042a1.068,1.068,0,0,1,.035-.273.5.5,0,0,1,.147-.238A.8.8,0,0,1-2.7-.721a2.011,2.011,0,0,1,.56-.063H4.844V-1.19H-2.268a1.236,1.236,0,0,1-.784-.175.668.668,0,0,1-.2-.525.671.671,0,0,1,.2-.483,1.107,1.107,0,0,1,.784-.2H.826v-.588h-4.1a1.206,1.206,0,0,1-.707-.161A.627.627,0,0,1-4.2-3.864a.627.627,0,0,1,.217-.5,1.068,1.068,0,0,1,.707-.189H7.182a1.068,1.068,0,0,1,.707.189.627.627,0,0,1,.217.5.627.627,0,0,1-.217.539,1.206,1.206,0,0,1-.707.161H3.094v.588H6.062a1.615,1.615,0,0,1,.546.077.877.877,0,0,1,.322.189.538.538,0,0,1,.147.252,1.151,1.151,0,0,1,.035.28V-.252a.719.719,0,0,1-.2.532,1.3,1.3,0,0,1-.868.2Zm0-7.322V-6.4H6.286q1.134,0,1.134.672a.541.541,0,0,1-.273.532,1.986,1.986,0,0,1-.861.14H-2.072a2.373,2.373,0,0,1-.616-.063.816.816,0,0,1-.343-.175.482.482,0,0,1-.147-.28,2.218,2.218,0,0,1-.028-.364V-7.294a1.068,1.068,0,0,1,.035-.273.5.5,0,0,1,.147-.238A.8.8,0,0,1-2.7-7.973a2.011,2.011,0,0,1,.56-.063H4.844v-.406H-2.324a1.131,1.131,0,0,1-.707-.175.634.634,0,0,1-.217-.525.684.684,0,0,1,.217-.5.971.971,0,0,1,.707-.217H6.062a1.615,1.615,0,0,1,.546.077.877.877,0,0,1,.322.189.538.538,0,0,1,.147.252,1.151,1.151,0,0,1,.035.28v1.442a.794.794,0,0,1-.2.553,1.209,1.209,0,0,1-.868.217Zm11.9,2.058h2.044a2.462,2.462,0,0,1,.644.07,1.024,1.024,0,0,1,.392.189.589.589,0,0,1,.189.28,1.124,1.124,0,0,1,.049.329,1.349,1.349,0,0,1-.049.378.586.586,0,0,1-.189.287,1.024,1.024,0,0,1-.392.189,2.462,2.462,0,0,1-.644.07h-2.9a2.147,2.147,0,0,1-.616-.07.825.825,0,0,1-.343-.189A.516.516,0,0,1,9-3.542a2.313,2.313,0,0,1-.028-.378V-6.174A3.8,3.8,0,0,1,9-6.657a.71.71,0,0,1,.147-.364.735.735,0,0,1,.343-.224,1.962,1.962,0,0,1,.616-.077h1.428v-.672H10.248a2.462,2.462,0,0,1-.644-.07.964.964,0,0,1-.392-.2.631.631,0,0,1-.189-.287,1.124,1.124,0,0,1-.049-.329,1.349,1.349,0,0,1,.049-.378.628.628,0,0,1,.189-.294.964.964,0,0,1,.392-.2,2.462,2.462,0,0,1,.644-.07H12.53a1.962,1.962,0,0,1,.616.077.8.8,0,0,1,.343.21.594.594,0,0,1,.147.308,2.445,2.445,0,0,1,.028.385v2.128a3.8,3.8,0,0,1-.028.483.71.71,0,0,1-.147.364.735.735,0,0,1-.343.224,1.962,1.962,0,0,1-.616.077H10.962ZM16.03-1.582a1.071,1.071,0,0,0,.3.756,2.533,2.533,0,0,0,.77.546,5.016,5.016,0,0,0,1.057.357,7.864,7.864,0,0,0,1.176.175A1.153,1.153,0,0,1,20.146.6a1,1,0,0,1,.2.833,1.034,1.034,0,0,1-.161.448.915.915,0,0,1-.287.266,1.006,1.006,0,0,1-.378.126,2.109,2.109,0,0,1-.42.014A8.859,8.859,0,0,1,16.842,1.8,5.877,5.877,0,0,1,14.966.728a5,5,0,0,1-.9.609,6.94,6.94,0,0,1-1.078.462,10.488,10.488,0,0,1-1.169.315,8.9,8.9,0,0,1-1.19.168,2.109,2.109,0,0,1-.42-.014,1.006,1.006,0,0,1-.378-.126.915.915,0,0,1-.287-.266,1.034,1.034,0,0,1-.161-.448A1,1,0,0,1,9.576.6a1.153,1.153,0,0,1,.812-.343,9.452,9.452,0,0,0,1.2-.161,5,5,0,0,0,1.064-.329,2.223,2.223,0,0,0,.763-.539,1.184,1.184,0,0,0,.294-.819v-.028a.738.738,0,0,1,.308-.623,1.4,1.4,0,0,1,.854-.231,1.4,1.4,0,0,1,.854.231.738.738,0,0,1,.308.623Zm-.392-3.962h-.532a2.032,2.032,0,0,1-.623-.077.815.815,0,0,1-.357-.217.657.657,0,0,1-.161-.315,1.967,1.967,0,0,1-.035-.385,1.746,1.746,0,0,1,.035-.343.657.657,0,0,1,.161-.315.869.869,0,0,1,.357-.224,1.873,1.873,0,0,1,.623-.084h.532V-8.722a1.331,1.331,0,0,1,.266-.959.98.98,0,0,1,.714-.259.985.985,0,0,1,.707.259,1.308,1.308,0,0,1,.273.959v4.564a1.379,1.379,0,0,1-.259.98.971.971,0,0,1-.707.252,1.021,1.021,0,0,1-.721-.252,1.329,1.329,0,0,1-.273-.98Zm2.814-3.178a1.331,1.331,0,0,1,.266-.959.98.98,0,0,1,.714-.259.985.985,0,0,1,.707.259,1.308,1.308,0,0,1,.273.959v5.264a1.379,1.379,0,0,1-.259.98.971.971,0,0,1-.707.252,1.021,1.021,0,0,1-.721-.252,1.329,1.329,0,0,1-.273-.98Zm14.6,2.744v.616H37a2.011,2.011,0,0,1,.56.063.753.753,0,0,1,.322.175.538.538,0,0,1,.147.252,1.208,1.208,0,0,1,.035.294,1.492,1.492,0,0,1-.035.343.459.459,0,0,1-.147.245.8.8,0,0,1-.322.154A2.251,2.251,0,0,1,37-3.78H26.824a2.251,2.251,0,0,1-.56-.056.8.8,0,0,1-.322-.154.459.459,0,0,1-.147-.245,1.492,1.492,0,0,1-.035-.343,1.208,1.208,0,0,1,.035-.294.538.538,0,0,1,.147-.252.753.753,0,0,1,.322-.175,2.011,2.011,0,0,1,.56-.063h3.962v-.616h-2.87a1.81,1.81,0,0,1-.616-.084.737.737,0,0,1-.329-.217.66.66,0,0,1-.133-.315,2.582,2.582,0,0,1-.028-.392v-1.82a2.445,2.445,0,0,1,.028-.385.7.7,0,0,1,.133-.315.668.668,0,0,1,.329-.217,1.962,1.962,0,0,1,.616-.077h7.8a2.011,2.011,0,0,1,.56.063.753.753,0,0,1,.322.175.537.537,0,0,1,.147.259,1.423,1.423,0,0,1,.035.329,1.208,1.208,0,0,1-.035.294.538.538,0,0,1-.147.252.811.811,0,0,1-.322.182,1.821,1.821,0,0,1-.56.07H29.078V-7.6h6.636a1.821,1.821,0,0,1,.56.07.766.766,0,0,1,.322.189.581.581,0,0,1,.147.266,1.237,1.237,0,0,1,.035.287,1.423,1.423,0,0,1-.035.329.5.5,0,0,1-.147.252.8.8,0,0,1-.322.168,2.011,2.011,0,0,1-.56.063ZM29.022.322V.84h7.084A3.052,3.052,0,0,1,36.75.9a1.106,1.106,0,0,1,.392.154.486.486,0,0,1,.189.238.927.927,0,0,1,.049.308,1.021,1.021,0,0,1-.049.336.486.486,0,0,1-.189.238.959.959,0,0,1-.392.14,4.042,4.042,0,0,1-.644.042H27.888a2.373,2.373,0,0,1-.616-.063.771.771,0,0,1-.343-.182.516.516,0,0,1-.147-.287,2.217,2.217,0,0,1-.028-.364V-.392a1.068,1.068,0,0,1,.035-.273A.5.5,0,0,1,26.936-.9a.8.8,0,0,1,.322-.168,2.011,2.011,0,0,1,.56-.063H34.8v-.518H27.776a2.251,2.251,0,0,1-.56-.056.744.744,0,0,1-.322-.161.5.5,0,0,1-.147-.252,1.357,1.357,0,0,1-.035-.315,1.151,1.151,0,0,1,.035-.28.583.583,0,0,1,.147-.259.766.766,0,0,1,.322-.189,1.821,1.821,0,0,1,.56-.07h8.218a1.834,1.834,0,0,1,.553.07.811.811,0,0,1,.329.182.6.6,0,0,1,.154.252.97.97,0,0,1,.042.28V-.364a.638.638,0,0,1-.2.511,1.461,1.461,0,0,1-.875.175ZM48.1-8.722a1.138,1.138,0,0,1,.343-.959,1.277,1.277,0,0,1,.791-.259,1.6,1.6,0,0,1,.427.056.865.865,0,0,1,.357.2,1.032,1.032,0,0,1,.252.378,1.549,1.549,0,0,1,.1.588V.84a1.592,1.592,0,0,1-.1.6,1.032,1.032,0,0,1-.252.378.865.865,0,0,1-.357.2,1.656,1.656,0,0,1-.854,0,.9.9,0,0,1-.616-.574A1.7,1.7,0,0,1,48.1.84ZM41.664-.21h2.408a2.073,2.073,0,0,1,.644.084,1.039,1.039,0,0,1,.392.217A.668.668,0,0,1,45.3.4a1.269,1.269,0,0,1,.049.343,1.425,1.425,0,0,1-.049.385.668.668,0,0,1-.189.308.974.974,0,0,1-.392.21,2.249,2.249,0,0,1-.644.077H40.53a1.962,1.962,0,0,1-.616-.077.8.8,0,0,1-.343-.21.594.594,0,0,1-.147-.308A2.445,2.445,0,0,1,39.4.742v-4.97a2.723,2.723,0,0,1,.028-.4.727.727,0,0,1,.147-.343.8.8,0,0,1,.343-.245,1.681,1.681,0,0,1,.616-.091H42.7V-7.84H40.684a2.073,2.073,0,0,1-.644-.084,1.039,1.039,0,0,1-.392-.217.668.668,0,0,1-.189-.308,1.269,1.269,0,0,1-.049-.343,1.425,1.425,0,0,1,.049-.385.668.668,0,0,1,.189-.308.974.974,0,0,1,.392-.21,2.249,2.249,0,0,1,.644-.077h3.15a1.681,1.681,0,0,1,.616.091.8.8,0,0,1,.343.245.727.727,0,0,1,.147.343,2.723,2.723,0,0,1,.028.4V-4.48a.993.993,0,0,1-.343.847,1.536,1.536,0,0,1-.945.259H41.664ZM61.012-8.722a1.138,1.138,0,0,1,.343-.959,1.277,1.277,0,0,1,.791-.259,1.6,1.6,0,0,1,.427.056.865.865,0,0,1,.357.2,1.032,1.032,0,0,1,.252.378,1.549,1.549,0,0,1,.1.588V.84a1.592,1.592,0,0,1-.1.6,1.032,1.032,0,0,1-.252.378.865.865,0,0,1-.357.2,1.656,1.656,0,0,1-.854,0,.9.9,0,0,1-.616-.574,1.7,1.7,0,0,1-.091-.6Zm-4.34-1.05a1.773,1.773,0,0,1,.588.077.745.745,0,0,1,.322.21.639.639,0,0,1,.14.329,3.2,3.2,0,0,1,.028.448V-3.22q0,.28-.042.7t-.14.91A10.022,10.022,0,0,1,57.309-.6a6.067,6.067,0,0,1-.4.98,4.589,4.589,0,0,1-.553.84,2.328,2.328,0,0,1-.721.588.941.941,0,0,1-.763.084,1.45,1.45,0,0,1-.567-.364.671.671,0,0,1-.2-.315,1.129,1.129,0,0,1-.042-.4,1.591,1.591,0,0,1,.091-.427,1.69,1.69,0,0,1,.2-.4,6.744,6.744,0,0,0,.546-.9,4.552,4.552,0,0,0,.322-.854,5.44,5.44,0,0,0,.154-.9q.042-.476.042-1.064v-4.1h-2.52a2.249,2.249,0,0,1-.644-.077.974.974,0,0,1-.392-.21.668.668,0,0,1-.189-.308,1.425,1.425,0,0,1-.049-.385,1.269,1.269,0,0,1,.049-.343.668.668,0,0,1,.189-.308,1.039,1.039,0,0,1,.392-.217,2.073,2.073,0,0,1,.644-.084Z" transform="translate(-3879 18934)"/>
  </g>
</svg>
