<svg xmlns="http://www.w3.org/2000/svg" width="94.835" height="43.498" viewBox="0 0 94.835 43.498">
  <g id="txtPbb" transform="translate(-1038.491 -18646.75)">
    <path id="패스_14609" data-name="패스 14609" d="M-41.525,4a4.791,4.791,0,0,1-2-.425A3.7,3.7,0,0,1-44.85,2.537a4.093,4.093,0,0,1-.725-1.45A6.294,6.294,0,0,1-45.8-.6a7.19,7.19,0,0,1,.2-1.7,3.883,3.883,0,0,1,.688-1.463,3.454,3.454,0,0,1,1.325-1.025A5.288,5.288,0,0,1-41.475-5.2h10.7a5.036,5.036,0,0,1,2.112.388,3.453,3.453,0,0,1,1.325,1.025,3.879,3.879,0,0,1,.688,1.475A7.347,7.347,0,0,1-26.45-.6a6.294,6.294,0,0,1-.225,1.688,3.985,3.985,0,0,1-.738,1.45,3.851,3.851,0,0,1-1.325,1.038A4.7,4.7,0,0,1-30.725,4Zm-.15-14.175h4.9a4.016,4.016,0,0,1,1.15.138,1.739,1.739,0,0,1,.7.375,1.2,1.2,0,0,1,.337.538,2.134,2.134,0,0,1,.088.6,2.545,2.545,0,0,1-.088.688,1.193,1.193,0,0,1-.337.55,1.739,1.739,0,0,1-.7.375,4.016,4.016,0,0,1-1.15.137H-43.7a3.5,3.5,0,0,1-1.1-.137,1.423,1.423,0,0,1-.612-.375,1.06,1.06,0,0,1-.263-.55,4.366,4.366,0,0,1-.05-.687V-15.45a6.779,6.779,0,0,1,.05-.863,1.267,1.267,0,0,1,.263-.65,1.313,1.313,0,0,1,.612-.4,3.5,3.5,0,0,1,1.1-.137h6.425a4.016,4.016,0,0,1,1.15.137,1.739,1.739,0,0,1,.7.375,1.193,1.193,0,0,1,.337.55A2.545,2.545,0,0,1-35-15.75a2.134,2.134,0,0,1-.088.6,1.2,1.2,0,0,1-.337.538,1.739,1.739,0,0,1-.7.375,4.016,4.016,0,0,1-1.15.138h-4.4Zm10.25-5.4a2.032,2.032,0,0,1,.612-1.712A2.28,2.28,0,0,1-29.4-17.75a2.855,2.855,0,0,1,.762.1A1.545,1.545,0,0,1-28-17.3a1.842,1.842,0,0,1,.45.675,2.766,2.766,0,0,1,.175,1.05V-13.8h1.825a3.436,3.436,0,0,1,1.15.162,1.876,1.876,0,0,1,.7.413,1.275,1.275,0,0,1,.338.562,2.265,2.265,0,0,1,.087.613,2.684,2.684,0,0,1-.087.7,1.19,1.19,0,0,1-.338.563,1.855,1.855,0,0,1-.7.387,3.7,3.7,0,0,1-1.15.15h-1.825v2a2.844,2.844,0,0,1-.175,1.075A1.842,1.842,0,0,1-28-6.5a1.545,1.545,0,0,1-.638.35,2.855,2.855,0,0,1-.762.1,2.855,2.855,0,0,1-.763-.1,1.647,1.647,0,0,1-.65-.35,1.658,1.658,0,0,1-.45-.675,3.041,3.041,0,0,1-.163-1.075ZM-31.85.6A2.057,2.057,0,0,0-30.8.313,1.07,1.07,0,0,0-30.475-.6a1.1,1.1,0,0,0-.325-.937,2.057,2.057,0,0,0-1.05-.287H-40.4a2.057,2.057,0,0,0-1.05.287,1.1,1.1,0,0,0-.325.938,1.07,1.07,0,0,0,.325.913A2.057,2.057,0,0,0-40.4.6Zm12.4,3.375a3.5,3.5,0,0,1-1.1-.137,1.423,1.423,0,0,1-.613-.375,1.06,1.06,0,0,1-.262-.55,4.366,4.366,0,0,1-.05-.687v-4.2a2.431,2.431,0,0,1,.488-1.562A2.18,2.18,0,0,1-19.2-4.15H-4.9a3.5,3.5,0,0,1,1.1.137,1.423,1.423,0,0,1,.613.375,1.06,1.06,0,0,1,.263.55,4.366,4.366,0,0,1,.05.687V1.8a1.97,1.97,0,0,1-.65,1.712,2.733,2.733,0,0,1-1.625.463Zm-3.05-16.8a1.394,1.394,0,0,1,.4-1.087,2.548,2.548,0,0,1,1.625-.362h7.925a2.548,2.548,0,0,1,1.625.362,1.394,1.394,0,0,1,.4,1.087,1.346,1.346,0,0,1-.4,1.013,2.421,2.421,0,0,1-1.625.388H-14.1a3.076,3.076,0,0,0,1.025,1.6A9.291,9.291,0,0,0-11.45-8.8a2.835,2.835,0,0,1,1.213,1.038,1.582,1.582,0,0,1-.012,1.438,1.546,1.546,0,0,1-.563.687,2.092,2.092,0,0,1-.812.313,2.364,2.364,0,0,1-.588-.025,1.817,1.817,0,0,1-.587-.2,10.371,10.371,0,0,1-1.613-1.075,14.564,14.564,0,0,1-1.712-1.6,10.858,10.858,0,0,1-1.562,1.463A12.621,12.621,0,0,1-19.5-5.6a4.369,4.369,0,0,1-.737.288,2.811,2.811,0,0,1-.788.112,2.751,2.751,0,0,1-.863-.2,1.425,1.425,0,0,1-.712-.675,1.7,1.7,0,0,1-.175-1.5,2.188,2.188,0,0,1,1.15-1.1q.65-.325,1.163-.587a5.246,5.246,0,0,0,.887-.562,3.25,3.25,0,0,0,.638-.675,2.6,2.6,0,0,0,.388-.925h-1.925a2.421,2.421,0,0,1-1.625-.388A1.346,1.346,0,0,1-22.5-12.825Zm15.65,4.15h-1.8a3.461,3.461,0,0,1-1.125-.15,1.742,1.742,0,0,1-.663-.387,1.145,1.145,0,0,1-.312-.562,3.109,3.109,0,0,1-.075-.7,2.619,2.619,0,0,1,.075-.613,1.222,1.222,0,0,1,.312-.562,1.769,1.769,0,0,1,.663-.413,3.215,3.215,0,0,1,1.125-.162h1.8v-3.35a2.032,2.032,0,0,1,.613-1.712,2.28,2.28,0,0,1,1.412-.462,2.855,2.855,0,0,1,.763.1,1.545,1.545,0,0,1,.638.35,1.842,1.842,0,0,1,.45.675,2.766,2.766,0,0,1,.175,1.05v8.5A2.844,2.844,0,0,1-2.975-6a1.842,1.842,0,0,1-.45.675,1.545,1.545,0,0,1-.638.35,2.855,2.855,0,0,1-.763.1,2.855,2.855,0,0,1-.762-.1,1.647,1.647,0,0,1-.65-.35A1.658,1.658,0,0,1-6.687-6,3.041,3.041,0,0,1-6.85-7.075ZM-20.975-16.65a1.336,1.336,0,0,1,.363-.925,2.114,2.114,0,0,1,1.537-.4h5.35a2.114,2.114,0,0,1,1.538.4,1.336,1.336,0,0,1,.363.925,1.532,1.532,0,0,1-.075.462.944.944,0,0,1-.288.425,1.556,1.556,0,0,1-.575.3,3.344,3.344,0,0,1-.963.112h-5.35a3.344,3.344,0,0,1-.962-.112,1.556,1.556,0,0,1-.575-.3.944.944,0,0,1-.288-.425A1.532,1.532,0,0,1-20.975-16.65Zm3.55,15.825V.65h10.5V-.825Zm18.15-12.5a1.222,1.222,0,0,1,.438-1.05A3.435,3.435,0,0,1,3-14.7h8.95a3.435,3.435,0,0,1,1.838.325,1.222,1.222,0,0,1,.438,1.05,1.109,1.109,0,0,1-.337.875,2.5,2.5,0,0,1-1.388.375,1.956,1.956,0,0,1,.35,1.15,3.57,3.57,0,0,1-.8,2.6A4.237,4.237,0,0,1,9.55-7.3v1.2H12.9a3.227,3.227,0,0,1,1.837.35,1.235,1.235,0,0,1,.437,1.025,1.2,1.2,0,0,1-.437.95A3.05,3.05,0,0,1,12.9-3.4H3.05a3.05,3.05,0,0,1-1.838-.375,1.2,1.2,0,0,1-.437-.95A1.235,1.235,0,0,1,1.212-5.75,3.227,3.227,0,0,1,3.05-6.1H5.5V-7.3A4.4,4.4,0,0,1,2.925-8.387,3.483,3.483,0,0,1,2.1-10.925a2.191,2.191,0,0,1,.3-1.15,2.289,2.289,0,0,1-1.35-.387A1.14,1.14,0,0,1,.725-13.325Zm15.65-2.25a2.032,2.032,0,0,1,.612-1.712A2.28,2.28,0,0,1,18.4-17.75a2.855,2.855,0,0,1,.763.1,1.545,1.545,0,0,1,.637.35,1.842,1.842,0,0,1,.45.675,2.766,2.766,0,0,1,.175,1.05v3.45H21.7a3.436,3.436,0,0,1,1.15.162,1.877,1.877,0,0,1,.7.413,1.275,1.275,0,0,1,.337.563,2.265,2.265,0,0,1,.087.613,2.684,2.684,0,0,1-.087.7,1.19,1.19,0,0,1-.337.563,1.855,1.855,0,0,1-.7.387,3.7,3.7,0,0,1-1.15.15H20.425v3.2A2.844,2.844,0,0,1,20.25-4.3a1.842,1.842,0,0,1-.45.675,1.545,1.545,0,0,1-.637.35,2.855,2.855,0,0,1-.763.1,2.855,2.855,0,0,1-.762-.1,1.647,1.647,0,0,1-.65-.35,1.658,1.658,0,0,1-.45-.675,3.041,3.041,0,0,1-.162-1.075Zm0,16.425H4.1A4.863,4.863,0,0,1,2.95.738a1.824,1.824,0,0,1-.7-.312A.986.986,0,0,1,1.913-.05a1.885,1.885,0,0,1-.088-.575,2.153,2.153,0,0,1,.088-.65A.986.986,0,0,1,2.25-1.75a1.705,1.705,0,0,1,.7-.3,5.449,5.449,0,0,1,1.15-.1H18.4a2.807,2.807,0,0,1,1.1.175,1.526,1.526,0,0,1,.612.45,1.307,1.307,0,0,1,.263.625,5.122,5.122,0,0,1,.05.725V1.8a2.766,2.766,0,0,1-.175,1.05,1.842,1.842,0,0,1-.45.675,1.545,1.545,0,0,1-.637.35,2.855,2.855,0,0,1-.763.1,2.28,2.28,0,0,1-1.413-.463A2.032,2.032,0,0,1,16.375,1.8ZM2.675-16.925a1.913,1.913,0,0,1,.087-.625.749.749,0,0,1,.337-.4,2.029,2.029,0,0,1,.7-.225,7.218,7.218,0,0,1,1.15-.075H10a7.218,7.218,0,0,1,1.15.075,2.029,2.029,0,0,1,.7.225.749.749,0,0,1,.337.4,1.913,1.913,0,0,1,.087.625,1.11,1.11,0,0,1-.437.95A3.435,3.435,0,0,1,10-15.65H4.95a3.435,3.435,0,0,1-1.837-.325A1.11,1.11,0,0,1,2.675-16.925Zm3.325,6a1.185,1.185,0,0,0,.275.813,1.632,1.632,0,0,0,1.2.312,1.632,1.632,0,0,0,1.2-.312,1.185,1.185,0,0,0,.275-.812,1.221,1.221,0,0,0-.262-.812q-.263-.312-1.213-.312a1.632,1.632,0,0,0-1.2.313A1.185,1.185,0,0,0,6-10.925ZM30.075.85v.8h12.65a6.206,6.206,0,0,1,1.15.087,2,2,0,0,1,.7.25.814.814,0,0,1,.338.4A1.547,1.547,0,0,1,45,2.925a1.712,1.712,0,0,1-.088.587.755.755,0,0,1-.338.388,2.029,2.029,0,0,1-.7.225,7.218,7.218,0,0,1-1.15.075H28.05a4.746,4.746,0,0,1-1.1-.1,1.361,1.361,0,0,1-.613-.3.854.854,0,0,1-.262-.488,3.734,3.734,0,0,1-.05-.637V-.075a1.908,1.908,0,0,1,.063-.487.888.888,0,0,1,.263-.425,1.433,1.433,0,0,1,.575-.3,3.591,3.591,0,0,1,1-.113H40.4v-.725H27.7a2.208,2.208,0,0,1-1.4-.312,1.192,1.192,0,0,1-.35-.938,1.2,1.2,0,0,1,.35-.862A1.976,1.976,0,0,1,27.7-4.6h1.225V-5.65H25.9a2.154,2.154,0,0,1-1.262-.287A1.121,1.121,0,0,1,24.25-6.9a1.12,1.12,0,0,1,.388-.888A1.908,1.908,0,0,1,25.9-8.125H44.575a1.908,1.908,0,0,1,1.263.337,1.12,1.12,0,0,1,.387.888,1.121,1.121,0,0,1-.387.962,2.154,2.154,0,0,1-1.263.287h-3V-4.6h1a2.883,2.883,0,0,1,.975.137,1.565,1.565,0,0,1,.575.338.96.96,0,0,1,.263.45,2.055,2.055,0,0,1,.063.5V-.45A1.284,1.284,0,0,1,44.1.5a2.328,2.328,0,0,1-1.55.35Zm0-13.075v.8h12.9q2.025,0,2.025,1.2a.967.967,0,0,1-.487.95,3.546,3.546,0,0,1-1.538.25H28.05a4.238,4.238,0,0,1-1.1-.113,1.457,1.457,0,0,1-.613-.312.861.861,0,0,1-.262-.5,3.96,3.96,0,0,1-.05-.65v-2.425a1.908,1.908,0,0,1,.063-.487.888.888,0,0,1,.263-.425,1.433,1.433,0,0,1,.575-.3,3.591,3.591,0,0,1,1-.112H40.4v-.725H27.6a2.019,2.019,0,0,1-1.263-.312,1.133,1.133,0,0,1-.387-.938,1.221,1.221,0,0,1,.387-.887A1.734,1.734,0,0,1,27.6-17.6H42.575a2.883,2.883,0,0,1,.975.138,1.565,1.565,0,0,1,.575.337.96.96,0,0,1,.263.45,2.055,2.055,0,0,1,.063.5V-13.6a1.417,1.417,0,0,1-.35.988,2.159,2.159,0,0,1-1.55.387Zm2.9,7.625h4.55V-5.65h-4.55Z" transform="translate(1086 18665)" fill="#131313"/>
    <path id="패스_14610" data-name="패스 14610" d="M-40.748-2.782V-.026h3.458a2.088,2.088,0,0,1,.6.072.9.9,0,0,1,.364.2.621.621,0,0,1,.175.286,1.323,1.323,0,0,1,.046.358,1.178,1.178,0,0,1-.046.318.621.621,0,0,1-.175.286.965.965,0,0,1-.364.2,1.925,1.925,0,0,1-.6.078h-9.035a1.924,1.924,0,0,1-.6-.078.965.965,0,0,1-.364-.2.621.621,0,0,1-.175-.286,1.178,1.178,0,0,1-.046-.318,1.323,1.323,0,0,1,.046-.358.621.621,0,0,1,.175-.286.9.9,0,0,1,.364-.2,2.088,2.088,0,0,1,.6-.072h3.471V-2.782h-2.665a1.68,1.68,0,0,1-.572-.078.726.726,0,0,1-.318-.214.635.635,0,0,1-.137-.312,2.528,2.528,0,0,1-.026-.37V-7.969a1.056,1.056,0,0,1,.319-.891,1.186,1.186,0,0,1,.735-.24h7.371a1.428,1.428,0,0,1,.52.078.71.71,0,0,1,.3.208.673.673,0,0,1,.137.292,1.686,1.686,0,0,1,.032.332,1.466,1.466,0,0,1-.032.3.673.673,0,0,1-.137.286.816.816,0,0,1-.3.221,1.244,1.244,0,0,1-.52.091h-6.318v2.7h6.448a1.244,1.244,0,0,1,.52.091.816.816,0,0,1,.3.221.673.673,0,0,1,.137.293,1.507,1.507,0,0,1,.032.292,1.686,1.686,0,0,1-.032.332.673.673,0,0,1-.137.293.71.71,0,0,1-.3.208,1.428,1.428,0,0,1-.52.078Zm5.486-5.356a1.323,1.323,0,0,1,.045-.358.581.581,0,0,1,.176-.28.9.9,0,0,1,.364-.182,2.286,2.286,0,0,1,.6-.065h3.861a2.286,2.286,0,0,1,.6.065.9.9,0,0,1,.364.182.581.581,0,0,1,.175.28,1.323,1.323,0,0,1,.045.358,1.11,1.11,0,0,1-.045.312.624.624,0,0,1-.175.28.9.9,0,0,1-.364.195,2.088,2.088,0,0,1-.6.072h-.728V-7.2a6.127,6.127,0,0,0,.078.871,2.477,2.477,0,0,0,.234.708,2.536,2.536,0,0,0,.474.637,6.3,6.3,0,0,0,.8.657,1.461,1.461,0,0,1,.552.676.88.88,0,0,1-.123.793.965.965,0,0,1-.344.331,1.011,1.011,0,0,1-.436.124,1.466,1.466,0,0,1-.3-.033.775.775,0,0,1-.3-.136,10.473,10.473,0,0,1-.969-.832,7.665,7.665,0,0,1-.708-.793,8.168,8.168,0,0,1-.715.826,6.893,6.893,0,0,1-.936.786A1.093,1.093,0,0,1-34-2.411a1.992,1.992,0,0,1-.416.071,1.074,1.074,0,0,1-.455-.078.794.794,0,0,1-.39-.351.88.88,0,0,1-.124-.793,1.461,1.461,0,0,1,.553-.676,6.815,6.815,0,0,0,.819-.669,3.011,3.011,0,0,0,.52-.663,2.74,2.74,0,0,0,.286-.741,4.527,4.527,0,0,0,.1-.891V-7.28h-.975a2.088,2.088,0,0,1-.6-.072.9.9,0,0,1-.364-.195.624.624,0,0,1-.176-.28A1.11,1.11,0,0,1-35.262-8.138ZM-32.649.273H-25.6a1.925,1.925,0,0,1,.6.078.965.965,0,0,1,.364.2.621.621,0,0,1,.176.286,1.178,1.178,0,0,1,.045.319,1.323,1.323,0,0,1-.045.357.621.621,0,0,1-.176.286.9.9,0,0,1-.364.2,2.088,2.088,0,0,1-.6.071h-8.1A1.822,1.822,0,0,1-34.274,2a.74.74,0,0,1-.319-.2.551.551,0,0,1-.136-.286,2.27,2.27,0,0,1-.026-.357V-.754a1.056,1.056,0,0,1,.319-.89,1.186,1.186,0,0,1,.734-.241,1.485,1.485,0,0,1,.4.052.8.8,0,0,1,.331.182.958.958,0,0,1,.234.351,1.438,1.438,0,0,1,.091.546Zm5.629-5.044h-1.17a2.088,2.088,0,0,1-.6-.071.9.9,0,0,1-.364-.195.621.621,0,0,1-.176-.286,1.323,1.323,0,0,1-.045-.358A1.178,1.178,0,0,1-29.328-6a.621.621,0,0,1,.176-.286.965.965,0,0,1,.364-.2,1.925,1.925,0,0,1,.6-.078h1.17V-8.1A1.056,1.056,0,0,1-26.7-8.99a1.186,1.186,0,0,1,.735-.24,1.485,1.485,0,0,1,.4.052A.8.8,0,0,1-25.239-9a.958.958,0,0,1,.234.351,1.438,1.438,0,0,1,.091.546v5.317a1.479,1.479,0,0,1-.091.559.958.958,0,0,1-.234.351.8.8,0,0,1-.331.182,1.485,1.485,0,0,1-.4.052,1.485,1.485,0,0,1-.4-.052.856.856,0,0,1-.338-.182.862.862,0,0,1-.234-.351,1.581,1.581,0,0,1-.084-.559Zm6.968.052a3.754,3.754,0,0,1,1.222.175A2.07,2.07,0,0,1-18-4.03a2.208,2.208,0,0,1,.494.839A4.4,4.4,0,0,1-17.3-2.054V-.741a2.8,2.8,0,0,1-.656,1.963,2.839,2.839,0,0,1-2.1.65A4.035,4.035,0,0,1-21.313,1.7a2,2,0,0,1-.826-.5,2.073,2.073,0,0,1-.474-.819,4.628,4.628,0,0,1-.195-1.125V-2.054A5,5,0,0,1-22.62-3.2a2.062,2.062,0,0,1,.468-.832,2.016,2.016,0,0,1,.825-.513A3.944,3.944,0,0,1-20.052-4.719Zm4.5-3.38a1.056,1.056,0,0,1,.319-.891,1.186,1.186,0,0,1,.734-.24,1.485,1.485,0,0,1,.4.052A.8.8,0,0,1-13.773-9a.958.958,0,0,1,.234.351,1.438,1.438,0,0,1,.091.546v3.367h.741a1.925,1.925,0,0,1,.6.078.965.965,0,0,1,.364.2.621.621,0,0,1,.176.286,1.178,1.178,0,0,1,.045.318,1.323,1.323,0,0,1-.045.358.621.621,0,0,1-.176.286.9.9,0,0,1-.364.195,2.088,2.088,0,0,1-.6.072h-.741V.78a1.479,1.479,0,0,1-.091.559.958.958,0,0,1-.234.351.8.8,0,0,1-.332.182,1.485,1.485,0,0,1-.4.052,1.485,1.485,0,0,1-.4-.052.856.856,0,0,1-.338-.182.862.862,0,0,1-.234-.351A1.581,1.581,0,0,1-15.554.78Zm-7.9,2a1.253,1.253,0,0,1,.045-.351.583.583,0,0,1,.176-.273.9.9,0,0,1,.364-.182,2.286,2.286,0,0,1,.6-.065h4.264a2.286,2.286,0,0,1,.6.065.9.9,0,0,1,.364.182.583.583,0,0,1,.176.273,1.253,1.253,0,0,1,.045.351,1.11,1.11,0,0,1-.045.312.583.583,0,0,1-.176.273.956.956,0,0,1-.364.188,2.088,2.088,0,0,1-.6.071h-4.264a2.088,2.088,0,0,1-.6-.071.956.956,0,0,1-.364-.188.583.583,0,0,1-.176-.273A1.11,1.11,0,0,1-23.458-6.1Zm.819-2.4a1.253,1.253,0,0,1,.045-.351.583.583,0,0,1,.176-.273.9.9,0,0,1,.364-.182,2.286,2.286,0,0,1,.6-.065h2.626a2.286,2.286,0,0,1,.6.065.9.9,0,0,1,.364.182.583.583,0,0,1,.176.273,1.253,1.253,0,0,1,.045.351,1.11,1.11,0,0,1-.045.312.583.583,0,0,1-.176.273.956.956,0,0,1-.364.189,2.088,2.088,0,0,1-.6.072h-2.626a2.088,2.088,0,0,1-.6-.072.956.956,0,0,1-.364-.189.583.583,0,0,1-.176-.273A1.11,1.11,0,0,1-22.639-8.5ZM-19.4-2.145a1.381,1.381,0,0,0-.059-.442.577.577,0,0,0-.156-.254.485.485,0,0,0-.215-.11,1.02,1.02,0,0,0-.221-.026.759.759,0,0,0-.215.033.472.472,0,0,0-.2.124.734.734,0,0,0-.156.266,1.52,1.52,0,0,0-.078.449V-.7a1.421,1.421,0,0,0,.059.462.678.678,0,0,0,.149.254.377.377,0,0,0,.208.11,1.421,1.421,0,0,0,.234.02,1.234,1.234,0,0,0,.215-.02.375.375,0,0,0,.2-.11.746.746,0,0,0,.156-.254A1.463,1.463,0,0,0-19.4-.7Zm8.151-5.967a1.323,1.323,0,0,1,.045-.357.621.621,0,0,1,.175-.286.9.9,0,0,1,.364-.195,2.088,2.088,0,0,1,.6-.072h4.056a2.088,2.088,0,0,1,.6.072.9.9,0,0,1,.364.195.621.621,0,0,1,.175.286,1.323,1.323,0,0,1,.045.357,1.178,1.178,0,0,1-.045.319.621.621,0,0,1-.175.286.965.965,0,0,1-.364.2,1.924,1.924,0,0,1-.6.078h-.819v3.575a4.783,4.783,0,0,0,.1,1,2.936,2.936,0,0,0,.325.851,3.917,3.917,0,0,0,.585.767A5.988,5.988,0,0,0-4.946-.3a1.461,1.461,0,0,1,.553.676.88.88,0,0,1-.124.793.965.965,0,0,1-.345.331,1.011,1.011,0,0,1-.435.123,1.466,1.466,0,0,1-.3-.033.775.775,0,0,1-.3-.136,6.343,6.343,0,0,1-1.1-.949A7.958,7.958,0,0,1-7.832-.585,6.568,6.568,0,0,1-8.645.559a4.881,4.881,0,0,1-1.033.884,1.624,1.624,0,0,1-.78.247,1.074,1.074,0,0,1-.455-.078.794.794,0,0,1-.39-.351.88.88,0,0,1-.123-.793,1.461,1.461,0,0,1,.552-.676A5.529,5.529,0,0,0-10-.956a3.967,3.967,0,0,0,.585-.8,3.187,3.187,0,0,0,.325-.884,4.972,4.972,0,0,0,.1-1.014V-7.228h-1.079a1.925,1.925,0,0,1-.6-.078.965.965,0,0,1-.364-.2.621.621,0,0,1-.175-.286A1.178,1.178,0,0,1-11.251-8.112Zm8.528.013A1.056,1.056,0,0,1-2.4-8.99a1.186,1.186,0,0,1,.734-.24,1.485,1.485,0,0,1,.4.052A.8.8,0,0,1-.942-9a.958.958,0,0,1,.234.351A1.438,1.438,0,0,1-.617-8.1V.78a1.479,1.479,0,0,1-.091.559.958.958,0,0,1-.234.351.8.8,0,0,1-.332.182,1.485,1.485,0,0,1-.4.052,1.485,1.485,0,0,1-.4-.052A.856.856,0,0,1-2.4,1.69a.862.862,0,0,1-.234-.351A1.581,1.581,0,0,1-2.723.78Zm7.306,1.82A2.968,2.968,0,0,1,5.291-8.5a3.14,3.14,0,0,1,2.229-.676A3.14,3.14,0,0,1,9.75-8.5a2.968,2.968,0,0,1,.708,2.223,4.589,4.589,0,0,1-.175,1.372,2,2,0,0,1-.533.884,2.077,2.077,0,0,1-.917.474,5.338,5.338,0,0,1-1.313.143,3.181,3.181,0,0,1-2.229-.663A2.922,2.922,0,0,1,4.583-6.279Zm7.02,8.5a1.7,1.7,0,0,1-.631-.143,1.559,1.559,0,0,1-.507-.358,1.733,1.733,0,0,1-.344-.552,1.982,1.982,0,0,1-.13-.741,1.836,1.836,0,0,1,.052-.468A.766.766,0,0,1,9.51-.266.663.663,0,0,1,9.354-.7.682.682,0,0,1,9.542-1.2a.937.937,0,0,1,.683-.2h4.238a.888.888,0,0,1,.67.2.711.711,0,0,1,.175.494.681.681,0,0,1-.149.436.74.74,0,0,1-.527.227,1.673,1.673,0,0,1,.039.221,2.239,2.239,0,0,1,.013.247,1.721,1.721,0,0,1-.474,1.293,1.741,1.741,0,0,1-1.151.5l-.481.02q-.143.006-.24.006T12.1,2.243ZM12.188-8.1a1.056,1.056,0,0,1,.318-.891,1.186,1.186,0,0,1,.734-.24,1.485,1.485,0,0,1,.4.052A.8.8,0,0,1,13.969-9a.958.958,0,0,1,.234.351,1.438,1.438,0,0,1,.091.546v.819h.949a1.925,1.925,0,0,1,.6.078A.965.965,0,0,1,16.2-7a.621.621,0,0,1,.176.286,1.178,1.178,0,0,1,.045.318,1.323,1.323,0,0,1-.045.358.621.621,0,0,1-.176.286.9.9,0,0,1-.364.2,2.088,2.088,0,0,1-.6.071h-.949v.624A1.479,1.479,0,0,1,14.2-4.3a.958.958,0,0,1-.234.351.8.8,0,0,1-.332.182,1.485,1.485,0,0,1-.4.052,1.485,1.485,0,0,1-.4-.052.856.856,0,0,1-.338-.182.862.862,0,0,1-.234-.351,1.581,1.581,0,0,1-.085-.559ZM7.3.273h.936a1.924,1.924,0,0,1,.6.078.965.965,0,0,1,.364.2.621.621,0,0,1,.176.286,1.178,1.178,0,0,1,.045.319,1.323,1.323,0,0,1-.045.357A.621.621,0,0,1,9.2,1.8a.9.9,0,0,1-.364.2,2.088,2.088,0,0,1-.6.071H6.247A1.822,1.822,0,0,1,5.675,2a.74.74,0,0,1-.319-.2.551.551,0,0,1-.136-.286,2.27,2.27,0,0,1-.026-.357v-2.7a1.056,1.056,0,0,1,.319-.89,1.186,1.186,0,0,1,.734-.24,1.485,1.485,0,0,1,.4.052.8.8,0,0,1,.332.182.958.958,0,0,1,.234.351,1.438,1.438,0,0,1,.091.546ZM10.277-2.47a.788.788,0,0,1,.149-.494.775.775,0,0,1,.63-.195H13.6a.775.775,0,0,1,.631.195.788.788,0,0,1,.149.494.749.749,0,0,1-.143.455q-.143.195-.624.2H11.057a.775.775,0,0,1-.63-.2A.727.727,0,0,1,10.277-2.47ZM6.7-6.279a1.925,1.925,0,0,0,.15.9q.149.254.669.254t.67-.254a1.925,1.925,0,0,0,.149-.9,1.969,1.969,0,0,0-.149-.91q-.149-.26-.67-.26t-.669.26A1.969,1.969,0,0,0,6.7-6.279ZM12.656.806a.417.417,0,0,0,.318-.117A.4.4,0,0,0,13.085.4a.388.388,0,0,0-.377-.442h-.689a.385.385,0,0,0-.312.124A.478.478,0,0,0,11.6.4a.415.415,0,0,0,.1.286.4.4,0,0,0,.312.117ZM19.6.442V.858h6.578a3.227,3.227,0,0,1,.6.045,1.038,1.038,0,0,1,.364.13.423.423,0,0,1,.176.208.8.8,0,0,1,.045.28.89.89,0,0,1-.045.305.393.393,0,0,1-.176.2,1.055,1.055,0,0,1-.364.117,3.753,3.753,0,0,1-.6.039H18.544a2.468,2.468,0,0,1-.572-.052.708.708,0,0,1-.318-.156.444.444,0,0,1-.137-.254,1.942,1.942,0,0,1-.026-.331V-.039a.992.992,0,0,1,.032-.254.462.462,0,0,1,.137-.221.745.745,0,0,1,.3-.156,1.868,1.868,0,0,1,.52-.059h6.487v-.377h-6.6a1.148,1.148,0,0,1-.728-.162.62.62,0,0,1-.182-.488.624.624,0,0,1,.182-.448,1.028,1.028,0,0,1,.728-.189h2.873v-.546H17.426a1.12,1.12,0,0,1-.656-.149.583.583,0,0,1-.2-.5.582.582,0,0,1,.2-.462.992.992,0,0,1,.656-.175h9.711a.992.992,0,0,1,.656.175.582.582,0,0,1,.2.462.583.583,0,0,1-.2.5,1.12,1.12,0,0,1-.656.149h-3.8v.546H26.1a1.5,1.5,0,0,1,.507.072.814.814,0,0,1,.3.175.5.5,0,0,1,.136.234,1.068,1.068,0,0,1,.032.26V-.234A.668.668,0,0,1,26.89.26a1.211,1.211,0,0,1-.806.182Zm0-6.8v.416h6.708q1.053,0,1.053.624a.5.5,0,0,1-.253.494,1.844,1.844,0,0,1-.8.13H18.544a2.2,2.2,0,0,1-.572-.059.758.758,0,0,1-.318-.162.448.448,0,0,1-.137-.26,2.059,2.059,0,0,1-.026-.338V-6.773a.992.992,0,0,1,.032-.253.462.462,0,0,1,.137-.221.745.745,0,0,1,.3-.156,1.868,1.868,0,0,1,.52-.058h6.487v-.377H18.31A1.05,1.05,0,0,1,17.654-8a.589.589,0,0,1-.2-.488.635.635,0,0,1,.2-.461.9.9,0,0,1,.656-.2H26.1a1.5,1.5,0,0,1,.507.072.814.814,0,0,1,.3.175.5.5,0,0,1,.136.234,1.068,1.068,0,0,1,.032.26v1.339a.737.737,0,0,1-.182.514,1.122,1.122,0,0,1-.806.2Zm11.05,1.911h1.9a2.286,2.286,0,0,1,.6.065.951.951,0,0,1,.364.175.547.547,0,0,1,.175.26,1.044,1.044,0,0,1,.046.305,1.253,1.253,0,0,1-.046.351.544.544,0,0,1-.175.266.951.951,0,0,1-.364.176,2.286,2.286,0,0,1-.6.065H29.855a1.993,1.993,0,0,1-.572-.065.766.766,0,0,1-.319-.176.479.479,0,0,1-.136-.266A2.148,2.148,0,0,1,28.8-3.64V-5.733a3.525,3.525,0,0,1,.026-.448.659.659,0,0,1,.136-.338.683.683,0,0,1,.319-.208,1.822,1.822,0,0,1,.572-.071h1.326v-.624h-1.2a2.286,2.286,0,0,1-.6-.065.9.9,0,0,1-.364-.182.586.586,0,0,1-.176-.266,1.044,1.044,0,0,1-.045-.306,1.253,1.253,0,0,1,.045-.351.583.583,0,0,1,.176-.273.9.9,0,0,1,.364-.182,2.286,2.286,0,0,1,.6-.065H32.1a1.822,1.822,0,0,1,.572.071.74.74,0,0,1,.319.2.551.551,0,0,1,.136.286,2.27,2.27,0,0,1,.026.358v1.976a3.525,3.525,0,0,1-.026.449.659.659,0,0,1-.136.338.683.683,0,0,1-.319.208,1.822,1.822,0,0,1-.572.071H30.648Zm4.706,2.977a1,1,0,0,0,.279.7,2.352,2.352,0,0,0,.715.507,4.657,4.657,0,0,0,.981.331,7.3,7.3,0,0,0,1.092.162,1.071,1.071,0,0,1,.754.319.933.933,0,0,1,.182.773.96.96,0,0,1-.15.416.849.849,0,0,1-.266.247.934.934,0,0,1-.351.117,1.958,1.958,0,0,1-.39.013,8.226,8.226,0,0,1-2.093-.448A5.457,5.457,0,0,1,34.366.676a4.647,4.647,0,0,1-.838.566,6.445,6.445,0,0,1-1,.429,9.738,9.738,0,0,1-1.085.292,8.265,8.265,0,0,1-1.1.156,1.958,1.958,0,0,1-.39-.013.934.934,0,0,1-.351-.117.85.85,0,0,1-.267-.247.96.96,0,0,1-.149-.416.933.933,0,0,1,.182-.773,1.071,1.071,0,0,1,.754-.319A8.777,8.777,0,0,0,31.226.084a4.644,4.644,0,0,0,.988-.306,2.064,2.064,0,0,0,.708-.5,1.1,1.1,0,0,0,.273-.76v-.026a.686.686,0,0,1,.286-.579,1.3,1.3,0,0,1,.793-.214,1.3,1.3,0,0,1,.793.214.686.686,0,0,1,.286.579ZM34.99-5.148H34.5a1.887,1.887,0,0,1-.578-.071.757.757,0,0,1-.332-.2.61.61,0,0,1-.149-.293,1.826,1.826,0,0,1-.033-.358,1.622,1.622,0,0,1,.033-.318.61.61,0,0,1,.149-.293.807.807,0,0,1,.332-.208,1.74,1.74,0,0,1,.578-.078h.494V-8.1a1.236,1.236,0,0,1,.247-.891.91.91,0,0,1,.663-.24.915.915,0,0,1,.657.24,1.214,1.214,0,0,1,.253.891v4.238a1.28,1.28,0,0,1-.241.91.9.9,0,0,1-.656.234.948.948,0,0,1-.669-.234,1.234,1.234,0,0,1-.254-.91ZM37.6-8.1a1.236,1.236,0,0,1,.247-.891.91.91,0,0,1,.663-.24.915.915,0,0,1,.656.24,1.214,1.214,0,0,1,.253.891v4.888a1.28,1.28,0,0,1-.24.91.9.9,0,0,1-.656.234.948.948,0,0,1-.67-.234,1.234,1.234,0,0,1-.254-.91ZM47.326-6.6a2.3,2.3,0,0,1-.169.9,2.942,2.942,0,0,1-.448.741,4.712,4.712,0,0,1-.644.637q-.364.3-.741.572a2.765,2.765,0,0,0-.377.319.982.982,0,0,0-.208.312,1.342,1.342,0,0,0-.084.377q-.02.215-.02.5A.748.748,0,0,1,44.59-2a.7.7,0,0,1-.156.247.787.787,0,0,1-.3.189,1.351,1.351,0,0,1-.474.071,1.376,1.376,0,0,1-.767-.189.712.712,0,0,1-.286-.644,3.587,3.587,0,0,1,.091-.851,2.386,2.386,0,0,1,.267-.663,2.146,2.146,0,0,1,.448-.526,4.827,4.827,0,0,1,.637-.455,4.252,4.252,0,0,0,.442-.338,3.2,3.2,0,0,0,.377-.39,1.718,1.718,0,0,0,.266-.455,1.475,1.475,0,0,0,.1-.546,1.632,1.632,0,0,0-.065-.474.874.874,0,0,0-.221-.371,1.022,1.022,0,0,0-.429-.24,2.37,2.37,0,0,0-.689-.084,1.892,1.892,0,0,0-.539.065,1.45,1.45,0,0,0-.358.156,1.2,1.2,0,0,0-.234.189,1.9,1.9,0,0,1-.169.162,1.293,1.293,0,0,1-.37.221,1.518,1.518,0,0,1-.4.1,1.3,1.3,0,0,1-.39-.02.848.848,0,0,1-.331-.143.764.764,0,0,1-.358-.52.667.667,0,0,1,.163-.52,2.583,2.583,0,0,1,.442-.416,3.29,3.29,0,0,1,.65-.377,4.076,4.076,0,0,1,.858-.266,5.527,5.527,0,0,1,1.092-.1,4.957,4.957,0,0,1,1.547.214A3.187,3.187,0,0,1,46.5-8.4a2.233,2.233,0,0,1,.624.826A2.441,2.441,0,0,1,47.326-6.6ZM42.361.247a.969.969,0,0,0,.37.825,1.478,1.478,0,0,0,.917.28,1.506,1.506,0,0,0,.923-.28.963.963,0,0,0,.377-.825.98.98,0,0,0-.377-.832,1.483,1.483,0,0,0-.923-.286,1.455,1.455,0,0,0-.917.286A.987.987,0,0,0,42.361.247Z" transform="translate(1086 18688)" fill="#505050"/>
  </g>
</svg>
