<svg xmlns="http://www.w3.org/2000/svg" xmlns:xlink="http://www.w3.org/1999/xlink" width="108.471" height="120.324" viewBox="0 0 108.471 120.324">
  <defs>
    <style>
      .cls-1 {
        fill: #d10000;
      }

      .cls-2 {
        fill: #fff;
        font-size: 18px;
        font-family: Pretendard-Bold, Pretendard;
        font-weight: 700;
        letter-spacing: -0.025em;
      }

      .cls-3 {
        font-size: 30px;
      }

      .cls-4 {
        filter: url(#합치기_6);
      }
    </style>
    <filter id="합치기_6" x="13.471" y="21.908" width="95" height="98.416" filterUnits="userSpaceOnUse">
      <feOffset dy="1" input="SourceAlpha"/>
      <feGaussianBlur stdDeviation="3" result="blur"/>
      <feFlood flood-opacity="0.161"/>
      <feComposite operator="in" in2="blur"/>
      <feComposite in="SourceGraphic"/>
    </filter>
  </defs>
  <g id="imgBeginner" transform="translate(-250.029 -388.384)">
    <g class="cls-4" transform="matrix(1, 0, 0, 1, 250.03, 388.38)">
      <path id="합치기_6-2" data-name="합치기 6" class="cls-1" d="M-798.362-7723.417a38.589,38.589,0,0,1-16.447-10.386,38.087,38.087,0,0,1,1.9-54.071,38.673,38.673,0,0,1,54.414,1.888,38.089,38.089,0,0,1-1.9,54.071,38.538,38.538,0,0,1-21.933,10.025l-17.8,4.154Z" transform="translate(847.62 7828.06)"/>
    </g>
    <text id="_10_X2" data-name="10%
X2" class="cls-2" transform="translate(311 447.5)"><tspan x="-18.35" y="0">10%</tspan><tspan class="cls-3"><tspan x="-19.063" y="28">X2</tspan></tspan></text>
    <g id="그룹_7955" data-name="그룹 7955" transform="matrix(0.998, -0.07, 0.07, 0.998, 529.424, 44.836)">
      <g id="그룹_7953" data-name="그룹 7953" transform="translate(1.856 2.135)">
        <path id="패스_4948" data-name="패스 4948" class="cls-1" d="M-306.746,358.292l1.956-3.552a4.581,4.581,0,0,1,1.218-1.485,2.56,2.56,0,0,1,1.41-.541,2.679,2.679,0,0,1,1.441.353,2.353,2.353,0,0,1,.834.729,2.033,2.033,0,0,1,.344.938,2.7,2.7,0,0,1-.1,1.04l.092.051a2.3,2.3,0,0,1,.841-.8,2.356,2.356,0,0,1,1.2-.3,2.763,2.763,0,0,1,1.336.373,2.794,2.794,0,0,1,1.117,1.073,2.68,2.68,0,0,1,.309,1.561,4.8,4.8,0,0,1-.64,1.927l-2.067,3.751Zm6.068-2.046a1.529,1.529,0,0,0-.159-.809,1.417,1.417,0,0,0-.593-.59,1.359,1.359,0,0,0-.737-.18,1.313,1.313,0,0,0-.72.27,2.233,2.233,0,0,0-.613.738l-.945,1.715,2.571,1.418.925-1.68A2.082,2.082,0,0,0-300.678,356.246Zm4.127,1.837a1.391,1.391,0,0,0-.125-.815,1.328,1.328,0,0,0-.559-.546,1.579,1.579,0,0,0-.864-.207,1.63,1.63,0,0,0-.853.3,2.256,2.256,0,0,0-.682.783l-1.033,1.873,2.731,1.505,1.005-1.823A2.927,2.927,0,0,0-296.551,358.083Z"/>
        <path id="패스_4949" data-name="패스 4949" class="cls-1" d="M-292.342,354.31a3.336,3.336,0,0,1-1.95.14,4.778,4.778,0,0,1-1.972-1,4.777,4.777,0,0,1-1.376-1.722,3.463,3.463,0,0,1-.295-1.942,3.727,3.727,0,0,1,.844-1.858,3.87,3.87,0,0,1,1.5-1.152,3.17,3.17,0,0,1,1.864-.173,4.7,4.7,0,0,1,2.051,1.042l.446.363-4.117,5.058-.98-.8,2.985-3.668a2.077,2.077,0,0,0-.9-.43,1.626,1.626,0,0,0-.92.072,1.83,1.83,0,0,0-.779.58,1.905,1.905,0,0,0-.428.952,1.867,1.867,0,0,0,.13.993,2.081,2.081,0,0,0,.618.82l.844.687a2.618,2.618,0,0,0,1.082.558,1.805,1.805,0,0,0,1.044-.07,2.061,2.061,0,0,0,.885-.661,2.294,2.294,0,0,0,.371-.623,1.6,1.6,0,0,0,.116-.61,1.392,1.392,0,0,0-.116-.542l1.151-1.414a2.728,2.728,0,0,1,.537,1.249,3.046,3.046,0,0,1-.134,1.426,4.469,4.469,0,0,1-.813,1.446A4.048,4.048,0,0,1-292.342,354.31Z"/>
        <path id="패스_4950" data-name="패스 4950" class="cls-1" d="M-284.731,350.566a2.8,2.8,0,0,1-1.484.164,2.358,2.358,0,0,1-1.24-.646l1.41-1.22a1.1,1.1,0,0,0,.6.244,1.384,1.384,0,0,0,.673-.129,2.954,2.954,0,0,0,.713-.47,2.082,2.082,0,0,0,.77-1.2,1.536,1.536,0,0,0-.451-1.267l-.99-1.143-.07.06.008.041a2.716,2.716,0,0,1,.061.779,2.239,2.239,0,0,1-.247.819,2.8,2.8,0,0,1-.693.855,3.175,3.175,0,0,1-1.568.755,3.105,3.105,0,0,1-1.762-.244,4.813,4.813,0,0,1-1.722-1.334,5.055,5.055,0,0,1-1.1-1.933,3.138,3.138,0,0,1-.006-1.809,3.124,3.124,0,0,1,.968-1.45,2.607,2.607,0,0,1,.923-.541,2.111,2.111,0,0,1,.84-.105,3.723,3.723,0,0,1,.772.172l.121.046.072-.06-.858-.992,1.391-1.2,5.289,6.117a2.859,2.859,0,0,1,.733,1.574,2.83,2.83,0,0,1-.331,1.628,5.212,5.212,0,0,1-1.249,1.521A5.171,5.171,0,0,1-284.731,350.566Zm-.931-5.444a1.834,1.834,0,0,0-.06-1.056,3.445,3.445,0,0,0-.685-1.133,3.668,3.668,0,0,0-1.034-.86,1.889,1.889,0,0,0-1.061-.24,1.682,1.682,0,0,0-.975.432,1.687,1.687,0,0,0-.573.918,1.944,1.944,0,0,0,.093,1.093,3.658,3.658,0,0,0,.69,1.13,3.378,3.378,0,0,0,1.009.826,1.882,1.882,0,0,0,1.041.223,1.732,1.732,0,0,0,.976-.447A1.751,1.751,0,0,0-285.662,345.122Z"/>
        <path id="패스_4951" data-name="패스 4951" class="cls-1" d="M-285.915,336.119a1.111,1.111,0,0,1-.534-.086.916.916,0,0,1-.4-.336.946.946,0,0,1-.161-.513,1.049,1.049,0,0,1,.126-.526,1.144,1.144,0,0,1,.377-.41,1.15,1.15,0,0,1,.522-.189,1.024,1.024,0,0,1,.531.088.957.957,0,0,1,.407.35.92.92,0,0,1,.159.5,1.047,1.047,0,0,1-.124.523,1.078,1.078,0,0,1-.372.413A1.081,1.081,0,0,1-285.915,336.119Zm.375,1.279,1.552-1.034,4.41,6.62-1.551,1.035Z"/>
        <path id="패스_4952" data-name="패스 4952" class="cls-1" d="M-276.688,341.256l-1.666.839-3.573-7.109,1.592-.8.607,1.208.088-.045a2.243,2.243,0,0,1,.111-.925,2.282,2.282,0,0,1,.489-.808,2.976,2.976,0,0,1,.861-.63,2.835,2.835,0,0,1,1.443-.331,2.373,2.373,0,0,1,1.311.492,3.6,3.6,0,0,1,1.025,1.291l2.275,4.524-1.666.838-2.147-4.27a2.075,2.075,0,0,0-.574-.732,1.3,1.3,0,0,0-.742-.283,1.659,1.659,0,0,0-.836.193,1.769,1.769,0,0,0-.687.587,1.5,1.5,0,0,0-.251.829,2.086,2.086,0,0,0,.246.967Z"/>
        <path id="패스_4953" data-name="패스 4953" class="cls-1" d="M-269.083,337.926l-1.786.536-2.29-7.618,1.706-.513.389,1.3.094-.029a2.246,2.246,0,0,1,.27-.892,2.3,2.3,0,0,1,.622-.711,2.968,2.968,0,0,1,.956-.472,2.829,2.829,0,0,1,1.478-.076,2.356,2.356,0,0,1,1.206.711,3.566,3.566,0,0,1,.787,1.447l1.459,4.852-1.786.538-1.376-4.579a2.093,2.093,0,0,0-.439-.821,1.314,1.314,0,0,0-.682-.406,1.648,1.648,0,0,0-.857.047,1.753,1.753,0,0,0-.778.458,1.487,1.487,0,0,0-.39.772,2.066,2.066,0,0,0,.075,1Z"/>
        <path id="패스_4954" data-name="패스 4954" class="cls-1" d="M-261.463,335.677a3.315,3.315,0,0,1-1.5-1.255,4.754,4.754,0,0,1-.721-2.091,4.789,4.789,0,0,1,.206-2.2,3.44,3.44,0,0,1,1.139-1.6,3.725,3.725,0,0,1,1.9-.75,3.865,3.865,0,0,1,1.877.213,3.153,3.153,0,0,1,1.46,1.17,4.662,4.662,0,0,1,.751,2.174l.07.571-6.475.777-.151-1.255,4.7-.563a2.077,2.077,0,0,0-.348-.934,1.639,1.639,0,0,0-.712-.588,1.844,1.844,0,0,0-.964-.124,1.9,1.9,0,0,0-.968.387,1.866,1.866,0,0,0-.6.8,2.067,2.067,0,0,0-.126,1.019l.13,1.08a2.616,2.616,0,0,0,.391,1.153,1.8,1.8,0,0,0,.8.676,2.08,2.08,0,0,0,1.1.141,2.286,2.286,0,0,0,.7-.193,1.55,1.55,0,0,0,.507-.358,1.385,1.385,0,0,0,.294-.47l1.81-.217a2.73,2.73,0,0,1-.482,1.271,3.053,3.053,0,0,1-1.088.933,4.475,4.475,0,0,1-1.588.476A4.071,4.071,0,0,1-261.463,335.677Z"/>
        <path id="패스_4955" data-name="패스 4955" class="cls-1" d="M-254.616,327.47l1.807.037-.027,1.326.083,0a2.126,2.126,0,0,1,.445-.77,1.874,1.874,0,0,1,.695-.48,2.152,2.152,0,0,1,.852-.148,4.267,4.267,0,0,1,.678.066l-.036,1.715a3.038,3.038,0,0,0-.4-.085,3.553,3.553,0,0,0-.473-.043,1.919,1.919,0,0,0-.927.2,1.621,1.621,0,0,0-.655.6,1.725,1.725,0,0,0-.251.886l-.1,4.686-1.865-.04Z"/>
        <path id="패스_4956" data-name="패스 4956" class="cls-1" d="M-247.3,329.363l-1.384-.166,1.236-3.989,1.851.222Z"/>
        <path id="패스_4957" data-name="패스 4957" class="cls-1" d="M-241.36,330.5a1.6,1.6,0,0,0-.874-.458,1.956,1.956,0,0,0-.717-.032,1.2,1.2,0,0,0-.554.226.715.715,0,0,0-.279.43.685.685,0,0,0,.15.591,2.145,2.145,0,0,0,.765.539l1.26.571a3.424,3.424,0,0,1,1.478,1.112,1.83,1.83,0,0,1,.247,1.467,2.185,2.185,0,0,1-.687,1.2,2.718,2.718,0,0,1-1.346.622,4.578,4.578,0,0,1-1.814-.064,4.744,4.744,0,0,1-1.638-.651,2.653,2.653,0,0,1-.956-1.054,2.571,2.571,0,0,1-.23-1.383l1.848.4a1.079,1.079,0,0,0,.3.839,1.874,1.874,0,0,0,.966.47,2.47,2.47,0,0,0,.792.053,1.179,1.179,0,0,0,.582-.216.771.771,0,0,0,.287-.457.7.7,0,0,0-.155-.619,2.141,2.141,0,0,0-.777-.533l-1.2-.535a3.251,3.251,0,0,1-1.461-1.131,1.9,1.9,0,0,1-.25-1.509,2.1,2.1,0,0,1,.655-1.167,2.551,2.551,0,0,1,1.282-.6,4.411,4.411,0,0,1,1.717.065,4.257,4.257,0,0,1,1.538.63,2.568,2.568,0,0,1,.9,1.038,2.433,2.433,0,0,1,.188,1.329l-1.731-.377A1.105,1.105,0,0,0-241.36,330.5Z"/>
      </g>
      <g id="그룹_7954" data-name="그룹 7954">
        <path id="패스_4958" data-name="패스 4958" class="cls-1" d="M-275.179,363.051l-1.065,1.53-8.707-6.059,1.065-1.53Z"/>
        <path id="패스_4959" data-name="패스 4959" class="cls-1" d="M-276.179,352.636l1.376-1.251,5.35,5.887-1.333,1.213-.947-1.043-.062.056a2.345,2.345,0,0,1,.147.936,2.451,2.451,0,0,1-.245.94,2.807,2.807,0,0,1-.655.854,2.664,2.664,0,0,1-1.264.668,2.4,2.4,0,0,1-1.381-.133,3.585,3.585,0,0,1-1.332-.967l-3.406-3.749,1.38-1.254,3.216,3.537a1.849,1.849,0,0,0,.726.515,1.382,1.382,0,0,0,.777.07,1.5,1.5,0,0,0,.719-.38,1.713,1.713,0,0,0,.469-.708,1.618,1.618,0,0,0,.055-.883,1.912,1.912,0,0,0-.49-.9Z"/>
        <path id="패스_4960" data-name="패스 4960" class="cls-1" d="M-267.388,355.793a3.413,3.413,0,0,1-1.8-.768,4.766,4.766,0,0,1-1.305-1.753,4.727,4.727,0,0,1-.465-2.14,3.447,3.447,0,0,1,.6-1.873,3.813,3.813,0,0,1,1.608-1.3,4,4,0,0,1,1.7-.391,2.911,2.911,0,0,1,1.5.412,2.987,2.987,0,0,1,1.082,1.152l-1.617.738a1.851,1.851,0,0,0-.55-.514,1.441,1.441,0,0,0-.695-.21,1.683,1.683,0,0,0-.775.167,1.714,1.714,0,0,0-.8.706,2,2,0,0,0-.248,1.1,3.546,3.546,0,0,0,.351,1.352,3.644,3.644,0,0,0,.8,1.169,2.021,2.021,0,0,0,.991.539,1.707,1.707,0,0,0,1.062-.142,1.7,1.7,0,0,0,.612-.453,1.46,1.46,0,0,0,.314-.648,1.755,1.755,0,0,0-.024-.786l1.617-.738a3.107,3.107,0,0,1,.168,1.563,2.886,2.886,0,0,1-.65,1.407,3.883,3.883,0,0,1-1.419,1.046A3.855,3.855,0,0,1-267.388,355.793Z"/>
        <path id="패스_4961" data-name="패스 4961" class="cls-1" d="M-263.019,343.218l1.848-.246,1.4,10.514-1.849.247Zm2.457,5.577.294-.039,2.421-3.552,2.155-.289-2.974,4.343-.37.049-1.223,1.715Zm.838,1.028,1.074-1.471,4.195,4.424-2.207.3Z"/>
        <path id="패스_4962" data-name="패스 4962" class="cls-1" d="M-253.365,353.112a1.161,1.161,0,0,1-.375-.449,1.059,1.059,0,0,1-.093-.579,1.065,1.065,0,0,1,.2-.55,1.071,1.071,0,0,1,.454-.367,1.156,1.156,0,0,1,.581-.094,1.159,1.159,0,0,1,.548.2,1.091,1.091,0,0,1,.376.45,1.115,1.115,0,0,1,.1.577,1.092,1.092,0,0,1-.206.547,1.158,1.158,0,0,1-.455.373,1.1,1.1,0,0,1-.577.1A1.107,1.107,0,0,1-253.365,353.112Zm1.686-2.924-1.65-.158.546-7.477,1.985.191Z"/>
      </g>
    </g>
  </g>
</svg>
