<svg id="imgKakaoShare" xmlns="http://www.w3.org/2000/svg" width="20.261" height="18.613" viewBox="0 0 20.261 18.613">
  <defs>
    <style>
      .cls-1 {
        fill: #391b1b;
      }

      .cls-2 {
        fill: #fae300;
      }
    </style>
  </defs>
  <path id="패스_2830" data-name="패스 2830" class="cls-1" d="M65.228,77.391c-5.6,0-10.13,3.585-10.13,8.009,0,2.879,1.922,5.4,4.806,6.813-.212.791-.767,2.866-.879,3.31-.137.551.2.544.424.4.174-.116,2.776-1.885,3.9-2.648a12.83,12.83,0,0,0,1.88.138c5.595,0,10.13-3.586,10.13-8.009s-4.535-8.009-10.13-8.009" transform="translate(-55.098 -77.391)"/>
  <g id="그룹_7547" data-name="그룹 7547" transform="translate(2.587 5.579)">
    <path id="패스_2831" data-name="패스 2831" class="cls-2" d="M107.866,185.048H104.9a.5.5,0,1,0,0,1.008h.963V189.6a.493.493,0,0,0,.491.492h.108a.492.492,0,0,0,.491-.492v-3.549h.91a.5.5,0,1,0,0-1.008Z" transform="translate(-104.4 -184.977)"/>
    <path id="패스_2832" data-name="패스 2832" class="cls-2" d="M261.5,187.866h-1.377v-3.624a.547.547,0,1,0-1.093,0v3.907a.531.531,0,0,0,.009.087.464.464,0,0,0-.009.087.457.457,0,0,0,.457.458H261.5a.457.457,0,0,0,0-.915Z" transform="translate(-250.918 -183.694)"/>
    <path id="패스_2833" data-name="패스 2833" class="cls-2" d="M324.289,188.032l-1.535-2.016,1.387-1.388a.481.481,0,1,0-.681-.68l-1.717,1.717v-1.424a.547.547,0,1,0-1.093,0v4.027a.547.547,0,1,0,1.093,0v-1.242l.312-.312,1.452,1.906a.489.489,0,1,0,.782-.587Z" transform="translate(-309.301 -183.694)"/>
    <path id="패스_2834" data-name="패스 2834" class="cls-2" d="M171.822,188.163l-1.476-4.039,0,0a.726.726,0,0,0-.692-.425.7.7,0,0,0-.718.508.681.681,0,0,0-.028.066l-1.452,3.894a.49.49,0,1,0,.924.325l.251-.717h2.021l.251.717a.49.49,0,1,0,.924-.325Zm-2.875-1.308.679-1.937.022,0,.678,1.935Z" transform="translate(-164.116 -183.694)"/>
  </g>
</svg>
