<svg xmlns="http://www.w3.org/2000/svg" width="78.88" height="43.771" viewBox="0 0 78.88 43.771">
  <defs>
    <style>
      .cls-1 {
        fill: #d10000;
      }
    </style>
  </defs>
  <g id="그룹_9789" data-name="그룹 9789" transform="translate(0)">
    <path id="패스_4937" data-name="패스 4937" class="cls-1" d="M-280.486,245.553l.589-1.807,8.559,2.792,1.452-4.452,1.526.5-2.041,6.258Z" transform="translate(280.486 -205.071)"/>
    <path id="패스_4938" data-name="패스 4938" class="cls-1" d="M-269.24,236.611q-.237.543-.4.928a2.029,2.029,0,0,0-.194,1.1.943.943,0,0,0,.534.705.944.944,0,0,0,.585.11,1.066,1.066,0,0,0,.533-.258,1.863,1.863,0,0,0,.428-.563,2.054,2.054,0,0,0,.25-.972,1.649,1.649,0,0,0-.231-.855,1.544,1.544,0,0,0-.622-.579l-2.263-1.161a1.29,1.29,0,0,0-.672-.16,1.05,1.05,0,0,0-.6.238,1.939,1.939,0,0,0-.491.632,2.047,2.047,0,0,0-.225.688,1.334,1.334,0,0,0,.061.6,1.085,1.085,0,0,0,.325.465l-.831,1.606a2.322,2.322,0,0,1-.862-.995,2.79,2.79,0,0,1-.221-1.409,4.4,4.4,0,0,1,.512-1.654,4.706,4.706,0,0,1,.953-1.277,2.6,2.6,0,0,1,1.328-.666,2.562,2.562,0,0,1,1.646.32l4.724,2.446-.822,1.586-.971-.5-.028.057a2.1,2.1,0,0,1,.336.73,2.414,2.414,0,0,1,.039.9,3.044,3.044,0,0,1-.337,1.021,3.286,3.286,0,0,1-.875,1.1,2.157,2.157,0,0,1-1.161.466,2.372,2.372,0,0,1-1.315-.293,1.975,1.975,0,0,1-1.2-1.551,4.389,4.389,0,0,1,.414-2.193q.139-.312.342-.758t.373-.825l.168-.357,1.11.558C-268.966,235.991-269.083,236.25-269.24,236.611Z" transform="translate(280.486 -205.071)"/>
    <path id="패스_4939" data-name="패스 4939" class="cls-1" d="M-266.945,227.662a1.592,1.592,0,0,0-.777.607,1.929,1.929,0,0,0-.325.64,1.212,1.212,0,0,0-.025.6.728.728,0,0,0,.277.432.684.684,0,0,0,.6.107,2.152,2.152,0,0,0,.808-.474l1.039-.912a3.432,3.432,0,0,1,1.625-.886,1.822,1.822,0,0,1,1.436.381,2.163,2.163,0,0,1,.809,1.121,2.707,2.707,0,0,1,.011,1.483,4.6,4.6,0,0,1-.808,1.625,4.741,4.741,0,0,1-1.267,1.223,2.676,2.676,0,0,1-1.356.435,2.572,2.572,0,0,1-1.354-.361l1.127-1.518a1.089,1.089,0,0,0,.89.071,1.893,1.893,0,0,0,.827-.686,2.406,2.406,0,0,0,.374-.7,1.157,1.157,0,0,0,.044-.619.761.761,0,0,0-.3-.451.705.705,0,0,0-.628-.115,2.161,2.161,0,0,0-.805.489l-.983.87a3.232,3.232,0,0,1-1.633.863,1.9,1.9,0,0,1-1.477-.395,2.1,2.1,0,0,1-.792-1.079A2.536,2.536,0,0,1-269.62,229a4.418,4.418,0,0,1,.768-1.536,4.227,4.227,0,0,1,1.21-1.14,2.55,2.55,0,0,1,1.316-.389,2.422,2.422,0,0,1,1.287.376l-1.056,1.421A1.112,1.112,0,0,0-266.945,227.662Z" transform="translate(280.486 -205.071)"/>
    <path id="패스_4940" data-name="패스 4940" class="cls-1" d="M-265,220.223l5.356,5.206a1.145,1.145,0,0,0,.484.312.634.634,0,0,0,.408-.014,1.164,1.164,0,0,0,.372-.261q.156-.151.544-.612l1.1,1.066a6.523,6.523,0,0,1-.681.81,3.178,3.178,0,0,1-1.066.749,1.988,1.988,0,0,1-1.141.123,2.127,2.127,0,0,1-1.093-.619l-5.578-5.422Zm3.49,1.211-3.178,3.268-1.032-1,3.177-3.267Z" transform="translate(280.486 -205.071)"/>
    <path id="패스_4941" data-name="패스 4941" class="cls-1" d="M-252.475,221.9a3.4,3.4,0,0,1-1.9-.458,4.779,4.779,0,0,1-1.578-1.512,4.732,4.732,0,0,1-.814-2.035,3.457,3.457,0,0,1,.283-1.947,3.8,3.8,0,0,1,1.37-1.552,3.975,3.975,0,0,1,1.615-.668,2.9,2.9,0,0,1,1.55.157,2.991,2.991,0,0,1,1.258.956l-1.471,1a1.865,1.865,0,0,0-.629-.416,1.43,1.43,0,0,0-.719-.091,1.682,1.682,0,0,0-.737.292,1.71,1.71,0,0,0-.668.829,2.018,2.018,0,0,0-.063,1.121,3.548,3.548,0,0,0,.569,1.275,3.671,3.671,0,0,0,.982,1.02,2.005,2.005,0,0,0,1.065.368,1.693,1.693,0,0,0,1.025-.316,1.693,1.693,0,0,0,.529-.549,1.465,1.465,0,0,0,.2-.689,1.765,1.765,0,0,0-.153-.772l1.471-1a3.085,3.085,0,0,1,.424,1.513,2.9,2.9,0,0,1-.407,1.5,3.891,3.891,0,0,1-1.225,1.267A3.864,3.864,0,0,1-252.475,221.9Z" transform="translate(280.486 -205.071)"/>
    <path id="패스_4942" data-name="패스 4942" class="cls-1" d="M-245.193,217.9l-1.7.768-4.371-9.666,1.662-.751,1.649,3.648.09-.04a2.329,2.329,0,0,1,.142-.925,2.176,2.176,0,0,1,.512-.778,3.023,3.023,0,0,1,.9-.6,2.9,2.9,0,0,1,1.463-.277,2.345,2.345,0,0,1,1.292.538,3.6,3.6,0,0,1,.975,1.338l2.087,4.616-1.7.769-1.97-4.357a2.09,2.09,0,0,0-.548-.761,1.3,1.3,0,0,0-.731-.309,1.708,1.708,0,0,0-.851.169,1.8,1.8,0,0,0-.723.563,1.515,1.515,0,0,0-.3.822,2.008,2.008,0,0,0,.2.982Z" transform="translate(280.486 -205.071)"/>
    <path id="패스_4943" data-name="패스 4943" class="cls-1" d="M-236.334,211.022c-.374.124-.692.234-.954.326a2.028,2.028,0,0,0-.95.595.94.94,0,0,0-.168.869.937.937,0,0,0,.309.507,1.063,1.063,0,0,0,.549.224,1.829,1.829,0,0,0,.7-.057,2.048,2.048,0,0,0,.89-.465,1.645,1.645,0,0,0,.482-.743,1.544,1.544,0,0,0,.014-.85l-.65-2.458a1.286,1.286,0,0,0-.33-.608,1.059,1.059,0,0,0-.577-.286,1.939,1.939,0,0,0-.8.058,1.985,1.985,0,0,0-.663.294,1.3,1.3,0,0,0-.4.444,1.082,1.082,0,0,0-.129.553l-1.75.455a2.329,2.329,0,0,1,.164-1.306,2.775,2.775,0,0,1,.9-1.106,4.38,4.38,0,0,1,1.572-.725,4.675,4.675,0,0,1,1.587-.145,2.577,2.577,0,0,1,1.382.542,2.562,2.562,0,0,1,.864,1.438l1.339,5.146-1.729.451-.275-1.058-.06.016a2.112,2.112,0,0,1-.319.739,2.408,2.408,0,0,1-.642.629,3.116,3.116,0,0,1-.984.434,3.308,3.308,0,0,1-1.4.079,2.158,2.158,0,0,1-1.123-.55,2.378,2.378,0,0,1-.662-1.174,1.976,1.976,0,0,1,.352-1.929,4.37,4.37,0,0,1,1.907-1.158q.325-.106.793-.255l.863-.272c.161-.05.287-.087.376-.114l.329,1.2C-235.69,210.811-235.959,210.9-236.334,211.022Z" transform="translate(280.486 -205.071)"/>
    <path id="패스_4944" data-name="패스 4944" class="cls-1" d="M-229.751,213.318l-1.859.159-.677-7.927,1.776-.151.114,1.346.1-.008a2.24,2.24,0,0,1,.447-.818,2.329,2.329,0,0,1,.755-.569,2.988,2.988,0,0,1,1.033-.266,2.857,2.857,0,0,1,1.462.229,2.371,2.371,0,0,1,1.034.944,3.594,3.594,0,0,1,.474,1.579l.43,5.047-1.857.158-.407-4.763a2.093,2.093,0,0,0-.261-.893,1.321,1.321,0,0,0-.584-.537,1.645,1.645,0,0,0-.848-.13,1.757,1.757,0,0,0-.857.289,1.5,1.5,0,0,0-.54.675,2.093,2.093,0,0,0-.131.992Z" transform="translate(280.486 -205.071)"/>
    <path id="패스_4945" data-name="패스 4945" class="cls-1" d="M-221.858,212.66a3.4,3.4,0,0,1-1.2-1.552,4.77,4.77,0,0,1-.279-2.167,4.714,4.714,0,0,1,.641-2.1,3.452,3.452,0,0,1,1.442-1.339,3.8,3.8,0,0,1,2.04-.35,4,4,0,0,1,1.677.492,2.91,2.91,0,0,1,1.109,1.1,2.985,2.985,0,0,1,.38,1.533l-1.77-.146a1.893,1.893,0,0,0-.229-.718,1.441,1.441,0,0,0-.5-.523,1.687,1.687,0,0,0-.757-.234,1.714,1.714,0,0,0-1.04.225,2.013,2.013,0,0,0-.753.835,3.53,3.53,0,0,0-.356,1.35,3.683,3.683,0,0,0,.124,1.412,2.021,2.021,0,0,0,.6.953,1.708,1.708,0,0,0,1,.4,1.69,1.69,0,0,0,.756-.1,1.463,1.463,0,0,0,.59-.41,1.775,1.775,0,0,0,.365-.7l1.771.147a3.1,3.1,0,0,1-.619,1.445,2.918,2.918,0,0,1-1.255.91,3.933,3.933,0,0,1-1.75.219A3.876,3.876,0,0,1-221.858,212.66Z" transform="translate(280.486 -205.071)"/>
    <path id="패스_4946" data-name="패스 4946" class="cls-1" d="M-214,213.682a3.337,3.337,0,0,1-.947-1.709,4.741,4.741,0,0,1,.08-2.211,4.766,4.766,0,0,1,.982-1.974,3.444,3.444,0,0,1,1.638-1.086,3.722,3.722,0,0,1,2.04-.017,3.861,3.861,0,0,1,1.675.874,3.157,3.157,0,0,1,.942,1.618,4.693,4.693,0,0,1-.081,2.3l-.142.557-6.32-1.6.31-1.225,4.584,1.163a2.076,2.076,0,0,0,.012-1,1.646,1.646,0,0,0-.453-.805,1.831,1.831,0,0,0-.855-.462,1.9,1.9,0,0,0-1.043.013,1.868,1.868,0,0,0-.846.536,2.08,2.08,0,0,0-.484.906l-.268,1.054a2.62,2.62,0,0,0-.049,1.216,1.809,1.809,0,0,0,.5.919,2.1,2.1,0,0,0,.973.525,2.352,2.352,0,0,0,.721.073,1.612,1.612,0,0,0,.6-.152,1.415,1.415,0,0,0,.443-.334l1.767.449a2.741,2.741,0,0,1-.907,1.012,3.054,3.054,0,0,1-1.351.48,4.5,4.5,0,0,1-1.652-.128A4.071,4.071,0,0,1-214,213.682Z" transform="translate(280.486 -205.071)"/>
    <path id="패스_4947" data-name="패스 4947" class="cls-1" d="M-206.946,216.112a1.153,1.153,0,0,1-.237-.536,1.048,1.048,0,0,1,.072-.582,1.073,1.073,0,0,1,.345-.473,1.1,1.1,0,0,1,.538-.227,1.143,1.143,0,0,1,.584.072,1.135,1.135,0,0,1,.471.345,1.082,1.082,0,0,1,.237.536,1.129,1.129,0,0,1-.065.582,1.082,1.082,0,0,1-.351.468,1.145,1.145,0,0,1-.54.232,1.079,1.079,0,0,1-.582-.063A1.1,1.1,0,0,1-206.946,216.112Zm2.429-2.341-1.541-.61,2.6-7.033,1.855.733Z" transform="translate(280.486 -205.071)"/>
  </g>
</svg>
