<svg xmlns="http://www.w3.org/2000/svg" width="66.155" height="42.376" viewBox="0 0 66.155 42.376">
  <defs>
    <style>
      .cls-1 {
        fill: #d10000;
      }
    </style>
  </defs>
  <g id="그룹_9790" data-name="그룹 9790" transform="matrix(0.998, -0.07, 0.07, 0.998, -1.919, 4.265)">
    <g id="그룹_7953" data-name="그룹 7953" transform="translate(0 0)">
      <path id="패스_4948" data-name="패스 4948" class="cls-1" d="M0,5.581,1.956,2.029A4.581,4.581,0,0,1,3.174.544,2.56,2.56,0,0,1,4.584,0,2.679,2.679,0,0,1,6.025.356a2.353,2.353,0,0,1,.834.729,2.033,2.033,0,0,1,.344.938,2.7,2.7,0,0,1-.1,1.04l.092.051a2.3,2.3,0,0,1,.841-.8,2.356,2.356,0,0,1,1.2-.3,2.763,2.763,0,0,1,1.336.373,2.794,2.794,0,0,1,1.117,1.073A2.68,2.68,0,0,1,12,5.023a4.8,4.8,0,0,1-.64,1.927L9.29,10.7ZM6.068,3.535a1.529,1.529,0,0,0-.159-.809,1.417,1.417,0,0,0-.593-.59,1.359,1.359,0,0,0-.737-.18,1.313,1.313,0,0,0-.72.27,2.233,2.233,0,0,0-.613.738L2.3,4.679,4.872,6.1,5.8,4.417A2.082,2.082,0,0,0,6.068,3.535ZM10.2,5.372a1.391,1.391,0,0,0-.125-.815,1.328,1.328,0,0,0-.559-.546A1.579,1.579,0,0,0,8.647,3.8a1.63,1.63,0,0,0-.853.3,2.256,2.256,0,0,0-.682.783L6.079,6.761,8.81,8.266,9.815,6.443A2.927,2.927,0,0,0,10.2,5.372Z" transform="translate(0 27.503)"/>
      <path id="패스_4949" data-name="패스 4949" class="cls-1" d="M5.626,7.776a3.336,3.336,0,0,1-1.95.14,4.778,4.778,0,0,1-1.972-1A4.777,4.777,0,0,1,.328,5.19,3.463,3.463,0,0,1,.033,3.248,3.727,3.727,0,0,1,.877,1.39,3.87,3.87,0,0,1,2.375.238,3.17,3.17,0,0,1,4.239.065,4.7,4.7,0,0,1,6.29,1.107l.446.363L2.619,6.528l-.98-.8L4.624,2.062a2.077,2.077,0,0,0-.9-.43A1.626,1.626,0,0,0,2.8,1.7a1.83,1.83,0,0,0-.779.58,1.905,1.905,0,0,0-.428.952,1.867,1.867,0,0,0,.13.993,2.081,2.081,0,0,0,.618.82l.844.687a2.618,2.618,0,0,0,1.082.558,1.805,1.805,0,0,0,1.044-.07A2.061,2.061,0,0,0,6.2,5.563a2.294,2.294,0,0,0,.371-.623,1.6,1.6,0,0,0,.116-.61,1.392,1.392,0,0,0-.116-.542L7.723,2.374A2.728,2.728,0,0,1,8.26,3.623a3.046,3.046,0,0,1-.134,1.426A4.469,4.469,0,0,1,7.313,6.5,4.048,4.048,0,0,1,5.626,7.776Z" transform="translate(8.778 21.326)"/>
      <path id="패스_4950" data-name="패스 4950" class="cls-1" d="M7.23,11.811a2.8,2.8,0,0,1-1.484.164,2.358,2.358,0,0,1-1.24-.646l1.41-1.22a1.1,1.1,0,0,0,.6.244,1.384,1.384,0,0,0,.673-.129,2.954,2.954,0,0,0,.713-.47,2.082,2.082,0,0,0,.77-1.2,1.536,1.536,0,0,0-.451-1.267l-.99-1.143-.07.06.008.041a2.716,2.716,0,0,1,.061.779,2.239,2.239,0,0,1-.247.819,2.8,2.8,0,0,1-.693.855,3.175,3.175,0,0,1-1.568.755,3.105,3.105,0,0,1-1.762-.244A4.813,4.813,0,0,1,1.239,7.875a5.055,5.055,0,0,1-1.1-1.933A3.045,3.045,0,0,1,1.1,2.683a2.607,2.607,0,0,1,.923-.541,2.111,2.111,0,0,1,.84-.105,3.723,3.723,0,0,1,.772.172l.121.046.072-.06L2.968,1.2,4.359,0,9.648,6.117a2.859,2.859,0,0,1,.733,1.574,2.83,2.83,0,0,1-.331,1.628A5.212,5.212,0,0,1,8.8,10.84,5.171,5.171,0,0,1,7.23,11.811ZM6.3,6.367a1.834,1.834,0,0,0-.06-1.056,3.445,3.445,0,0,0-.685-1.133,3.668,3.668,0,0,0-1.034-.86,1.889,1.889,0,0,0-1.061-.24,1.682,1.682,0,0,0-.975.432,1.687,1.687,0,0,0-.573.918A1.944,1.944,0,0,0,2,5.521a3.658,3.658,0,0,0,.69,1.13A3.378,3.378,0,0,0,3.7,7.477,1.882,1.882,0,0,0,4.744,7.7a1.732,1.732,0,0,0,.976-.447A1.751,1.751,0,0,0,6.3,6.367Z" transform="translate(14.785 13.547)"/>
      <path id="패스_4951" data-name="패스 4951" class="cls-1" d="M1.1,2.065a1.111,1.111,0,0,1-.534-.086.916.916,0,0,1-.4-.336A.946.946,0,0,1,0,1.13,1.049,1.049,0,0,1,.126.6,1.144,1.144,0,0,1,.5.194,1.15,1.15,0,0,1,1.025.005a1.024,1.024,0,0,1,.531.088.957.957,0,0,1,.407.35.92.92,0,0,1,.159.5A1.047,1.047,0,0,1,2,1.466a1.078,1.078,0,0,1-.372.413A1.081,1.081,0,0,1,1.1,2.065Zm.375,1.279L3.027,2.31l4.41,6.62L5.886,9.965Z" transform="translate(19.731 8.846)"/>
      <path id="패스_4952" data-name="패스 4952" class="cls-1" d="M5.239,8.6l-1.666.839L0,2.335l1.592-.8L2.2,2.743,2.287,2.7A2.243,2.243,0,0,1,2.4,1.773,2.282,2.282,0,0,1,2.887.965a2.976,2.976,0,0,1,.861-.63A2.835,2.835,0,0,1,5.191,0,2.373,2.373,0,0,1,6.5.5,3.6,3.6,0,0,1,7.527,1.787L9.8,6.311l-1.666.838L5.989,2.879a2.075,2.075,0,0,0-.574-.732,1.3,1.3,0,0,0-.742-.283,1.659,1.659,0,0,0-.836.193,1.769,1.769,0,0,0-.687.587,1.5,1.5,0,0,0-.251.829,2.086,2.086,0,0,0,.246.967Z" transform="translate(24.819 7.443)"/>
      <path id="패스_4953" data-name="패스 4953" class="cls-1" d="M4.076,8.545,2.29,9.081,0,1.463,1.706.95l.389,1.3.094-.029a2.246,2.246,0,0,1,.27-.892A2.3,2.3,0,0,1,3.081.613,2.968,2.968,0,0,1,4.037.141,2.829,2.829,0,0,1,5.515.065,2.356,2.356,0,0,1,6.721.776a3.566,3.566,0,0,1,.787,1.447L8.967,7.075l-1.786.538L5.8,3.034a2.093,2.093,0,0,0-.439-.821,1.314,1.314,0,0,0-.682-.406,1.648,1.648,0,0,0-.857.047,1.753,1.753,0,0,0-.778.458,1.487,1.487,0,0,0-.39.772,2.066,2.066,0,0,0,.075,1Z" transform="translate(33.587 4.173)"/>
      <path id="패스_4954" data-name="패스 4954" class="cls-1" d="M2.262,7.925A3.315,3.315,0,0,1,.763,6.67,4.754,4.754,0,0,1,.042,4.579a4.789,4.789,0,0,1,.206-2.2A3.44,3.44,0,0,1,1.387.782a3.725,3.725,0,0,1,1.9-.75A3.865,3.865,0,0,1,5.161.245a3.153,3.153,0,0,1,1.46,1.17,4.662,4.662,0,0,1,.751,2.174l.07.571L.967,4.937.816,3.682l4.7-.563a2.077,2.077,0,0,0-.348-.934A1.639,1.639,0,0,0,4.452,1.6a1.844,1.844,0,0,0-.964-.124,1.9,1.9,0,0,0-.968.387,1.866,1.866,0,0,0-.6.8A2.067,2.067,0,0,0,1.8,3.684l.13,1.08a2.616,2.616,0,0,0,.391,1.153,1.8,1.8,0,0,0,.8.676,2.08,2.08,0,0,0,1.1.141,2.286,2.286,0,0,0,.7-.193,1.55,1.55,0,0,0,.507-.358,1.385,1.385,0,0,0,.294-.47L7.524,5.5a2.73,2.73,0,0,1-.482,1.271A3.053,3.053,0,0,1,5.954,7.7a4.475,4.475,0,0,1-1.588.476A4.071,4.071,0,0,1,2.262,7.925Z" transform="translate(43.021 2.544)"/>
      <path id="패스_4955" data-name="패스 4955" class="cls-1" d="M.168.034,1.975.071,1.948,1.4l.083,0a2.126,2.126,0,0,1,.445-.77,1.874,1.874,0,0,1,.695-.48A2.152,2.152,0,0,1,4.023,0,4.267,4.267,0,0,1,4.7.067L4.665,1.782a3.038,3.038,0,0,0-.4-.085A3.553,3.553,0,0,0,3.8,1.654a1.919,1.919,0,0,0-.927.2,1.621,1.621,0,0,0-.655.6,1.725,1.725,0,0,0-.251.886l-.1,4.686L0,7.987Z" transform="translate(51.962 2.228)"/>
      <path id="패스_4956" data-name="패스 4956" class="cls-1" d="M1.384,4.155,0,3.989,1.236,0,3.087.222Z" transform="translate(58.058)"/>
      <path id="패스_4957" data-name="패스 4957" class="cls-1" d="M5.208,1.941a1.6,1.6,0,0,0-.874-.458,1.956,1.956,0,0,0-.717-.032,1.2,1.2,0,0,0-.554.226.715.715,0,0,0-.279.43.685.685,0,0,0,.15.591,2.145,2.145,0,0,0,.765.539l1.26.571A3.424,3.424,0,0,1,6.437,4.92a1.83,1.83,0,0,1,.247,1.467A2.185,2.185,0,0,1,6,7.586a2.718,2.718,0,0,1-1.346.622,4.578,4.578,0,0,1-1.814-.064A4.744,4.744,0,0,1,1.2,7.493,2.653,2.653,0,0,1,.243,6.439a2.571,2.571,0,0,1-.23-1.383l1.848.4a1.079,1.079,0,0,0,.3.839,1.874,1.874,0,0,0,.966.47,2.47,2.47,0,0,0,.792.053A1.179,1.179,0,0,0,4.5,6.6a.771.771,0,0,0,.287-.457.7.7,0,0,0-.155-.619,2.141,2.141,0,0,0-.777-.533l-1.2-.535A3.251,3.251,0,0,1,1.2,3.328a1.9,1.9,0,0,1-.25-1.509A2.1,2.1,0,0,1,1.6.652a2.551,2.551,0,0,1,1.282-.6A4.411,4.411,0,0,1,4.6.121a4.257,4.257,0,0,1,1.538.63,2.568,2.568,0,0,1,.9,1.038,2.433,2.433,0,0,1,.188,1.329L5.5,2.741A1.105,1.105,0,0,0,5.208,1.941Z" transform="translate(60.178 3.348)"/>
    </g>
    <g id="그룹_7954" data-name="그룹 7954" transform="translate(19.939 15.21)">
      <path id="패스_4958" data-name="패스 4958" class="cls-1" d="M9.772,6.059,8.707,7.589,0,1.53,1.065,0Z" transform="translate(0 14.439)"/>
      <path id="패스_4959" data-name="패스 4959" class="cls-1" d="M3.752,1.251,5.128,0l5.35,5.887L9.145,7.1,8.2,6.057l-.062.056a2.345,2.345,0,0,1,.147.936,2.451,2.451,0,0,1-.245.94,2.807,2.807,0,0,1-.655.854,2.664,2.664,0,0,1-1.264.668,2.4,2.4,0,0,1-1.381-.133,3.585,3.585,0,0,1-1.332-.967L0,4.662,1.38,3.408,4.6,6.945a1.849,1.849,0,0,0,.726.515,1.382,1.382,0,0,0,.777.07,1.5,1.5,0,0,0,.719-.38,1.713,1.713,0,0,0,.469-.708,1.618,1.618,0,0,0,.055-.883,1.912,1.912,0,0,0-.49-.9Z" transform="translate(5.02 8.832)"/>
      <path id="패스_4960" data-name="패스 4960" class="cls-1" d="M3.576,8.23a3.413,3.413,0,0,1-1.8-.768A4.766,4.766,0,0,1,.467,5.709,4.727,4.727,0,0,1,0,3.569,3.447,3.447,0,0,1,.6,1.7,3.813,3.813,0,0,1,2.211.391,4,4,0,0,1,3.914,0a2.911,2.911,0,0,1,1.5.412A2.987,2.987,0,0,1,6.5,1.564L4.883,2.3a1.851,1.851,0,0,0-.55-.514,1.441,1.441,0,0,0-.695-.21,1.683,1.683,0,0,0-.775.167,1.714,1.714,0,0,0-.8.706,2,2,0,0,0-.248,1.1A3.546,3.546,0,0,0,2.17,4.9a3.644,3.644,0,0,0,.8,1.169,2.021,2.021,0,0,0,.991.539,1.707,1.707,0,0,0,1.062-.142,1.7,1.7,0,0,0,.612-.453,1.46,1.46,0,0,0,.314-.648,1.755,1.755,0,0,0-.024-.786L7.54,3.839A3.107,3.107,0,0,1,7.708,5.4a2.886,2.886,0,0,1-.65,1.407A3.883,3.883,0,0,1,5.639,7.855,3.855,3.855,0,0,1,3.576,8.23Z" transform="translate(13.987 5.01)"/>
      <path id="패스_4961" data-name="패스 4961" class="cls-1" d="M0,.246,1.848,0l1.4,10.514L1.4,10.761ZM2.457,5.823l.294-.039L5.172,2.232l2.155-.289L4.353,6.286l-.37.049L2.76,8.05ZM3.3,6.851,4.369,5.38,8.564,9.8l-2.207.3Z" transform="translate(21.932 0.419)"/>
      <path id="패스_4962" data-name="패스 4962" class="cls-1" d="M.475,10.559A1.161,1.161,0,0,1,.1,10.11a1.059,1.059,0,0,1-.093-.579,1.065,1.065,0,0,1,.2-.55,1.071,1.071,0,0,1,.454-.367,1.158,1.158,0,0,1,1.129.107,1.091,1.091,0,0,1,.376.45,1.115,1.115,0,0,1,.1.577,1.092,1.092,0,0,1-.206.547,1.158,1.158,0,0,1-.455.373,1.117,1.117,0,0,1-1.13-.109ZM2.161,7.635.511,7.477,1.057,0,3.042.191Z" transform="translate(31.111)"/>
    </g>
  </g>
</svg>
