<svg xmlns="http://www.w3.org/2000/svg" xmlns:xlink="http://www.w3.org/1999/xlink" width="334.451" height="161.669" viewBox="0 0 334.451 161.669">
  <defs>
    <style>
      .cls-1 {
        fill: none;
      }

      .cls-2 {
        clip-path: url(#clip-path);
      }

      .cls-3 {
        fill: #ffaa35;
      }

      .cls-4 {
        fill: #ff0;
      }

      .cls-5 {
        fill: #ffc72f;
      }

      .cls-6 {
        clip-path: url(#clip-path-2);
      }

      .cls-7 {
        clip-path: url(#clip-path-3);
      }

      .cls-8 {
        clip-path: url(#clip-path-4);
      }

      .cls-9 {
        clip-path: url(#clip-path-5);
      }

      .cls-10 {
        opacity: 0.35;
        mix-blend-mode: multiply;
        isolation: isolate;
      }
    </style>
    <clipPath id="clip-path">
      <path id="패스_2215" data-name="패스 2215" class="cls-1" d="M6041.3,2475.168c-3.869.167-9.311,2.955-14.2,7.637s-7.922,10-8.267,13.87l-.611,2.216,2.824,2.948c3.034,3.185,10.9.077,17.895-6.615s10.456-14.433,7.421-17.618l-2.823-2.948Z" transform="translate(-6018.221 -2474.659)"/>
    </clipPath>
    <clipPath id="clip-path-2">
      <path id="패스_2217" data-name="패스 2217" class="cls-1" d="M4925.147,2967.8c-5.379-.752-13.592,1.71-21.527,6.925s-13.464,11.782-14.922,17.028l-1.406,2.9,3.146,4.782c3.375,5.163,15.017,2.876,26.358-4.577s18.083-17.249,14.709-22.411l-3.146-4.783Z" transform="translate(-4887.292 -2967.664)"/>
    </clipPath>
    <clipPath id="clip-path-3">
      <path id="패스_2219" data-name="패스 2219" class="cls-1" d="M6025.418,3031.513c-3.9-.221-9.629,2.026-15,6.227s-8.944,9.229-9.679,13.071l-.834,2.159,2.534,3.238c2.72,3.5,10.921,1.173,18.6-4.831s11.928-13.415,9.208-16.912l-2.533-3.238Z" transform="translate(-5999.902 -3031.227)"/>
    </clipPath>
    <clipPath id="clip-path-4">
      <path id="패스_2221" data-name="패스 2221" class="cls-1" d="M5860.239,2237.2c2.12.091,5.1,1.618,7.778,4.181s4.338,5.478,4.527,7.6l.334,1.213-1.545,1.615c-1.662,1.744-5.972.042-9.8-3.622s-5.725-7.9-4.064-9.647l1.546-1.615Z" transform="translate(-5856.865 -2236.925)"/>
    </clipPath>
    <clipPath id="clip-path-5">
      <path id="패스_2234" data-name="패스 2234" class="cls-1" d="M4931.5,2479.94c.029-2.4,1.653-5.829,4.462-8.952s6.05-5.1,8.441-5.39l1.362-.422,1.881,1.694c2.033,1.82.257,6.759-3.758,11.221s-8.747,6.758-10.78,4.938l-1.881-1.694Z" transform="translate(-4931.229 -2465.176)"/>
    </clipPath>
  </defs>
  <g id="imgTodayPoint" transform="translate(27 -19.279)">
    <g id="그룹_6310" data-name="그룹 6310" transform="translate(0 0)">
      <g id="그룹_6207" data-name="그룹 6207" transform="translate(271.129 19.279)">
        <g id="그룹_6205" data-name="그룹 6205" transform="translate(5.886 6.154)">
          <g id="그룹_6204" data-name="그룹 6204" class="cls-2">
            <path id="패스_2214" data-name="패스 2214" class="cls-3" d="M6041.3,2475.168c-3.869.167-9.311,2.955-14.2,7.637s-7.922,10-8.267,13.87l-.611,2.216,2.824,2.948c3.034,3.185,10.9.077,17.895-6.615s10.456-14.433,7.421-17.618l-2.823-2.948Z" transform="translate(-6018.221 -2474.659)"/>
            <g id="그룹_6191" data-name="그룹 6191" transform="translate(2.559 24.565)">
              <rect id="사각형_8495" data-name="사각형 8495" class="cls-4" width="0.517" height="6.107" transform="matrix(0.719, -0.695, 0.695, 0.719, 0, 0.359)"/>
            </g>
            <g id="그룹_6192" data-name="그룹 6192" transform="translate(5.441 23.744)">
              <rect id="사각형_8496" data-name="사각형 8496" class="cls-4" width="0.517" height="6.106" transform="translate(0 0.359) rotate(-44.012)"/>
            </g>
            <g id="그룹_6193" data-name="그룹 6193" transform="translate(8.324 22.921)">
              <rect id="사각형_8497" data-name="사각형 8497" class="cls-4" width="0.517" height="6.106" transform="matrix(0.719, -0.695, 0.695, 0.719, 0, 0.359)"/>
            </g>
            <g id="그룹_6194" data-name="그룹 6194" transform="translate(11.206 22.1)">
              <rect id="사각형_8498" data-name="사각형 8498" class="cls-4" width="0.517" height="6.107" transform="matrix(0.719, -0.695, 0.695, 0.719, 0, 0.359)"/>
            </g>
            <g id="그룹_6195" data-name="그룹 6195" transform="translate(12.832 19.975)">
              <rect id="사각형_8499" data-name="사각형 8499" class="cls-4" width="0.517" height="6.106" transform="translate(0 0.359) rotate(-44.012)"/>
            </g>
            <g id="그룹_6196" data-name="그룹 6196" transform="translate(14.733 18.138)">
              <rect id="사각형_8500" data-name="사각형 8500" class="cls-4" width="0.517" height="6.106" transform="translate(0 0.359) rotate(-44.012)"/>
            </g>
            <g id="그룹_6197" data-name="그룹 6197" transform="translate(16.635 16.301)">
              <rect id="사각형_8501" data-name="사각형 8501" class="cls-4" width="0.517" height="6.106" transform="matrix(0.719, -0.695, 0.695, 0.719, 0, 0.359)"/>
            </g>
            <g id="그룹_6198" data-name="그룹 6198" transform="translate(25.379 2.517)">
              <rect id="사각형_8502" data-name="사각형 8502" class="cls-4" width="0.517" height="6.107" transform="translate(0 0.359) rotate(-44.012)"/>
            </g>
            <g id="그룹_6199" data-name="그룹 6199" transform="translate(24.459 5.37)">
              <rect id="사각형_8503" data-name="사각형 8503" class="cls-4" width="0.517" height="6.106" transform="matrix(0.719, -0.695, 0.695, 0.719, 0, 0.359)"/>
            </g>
            <g id="그룹_6200" data-name="그룹 6200" transform="translate(23.538 8.223)">
              <rect id="사각형_8504" data-name="사각형 8504" class="cls-4" width="0.517" height="6.106" transform="translate(0 0.359) rotate(-44.012)"/>
            </g>
            <g id="그룹_6201" data-name="그룹 6201" transform="translate(22.616 11.076)">
              <rect id="사각형_8505" data-name="사각형 8505" class="cls-4" width="0.517" height="6.107" transform="matrix(0.719, -0.695, 0.695, 0.719, 0, 0.359)"/>
            </g>
            <g id="그룹_6202" data-name="그룹 6202" transform="translate(20.438 12.626)">
              <rect id="사각형_8506" data-name="사각형 8506" class="cls-4" width="0.517" height="6.106" transform="matrix(0.719, -0.695, 0.695, 0.719, 0, 0.359)"/>
            </g>
            <g id="그룹_6203" data-name="그룹 6203" transform="translate(18.536 14.464)">
              <rect id="사각형_8507" data-name="사각형 8507" class="cls-4" width="0.517" height="6.106" transform="translate(0 0.359) rotate(-44.012)"/>
            </g>
          </g>
        </g>
        <g id="그룹_6206" data-name="그룹 6206" transform="translate(0 0)">
          <ellipse id="타원_842" data-name="타원 842" class="cls-4" cx="17.522" cy="7.964" rx="17.522" ry="7.964" transform="translate(0 24.248) rotate(-43.783)"/>
          <ellipse id="타원_843" data-name="타원 843" class="cls-3" cx="13.858" cy="5.791" rx="13.858" ry="5.791" transform="matrix(0.722, -0.692, 0.692, 0.722, 3.897, 23.017)"/>
          <ellipse id="타원_844" data-name="타원 844" class="cls-5" cx="13.858" cy="5.259" rx="13.858" ry="5.259" transform="translate(4.64 23.778) rotate(-43.786)"/>
        </g>
      </g>
      <g id="그룹_6224" data-name="그룹 6224" transform="translate(-27 59.86)">
        <g id="그룹_6222" data-name="그룹 6222" transform="translate(6.558 9.985)">
          <g id="그룹_6221" data-name="그룹 6221" class="cls-6">
            <path id="패스_2216" data-name="패스 2216" class="cls-3" d="M4925.147,2967.8c-5.379-.752-13.592,1.71-21.527,6.925s-13.464,11.782-14.922,17.028l-1.406,2.9,3.146,4.782c3.375,5.163,15.017,2.876,26.358-4.577s18.083-17.249,14.709-22.411l-3.146-4.783Z" transform="translate(-4887.292 -2967.664)"/>
            <g id="그룹_6208" data-name="그룹 6208" transform="translate(3.353 28.191)">
              <rect id="사각형_8508" data-name="사각형 8508" class="cls-4" width="0.724" height="8.563" transform="matrix(0.833, -0.553, 0.553, 0.833, 0, 0.401)"/>
            </g>
            <g id="그룹_6209" data-name="그룹 6209" transform="translate(7.537 27.791)">
              <rect id="사각형_8509" data-name="사각형 8509" class="cls-4" width="0.724" height="8.562" transform="translate(0 0.401) rotate(-33.578)"/>
            </g>
            <g id="그룹_6210" data-name="그룹 6210" transform="translate(11.722 27.389)">
              <rect id="사각형_8510" data-name="사각형 8510" class="cls-4" width="0.724" height="8.562" transform="matrix(0.833, -0.553, 0.553, 0.833, 0, 0.401)"/>
            </g>
            <g id="그룹_6211" data-name="그룹 6211" transform="translate(15.904 26.988)">
              <rect id="사각형_8511" data-name="사각형 8511" class="cls-4" width="0.724" height="8.563" transform="matrix(0.833, -0.553, 0.553, 0.833, 0, 0.401)"/>
            </g>
            <g id="그룹_6212" data-name="그룹 6212" transform="translate(18.686 24.47)">
              <rect id="사각형_8512" data-name="사각형 8512" class="cls-4" width="0.724" height="8.562" transform="translate(0 0.401) rotate(-33.578)"/>
            </g>
            <g id="그룹_6213" data-name="그룹 6213" transform="translate(21.774 22.42)">
              <rect id="사각형_8513" data-name="사각형 8513" class="cls-4" width="0.724" height="8.562" transform="translate(0 0.401) rotate(-33.578)"/>
            </g>
            <g id="그룹_6214" data-name="그룹 6214" transform="translate(24.864 20.369)">
              <rect id="사각형_8514" data-name="사각형 8514" class="cls-4" width="0.724" height="8.562" transform="translate(0 0.401) rotate(-33.578)"/>
            </g>
            <g id="그룹_6215" data-name="그룹 6215" transform="translate(40.423 3.581)">
              <rect id="사각형_8515" data-name="사각형 8515" class="cls-4" width="0.724" height="8.563" transform="translate(0 0.401) rotate(-33.578)"/>
            </g>
            <g id="그룹_6216" data-name="그룹 6216" transform="translate(38.43 7.282)">
              <rect id="사각형_8516" data-name="사각형 8516" class="cls-4" width="0.724" height="8.562" transform="matrix(0.833, -0.553, 0.553, 0.833, 0, 0.401)"/>
            </g>
            <g id="그룹_6217" data-name="그룹 6217" transform="translate(36.435 10.982)">
              <rect id="사각형_8517" data-name="사각형 8517" class="cls-4" width="0.724" height="8.562" transform="translate(0 0.401) rotate(-33.578)"/>
            </g>
            <g id="그룹_6218" data-name="그룹 6218" transform="translate(34.439 14.682)">
              <rect id="사각형_8518" data-name="사각형 8518" class="cls-4" width="0.724" height="8.563" transform="translate(0 0.401) rotate(-33.578)"/>
            </g>
            <g id="그룹_6219" data-name="그룹 6219" transform="translate(31.042 16.267)">
              <rect id="사각형_8519" data-name="사각형 8519" class="cls-4" width="0.724" height="8.562" transform="matrix(0.833, -0.553, 0.553, 0.833, 0, 0.401)"/>
            </g>
            <g id="그룹_6220" data-name="그룹 6220" transform="translate(27.952 18.319)">
              <rect id="사각형_8520" data-name="사각형 8520" class="cls-4" width="0.724" height="8.562" transform="translate(0 0.401) rotate(-33.578)"/>
            </g>
          </g>
        </g>
        <g id="그룹_6223" data-name="그룹 6223" transform="translate(0 0)">
          <ellipse id="타원_845" data-name="타원 845" class="cls-4" cx="24.571" cy="11.168" rx="24.571" ry="11.168" transform="translate(0 27.014) rotate(-33.349)"/>
          <ellipse id="타원_846" data-name="타원 846" class="cls-3" cx="19.433" cy="8.12" rx="19.433" ry="8.12" transform="translate(5.687 26.306) rotate(-33.352)"/>
          <ellipse id="타원_847" data-name="타원 847" class="cls-5" cx="19.433" cy="7.375" rx="19.433" ry="7.375" transform="matrix(0.835, -0.55, 0.55, 0.835, 6.519, 27.544)"/>
        </g>
      </g>
      <g id="그룹_6241" data-name="그룹 6241" transform="translate(255.91 145.861)">
        <g id="그룹_6239" data-name="그룹 6239" transform="translate(5.282 6.76)">
          <g id="그룹_6238" data-name="그룹 6238" class="cls-7">
            <path id="패스_2218" data-name="패스 2218" class="cls-3" d="M6025.418,3031.513c-3.9-.221-9.629,2.026-15,6.227s-8.944,9.229-9.679,13.071l-.834,2.159,2.534,3.238c2.72,3.5,10.921,1.173,18.6-4.831s11.928-13.415,9.208-16.912l-2.533-3.238Z" transform="translate(-5999.902 -3031.227)"/>
            <g id="그룹_6225" data-name="그룹 6225" transform="translate(2.495 22.371)">
              <rect id="사각형_8521" data-name="사각형 8521" class="cls-4" width="0.52" height="6.151" transform="translate(0 0.322) rotate(-38.288)"/>
            </g>
            <g id="그룹_6226" data-name="그룹 6226" transform="translate(5.466 21.838)">
              <rect id="사각형_8522" data-name="사각형 8522" class="cls-4" width="0.52" height="6.15" transform="translate(0 0.322) rotate(-38.291)"/>
            </g>
            <g id="그룹_6227" data-name="그룹 6227" transform="translate(8.439 21.302)">
              <rect id="사각형_8523" data-name="사각형 8523" class="cls-4" width="0.52" height="6.15" transform="translate(0 0.322) rotate(-38.288)"/>
            </g>
            <g id="그룹_6228" data-name="그룹 6228" transform="translate(11.409 20.769)">
              <rect id="사각형_8524" data-name="사각형 8524" class="cls-4" width="0.52" height="6.151" transform="translate(0 0.322) rotate(-38.292)"/>
            </g>
            <g id="그룹_6229" data-name="그룹 6229" transform="translate(13.252 18.803)">
              <rect id="사각형_8525" data-name="사각형 8525" class="cls-4" width="0.52" height="6.15" transform="translate(0 0.322) rotate(-38.288)"/>
            </g>
            <g id="그룹_6230" data-name="그룹 6230" transform="translate(15.342 17.153)">
              <rect id="사각형_8526" data-name="사각형 8526" class="cls-4" width="0.52" height="6.15" transform="translate(0 0.322) rotate(-38.288)"/>
            </g>
            <g id="그룹_6231" data-name="그룹 6231" transform="translate(17.433 15.502)">
              <rect id="사각형_8527" data-name="사각형 8527" class="cls-4" width="0.52" height="6.15" transform="translate(0 0.322) rotate(-38.288)"/>
            </g>
            <g id="그룹_6232" data-name="그룹 6232" transform="translate(27.582 2.566)">
              <rect id="사각형_8528" data-name="사각형 8528" class="cls-4" width="0.52" height="6.151" transform="translate(0 0.322) rotate(-38.288)"/>
            </g>
            <g id="그룹_6233" data-name="그룹 6233" transform="translate(26.373 5.333)">
              <rect id="사각형_8529" data-name="사각형 8529" class="cls-4" width="0.52" height="6.15" transform="translate(0 0.322) rotate(-38.288)"/>
            </g>
            <g id="그룹_6234" data-name="그룹 6234" transform="translate(25.163 8.1)">
              <rect id="사각형_8530" data-name="사각형 8530" class="cls-4" width="0.52" height="6.15" transform="translate(0 0.322) rotate(-38.288)"/>
            </g>
            <g id="그룹_6235" data-name="그룹 6235" transform="translate(23.952 10.866)">
              <rect id="사각형_8531" data-name="사각형 8531" class="cls-4" width="0.52" height="6.151" transform="translate(0 0.322) rotate(-38.292)"/>
            </g>
            <g id="그룹_6236" data-name="그룹 6236" transform="translate(21.614 12.201)">
              <rect id="사각형_8532" data-name="사각형 8532" class="cls-4" width="0.52" height="6.15" transform="translate(0 0.322) rotate(-38.291)"/>
            </g>
            <g id="그룹_6237" data-name="그룹 6237" transform="translate(19.523 13.852)">
              <rect id="사각형_8533" data-name="사각형 8533" class="cls-4" width="0.52" height="6.15" transform="translate(0 0.322) rotate(-38.288)"/>
            </g>
          </g>
        </g>
        <g id="그룹_6240" data-name="그룹 6240" transform="translate(0 0)">
          <ellipse id="타원_848" data-name="타원 848" class="cls-4" cx="17.649" cy="8.022" rx="17.649" ry="8.022" transform="translate(0 21.76) rotate(-38.058)"/>
          <ellipse id="타원_849" data-name="타원 849" class="cls-3" cx="13.959" cy="5.833" rx="13.959" ry="5.833" transform="matrix(0.787, -0.617, 0.617, 0.787, 4.029, 20.918)"/>
          <ellipse id="타원_850" data-name="타원 850" class="cls-5" cx="13.959" cy="5.297" rx="13.959" ry="5.297" transform="translate(4.698 21.755) rotate(-38.061)"/>
        </g>
      </g>
      <g id="그룹_6258" data-name="그룹 6258" transform="translate(223.239 76)">
        <g id="그룹_6256" data-name="그룹 6256" transform="translate(0.653 3.37)">
          <g id="그룹_6255" data-name="그룹 6255" class="cls-8">
            <path id="패스_2220" data-name="패스 2220" class="cls-3" d="M5860.239,2237.2c2.12.091,5.1,1.618,7.778,4.181s4.338,5.478,4.527,7.6l.334,1.213-1.545,1.615c-1.662,1.744-5.972.042-9.8-3.622s-5.725-7.9-4.064-9.647l1.546-1.615Z" transform="translate(-5856.865 -2236.925)"/>
            <g id="그룹_6242" data-name="그룹 6242" transform="translate(12.086 13.451)">
              <rect id="사각형_8534" data-name="사각형 8534" class="cls-4" width="0.283" height="3.344" transform="translate(0.203 2.601) rotate(-135.986)"/>
            </g>
            <g id="그룹_6243" data-name="그룹 6243" transform="translate(10.508 13.002)">
              <rect id="사각형_8535" data-name="사각형 8535" class="cls-4" width="0.283" height="3.343" transform="matrix(-0.719, -0.695, 0.695, -0.719, 0.203, 2.601)"/>
            </g>
            <g id="그룹_6244" data-name="그룹 6244" transform="translate(8.929 12.551)">
              <rect id="사각형_8536" data-name="사각형 8536" class="cls-4" width="0.283" height="3.343" transform="translate(0.203 2.601) rotate(-135.979)"/>
            </g>
            <g id="그룹_6245" data-name="그룹 6245" transform="translate(7.351 12.101)">
              <rect id="사각형_8537" data-name="사각형 8537" class="cls-4" width="0.283" height="3.344" transform="matrix(-0.719, -0.695, 0.695, -0.719, 0.203, 2.602)"/>
            </g>
            <g id="그룹_6246" data-name="그룹 6246" transform="translate(6.461 10.938)">
              <rect id="사각형_8538" data-name="사각형 8538" class="cls-4" width="0.283" height="3.343" transform="translate(0.203 2.601) rotate(-135.986)"/>
            </g>
            <g id="그룹_6247" data-name="그룹 6247" transform="translate(5.42 9.932)">
              <rect id="사각형_8539" data-name="사각형 8539" class="cls-4" width="0.283" height="3.343" transform="translate(0.203 2.601) rotate(-135.986)"/>
            </g>
            <g id="그룹_6248" data-name="그룹 6248" transform="translate(4.378 8.926)">
              <rect id="사각형_8540" data-name="사각형 8540" class="cls-4" width="0.283" height="3.343" transform="translate(0.203 2.601) rotate(-135.986)"/>
            </g>
            <g id="그룹_6249" data-name="그룹 6249" transform="translate(-0.411 1.378)">
              <rect id="사각형_8541" data-name="사각형 8541" class="cls-4" width="0.283" height="3.344" transform="translate(0.203 2.601) rotate(-135.979)"/>
            </g>
            <g id="그룹_6250" data-name="그룹 6250" transform="translate(0.094 2.94)">
              <rect id="사각형_8542" data-name="사각형 8542" class="cls-4" width="0.283" height="3.343" transform="matrix(-0.719, -0.695, 0.695, -0.719, 0.203, 2.601)"/>
            </g>
            <g id="그룹_6251" data-name="그룹 6251" transform="translate(0.598 4.502)">
              <rect id="사각형_8543" data-name="사각형 8543" class="cls-4" width="0.283" height="3.343" transform="translate(0.203 2.601) rotate(-135.986)"/>
            </g>
            <g id="그룹_6252" data-name="그룹 6252" transform="translate(1.103 6.065)">
              <rect id="사각형_8544" data-name="사각형 8544" class="cls-4" width="0.283" height="3.344" transform="translate(0.203 2.601) rotate(-135.986)"/>
            </g>
            <g id="그룹_6253" data-name="그룹 6253" transform="translate(2.295 6.914)">
              <rect id="사각형_8545" data-name="사각형 8545" class="cls-4" width="0.283" height="3.343" transform="translate(0.203 2.601) rotate(-135.986)"/>
            </g>
            <g id="그룹_6254" data-name="그룹 6254" transform="translate(3.337 7.92)">
              <rect id="사각형_8546" data-name="사각형 8546" class="cls-4" width="0.283" height="3.343" transform="translate(0.203 2.601) rotate(-135.986)"/>
            </g>
          </g>
        </g>
        <g id="그룹_6257" data-name="그룹 6257" transform="translate(0)">
          <ellipse id="타원_851" data-name="타원 851" class="cls-4" cx="9.595" cy="4.361" rx="9.595" ry="4.361" transform="translate(13.854 19.575) rotate(-136.217)"/>
          <path id="패스_2222" data-name="패스 2222" class="cls-3" d="M5860.569,2240.023c-1.208,1.268.267,4.646,3.294,7.544s6.46,4.219,7.669,2.951-.269-4.646-3.3-7.545S5861.777,2238.754,5860.569,2240.023Z" transform="translate(-5855.968 -2235.629)"/>
          <ellipse id="타원_852" data-name="타원 852" class="cls-5" cx="7.589" cy="2.88" rx="7.589" ry="2.88" transform="translate(13.363 17.178) rotate(-136.213)"/>
        </g>
      </g>
      <g id="그룹_6309" data-name="그룹 6309" transform="translate(20.577 155.153)">
        <g id="그룹_6307" data-name="그룹 6307" transform="translate(3.929 3.531)">
          <g id="그룹_6306" data-name="그룹 6306" class="cls-9">
            <path id="패스_2233" data-name="패스 2233" class="cls-3" d="M4931.5,2479.94c.029-2.4,1.653-5.829,4.462-8.952s6.05-5.1,8.441-5.39l1.362-.422,1.881,1.694c2.033,1.82.257,6.759-3.758,11.221s-8.747,6.758-10.78,4.938l-1.881-1.694Z" transform="translate(-4931.229 -2465.176)"/>
            <g id="그룹_6293" data-name="그룹 6293" transform="translate(14.8 1.573)">
              <rect id="사각형_8573" data-name="사각형 8573" class="cls-4" width="3.788" height="0.32" transform="matrix(-0.74, -0.672, 0.672, -0.74, 2.804, 2.784)"/>
            </g>
            <g id="그룹_6294" data-name="그룹 6294" transform="translate(14.346 3.376)">
              <rect id="사각형_8574" data-name="사각형 8574" class="cls-4" width="3.787" height="0.32" transform="matrix(-0.74, -0.672, 0.672, -0.74, 2.804, 2.783)"/>
            </g>
            <g id="그룹_6295" data-name="그룹 6295" transform="translate(13.891 5.179)">
              <rect id="사각형_8575" data-name="사각형 8575" class="cls-4" width="3.787" height="0.32" transform="matrix(-0.74, -0.672, 0.672, -0.74, 2.804, 2.783)"/>
            </g>
            <g id="그룹_6296" data-name="그룹 6296" transform="translate(13.437 6.982)">
              <rect id="사각형_8576" data-name="사각형 8576" class="cls-4" width="3.788" height="0.32" transform="matrix(-0.74, -0.672, 0.672, -0.74, 2.804, 2.784)"/>
            </g>
            <g id="그룹_6297" data-name="그룹 6297" transform="translate(12.151 8.03)">
              <rect id="사각형_8577" data-name="사각형 8577" class="cls-4" width="3.787" height="0.32" transform="matrix(-0.74, -0.672, 0.672, -0.74, 2.803, 2.783)"/>
            </g>
            <g id="그룹_6298" data-name="그룹 6298" transform="translate(11.049 9.244)">
              <rect id="사각형_8578" data-name="사각형 8578" class="cls-4" width="3.787" height="0.32" transform="translate(2.804 2.783) rotate(-137.765)"/>
            </g>
            <g id="그룹_6299" data-name="그룹 6299" transform="translate(9.946 10.458)">
              <rect id="사각형_8579" data-name="사각형 8579" class="cls-4" width="3.787" height="0.32" transform="matrix(-0.74, -0.672, 0.672, -0.74, 2.804, 2.783)"/>
            </g>
            <g id="그룹_6300" data-name="그룹 6300" transform="translate(1.568 16.144)">
              <rect id="사각형_8580" data-name="사각형 8580" class="cls-4" width="3.788" height="0.32" transform="matrix(-0.74, -0.672, 0.672, -0.74, 2.804, 2.784)"/>
            </g>
            <g id="그룹_6301" data-name="그룹 6301" transform="translate(3.319 15.519)">
              <rect id="사각형_8581" data-name="사각형 8581" class="cls-4" width="3.787" height="0.32" transform="matrix(-0.74, -0.672, 0.672, -0.74, 2.804, 2.783)"/>
            </g>
            <g id="그룹_6302" data-name="그룹 6302" transform="translate(5.07 14.893)">
              <rect id="사각형_8582" data-name="사각형 8582" class="cls-4" width="3.787" height="0.32" transform="matrix(-0.74, -0.672, 0.672, -0.74, 2.804, 2.783)"/>
            </g>
            <g id="그룹_6303" data-name="그룹 6303" transform="translate(6.822 14.267)">
              <rect id="사각형_8583" data-name="사각형 8583" class="cls-4" width="3.788" height="0.32" transform="matrix(-0.74, -0.672, 0.672, -0.74, 2.804, 2.784)"/>
            </g>
            <g id="그룹_6304" data-name="그룹 6304" transform="translate(7.741 12.887)">
              <rect id="사각형_8584" data-name="사각형 8584" class="cls-4" width="3.787" height="0.32" transform="matrix(-0.74, -0.672, 0.672, -0.74, 2.804, 2.783)"/>
            </g>
            <g id="그룹_6305" data-name="그룹 6305" transform="translate(8.844 11.672)">
              <rect id="사각형_8585" data-name="사각형 8585" class="cls-4" width="3.787" height="0.32" transform="matrix(-0.74, -0.672, 0.672, -0.74, 2.804, 2.783)"/>
            </g>
          </g>
        </g>
        <g id="그룹_6308" data-name="그룹 6308" transform="translate(0 0)">
          <ellipse id="타원_853" data-name="타원 853" class="cls-4" cx="4.94" cy="10.868" rx="4.94" ry="10.868" transform="matrix(-0.743, -0.669, 0.669, -0.743, 7.341, 22.763)"/>
          <path id="패스_2235" data-name="패스 2235" class="cls-3" d="M4951.487,2482.6c1.479,1.323,5.251-.466,8.426-3.995s4.552-7.462,3.073-8.785-5.251.466-8.426,4S4950.009,2481.282,4951.487,2482.6Z" transform="translate(-4946.462 -2464.985)"/>
          <path id="패스_2236" data-name="패스 2236" class="cls-5" d="M4950.7,2483.977c1.342,1.2,5.006-.687,8.182-4.216s4.661-7.363,3.318-8.564-5.006.687-8.182,4.216S4949.361,2482.776,4950.7,2483.977Z" transform="translate(-4945.438 -2466.131)"/>
        </g>
      </g>
    </g>
    <g id="그룹_6311" data-name="그룹 6311" class="cls-10" transform="translate(4.718 2.438)">
      <path id="패스_2237" data-name="패스 2237" class="cls-3" d="M6012.4,2492.342l-.012.044,2.824,2.948a4.372,4.372,0,0,0,3.124,1.251l.854.884.372-.358-.52-.537a11.133,11.133,0,0,0,2.509-.465l.52.539.373-.359-.342-.354a19.629,19.629,0,0,0,2.121-.869l.732.758.371-.359-.615-.637q.946-.475,1.924-1.07l1.2,1.245.372-.359-1.124-1.163c.592-.374,1.188-.781,1.787-1.214l.591.612.372-.359-.542-.562q.839-.626,1.676-1.325l.4.409.372-.359-.372-.385q.8-.682,1.583-1.426l.32.332.372-.359-.32-.331q.776-.752,1.491-1.518l.359.371.372-.359-.38-.393q.733-.807,1.4-1.619l.516.533.371-.359-.562-.581q.687-.868,1.286-1.731l1.083,1.122.371-.358-1.158-1.2q.633-.948,1.149-1.875l.559.579.372-.36-.673-.7a19.526,19.526,0,0,0,.954-2.076l.268.278.372-.359-.443-.458a11.149,11.149,0,0,0,.57-2.472l.422.438.371-.359-.751-.778a4.387,4.387,0,0,0-1.1-3.183l-2.824-2.948-.052.011a3.657,3.657,0,0,0-.331-.407c-3.033-3.185-11.16-.343-18.151,6.35s-10.2,14.7-7.165,17.883A3.616,3.616,0,0,0,6012.4,2492.342Z" transform="translate(-5740.089 -2444.592)"/>
      <path id="패스_2238" data-name="패스 2238" class="cls-3" d="M4926.448,2958.81l-3.146-4.783-.068,0a5.194,5.194,0,0,0-.358-.646c-3.375-5.162-15.3-3.307-26.644,4.146s-17.8,17.68-14.422,22.842a5.011,5.011,0,0,0,.452.591l-.025.053,3.145,4.782a6.133,6.133,0,0,0,3.992,2.52l.953,1.435.6-.4-.575-.866a15.656,15.656,0,0,0,3.573-.009l.581.874.6-.4-.381-.574a27.446,27.446,0,0,0,3.147-.656l.815,1.227.6-.4-.686-1.033c.95-.277,1.927-.607,2.923-.988l1.342,2.021.6-.4-1.255-1.891q1.367-.548,2.773-1.219l.659.992.6-.4-.6-.911q1.314-.65,2.648-1.4l.44.663.6-.4-.414-.624q1.271-.738,2.544-1.565l.357.538.6-.4-.356-.536q1.26-.839,2.44-1.716l.4.6.6-.4-.422-.637q1.217-.927,2.336-1.879l.574.866.6-.4-.625-.941q1.168-1.023,2.21-2.061l1.209,1.82.6-.4-1.292-1.946c.741-.765,1.431-1.531,2.06-2.293l.623.938.6-.4-.749-1.128a27.384,27.384,0,0,0,1.842-2.623l.3.451.6-.4-.494-.746a15.71,15.71,0,0,0,1.417-3.258l.468.706.6-.4-.838-1.263A6.16,6.16,0,0,0,4926.448,2958.81Z" transform="translate(-4907.396 -2885.557)"/>
      <path id="패스_2239" data-name="패스 2239" class="cls-3" d="M6026.727,3030.734l.409-.322-.675-.855a4.424,4.424,0,0,0-.785-3.3l-2.533-3.239-.053.007a3.689,3.689,0,0,0-.291-.442c-2.72-3.5-11.151-1.464-18.83,4.54s-11.7,13.706-8.978,17.2a3.832,3.832,0,0,0,.359.393l-.016.042,2.534,3.238a4.405,4.405,0,0,0,3.005,1.569l.767.972.409-.322-.465-.59a11.228,11.228,0,0,0,2.561-.213l.466.592.409-.322-.307-.389a19.6,19.6,0,0,0,2.213-.657l.658.834.409-.322-.554-.7c.664-.255,1.344-.548,2.035-.879l1.081,1.369.409-.322-1.011-1.28q.946-.473,1.913-1.038l.532.673.408-.322-.487-.617q.9-.543,1.813-1.16l.355.45.409-.322-.335-.424q.867-.6,1.729-1.271l.289.365.408-.323-.287-.364q.852-.676,1.646-1.372l.323.408.409-.322-.342-.433q.817-.735,1.562-1.482l.463.586.408-.323-.5-.639c.517-.534,1.006-1.07,1.462-1.6l.973,1.232.409-.322-1.041-1.318q.729-.887,1.339-1.764l.5.636.408-.322-.6-.766a19.763,19.763,0,0,0,1.166-1.984l.241.306.407-.322-.4-.5a11.2,11.2,0,0,0,.819-2.42Z" transform="translate(-5738.861 -2872.029)"/>
      <path id="패스_2240" data-name="패스 2240" class="cls-3" d="M5853.848,2234.976l1.546-1.614.029.006a2.025,2.025,0,0,1,.182-.223c1.661-1.744,6.111-.187,9.938,3.477s5.585,8.049,3.923,9.793a1.833,1.833,0,0,1-.216.193l.007.024-1.546,1.615a2.4,2.4,0,0,1-1.711.685l-.467.484-.2-.2.284-.294a6.135,6.135,0,0,1-1.373-.255l-.286.295-.2-.2.186-.194a10.666,10.666,0,0,1-1.161-.475l-.4.415-.2-.2.336-.348c-.345-.174-.7-.37-1.053-.586l-.659.681-.2-.2.616-.637c-.324-.205-.65-.428-.979-.665l-.324.335-.2-.2.3-.308q-.461-.343-.918-.726l-.216.224-.2-.2.2-.21q-.437-.374-.867-.781l-.177.182-.2-.2.173-.181q-.425-.412-.815-.832l-.2.2-.2-.2.208-.215q-.4-.442-.766-.887l-.281.292-.2-.2.308-.319q-.375-.475-.7-.948l-.593.614-.2-.2.634-.656q-.347-.519-.629-1.026l-.305.316-.2-.2.37-.381a10.511,10.511,0,0,1-.523-1.136l-.148.152-.2-.2.243-.251a6.076,6.076,0,0,1-.311-1.353l-.232.239-.2-.2.411-.426A2.412,2.412,0,0,1,5853.848,2234.976Z" transform="translate(-5633.686 -2156.373)"/>
      <path id="패스_2243" data-name="패스 2243" class="cls-3" d="M4947.059,2467.741l-.216.237-.225-.2a12.169,12.169,0,0,1-.5,1.331l.484.44-.216.237-.406-.369q-.278.6-.626,1.213l.8.722-.217.237-.743-.674c-.221.374-.461.752-.719,1.131l.39.354-.215.237-.358-.326q-.372.532-.79,1.065l.262.238-.215.237-.247-.223q-.406.506-.853,1.008l.212.192-.215.238-.211-.192q-.451.5-.914.953l.238.215-.215.238-.25-.228q-.488.47-.977.9l.34.31-.215.237-.371-.337q-.526.443-1.048.83l.716.65-.216.237-.765-.694q-.577.409-1.14.747l.369.335-.216.238-.444-.4a12.131,12.131,0,0,1-1.268.631l.177.162-.216.237-.293-.266a6.945,6.945,0,0,1-1.521.4l.28.254-.216.237-.5-.451a2.728,2.728,0,0,1-2-.623l-1.881-1.694.007-.033a2.222,2.222,0,0,1-.261-.2c-2.032-1.82-.426-6.912,3.589-11.375s8.917-6.605,10.95-4.785a2.27,2.27,0,0,1,.225.237l.027-.008,1.882,1.694a2.709,2.709,0,0,1,.835,1.913l.563.513-.214.237-.343-.311a6.825,6.825,0,0,1-.241,1.564Z" transform="translate(-4910.453 -2304.967)"/>
    </g>
  </g>
</svg>
