<svg xmlns="http://www.w3.org/2000/svg" width="90.954" height="21.975" viewBox="0 0 90.954 21.975">
  <defs>
    <style>
      .cls-1 {
        fill: #131313;
      }
    </style>
  </defs>
  <path id="패스_10672" data-name="패스 10672" class="cls-1" d="M-43.2,3.975a3.5,3.5,0,0,1-1.1-.137,1.423,1.423,0,0,1-.612-.375,1.06,1.06,0,0,1-.263-.55,4.366,4.366,0,0,1-.05-.687v-4.2a2.431,2.431,0,0,1,.487-1.562A2.18,2.18,0,0,1-42.95-4.15h14.3a3.5,3.5,0,0,1,1.1.137,1.423,1.423,0,0,1,.612.375,1.06,1.06,0,0,1,.263.55,4.366,4.366,0,0,1,.05.687V1.8a1.97,1.97,0,0,1-.65,1.712,2.733,2.733,0,0,1-1.625.463ZM-46-12.875a1.394,1.394,0,0,1,.4-1.087,2.548,2.548,0,0,1,1.625-.363h7.925a2.548,2.548,0,0,1,1.625.363,1.394,1.394,0,0,1,.4,1.087,1.346,1.346,0,0,1-.4,1.012,2.421,2.421,0,0,1-1.625.388h-1.5a2.88,2.88,0,0,0,.462.887,4,4,0,0,0,.65.65,4.506,4.506,0,0,0,.787.5l.875.438a2.572,2.572,0,0,1,1.188,1.075,1.73,1.73,0,0,1-.037,1.475,1.546,1.546,0,0,1-.562.688A2.092,2.092,0,0,1-35-5.45a2.364,2.364,0,0,1-.588-.025,1.817,1.817,0,0,1-.587-.2,11.3,11.3,0,0,1-1.65-1.088A14.105,14.105,0,0,1-39.6-8.4,10.858,10.858,0,0,1-43-5.725a4.369,4.369,0,0,1-.737.287,2.811,2.811,0,0,1-.788.113,2.751,2.751,0,0,1-.862-.2A1.425,1.425,0,0,1-46.1-6.2a1.7,1.7,0,0,1-.175-1.5,2.188,2.188,0,0,1,1.15-1.1q.625-.3,1.138-.562a5.246,5.246,0,0,0,.888-.562,3.115,3.115,0,0,0,.625-.662,3.011,3.011,0,0,0,.4-.887h-1.9a2.421,2.421,0,0,1-1.625-.388A1.346,1.346,0,0,1-46-12.875Zm14.825-2.7a2.032,2.032,0,0,1,.612-1.712,2.28,2.28,0,0,1,1.413-.462,2.855,2.855,0,0,1,.762.1,1.545,1.545,0,0,1,.638.35,1.842,1.842,0,0,1,.45.675,2.766,2.766,0,0,1,.175,1.05V-13.2H-25.3a3.436,3.436,0,0,1,1.15.163,1.876,1.876,0,0,1,.7.412,1.275,1.275,0,0,1,.337.563,2.265,2.265,0,0,1,.087.613,2.684,2.684,0,0,1-.087.7,1.19,1.19,0,0,1-.337.563,1.855,1.855,0,0,1-.7.387,3.7,3.7,0,0,1-1.15.15h-1.825V-7.2A2.844,2.844,0,0,1-27.3-6.125a1.842,1.842,0,0,1-.45.675,1.545,1.545,0,0,1-.638.35,2.855,2.855,0,0,1-.762.1,2.855,2.855,0,0,1-.763-.1,1.647,1.647,0,0,1-.65-.35,1.658,1.658,0,0,1-.45-.675A3.041,3.041,0,0,1-31.175-7.2Zm-13.3-1.075a1.336,1.336,0,0,1,.362-.925,2.114,2.114,0,0,1,1.537-.4h5.35a2.114,2.114,0,0,1,1.537.4,1.336,1.336,0,0,1,.362.925,1.532,1.532,0,0,1-.075.462.944.944,0,0,1-.287.425,1.556,1.556,0,0,1-.575.3,3.344,3.344,0,0,1-.962.112h-5.35a3.344,3.344,0,0,1-.962-.112,1.556,1.556,0,0,1-.575-.3.944.944,0,0,1-.288-.425A1.532,1.532,0,0,1-44.475-16.65Zm3.3,15.825V.65h10.5V-.825Zm24.75-16.85a7.22,7.22,0,0,1,2.35.338,3.982,3.982,0,0,1,1.6.987,4.247,4.247,0,0,1,.95,1.613,8.452,8.452,0,0,1,.4,2.188q0,.225.013,1.062T-11.1-9.5v4.9q0,1.15-.012,1.987t-.013,1.038A5.391,5.391,0,0,1-12.387,2.2a5.46,5.46,0,0,1-4.037,1.25,7.76,7.76,0,0,1-2.425-.325,3.837,3.837,0,0,1-1.587-.963A3.987,3.987,0,0,1-21.35.587a8.9,8.9,0,0,1-.375-2.163q-.025-.225-.025-1.062t-.013-1.987q-.012-1.15-.012-2.45t.012-2.45q.012-1.15.013-1.975t.025-1.05a9.617,9.617,0,0,1,.363-2.2,3.966,3.966,0,0,1,.9-1.6,3.877,3.877,0,0,1,1.587-.987A7.585,7.585,0,0,1-16.425-17.675Zm10.3,16.65H-7.9a3.755,3.755,0,0,1-1.125-.138,1.629,1.629,0,0,1-.662-.375A1.144,1.144,0,0,1-10-2.087a2.946,2.946,0,0,1-.075-.688A2.619,2.619,0,0,1-10-3.388a1.144,1.144,0,0,1,.313-.55,1.742,1.742,0,0,1,.662-.387A3.461,3.461,0,0,1-7.9-4.475h1.775V-10.1H-7.9a3.755,3.755,0,0,1-1.125-.137,1.629,1.629,0,0,1-.662-.375,1.144,1.144,0,0,1-.312-.55,2.946,2.946,0,0,1-.075-.687A2.619,2.619,0,0,1-10-12.462a1.144,1.144,0,0,1,.313-.55,1.742,1.742,0,0,1,.662-.388A3.461,3.461,0,0,1-7.9-13.55h1.775v-2.025a2.032,2.032,0,0,1,.612-1.712A2.28,2.28,0,0,1-4.1-17.75a2.855,2.855,0,0,1,.763.1,1.545,1.545,0,0,1,.638.35,1.842,1.842,0,0,1,.45.675,2.766,2.766,0,0,1,.175,1.05V1.5A2.844,2.844,0,0,1-2.25,2.575a1.842,1.842,0,0,1-.45.675,1.545,1.545,0,0,1-.638.35,2.855,2.855,0,0,1-.763.1,2.855,2.855,0,0,1-.762-.1,1.647,1.647,0,0,1-.65-.35,1.658,1.658,0,0,1-.45-.675A3.041,3.041,0,0,1-6.125,1.5Zm-9.05-11.625a3.288,3.288,0,0,0-.175-.85,1.393,1.393,0,0,0-.287-.487.773.773,0,0,0-.375-.213,1.8,1.8,0,0,0-.412-.05,1.459,1.459,0,0,0-.413.063.908.908,0,0,0-.388.237,1.411,1.411,0,0,0-.3.512,2.923,2.923,0,0,0-.15.863q-.025.225-.025,1.075t-.012,2q-.012,1.15-.013,2.45t.013,2.45q.012,1.15.012,1.987t.025,1.038a2.733,2.733,0,0,0,.112.888,1.3,1.3,0,0,0,.288.487.726.726,0,0,0,.4.213,2.733,2.733,0,0,0,.45.038,2.372,2.372,0,0,0,.412-.038A.721.721,0,0,0-15.625-.2a1.434,1.434,0,0,0,.3-.487,2.813,2.813,0,0,0,.15-.888q.025-.225.025-1.075t.013-2.013q.012-1.163.012-2.463V-9.588q0-1.162-.012-2T-15.175-12.65ZM5.475,4a4.93,4.93,0,0,1-2-.412,3.712,3.712,0,0,1-1.325-1,3.868,3.868,0,0,1-.725-1.4A6.024,6.024,0,0,1,1.2-.475,6.882,6.882,0,0,1,1.4-2.15a3.778,3.778,0,0,1,.688-1.425,3.3,3.3,0,0,1,1.325-.987A5.624,5.624,0,0,1,5.525-4.95h10.7a5.183,5.183,0,0,1,2.112.375,3.461,3.461,0,0,1,1.325.987,3.661,3.661,0,0,1,.688,1.425,7.035,7.035,0,0,1,.2,1.687,6.024,6.024,0,0,1-.225,1.662,3.769,3.769,0,0,1-.738,1.4,3.865,3.865,0,0,1-1.325,1A4.838,4.838,0,0,1,16.275,4ZM5.15-14.65h2.9v-.675a2.032,2.032,0,0,1,.613-1.713,2.28,2.28,0,0,1,1.412-.462,2.587,2.587,0,0,1,.738.1,1.462,1.462,0,0,1,.6.35,1.689,1.689,0,0,1,.413.675,3.182,3.182,0,0,1,.15,1.05V-8.25a4.366,4.366,0,0,1-.05.688,1.06,1.06,0,0,1-.262.55,1.423,1.423,0,0,1-.613.375,3.5,3.5,0,0,1-1.1.138H3.25a3.5,3.5,0,0,1-1.1-.138,1.423,1.423,0,0,1-.612-.375,1.06,1.06,0,0,1-.262-.55,4.366,4.366,0,0,1-.05-.687v-7.075a2.161,2.161,0,0,1,.55-1.713,2.027,2.027,0,0,1,1.35-.462,2.855,2.855,0,0,1,.763.1,1.545,1.545,0,0,1,.637.35,1.842,1.842,0,0,1,.45.675,2.766,2.766,0,0,1,.175,1.05Zm10.425-.925a2.032,2.032,0,0,1,.612-1.712A2.28,2.28,0,0,1,17.6-17.75a2.855,2.855,0,0,1,.762.1A1.545,1.545,0,0,1,19-17.3a1.842,1.842,0,0,1,.45.675,2.766,2.766,0,0,1,.175,1.05v1.85H21.45a3.7,3.7,0,0,1,1.15.15,1.855,1.855,0,0,1,.7.388,1.193,1.193,0,0,1,.338.55,2.265,2.265,0,0,1,.087.613,2.545,2.545,0,0,1-.087.688,1.193,1.193,0,0,1-.338.55,1.739,1.739,0,0,1-.7.375,4.016,4.016,0,0,1-1.15.137H19.625V-8a2.844,2.844,0,0,1-.175,1.075A1.842,1.842,0,0,1,19-6.25a1.545,1.545,0,0,1-.638.35,2.855,2.855,0,0,1-.762.1,2.855,2.855,0,0,1-.763-.1,1.647,1.647,0,0,1-.65-.35,1.658,1.658,0,0,1-.45-.675A3.041,3.041,0,0,1,15.575-8ZM15.15.6A2.745,2.745,0,0,0,16.2.375q.325-.175.325-.85,0-.7-.325-.875a2.745,2.745,0,0,0-1.05-.225H6.6a2.745,2.745,0,0,0-1.05.225q-.325.175-.325.875,0,.675.325.85A2.745,2.745,0,0,0,6.6.6ZM8.05-11.45H5.15V-9.7h2.9ZM27.5-5.55a2.338,2.338,0,0,1,1.325.4,1.836,1.836,0,0,1,.675,1.5H40.625A1.846,1.846,0,0,1,41.3-5.138a2.328,2.328,0,0,1,1.35-.412,2.587,2.587,0,0,1,.737.1,1.462,1.462,0,0,1,.6.35,1.689,1.689,0,0,1,.412.675,3.182,3.182,0,0,1,.15,1.05V2.25a4.366,4.366,0,0,1-.05.688,1.06,1.06,0,0,1-.262.55,1.423,1.423,0,0,1-.613.375,3.5,3.5,0,0,1-1.1.138h-14.9a3.5,3.5,0,0,1-1.1-.138,1.423,1.423,0,0,1-.612-.375,1.06,1.06,0,0,1-.263-.55,4.366,4.366,0,0,1-.05-.687V-3.375a2.161,2.161,0,0,1,.55-1.712A2.027,2.027,0,0,1,27.5-5.55Zm1.45-9.1h2.6v-.675a2.032,2.032,0,0,1,.612-1.713,2.28,2.28,0,0,1,1.413-.462,2.587,2.587,0,0,1,.737.1,1.462,1.462,0,0,1,.6.35,1.689,1.689,0,0,1,.413.675,3.182,3.182,0,0,1,.15,1.05V-8.25a4.366,4.366,0,0,1-.05.688,1.06,1.06,0,0,1-.263.55,1.423,1.423,0,0,1-.612.375,3.5,3.5,0,0,1-1.1.138h-6.4a3.5,3.5,0,0,1-1.1-.138,1.423,1.423,0,0,1-.613-.375,1.06,1.06,0,0,1-.262-.55,4.366,4.366,0,0,1-.05-.687v-7.075a2.161,2.161,0,0,1,.55-1.713,2.027,2.027,0,0,1,1.35-.462,2.855,2.855,0,0,1,.763.1,1.545,1.545,0,0,1,.638.35,1.842,1.842,0,0,1,.45.675,2.766,2.766,0,0,1,.175,1.05ZM40.525-10.6h-1.95a4.016,4.016,0,0,1-1.15-.138,1.739,1.739,0,0,1-.7-.375,1.193,1.193,0,0,1-.337-.55,2.545,2.545,0,0,1-.088-.687,2.265,2.265,0,0,1,.088-.613,1.193,1.193,0,0,1,.337-.55,1.855,1.855,0,0,1,.7-.387,3.7,3.7,0,0,1,1.15-.15h1.95v-1.525a2.032,2.032,0,0,1,.612-1.712,2.28,2.28,0,0,1,1.413-.462,2.855,2.855,0,0,1,.762.1,1.545,1.545,0,0,1,.638.35,1.842,1.842,0,0,1,.45.675,2.766,2.766,0,0,1,.175,1.05v6.95A2.844,2.844,0,0,1,44.4-7.55a1.842,1.842,0,0,1-.45.675,1.545,1.545,0,0,1-.638.35,2.855,2.855,0,0,1-.762.1,2.855,2.855,0,0,1-.763-.1,1.647,1.647,0,0,1-.65-.35,1.658,1.658,0,0,1-.45-.675,3.041,3.041,0,0,1-.162-1.075Zm.1,11.4V-.45h-11.1V.8ZM31.55-11.45h-2.6V-9.7h2.6Z" transform="translate(46.379 17.975)"/>
</svg>
