<svg xmlns="http://www.w3.org/2000/svg" width="92.025" height="22.449" viewBox="0 0 92.025 22.449">
  <defs>
    <style>
      .cls-1 {
        fill: #131313;
      }
    </style>
  </defs>
  <path id="패스_10671" data-name="패스 10671" class="cls-1" d="M-41.525,4a4.791,4.791,0,0,1-2-.425A3.7,3.7,0,0,1-44.85,2.537a4.093,4.093,0,0,1-.725-1.45A6.294,6.294,0,0,1-45.8-.6a7.19,7.19,0,0,1,.2-1.7,3.883,3.883,0,0,1,.688-1.463,3.454,3.454,0,0,1,1.325-1.025A5.288,5.288,0,0,1-41.475-5.2h10.7a5.036,5.036,0,0,1,2.112.388,3.453,3.453,0,0,1,1.325,1.025,3.879,3.879,0,0,1,.688,1.475A7.347,7.347,0,0,1-26.45-.6a6.294,6.294,0,0,1-.225,1.688,3.985,3.985,0,0,1-.738,1.45,3.851,3.851,0,0,1-1.325,1.038A4.7,4.7,0,0,1-30.725,4Zm-.15-14.175h4.9a4.016,4.016,0,0,1,1.15.138,1.739,1.739,0,0,1,.7.375,1.2,1.2,0,0,1,.337.538,2.134,2.134,0,0,1,.088.6,2.545,2.545,0,0,1-.088.688,1.193,1.193,0,0,1-.337.55,1.739,1.739,0,0,1-.7.375,4.016,4.016,0,0,1-1.15.137H-43.7a3.5,3.5,0,0,1-1.1-.137,1.423,1.423,0,0,1-.612-.375,1.06,1.06,0,0,1-.263-.55,4.366,4.366,0,0,1-.05-.687V-15.45a6.779,6.779,0,0,1,.05-.863,1.267,1.267,0,0,1,.263-.65,1.313,1.313,0,0,1,.612-.4,3.5,3.5,0,0,1,1.1-.137h6.425a4.016,4.016,0,0,1,1.15.137,1.739,1.739,0,0,1,.7.375,1.193,1.193,0,0,1,.337.55A2.545,2.545,0,0,1-35-15.75a2.134,2.134,0,0,1-.088.6,1.2,1.2,0,0,1-.337.538,1.739,1.739,0,0,1-.7.375,4.016,4.016,0,0,1-1.15.138h-4.4Zm10.25-5.4a2.032,2.032,0,0,1,.612-1.712A2.28,2.28,0,0,1-29.4-17.75a2.855,2.855,0,0,1,.762.1A1.545,1.545,0,0,1-28-17.3a1.842,1.842,0,0,1,.45.675,2.766,2.766,0,0,1,.175,1.05V-13.8h1.825a3.436,3.436,0,0,1,1.15.162,1.876,1.876,0,0,1,.7.413,1.275,1.275,0,0,1,.338.562,2.265,2.265,0,0,1,.087.613,2.684,2.684,0,0,1-.087.7,1.19,1.19,0,0,1-.338.563,1.855,1.855,0,0,1-.7.387,3.7,3.7,0,0,1-1.15.15h-1.825v2a2.844,2.844,0,0,1-.175,1.075A1.842,1.842,0,0,1-28-6.5a1.545,1.545,0,0,1-.638.35,2.855,2.855,0,0,1-.762.1,2.855,2.855,0,0,1-.763-.1,1.647,1.647,0,0,1-.65-.35,1.658,1.658,0,0,1-.45-.675,3.041,3.041,0,0,1-.163-1.075ZM-31.85.6A2.057,2.057,0,0,0-30.8.313,1.07,1.07,0,0,0-30.475-.6a1.1,1.1,0,0,0-.325-.937,2.057,2.057,0,0,0-1.05-.287H-40.4a2.057,2.057,0,0,0-1.05.287,1.1,1.1,0,0,0-.325.938,1.07,1.07,0,0,0,.325.913A2.057,2.057,0,0,0-40.4.6Zm12.4,3.375a3.5,3.5,0,0,1-1.1-.137,1.423,1.423,0,0,1-.613-.375,1.06,1.06,0,0,1-.262-.55,4.366,4.366,0,0,1-.05-.687v-4.2a2.431,2.431,0,0,1,.488-1.562A2.18,2.18,0,0,1-19.2-4.15H-4.9a3.5,3.5,0,0,1,1.1.137,1.423,1.423,0,0,1,.613.375,1.06,1.06,0,0,1,.263.55,4.366,4.366,0,0,1,.05.687V1.8a1.97,1.97,0,0,1-.65,1.712,2.733,2.733,0,0,1-1.625.463Zm-3.05-16.8a1.394,1.394,0,0,1,.4-1.087,2.548,2.548,0,0,1,1.625-.362h7.925a2.548,2.548,0,0,1,1.625.362,1.394,1.394,0,0,1,.4,1.087,1.346,1.346,0,0,1-.4,1.013,2.421,2.421,0,0,1-1.625.388H-14.1a3.076,3.076,0,0,0,1.025,1.6A9.291,9.291,0,0,0-11.45-8.8a2.835,2.835,0,0,1,1.213,1.038,1.582,1.582,0,0,1-.012,1.438,1.546,1.546,0,0,1-.563.687,2.092,2.092,0,0,1-.812.313,2.364,2.364,0,0,1-.588-.025,1.817,1.817,0,0,1-.587-.2,10.371,10.371,0,0,1-1.613-1.075,14.564,14.564,0,0,1-1.712-1.6,10.858,10.858,0,0,1-1.562,1.463A12.621,12.621,0,0,1-19.5-5.6a4.369,4.369,0,0,1-.737.288,2.811,2.811,0,0,1-.788.112,2.751,2.751,0,0,1-.863-.2,1.425,1.425,0,0,1-.712-.675,1.7,1.7,0,0,1-.175-1.5,2.188,2.188,0,0,1,1.15-1.1q.65-.325,1.163-.587a5.246,5.246,0,0,0,.887-.562,3.25,3.25,0,0,0,.638-.675,2.6,2.6,0,0,0,.388-.925h-1.925a2.421,2.421,0,0,1-1.625-.388A1.346,1.346,0,0,1-22.5-12.825Zm15.65,4.15h-1.8a3.461,3.461,0,0,1-1.125-.15,1.742,1.742,0,0,1-.663-.387,1.145,1.145,0,0,1-.312-.562,3.109,3.109,0,0,1-.075-.7,2.619,2.619,0,0,1,.075-.613,1.222,1.222,0,0,1,.312-.562,1.769,1.769,0,0,1,.663-.413,3.215,3.215,0,0,1,1.125-.162h1.8v-3.35a2.032,2.032,0,0,1,.613-1.712,2.28,2.28,0,0,1,1.412-.462,2.855,2.855,0,0,1,.763.1,1.545,1.545,0,0,1,.638.35,1.842,1.842,0,0,1,.45.675,2.766,2.766,0,0,1,.175,1.05v8.5A2.844,2.844,0,0,1-2.975-6a1.842,1.842,0,0,1-.45.675,1.545,1.545,0,0,1-.638.35,2.855,2.855,0,0,1-.763.1,2.855,2.855,0,0,1-.762-.1,1.647,1.647,0,0,1-.65-.35A1.658,1.658,0,0,1-6.687-6,3.041,3.041,0,0,1-6.85-7.075ZM-20.975-16.65a1.336,1.336,0,0,1,.363-.925,2.114,2.114,0,0,1,1.537-.4h5.35a2.114,2.114,0,0,1,1.538.4,1.336,1.336,0,0,1,.363.925,1.532,1.532,0,0,1-.075.462.944.944,0,0,1-.288.425,1.556,1.556,0,0,1-.575.3,3.344,3.344,0,0,1-.963.112h-5.35a3.344,3.344,0,0,1-.962-.112,1.556,1.556,0,0,1-.575-.3.944.944,0,0,1-.288-.425A1.532,1.532,0,0,1-20.975-16.65Zm3.55,15.825V.65h10.5V-.825Zm18.15-12.5a1.222,1.222,0,0,1,.438-1.05A3.435,3.435,0,0,1,3-14.7h8.95a3.435,3.435,0,0,1,1.838.325,1.222,1.222,0,0,1,.438,1.05,1.109,1.109,0,0,1-.337.875,2.5,2.5,0,0,1-1.388.375,1.956,1.956,0,0,1,.35,1.15,3.57,3.57,0,0,1-.8,2.6A4.237,4.237,0,0,1,9.55-7.3v1.2H12.9a3.227,3.227,0,0,1,1.837.35,1.235,1.235,0,0,1,.437,1.025,1.2,1.2,0,0,1-.437.95A3.05,3.05,0,0,1,12.9-3.4H3.05a3.05,3.05,0,0,1-1.838-.375,1.2,1.2,0,0,1-.437-.95A1.235,1.235,0,0,1,1.212-5.75,3.227,3.227,0,0,1,3.05-6.1H5.5V-7.3A4.4,4.4,0,0,1,2.925-8.387,3.483,3.483,0,0,1,2.1-10.925a2.191,2.191,0,0,1,.3-1.15,2.289,2.289,0,0,1-1.35-.387A1.14,1.14,0,0,1,.725-13.325Zm15.65-2.25a2.032,2.032,0,0,1,.612-1.712A2.28,2.28,0,0,1,18.4-17.75a2.855,2.855,0,0,1,.763.1,1.545,1.545,0,0,1,.637.35,1.842,1.842,0,0,1,.45.675,2.766,2.766,0,0,1,.175,1.05v3.45H21.7a3.436,3.436,0,0,1,1.15.162,1.877,1.877,0,0,1,.7.413,1.275,1.275,0,0,1,.337.563,2.265,2.265,0,0,1,.087.613,2.684,2.684,0,0,1-.087.7,1.19,1.19,0,0,1-.337.563,1.855,1.855,0,0,1-.7.387,3.7,3.7,0,0,1-1.15.15H20.425v3.2A2.844,2.844,0,0,1,20.25-4.3a1.842,1.842,0,0,1-.45.675,1.545,1.545,0,0,1-.637.35,2.855,2.855,0,0,1-.763.1,2.855,2.855,0,0,1-.762-.1,1.647,1.647,0,0,1-.65-.35,1.658,1.658,0,0,1-.45-.675,3.041,3.041,0,0,1-.162-1.075Zm0,16.425H4.1A4.863,4.863,0,0,1,2.95.738a1.824,1.824,0,0,1-.7-.312A.986.986,0,0,1,1.913-.05a1.885,1.885,0,0,1-.088-.575,2.153,2.153,0,0,1,.088-.65A.986.986,0,0,1,2.25-1.75a1.705,1.705,0,0,1,.7-.3,5.449,5.449,0,0,1,1.15-.1H18.4a2.807,2.807,0,0,1,1.1.175,1.526,1.526,0,0,1,.612.45,1.307,1.307,0,0,1,.263.625,5.122,5.122,0,0,1,.05.725V1.8a2.766,2.766,0,0,1-.175,1.05,1.842,1.842,0,0,1-.45.675,1.545,1.545,0,0,1-.637.35,2.855,2.855,0,0,1-.763.1,2.28,2.28,0,0,1-1.413-.463A2.032,2.032,0,0,1,16.375,1.8ZM2.675-16.925a1.913,1.913,0,0,1,.087-.625.749.749,0,0,1,.337-.4,2.029,2.029,0,0,1,.7-.225,7.218,7.218,0,0,1,1.15-.075H10a7.218,7.218,0,0,1,1.15.075,2.029,2.029,0,0,1,.7.225.749.749,0,0,1,.337.4,1.913,1.913,0,0,1,.087.625,1.11,1.11,0,0,1-.437.95A3.435,3.435,0,0,1,10-15.65H4.95a3.435,3.435,0,0,1-1.837-.325A1.11,1.11,0,0,1,2.675-16.925Zm3.325,6a1.185,1.185,0,0,0,.275.813,1.632,1.632,0,0,0,1.2.312,1.632,1.632,0,0,0,1.2-.312,1.185,1.185,0,0,0,.275-.812,1.221,1.221,0,0,0-.262-.812q-.263-.312-1.213-.312a1.632,1.632,0,0,0-1.2.313A1.185,1.185,0,0,0,6-10.925ZM30.075.85v.8h12.65a6.206,6.206,0,0,1,1.15.087,2,2,0,0,1,.7.25.814.814,0,0,1,.338.4A1.547,1.547,0,0,1,45,2.925a1.712,1.712,0,0,1-.088.587.755.755,0,0,1-.338.388,2.029,2.029,0,0,1-.7.225,7.218,7.218,0,0,1-1.15.075H28.05a4.746,4.746,0,0,1-1.1-.1,1.361,1.361,0,0,1-.613-.3.854.854,0,0,1-.262-.488,3.734,3.734,0,0,1-.05-.637V-.075a1.908,1.908,0,0,1,.063-.487.888.888,0,0,1,.263-.425,1.433,1.433,0,0,1,.575-.3,3.591,3.591,0,0,1,1-.113H40.4v-.725H27.7a2.208,2.208,0,0,1-1.4-.312,1.192,1.192,0,0,1-.35-.938,1.2,1.2,0,0,1,.35-.862A1.976,1.976,0,0,1,27.7-4.6h1.225V-5.65H25.9a2.154,2.154,0,0,1-1.262-.287A1.121,1.121,0,0,1,24.25-6.9a1.12,1.12,0,0,1,.388-.888A1.908,1.908,0,0,1,25.9-8.125H44.575a1.908,1.908,0,0,1,1.263.337,1.12,1.12,0,0,1,.387.888,1.121,1.121,0,0,1-.387.962,2.154,2.154,0,0,1-1.263.287h-3V-4.6h1a2.883,2.883,0,0,1,.975.137,1.565,1.565,0,0,1,.575.338.96.96,0,0,1,.263.45,2.055,2.055,0,0,1,.063.5V-.45A1.284,1.284,0,0,1,44.1.5a2.328,2.328,0,0,1-1.55.35Zm0-13.075v.8h12.9q2.025,0,2.025,1.2a.967.967,0,0,1-.487.95,3.546,3.546,0,0,1-1.538.25H28.05a4.238,4.238,0,0,1-1.1-.113,1.457,1.457,0,0,1-.613-.312.861.861,0,0,1-.262-.5,3.96,3.96,0,0,1-.05-.65v-2.425a1.908,1.908,0,0,1,.063-.487.888.888,0,0,1,.263-.425,1.433,1.433,0,0,1,.575-.3,3.591,3.591,0,0,1,1-.112H40.4v-.725H27.6a2.019,2.019,0,0,1-1.263-.312,1.133,1.133,0,0,1-.387-.938,1.221,1.221,0,0,1,.387-.887A1.734,1.734,0,0,1,27.6-17.6H42.575a2.883,2.883,0,0,1,.975.138,1.565,1.565,0,0,1,.575.337.96.96,0,0,1,.263.45,2.055,2.055,0,0,1,.063.5V-13.6a1.417,1.417,0,0,1-.35.988,2.159,2.159,0,0,1-1.55.387Zm2.9,7.625h4.55V-5.65h-4.55Z" transform="translate(45.8 18.25)"/>
</svg>
