<svg xmlns="http://www.w3.org/2000/svg" width="70" height="70" viewBox="0 0 70 70">
  <defs>
    <style>
      .cls-1 {
        fill: #d5d5d5;
      }

      .cls-2 {
        fill: #f0f0f0;
      }
    </style>
  </defs>
  <g id="iconProfile" transform="translate(-773.819 -353.839)">
    <path id="패스_6369" data-name="패스 6369" class="cls-1" d="M780.777,408.665a18.628,18.628,0,0,1-2.523-3.714A33.1,33.1,0,0,1,774.334,394a31.469,31.469,0,0,1-.449-7.566,33.9,33.9,0,0,1,3.229-12.625,35.2,35.2,0,0,1,25.961-19.478,32.355,32.355,0,0,1,7.55-.434,35.911,35.911,0,0,1,12.586,3.027,35.471,35.471,0,0,1,8.469,5.357,34.57,34.57,0,0,1,8.2,10.247,33.562,33.562,0,0,1,3.44,10.095,31.335,31.335,0,0,1,.443,7.29,33.745,33.745,0,0,1-3.213,12.767,32.729,32.729,0,0,1-3.4,5.707,2.333,2.333,0,0,1-.3.276c-.352.038-.48-.245-.649-.453a34.874,34.874,0,0,0-23.217-12.845,32.812,32.812,0,0,0-5.9-.232,35.859,35.859,0,0,0-12.333,2.9A34.719,34.719,0,0,0,784.9,404.5a36.81,36.81,0,0,0-3.526,3.763C781.221,408.449,781.107,408.719,780.777,408.665Z" transform="translate(0 0)"/>
    <path id="패스_6370" data-name="패스 6370" class="cls-2" d="M810.829,591.021a50.483,50.483,0,0,1,3.848-4.607,32.216,32.216,0,0,1,17.573-9.645c12.5-2.225,23.115,1.815,31.8,11.8.678.779,1.281,1.635,1.919,2.454a14.966,14.966,0,0,1-2.254,3.1c-5.609,6.547-12.494,10.559-20.659,11.716-10.17,1.44-19.221-1.532-27.082-8.694a33.935,33.935,0,0,1-4.839-5.557A1.091,1.091,0,0,1,810.829,591.021Z" transform="translate(-29.588 -182.357)"/>
    <path id="패스_6371" data-name="패스 6371" class="cls-2" d="M916.893,422.518a14.432,14.432,0,1,1-14.41-14.455A14.442,14.442,0,0,1,916.893,422.518Z" transform="translate(-93.638 -43.35)"/>
  </g>
</svg>
