<svg xmlns="http://www.w3.org/2000/svg" width="40" height="40" viewBox="0 0 40 40">
  <defs>
    <style>
      .cls-1 {
        fill: none;
      }

      .cls-2 {
        fill: #505050;
      }
    </style>
  </defs>
  <g id="iconCS" transform="translate(2 5)">
    <rect id="사각형_1319" data-name="사각형 1319" class="cls-1" width="40" height="40" transform="translate(-2 -5)"/>
    <path id="패스_991" data-name="패스 991" class="cls-2" d="M1180.948,847h-19.213a1.99,1.99,0,0,0-1.989,1.99v7.474h-9.894a1.993,1.993,0,0,0-1.989,1.99v12.622a1.993,1.993,0,0,0,1.989,1.989h3.8l-.094,3.1a.677.677,0,0,0,.328.6.781.781,0,0,0,.688,0l6.7-3.721h7.951a1.99,1.99,0,0,0,1.99-1.99v-5.938h1.149l5.3,3.737a.78.78,0,0,0,.708.047.671.671,0,0,0,.391-.606v-3.178h2.209a1.989,1.989,0,0,0,1.989-1.99h0V848.99a1.99,1.99,0,0,0-1.989-1.99Zm-11.105,24.076a.622.622,0,0,1-.622.621h-8.146a.7.7,0,0,0-.333.086l-5.8,3.221.078-2.6a.674.674,0,0,0-.2-.5.685.685,0,0,0-.492-.207h-4.476a.621.621,0,0,1-.621-.621V858.454a.626.626,0,0,1,.621-.622h9.894v5.3a1.99,1.99,0,0,0,1.989,1.99h8.108Zm11.727-7.944a.622.622,0,0,1-.621.622h-2.893a.684.684,0,0,0-.684.684v2.541l-4.4-3.1a.678.678,0,0,0-.391-.125h-10.848a.622.622,0,0,1-.621-.622h0V848.99a.622.622,0,0,1,.605-.637h19.229a.621.621,0,0,1,.621.621Z" transform="translate(-1147.862 -847)"/>
    <path id="패스_992" data-name="패스 992" class="cls-2" d="M1179.048,860.747a1.419,1.419,0,1,0,1.419,1.419h0a1.419,1.419,0,0,0-1.419-1.419Z" transform="translate(-1160.843 -852.995)"/>
    <path id="패스_993" data-name="패스 993" class="cls-2" d="M1189.09,860.747a1.419,1.419,0,1,0,1.415,1.423v0a1.415,1.415,0,0,0-1.411-1.419Z" transform="translate(-1165.221 -852.995)"/>
    <path id="패스_994" data-name="패스 994" class="cls-2" d="M1199.134,860.747a1.419,1.419,0,1,0,1.415,1.423v0a1.415,1.415,0,0,0-1.411-1.419Z" transform="translate(-1169.601 -852.995)"/>
  </g>
</svg>
