<svg xmlns="http://www.w3.org/2000/svg" width="90" height="90" viewBox="0 0 90 90">
  <defs>
    <style>
      .cls-1, .cls-4 {
        fill: none;
      }

      .cls-2 {
        fill: #fff;
      }

      .cls-2, .cls-3, .cls-4, .cls-5, .cls-6 {
        stroke: #303030;
        stroke-linecap: round;
        stroke-linejoin: round;
      }

      .cls-2, .cls-3, .cls-4 {
        stroke-width: 2.5px;
      }

      .cls-3 {
        fill: #ffde55;
      }

      .cls-5, .cls-6 {
        fill: #303030;
      }

      .cls-5 {
        stroke-width: 0.2px;
      }

      .cls-6 {
        stroke-width: 0.5px;
      }
    </style>
  </defs>
  <g id="la-1" transform="translate(-629 -4078)">
    <rect id="사각형_1315" data-name="사각형 1315" class="cls-1" width="90" height="90" transform="translate(629 4078)"/>
    <g id="ia-1" transform="translate(990.962 3951.862)">
      <g id="그룹_292" data-name="그룹 292">
        <path id="패스_6346" data-name="패스 6346" class="cls-2" d="M-293.968,143.758l-10.621-10.62h-30.556a5,5,0,0,0-5,5v55.728a5,5,0,0,0,5,5h36.364a5,5,0,0,0,5-5v-49.92Z"/>
      </g>
      <rect id="사각형_1286" data-name="사각형 1286" class="cls-3" width="24" height="6" rx="3" transform="translate(-346.358 179.519)"/>
      <rect id="사각형_1287" data-name="사각형 1287" class="cls-3" width="24" height="6" rx="3" transform="translate(-346.358 185.454)"/>
      <rect id="사각형_1288" data-name="사각형 1288" class="cls-3" width="24" height="6" rx="3" transform="translate(-346.358 191.389)"/>
      <rect id="사각형_1289" data-name="사각형 1289" class="cls-3" width="24" height="6" rx="3" transform="translate(-346.358 197.324)"/>
      <rect id="사각형_1290" data-name="사각형 1290" class="cls-3" width="24" height="6" rx="3" transform="translate(-346.358 203.26)"/>
      <path id="패스_6347" data-name="패스 6347" class="cls-3" d="M-345.962,208.89a9,9,0,0,1-9-9,9,9,0,0,1,9-9"/>
      <circle id="타원_25" data-name="타원 25" class="cls-3" cx="9" cy="9" r="9" transform="translate(-350.751 190.89)"/>
      <line id="선_104" data-name="선 104" class="cls-4" x2="3.676" transform="translate(-354.426 197.324)"/>
      <line id="선_105" data-name="선 105" class="cls-4" x2="3.676" transform="translate(-354.426 202.641)"/>
      <rect id="사각형_1291" data-name="사각형 1291" class="cls-2" width="37.902" height="50.63" rx="5" transform="translate(-317.24 159.057)"/>
      <rect id="사각형_1292" data-name="사각형 1292" class="cls-2" width="26.823" height="9.412" transform="translate(-311.701 163.806)"/>
      <rect id="사각형_1293" data-name="사각형 1293" class="cls-2" width="6.261" height="6.261" transform="translate(-311.623 177.924)"/>
      <rect id="사각형_1294" data-name="사각형 1294" class="cls-2" width="6.261" height="6.261" transform="translate(-301.419 177.924)"/>
      <rect id="사각형_1295" data-name="사각형 1295" class="cls-2" width="6.261" height="6.261" transform="translate(-291.06 177.924)"/>
      <rect id="사각형_1296" data-name="사각형 1296" class="cls-2" width="6.261" height="6.261" transform="translate(-311.623 188.395)"/>
      <rect id="사각형_1297" data-name="사각형 1297" class="cls-2" width="6.261" height="6.261" transform="translate(-301.419 188.395)"/>
      <rect id="사각형_1298" data-name="사각형 1298" class="cls-2" width="6.261" height="16.732" transform="translate(-291.06 188.395)"/>
      <rect id="사각형_1299" data-name="사각형 1299" class="cls-2" width="6.261" height="6.261" transform="translate(-311.623 198.866)"/>
      <rect id="사각형_1300" data-name="사각형 1300" class="cls-2" width="6.261" height="6.261" transform="translate(-301.419 198.866)"/>
      <path id="패스_6348" data-name="패스 6348" class="cls-2" d="M-304.589,133.138l10.62,10.62h-10.62Z"/>
      <line id="선_106" data-name="선 106" class="cls-4" x2="21.391" transform="translate(-333.742 148.647)"/>
      <line id="선_107" data-name="선 107" class="cls-4" x2="4.894" transform="translate(-307.295 148.647)"/>
      <line id="선_108" data-name="선 108" class="cls-4" x1="21.391" transform="translate(-323.792 154.449)"/>
      <line id="선_109" data-name="선 109" class="cls-4" x1="4.894" transform="translate(-333.742 154.449)"/>
      <g id="그룹_293" data-name="그룹 293">
        <path id="패스_6349" data-name="패스 6349" class="cls-5" d="M-333.829,168.631a1.342,1.342,0,0,1-.976-.28.958.958,0,0,1-.272-.7,1.025,1.025,0,0,1,.248-.657,1.267,1.267,0,0,1,1-.3h.16l-.752-3.632a1.709,1.709,0,0,1-.04-.44,1.23,1.23,0,0,1,.1-.44.984.984,0,0,1,.272-.368,1.069,1.069,0,0,1,.5-.224,1.461,1.461,0,0,1,1.016.1.987.987,0,0,1,.5.8l.72,4.208h1.344l.848-4.272a.993.993,0,0,1,.392-.472,1.625,1.625,0,0,1,.984-.248,1.358,1.358,0,0,1,.9.256,1.076,1.076,0,0,1,.368.48l.815,4.256h1.345l.736-4.192a1.042,1.042,0,0,1,.5-.84,1.375,1.375,0,0,1,1.056-.056,1.2,1.2,0,0,1,.5.24,1.014,1.014,0,0,1,.272.368,1.2,1.2,0,0,1,.1.424,1.627,1.627,0,0,1-.04.424l-.768,3.632h.208a1.233,1.233,0,0,1,.96.3,1.027,1.027,0,0,1,.256.7,1.022,1.022,0,0,1-.232.656,1.251,1.251,0,0,1-.984.288h-.624l-.832,3.984a4.153,4.153,0,0,1-.184.432,1.121,1.121,0,0,1-.288.36,1.372,1.372,0,0,1-.464.24,2.374,2.374,0,0,1-.7.088,1.943,1.943,0,0,1-1.184-.3,1.592,1.592,0,0,1-.56-.784l-.752-4.016h-.928l-.736,4.016a1.5,1.5,0,0,1-.552.784,2.013,2.013,0,0,1-1.208.3,2.443,2.443,0,0,1-.712-.088,1.286,1.286,0,0,1-.456-.24,1.2,1.2,0,0,1-.28-.352,2.951,2.951,0,0,1-.184-.44l-.832-3.984Zm3.12,1.7.336-1.7h-.64Zm2.688-3.632h.336l-.16-1.472Zm3.024,3.632.288-1.7h-.624Z"/>
      </g>
      <g id="그룹_294" data-name="그룹 294">
        <path id="패스_6350" data-name="패스 6350" class="cls-5" d="M-346.056,200.54a1.008,1.008,0,0,1-.732-.209.723.723,0,0,1-.205-.523.76.76,0,0,1,.187-.491.947.947,0,0,1,.75-.229h.12l-.564-2.723a1.273,1.273,0,0,1-.031-.33.912.912,0,0,1,.073-.33.756.756,0,0,1,.2-.277.807.807,0,0,1,.378-.168,1.1,1.1,0,0,1,.761.072.745.745,0,0,1,.378.6l.54,3.156h1.009l.636-3.2a.756.756,0,0,1,.294-.353,1.216,1.216,0,0,1,.738-.187,1.02,1.02,0,0,1,.672.193.8.8,0,0,1,.275.359l.613,3.192h1.008l.552-3.143a.777.777,0,0,1,.371-.63,1.027,1.027,0,0,1,.792-.042.911.911,0,0,1,.379.18.746.746,0,0,1,.2.275.9.9,0,0,1,.073.318,1.176,1.176,0,0,1-.031.319l-.575,2.723h.155a.932.932,0,0,1,.721.222.773.773,0,0,1,.192.522.768.768,0,0,1-.174.493.945.945,0,0,1-.739.215h-.467l-.624,2.989a2.988,2.988,0,0,1-.138.323.855.855,0,0,1-.216.271,1.025,1.025,0,0,1-.349.179,1.75,1.75,0,0,1-.521.067,1.456,1.456,0,0,1-.889-.229,1.2,1.2,0,0,1-.42-.588l-.563-3.012h-.7l-.552,3.012a1.113,1.113,0,0,1-.414.588,1.505,1.505,0,0,1-.906.229,1.823,1.823,0,0,1-.535-.067.948.948,0,0,1-.341-.179.9.9,0,0,1-.21-.264,2.32,2.32,0,0,1-.138-.33l-.624-2.989Zm2.34,1.272.252-1.272h-.481Zm2.015-2.724h.252l-.119-1.1Zm2.269,2.724.216-1.272h-.468Z"/>
      </g>
      <g id="그룹_295" data-name="그룹 295">
        <path id="패스_6351" data-name="패스 6351" class="cls-6" d="M-289.639,171.233a3.4,3.4,0,0,1-.813-.088,1.525,1.525,0,0,1-.605-.287,1.289,1.289,0,0,1-.381-.514,1.974,1.974,0,0,1-.133-.77v-2.065a1.975,1.975,0,0,1,.133-.77,1.289,1.289,0,0,1,.381-.514,1.54,1.54,0,0,1,.605-.288,3.453,3.453,0,0,1,.813-.087,3.3,3.3,0,0,1,.809.091,1.626,1.626,0,0,1,.616.294,1.311,1.311,0,0,1,.391.521,1.966,1.966,0,0,1,.137.774v2.044a2.031,2.031,0,0,1-.154.763,1.343,1.343,0,0,1-.392.515,1.626,1.626,0,0,1-.609.29A3.217,3.217,0,0,1-289.639,171.233Zm.735-3.717a2.017,2.017,0,0,0-.042-.364.565.565,0,0,0-.116-.249.471.471,0,0,0-.22-.139,1.15,1.15,0,0,0-.357-.046,1.181,1.181,0,0,0-.364.046.444.444,0,0,0-.217.143.574.574,0,0,0-.108.249,1.7,1.7,0,0,0-.032.36v2.065a1.683,1.683,0,0,0,.032.354.547.547,0,0,0,.108.245.452.452,0,0,0,.217.139,1.181,1.181,0,0,0,.364.046.7.7,0,0,0,.584-.2.953.953,0,0,0,.151-.588Z"/>
      </g>
    </g>
  </g>
</svg>
