<svg id="ls-14" xmlns="http://www.w3.org/2000/svg" xmlns:xlink="http://www.w3.org/1999/xlink" width="69.999" height="70" viewBox="0 0 69.999 70">
  <defs>
    <style>
      .cls-1 {
        fill: none;
      }

      .cls-2 {
        fill: #32308c;
      }

      .cls-3 {
        clip-path: url(#clip-path);
      }

      .cls-4 {
        fill: url(#linear-gradient);
      }

      .cls-5 {
        fill: #00468a;
      }
    </style>
    <clipPath id="clip-path">
      <path id="패스_6104" data-name="패스 6104" class="cls-1" d="M1821.738,849.556a182.647,182.647,0,0,0,51.78,0,182.778,182.778,0,0,0-51.78,0" transform="translate(-1821.738 -847.713)"/>
    </clipPath>
    <linearGradient id="linear-gradient" x1="-8.189" y1="-3.708" x2="-8.181" y2="-3.708" gradientUnits="objectBoundingBox">
      <stop offset="0" stop-color="#75bae7"/>
      <stop offset="0.05" stop-color="#75bae7"/>
      <stop offset="0.209" stop-color="#5aa0d6"/>
      <stop offset="0.389" stop-color="#418ac7"/>
      <stop offset="0.5" stop-color="#3982c2"/>
      <stop offset="0.522" stop-color="#357ebf"/>
      <stop offset="0.667" stop-color="#2469af"/>
      <stop offset="0.811" stop-color="#1a5da6"/>
      <stop offset="0.95" stop-color="#1759a3"/>
      <stop offset="1" stop-color="#1759a3"/>
    </linearGradient>
  </defs>
  <path id="패스_6100" data-name="패스 6100" class="cls-2" d="M1841.724,817.349a28.882,28.882,0,1,1,28.882-28.882,28.914,28.914,0,0,1-28.882,28.882m0-57.437a28.555,28.555,0,1,0,28.554,28.555,28.587,28.587,0,0,0-28.554-28.555" transform="translate(-1806.725 -753.468)"/>
  <g id="그룹_181" data-name="그룹 181" transform="translate(14.655 25.723)">
    <rect id="사각형_1252" data-name="사각형 1252" class="cls-2" width="2.451" height="9.22" transform="translate(19.264 0)"/>
    <path id="패스_6101" data-name="패스 6101" class="cls-2" d="M1929.567,815.83v1.921h3.083v7.3h2.45v-7.3h3.082V815.83Z" transform="translate(-1897.206 -815.83)"/>
    <path id="패스_6102" data-name="패스 6102" class="cls-2" d="M1909.782,819.481h-2.048c-.544,0-.985-.225-.985-.864s.44-.864.985-.864h4.4v-1.921h-4.694c-1.752,0-3.174,1.012-3.174,2.785s1.422,2.785,3.174,2.785h2.107c.543,0,.985.225.985.866s-.441.863-.985.863h-4.941v1.921h5.172c1.753,0,3.173-1.01,3.173-2.784s-1.42-2.787-3.173-2.787" transform="translate(-1880.834 -815.831)"/>
    <path id="패스_6103" data-name="패스 6103" class="cls-2" d="M1849.653,815.83l-3.466,8.3-3.3-3.686,4.131-4.611h-2.8l-3.915,4.377V815.83h-2.451v9.221h2.451v-4.377l3.915,4.377h4.076l2.806-6.954,2.039,5.112h-3.24l.77,1.842h5.729l-3.853-9.221Z" transform="translate(-1837.849 -815.83)"/>
  </g>
  <g id="그룹_183" data-name="그룹 183" transform="translate(9.257 36.897)">
    <g id="그룹_182" data-name="그룹 182" class="cls-3">
      <rect id="사각형_1253" data-name="사각형 1253" class="cls-4" width="51.78" height="3.687" transform="translate(0 0)"/>
    </g>
  </g>
  <path id="패스_6105" data-name="패스 6105" class="cls-2" d="M1822.794,899.612l-.428-.488,1.058-.928-.009-.01-1.764.122-.472-.536,1.612-.1.71-2.174.471.537-.541,1.588.689-.039.685-.6.428.487Z" transform="translate(-1812.119 -841.887)"/>
  <path id="패스_6106" data-name="패스 6106" class="cls-2" d="M1818.884,892.383a1.465,1.465,0,1,1-1.669-2.373,1.468,1.468,0,1,1,1.669,2.373m-1.287-1.832c-.57.4-.735.891-.457,1.285s.793.407,1.364.005.752-.9.475-1.3-.816-.391-1.382.007" transform="translate(-1809.032 -838.057)"/>
  <path id="패스_6107" data-name="패스 6107" class="cls-2" d="M1813.752,880.408l-.757,1.175.217.4,1.076-.59.311.569-2.844,1.557-.543-.991c-.326-.6-.378-1.183.276-1.542a.929.929,0,0,1,1.115.094l.8-1.3Zm-.989,1.817-.2-.37c-.2-.365-.463-.481-.767-.314s-.3.425-.1.791l.2.368Z" transform="translate(-1805.518 -831.661)"/>
  <path id="패스_6108" data-name="패스 6108" class="cls-2" d="M1807.116,875.677l-.773-1.833.5-.209.521,1.235.691-.29-.443-1.051.5-.211.444,1.05.8-.337-.54-1.281.5-.211.792,1.877Z" transform="translate(-1802.518 -826.953)"/>
  <path id="패스_6109" data-name="패스 6109" class="cls-2" d="M1806.116,864.35l.307,1.007.863-.025.192.628-3.4-.047-.223-.728,2.8-1.945.2.65Zm-.441.282-.312.2c-.294.2-.624.388-.931.582l.006.017c.364-.024.744-.038,1.1-.046l.367-.011Z" transform="translate(-1800.906 -820.905)"/>
  <path id="패스_6110" data-name="패스 6110" class="cls-2" d="M1803.313,851.993l.158,1.04.857.1.1.649-3.361-.539-.114-.754,3.048-1.517.1.671Zm-.478.215-.336.148c-.319.15-.674.293-1.006.441l0,.018c.363.029.742.068,1.091.113l.365.042Z" transform="translate(-1799.029 -812.93)"/>
  <path id="패스_6111" data-name="패스 6111" class="cls-2" d="M1800.185,844.771l-.04-.889a1.622,1.622,0,0,1,3.238-.178l.041.923Zm2.681-.969c-.026-.6-.367-.967-1.156-.931s-1.073.424-1.046,1.029l.009.2,2.2-.1Z" transform="translate(-1798.505 -807.231)"/>
  <path id="패스_6112" data-name="패스 6112" class="cls-2" d="M1799.957,835.283l.037-.679,1.6-.339c.365-.081.692-.128,1.061-.212v-.022c-.358-.121-.677-.214-1.031-.334l-1.551-.511.036-.656,3.182,1.177-.044.769Z" transform="translate(-1798.385 -800.941)"/>
  <path id="패스_6113" data-name="패스 6113" class="cls-2" d="M1803.471,825.586l-.159,1.04.79.351-.1.65-3.049-1.516.116-.753,3.361-.543-.1.672Zm-.519.063-.366.042c-.347.049-.73.08-1.09.123l0,.017c.338.135.687.286,1.007.433l.335.148Z" transform="translate(-1799.03 -795.925)"/>
  <path id="패스_6114" data-name="패스 6114" class="cls-2" d="M1802.344,816.2l.171-.638,1.912-.464.76-.132.005-.022c-.334-.053-.761-.117-1.116-.211l-1.249-.334.158-.593,3.132.838-.169.635-1.919.458-.758.136-.006.022c.347.061.754.119,1.113.216l1.257.337-.159.591Z" transform="translate(-1799.93 -788.77)"/>
  <path id="패스_6115" data-name="패스 6115" class="cls-2" d="M1807.464,807.153a1.539,1.539,0,0,1-1.034-2.02,1.321,1.321,0,0,1,.731-.735l.26.467a.841.841,0,0,0-.468.458c-.178.457.081.952.73,1.206s1.173.1,1.36-.381a.9.9,0,0,0-.055-.74l.5-.173a1.312,1.312,0,0,1,.07,1.136,1.493,1.493,0,0,1-2.094.781" transform="translate(-1802.507 -782.652)"/>
  <path id="패스_6116" data-name="패스 6116" class="cls-2" d="M1809.1,797.872l.9-1.775.48.244-.606,1.2.668.339.516-1.017.484.246-.515,1.017.773.392.63-1.238.484.246-.923,1.817Z" transform="translate(-1804.304 -777.257)"/>
  <path id="패스_6117" data-name="패스 6117" class="cls-2" d="M1813.383,790.209l.481-.748a1.622,1.622,0,0,1,2.745,1.726l-.5.778Zm2.747.759c.328-.509.259-1-.4-1.428s-1.121-.273-1.448.235l-.109.17,1.853,1.193Z" transform="translate(-1807.074 -772.418)"/>
  <rect id="사각형_1254" data-name="사각형 1254" class="cls-2" width="0.649" height="3.243" transform="translate(9.284 13.628) rotate(-49.873)"/>
  <path id="패스_6118" data-name="패스 6118" class="cls-2" d="M1825.389,773.788l.467-.469,1.888.551.726.266.014-.014c-.264-.215-.6-.483-.862-.743l-.915-.913.432-.434,2.3,2.287-.464.467-1.892-.561-.725-.259-.016.015c.271.226.593.48.857.743l.922.919-.433.434Z" transform="translate(-1814.844 -761.523)"/>
  <path id="패스_6119" data-name="패스 6119" class="cls-2" d="M1835.333,769.981l.006-.581a1.281,1.281,0,0,0,.866-.241c.262-.213.311-.438.167-.616s-.352-.12-.653-.033l-.454.13a.937.937,0,0,1-1.06-.261,1.01,1.01,0,0,1,.28-1.435,1.433,1.433,0,0,1,1.051-.318v.524a1.032,1.032,0,0,0-.7.225c-.222.179-.282.394-.147.561s.378.1.661.01l.444-.128a.892.892,0,0,1,1.061.272,1.052,1.052,0,0,1-.306,1.512,1.719,1.719,0,0,1-1.215.379" transform="translate(-1820.538 -758.019)"/>
  <path id="패스_6120" data-name="패스 6120" class="cls-2" d="M1841.043,761.592l-.761.5-.3-.451,2.069-1.367.3.45-.768.506,1.49,2.255-.54.358Z" transform="translate(-1824.422 -753.915)"/>
  <rect id="사각형_1255" data-name="사각형 1255" class="cls-2" width="0.648" height="3.242" transform="translate(18.488 5.871) rotate(-29.149)"/>
  <path id="패스_6121" data-name="패스 6121" class="cls-2" d="M1853.5,754.818l-.828.381-.225-.49,2.253-1.036.225.49-.836.385,1.13,2.457-.59.271Z" transform="translate(-1832.522 -749.641)"/>
  <path id="패스_6122" data-name="패스 6122" class="cls-2" d="M1862.241,752.768l-.568-1.69.614-.207.587,1.744c.215.64.508.782.868.66s.527-.417.312-1.056l-.587-1.745.59-.2.568,1.691c.344,1.021.048,1.587-.7,1.84s-1.336-.018-1.68-1.04" transform="translate(-1838.522 -747.443)"/>
  <path id="패스_6123" data-name="패스 6123" class="cls-2" d="M1872.387,748.81l-.89.2-.116-.526,2.422-.536.116.526-.9.2.583,2.64-.633.14Z" transform="translate(-1844.832 -745.933)"/>
  <path id="패스_6124" data-name="패스 6124" class="cls-2" d="M1881.214,747.049l1.975-.239.063.534-1.33.16.09.744,1.13-.137.066.54-1.131.136.1.862,1.378-.167.066.541-2.023.243Z" transform="translate(-1851.224 -745.199)"/>
  <path id="패스_6125" data-name="패스 6125" class="cls-2" d="M1894.074,747.96c.031-1.055.641-1.651,1.5-1.624a1.463,1.463,0,0,1,1.4,1.711c-.031,1.051-.641,1.677-1.5,1.652a1.488,1.488,0,0,1-1.4-1.738m2.238.066c.021-.7-.273-1.121-.755-1.135s-.8.393-.822,1.089.274,1.143.755,1.159.8-.421.822-1.112" transform="translate(-1859.585 -744.892)"/>
  <path id="패스_6126" data-name="패스 6126" class="cls-2" d="M1905.021,746.99l1.98.266-.072.534-1.338-.18-.112.838,1.142.153-.072.538-1.142-.153-.175,1.3-.643-.087Z" transform="translate(-1866.42 -745.316)"/>
  <path id="패스_6127" data-name="패스 6127" class="cls-2" d="M1915.913,752.246l.479-.33a1.285,1.285,0,0,0,.7.569c.326.091.537,0,.6-.219s-.1-.357-.349-.554l-.367-.295a.939.939,0,0,1-.4-1.017,1.011,1.011,0,0,1,1.334-.6,1.438,1.438,0,0,1,.865.675l-.426.3a1.036,1.036,0,0,0-.591-.443c-.273-.078-.485-.005-.543.2-.062.223.138.366.375.546l.36.287a.9.9,0,0,1,.39,1.025,1.055,1.055,0,0,1-1.413.623,1.729,1.729,0,0,1-1.011-.776" transform="translate(-1873.784 -747.1)"/>
  <path id="패스_6128" data-name="패스 6128" class="cls-2" d="M1925.238,754.053a1.539,1.539,0,0,1,2.025-1.026,1.324,1.324,0,0,1,.732.735l-.469.258a.835.835,0,0,0-.455-.47c-.457-.18-.954.076-1.209.725s-.1,1.174.373,1.362a.9.9,0,0,0,.741-.052l.171.5a1.314,1.314,0,0,1-1.137.065,1.493,1.493,0,0,1-.772-2.1" transform="translate(-1879.746 -749.154)"/>
  <rect id="사각형_1256" data-name="사각형 1256" class="cls-2" width="3.242" height="0.649" transform="matrix(0.439, -0.899, 0.899, 0.439, 47.912, 7.66)"/>
  <path id="패스_6129" data-name="패스 6129" class="cls-2" d="M1938.311,758.149l1.716,1.006-.274.465-1.155-.678-.38.647.983.577-.275.468-.983-.576-.439.749,1.2.7-.275.469-1.758-1.031Z" transform="translate(-1887.282 -752.538)"/>
  <path id="패스_6130" data-name="패스 6130" class="cls-2" d="M1945.6,762.9l.532.392-.264,1.949-.155.758.018.012c.171-.292.388-.667.605-.962l.766-1.041.494.363-1.922,2.612-.529-.389.274-1.953.148-.757-.019-.011c-.182.3-.385.657-.605.957l-.772,1.048-.494-.364Z" transform="translate(-1891.844 -755.615)"/>
  <path id="패스_6131" data-name="패스 6131" class="cls-2" d="M1953.361,771.534a1.537,1.537,0,0,1,2.256-.231,1.324,1.324,0,0,1,.419.949l-.531.074a.835.835,0,0,0-.255-.6c-.362-.332-.916-.271-1.388.242s-.519,1.058-.141,1.4a.907.907,0,0,0,.71.219l-.021.528a1.314,1.314,0,0,1-1.085-.348,1.492,1.492,0,0,1,.035-2.234" transform="translate(-1897.794 -760.797)"/>
  <path id="패스_6132" data-name="패스 6132" class="cls-2" d="M1960.354,776.272l1.326,1.481-.4.361-.894-1-.558.5.759.849-.405.361-.759-.849-.646.579.925,1.035-.4.362-1.359-1.517Z" transform="translate(-1901.192 -764.368)"/>
  <path id="패스_6133" data-name="패스 6133" class="cls-2" d="M1966.791,790.2l-.583-.875-.819.272-.365-.547,3.275-.935.423.635-2.12,2.667-.376-.566Zm.342-.4.242-.277c.225-.271.486-.551.724-.826l-.009-.015c-.342.128-.7.252-1.035.359l-.349.116Z" transform="translate(-1905.778 -772.07)"/>
  <path id="패스_6134" data-name="패스 6134" class="cls-2" d="M1973.311,794.882l.3.588-1.1,1.631-.472.61.01.02c.283-.186.643-.428.969-.6l1.147-.595.283.545-2.879,1.492-.3-.582,1.108-1.632.467-.612-.011-.02c-.3.189-.636.419-.967.59l-1.155.6-.283-.544Z" transform="translate(-1909.278 -776.467)"/>
  <path id="패스_6135" data-name="패스 6135" class="cls-2" d="M1977.857,804.683l.317.83a1.622,1.622,0,0,1-3.015,1.193l-.331-.864Zm-2.238,1.767c.216.565.654.8,1.391.518s.882-.742.668-1.307l-.072-.188-2.059.788Z" transform="translate(-1912.123 -782.838)"/>
  <path id="패스_6136" data-name="패스 6136" class="cls-2" d="M1982.124,818.919l-.2-.89.528-.115.532,2.422-.527.116-.2-.9-2.64.581-.139-.633Z" transform="translate(-1915.135 -791.438)"/>
  <path id="패스_6137" data-name="패스 6137" class="cls-2" d="M1983.97,827.746l.238,1.977-.536.064-.159-1.332-.744.09.135,1.131-.54.065-.135-1.132-.862.1.166,1.38-.54.064-.242-2.024Z" transform="translate(-1915.956 -797.829)"/>
  <path id="패스_6138" data-name="패스 6138" class="cls-2" d="M1983.142,836.276a1.541,1.541,0,0,1,1.731,1.466,1.325,1.325,0,0,1-.394.961l-.42-.333a.83.83,0,0,0,.257-.6c-.011-.49-.44-.848-1.136-.831s-1.122.36-1.11.872a.9.9,0,0,0,.335.663l-.395.351a1.312,1.312,0,0,1-.5-1.023,1.494,1.494,0,0,1,1.634-1.525" transform="translate(-1916.446 -803.375)"/>
  <path id="패스_6139" data-name="패스 6139" class="cls-2" d="M1984.53,845.881l-.053.646-1.272-.106-.1,1.222,1.271.107-.053.643-3.232-.271.053-.643,1.4.117.1-1.224-1.4-.116.055-.647Z" transform="translate(-1916.174 -809.445)"/>
  <path id="패스_6140" data-name="패스 6140" class="cls-2" d="M1982.966,856.194l-.132.648-1.877.584-.752.18,0,.021c.337.032.768.07,1.129.143l1.266.254-.121.6-3.178-.64.13-.645,1.886-.576.748-.186,0-.021c-.35-.039-.76-.073-1.125-.146l-1.275-.257.12-.6Z" transform="translate(-1915.016 -815.911)"/>
  <path id="패스_6141" data-name="패스 6141" class="cls-2" d="M1979.183,866.049a1.465,1.465,0,1,1-.9,2.757,1.469,1.469,0,1,1,.9-2.757m-.7,2.128c.663.217,1.154.055,1.3-.4s-.15-.88-.813-1.1-1.173-.062-1.323.4.175.888.833,1.1" transform="translate(-1913.555 -822.655)"/>
  <path id="패스_6142" data-name="패스 6142" class="cls-2" d="M1976.675,876.215l-.265.593-2.464-1.1-.536,1.2-.5-.222.8-1.792Z" transform="translate(-1910.884 -828.476)"/>
  <path id="패스_6143" data-name="패스 6143" class="cls-2" d="M1971.865,883.155a1.465,1.465,0,1,1-1.449,2.513,1.468,1.468,0,1,1,1.449-2.513m-1.119,1.94c.6.348,1.118.289,1.358-.127s.034-.891-.57-1.239-1.137-.3-1.376.116-.011.9.588,1.25" transform="translate(-1908.655 -833.661)"/>
  <path id="패스_6144" data-name="패스 6144" class="cls-2" d="M1965.918,892.173a1.551,1.551,0,0,1,.435,2.26,1.371,1.371,0,0,1-.933.558l-.124-.524a.843.843,0,0,0,.6-.348.964.964,0,0,0-.35-1.4c-.567-.421-1.1-.414-1.48.1a.649.649,0,0,0-.145.4l.513.38.342-.46.426.315-.686.925-1.176-.871a1.574,1.574,0,0,1,2.581-1.332" transform="translate(-1904.68 -839.463)"/>
  <path id="패스_6145" data-name="패스 6145" class="cls-2" d="M1959.871,900.116l2.174.666-.463.509-.8-.292c-.241-.094-.468-.183-.72-.277l-.012.012c.116.244.219.467.336.7l.364.771-.454.5-.86-2.106-.878-.8.438-.478Z" transform="translate(-1901.593 -844.364)"/>
  <path id="패스_6146" data-name="패스 6146" class="cls-2" d="M1846.313,918.449l1.909,1.055-.223.4-2.418-1.335.569-1.03.508.281Zm.483-.8c-.509-.282-.719-.76-.492-1.169a.869.869,0,0,1,1.247-.2c.51.281.717.763.495,1.164a.869.869,0,0,1-1.25.2m1.87-.919-2.089-1.155.219-.4.786.435.21-.378.512.283-.208.378.795.437Zm-1.658.534c.223.123.443.108.552-.088s0-.386-.222-.51-.443-.109-.55.083-.008.389.219.515m2.661.428-.232.42-.47-.259-.637,1.153-.509-.281,1.467-2.657.509.282-.6,1.083Z" transform="translate(-1828.063 -854.729)"/>
  <path id="패스_6147" data-name="패스 6147" class="cls-2" d="M1862.39,923.948l-.191.54,1.064.373-.478,1.367-.552-.194.327-.935-2.165-.76.151-.429,1.105.386.189-.541-1.454-.509.152-.436,2.436.853a4.715,4.715,0,0,0,.393-.852l-2.092-.733.154-.441,2.631.922-.107.308a5.536,5.536,0,0,1-.43.987l.483.169-.153.436Z" transform="translate(-1837.688 -858.908)"/>
  <path id="패스_6148" data-name="패스 6148" class="cls-2" d="M1875.554,928.837c.388.054.783.095,1.155.114l-.041.418a15.343,15.343,0,0,1-2.427-.254l.029-.477c.221.038.464.081.716.119l.2-1.18.564.1Zm.4-.446a8.287,8.287,0,0,0,.337-1.335l-1.493-.257.079-.457,2.057.355-.056.326a8.851,8.851,0,0,1-.372,1.512Zm2.142.245-.537-.093-.33,1.91-.573-.1.69-4,.573.1-.278,1.61.538.093Z" transform="translate(-1846.696 -861.953)"/>
  <path id="패스_6149" data-name="패스 6149" class="cls-2" d="M1892.241,928.028l-2.387,0v-.459l.9,0v-.379l.586,0v.378l.9,0Zm-1.2,1.619c-.582,0-1-.307-1-.751s.416-.743,1-.742.995.306.994.745-.411.748-1,.748m-.706.271,2.7.005,0,1.351h-.581v-.885l-2.122,0Zm.706-.711c.26,0,.441-.1.441-.309s-.179-.3-.44-.3-.44.1-.441.3.177.308.44.31m2.537-.467h-.536l0,1.017h-.582l0-2.541h.582l0,1.044h.537Z" transform="translate(-1856.846 -862.501)"/>
  <path id="패스_6150" data-name="패스 6150" class="cls-2" d="M1906.961,925.933a2.963,2.963,0,0,1-1.339,3.222l-.377-.4a2.372,2.372,0,0,0,1.207-2.266l-1.333.228-.078-.455Zm1.118-.62.681,4-.578.1-.681-4Z" transform="translate(-1866.719 -861.287)"/>
  <path id="패스_6151" data-name="패스 6151" class="cls-2" d="M1922.785,923.195a1.953,1.953,0,0,1-1.61-.188,1.977,1.977,0,0,1-1.145,1.155l-.323-.35c.831-.386,1.112-.918.982-1.288l-.024-.07.565-.2.026.072c.128.369.68.61,1.569.391Zm-.9.978.086.245,1.037-.365.349.995-2.095.734.077.217,2.194-.77.145.412-2.74.96-.353-1.006,2.1-.736-.072-.208-2.1.738-.142-.408,1.056-.37-.085-.245-1.452.509-.151-.432,3.458-1.213.151.433Z" transform="translate(-1876.257 -859.309)"/>
  <path id="패스_6152" data-name="패스 6152" class="cls-2" d="M1933.141,916.916c-.207-.379.019-.839.54-1.123s1.028-.224,1.234.153-.021.834-.539,1.118-1.029.23-1.236-.148m4.1.79.222.405-2.641,1.443-.578-1.059.495-.271-.26-.476c-.305.186-.6.353-.867.5l-.288-.37a22.277,22.277,0,0,0,2.207-1.345l.232.344a8.991,8.991,0,0,1-.8.565l.367.674-.491.267.266.487Zm-3.621-1.054c.094.175.309.173.549.043s.353-.31.258-.483-.312-.175-.548-.047-.355.314-.259.488m2.474.351-1.13-2.069.51-.278,1.474,2.7-.51.28-.154-.282-.669.365-.19-.349Z" transform="translate(-1884.944 -854.39)"/>
  <path id="패스_6153" data-name="패스 6153" class="cls-2" d="M1951.817,910.908a.595.595,0,1,1-.6-.6.594.594,0,0,1,.6.6" transform="translate(-1896.342 -851.579)"/>
  <path id="패스_6154" data-name="패스 6154" class="cls-2" d="M1836.744,910.908a.6.6,0,1,1-.595-.6.594.594,0,0,1,.595.6" transform="translate(-1821.538 -851.579)"/>
  <path id="패스_6155" data-name="패스 6155" class="cls-5" d="M1876.789,883.385h.91V880.95h-.789v-.634a2.912,2.912,0,0,0,1.059-.385h.754v3.453h.772v.829h-2.707Z" transform="translate(-1848.348 -831.766)"/>
  <path id="패스_6156" data-name="패스 6156" class="cls-5" d="M1887.118,883.019a.965.965,0,0,0,.655.294c.438,0,.783-.31.823-1.248a1.126,1.126,0,0,1-.818.431,1.192,1.192,0,0,1-1.255-1.347,1.374,1.374,0,0,1,1.41-1.451c.812,0,1.6.617,1.6,2.171s-.816,2.273-1.692,2.273a1.74,1.74,0,0,1-1.261-.512Zm1.461-1.646c-.086-.707-.357-.909-.621-.909s-.5.19-.5.684c0,.461.23.628.518.628a.7.7,0,0,0,.6-.4" transform="translate(-1854.678 -831.615)"/>
  <path id="패스_6157" data-name="패스 6157" class="cls-5" d="M1898.254,880.783h-1.844v-.852h2.937v.621a5.008,5.008,0,0,0-1.17,3.662h-1.03a5.7,5.7,0,0,1,1.107-3.431" transform="translate(-1861.105 -831.766)"/>
  <path id="패스_6158" data-name="패스 6158" class="cls-5" d="M1906.544,883.385h.91V880.95h-.79v-.634a2.92,2.92,0,0,0,1.06-.385h.754v3.453h.772v.829h-2.706Z" transform="translate(-1867.692 -831.766)"/>
  <path id="패스_6159" data-name="패스 6159" class="cls-2" d="M1830.5,812.245a35,35,0,1,1,35-35,35.039,35.039,0,0,1-35,35m0-69.673a34.673,34.673,0,1,0,34.672,34.673,34.711,34.711,0,0,0-34.672-34.673" transform="translate(-1795.503 -742.245)"/>
</svg>
