<svg id="ls-15" xmlns="http://www.w3.org/2000/svg" xmlns:xlink="http://www.w3.org/1999/xlink" width="70.001" height="70" viewBox="0 0 70.001 70">
  <defs>
    <style>
      .cls-1 {
        fill: url(#radial-gradient);
      }

      .cls-2 {
        fill: #006d65;
      }

      .cls-3 {
        fill: #fff;
      }

      .cls-4 {
        fill: url(#radial-gradient-2);
      }

      .cls-5 {
        fill: url(#radial-gradient-3);
      }

      .cls-6 {
        fill: url(#radial-gradient-4);
      }

      .cls-7 {
        fill: url(#radial-gradient-5);
      }

      .cls-8 {
        fill: url(#radial-gradient-6);
      }

      .cls-9 {
        fill: url(#radial-gradient-7);
      }

      .cls-10 {
        fill: url(#radial-gradient-8);
      }

      .cls-11 {
        fill: url(#radial-gradient-9);
      }

      .cls-12 {
        fill: url(#radial-gradient-10);
      }

      .cls-13 {
        fill: url(#radial-gradient-11);
      }

      .cls-14 {
        fill: url(#radial-gradient-12);
      }

      .cls-15 {
        fill: url(#radial-gradient-13);
      }

      .cls-16 {
        fill: url(#radial-gradient-14);
      }
    </style>
    <radialGradient id="radial-gradient" cx="0.303" cy="0.316" r="0.77" gradientTransform="translate(0)" gradientUnits="objectBoundingBox">
      <stop offset="0" stop-color="#28a1c8"/>
      <stop offset="0.506" stop-color="#008091"/>
      <stop offset="1" stop-color="#006269"/>
    </radialGradient>
    <radialGradient id="radial-gradient-2" cx="0.379" cy="0.348" r="0.695" gradientTransform="translate(-0.875) scale(1.036 1)" gradientUnits="objectBoundingBox">
      <stop offset="0" stop-color="#28a1c8"/>
      <stop offset="0.506" stop-color="#00889d"/>
      <stop offset="1" stop-color="#006269"/>
    </radialGradient>
    <radialGradient id="radial-gradient-3" cx="0.258" cy="0.301" r="0.66" gradientTransform="translate(-0.856) scale(1.036 1)" xlink:href="#radial-gradient-2"/>
    <radialGradient id="radial-gradient-4" cx="-0.836" cy="0.209" r="0.786" gradientTransform="matrix(3.023, -0.012, 0.036, 1, -158.658, 0.933)" gradientUnits="objectBoundingBox">
      <stop offset="0" stop-color="#7dc0e1"/>
      <stop offset="0.506" stop-color="#6aa9bd"/>
      <stop offset="1" stop-color="#437e85"/>
    </radialGradient>
    <radialGradient id="radial-gradient-5" cx="-0.652" cy="0.286" r="0.917" gradientTransform="matrix(1.783, -0.012, 0.021, 1, -42.651, 0.644)" xlink:href="#radial-gradient-4"/>
    <radialGradient id="radial-gradient-6" cx="0.26" cy="0.64" r="1.712" gradientTransform="matrix(0.518, -0.012, 0.006, 1, 14.105, 0.358)" xlink:href="#radial-gradient-4"/>
    <radialGradient id="radial-gradient-7" cx="0.261" cy="-0.165" r="1.503" gradientTransform="matrix(0.441, -0.012, 0.005, 1, 12.27, 0.268)" xlink:href="#radial-gradient-4"/>
    <radialGradient id="radial-gradient-8" cx="0.203" cy="1.274" r="2.551" gradientTransform="matrix(0.491, -0.012, 0.006, 1, 20.865, 0.502)" xlink:href="#radial-gradient-4"/>
    <radialGradient id="radial-gradient-9" cx="0.284" cy="0.25" r="1.505" gradientTransform="matrix(0.48, -0.012, 0.006, 1, 12.405, 0.292)" xlink:href="#radial-gradient-4"/>
    <radialGradient id="radial-gradient-10" cx="0.572" cy="0.071" r="0.98" gradientTransform="matrix(4.676, -0.049, 0.23, 0.999, -544.388, 7.233)" xlink:href="#radial-gradient-4"/>
    <radialGradient id="radial-gradient-11" cx="1.018" cy="0.237" r="1.332" gradientTransform="matrix(2.314, -0.049, 0.114, 0.999, -133.451, 4.886)" xlink:href="#radial-gradient-4"/>
    <radialGradient id="radial-gradient-12" cx="0.346" cy="0.222" r="0.84" gradientTransform="translate(0 -0.023)" gradientUnits="objectBoundingBox">
      <stop offset="0" stop-color="#fff"/>
      <stop offset="1" stop-color="#e1e1d9"/>
    </radialGradient>
    <radialGradient id="radial-gradient-13" cx="0.124" cy="0.222" r="0.84" gradientTransform="translate(-50.723) scale(2.224 1)" xlink:href="#radial-gradient-12"/>
    <radialGradient id="radial-gradient-14" cx="0.082" cy="0.26" r="0.774" gradientTransform="translate(-71.488) scale(2.453 1)" xlink:href="#radial-gradient"/>
  </defs>
  <path id="패스_6160" data-name="패스 6160" class="cls-1" d="M1865.5,1121.047a35,35,0,1,1-35-35A35,35,0,0,1,1865.5,1121.047Z" transform="translate(-1795.5 -1086.047)"/>
  <g id="그룹_187" data-name="그룹 187" transform="translate(2.763 32.344)">
    <g id="그룹_186" data-name="그룹 186">
      <g id="그룹_184" data-name="그룹 184">
        <path id="패스_6161" data-name="패스 6161" class="cls-2" d="M1805.765,1182.554l1.385.007c.445,0,.453-.2.46-.49h.166c-.009.288-.016.544-.017.8,0,.234.008.472.007.716h-.166c0-.287-.008-.494-.455-.5l-3.192-.019c-.445,0-.451.2-.46.492h-.165c.007-.243.016-.488.017-.732s0-.5-.008-.786h.165c.005.289.01.494.455.5l1.544.009.014-2.192-1.544-.009c-.447,0-.455.2-.462.492h-.165c0-.261.015-.493.016-.732,0-.261,0-.516-.007-.787h.167c0,.289.007.494.453.5l3.191.018c.445,0,.453-.2.462-.49h.165c-.009.255-.017.5-.017.748s0,.5.009.771h-.167c-.005-.287-.01-.494-.453-.5l-1.387-.008Z" transform="translate(-1803.33 -1179.323)"/>
        <path id="패스_6162" data-name="패스 6162" class="cls-2" d="M1803.89,1194.373l.008.064c.014.134.075.265.182.251a.635.635,0,0,0,.2-.067l.615-.278-.11-.915-.425-.07a2,2,0,0,0-.421-.041c-.152.018-.157.2-.144.3l.008.065-.164.019c-.016-.184-.031-.366-.053-.55-.017-.14-.042-.3-.066-.44l.164-.019a.356.356,0,0,0,.312.365l2.4.494a.671.671,0,0,0,.214.029.451.451,0,0,0,.087-.021l.232.393-2.58,1.128c-.28.121-.354.213-.319.5l-.165.02c-.017-.207-.035-.407-.059-.605s-.055-.4-.085-.6Zm2.431-.653v-.011l-1.322-.24.095.791Z" transform="translate(-1803.456 -1187.976)"/>
        <path id="패스_6163" data-name="패스 6163" class="cls-2" d="M1807.4,1200.806c.28-.064.219-.384.195-.49l.161-.035c.023.127.044.251.072.372s.062.243.094.352l-1.851,2.121,1.624-.371c.428-.1.4-.243.338-.522l.16-.038c.032.17.069.358.107.526s.08.322.121.474l-.162.036c-.056-.248-.095-.362-.406-.292l-2.627.6-.029-.126,2.034-2.347-1.655.38c-.447.1-.54.18-.449.576l-.161.037c-.034-.175-.074-.379-.115-.559s-.086-.358-.135-.537l.162-.035c.1.434.353.374.8.273Z" transform="translate(-1804.227 -1192.886)"/>
        <path id="패스_6164" data-name="패스 6164" class="cls-2" d="M1809.82,1209.987c.229-.078.217-.229.135-.471l.157-.053c.06.2.123.4.189.593s.15.418.221.607l-.156.054c-.082-.241-.166-.367-.4-.289l-2.1.724c-.23.078-.217.23-.135.469l-.156.055c-.06-.193-.127-.409-.2-.615s-.141-.393-.214-.586l.157-.053c.083.241.166.367.395.287Zm-1.481,2.469a.593.593,0,0,0-.145.516l-.157.053c-.027-.1-.063-.224-.1-.323-.041-.117-.086-.233-.134-.355l1.145-1.563,1.34.5a.208.208,0,0,0,.166.011.092.092,0,0,0,.062-.129l-.037-.112.156-.054c.044.151.1.321.147.47s.118.3.168.453l-.157.053c-.1-.3-.232-.385-1.529-.874Z" transform="translate(-1805.811 -1198.829)"/>
        <path id="패스_6165" data-name="패스 6165" class="cls-2" d="M1813.542,1217.676c.207-.1.111-.3.049-.436l.151-.068c.078.184.164.383.247.565s.171.352.255.516l-.15.071c-.069-.148-.149-.32-.344-.228l-1.568.731c-.531.247-.614.627-.438,1,.319.689.948.4,1.524.127l.681-.318c.577-.269.6-.339.446-.668l.15-.07c.069.165.141.335.217.5.063.139.13.268.2.4l-.15.071c-.079-.168-.167-.283-.541-.107l-1.171.546c-.663.309-1.3.275-1.628-.443a.96.96,0,0,1,.482-1.451Z" transform="translate(-1808.501 -1203.818)"/>
        <path id="패스_6166" data-name="패스 6166" class="cls-2" d="M1817.117,1226.17c.207-.125.165-.27.034-.488l.141-.086c.1.181.2.365.311.542s.233.378.341.547l-.143.084c-.13-.219-.238-.324-.445-.2l-1.908,1.147c-.208.125-.166.27-.035.489l-.141.085c-.1-.175-.209-.374-.321-.56s-.219-.354-.332-.528l.143-.086c.131.219.238.325.446.2Zm-.934,2.724a.592.592,0,0,0-.036.535l-.143.085c-.047-.092-.108-.207-.161-.3-.065-.107-.134-.211-.206-.32l.8-1.767,1.413.207a.222.222,0,0,0,.165-.023.1.1,0,0,0,.034-.141l-.061-.1.141-.085c.076.137.163.294.244.428s.177.274.258.409l-.141.084c-.164-.275-.308-.327-1.676-.536Z" transform="translate(-1810.636 -1209.269)"/>
        <path id="패스_6167" data-name="패스 6167" class="cls-2" d="M1828.9,1236.2c-.279-.331-.467-.166-1.058.337l-1.4,1.186a1.35,1.35,0,0,1-2.067-.1,1.377,1.377,0,0,1,.277-2.136l1.771-1.5c.339-.289.21-.45.03-.673l.126-.108c.161.2.317.394.474.579s.326.377.507.579l-.126.108c-.191-.214-.329-.368-.668-.081l-1.648,1.4c-.577.489-1,1.125-.453,1.77.581.687,1.258.227,1.593-.058l1.381-1.175c.8-.676.761-.688.463-1.068l.126-.107c.142.178.284.356.432.529.119.141.244.269.364.409Z" transform="translate(-1816.701 -1214.194)"/>
        <path id="패스_6168" data-name="패스 6168" class="cls-2" d="M1831.855,1244.72c.194-.212-.035-.443-.113-.516l.11-.122c.093.093.179.184.27.269s.186.165.274.238l-.34,2.8,1.135-1.223c.3-.322.2-.426-.016-.622l.115-.122c.122.124.255.258.383.375s.247.222.365.324l-.113.121c-.186-.172-.282-.245-.5-.011l-1.835,1.978-.1-.089.366-3.086-1.156,1.247c-.312.335-.347.452-.049.728l-.111.121c-.127-.126-.275-.271-.408-.4s-.275-.245-.414-.366l.114-.122c.324.3.5.111.813-.226Z" transform="translate(-1820.412 -1221.233)"/>
        <path id="패스_6169" data-name="패스 6169" class="cls-2" d="M1839.286,1251.016c.149-.192.058-.311-.144-.468l.1-.13c.158.13.319.266.482.394s.353.269.514.388l-.1.13c-.2-.157-.339-.218-.489-.026l-1.373,1.754c-.15.191-.057.31.142.468l-.1.13c-.153-.129-.329-.274-.5-.409s-.331-.252-.5-.374l.1-.13c.2.156.339.216.488.026Z" transform="translate(-1825.438 -1225.333)"/>
        <path id="패스_6170" data-name="패스 6170" class="cls-2" d="M1845.024,1253.748c.061-.241.071-.312-.142-.452l.091-.138c.149.108.309.22.466.325s.338.216.508.323l-.092.138-.108-.073c-.1-.07-.183-.076-.246.02a.577.577,0,0,0-.059.158l-.54,2.08,1.584-1.232a.875.875,0,0,0,.2-.2c.091-.137-.049-.231-.207-.336l.091-.139c.141.1.291.21.436.3.108.074.233.148.345.215l-.091.137c-.146-.1-.195-.129-.53.122l-2.254,1.667-.158-.1Z" transform="translate(-1829.991 -1227.106)"/>
        <path id="패스_6171" data-name="패스 6171" class="cls-2" d="M1851.209,1261.7c-.34-.189-.677-.376-1.02-.559-.305-.166-.618-.326-.928-.483l.078-.146c.225.12.373.155.486-.058l1.05-1.966c.113-.215,0-.317-.222-.437l.079-.146c.211.121.423.242.639.357.39.21.79.416,1.18.618l-.289.609-.1-.053c.146-.414.083-.49-.409-.754l-.353-.189-.567,1.063.4.212c.238.127.347.179.553-.209l.124.067c-.082.144-.168.292-.25.444s-.159.313-.239.472l-.124-.066c.165-.31.121-.377-.16-.527l-.4-.212-.437.82c-.129.242-.062.392.334.605.482.258.555.2.938-.068l.121.063Z" transform="translate(-1833.203 -1230.179)"/>
        <path id="패스_6172" data-name="패스 6172" class="cls-2" d="M1858.014,1261.977c.094-.225-.026-.317-.262-.415l.064-.153c.188.086.38.172.569.252.24.1.578.228.748.3a.748.748,0,0,1,.458,1.028.779.779,0,0,1-.824.469c.078,1.317.15,1.513.433,1.734l-.064.153c-.092-.045-.2-.1-.295-.138s-.218-.084-.329-.124a14.452,14.452,0,0,1-.2-1.682c-.052-.016-.119-.038-.169-.058a1.416,1.416,0,0,1-.166-.084l-.4.953c-.1.241.042.32.262.414l-.064.151c-.182-.083-.389-.176-.589-.259s-.387-.155-.578-.229l.062-.152c.236.1.385.118.478-.105Zm.227,1.185a.616.616,0,0,0,.923-.353.568.568,0,0,0-.367-.81c-.045-.018-.2-.07-.254-.084l-.487,1.169Z" transform="translate(-1837.986 -1232.447)"/>
        <path id="패스_6173" data-name="패스 6173" class="cls-2" d="M1865.514,1267.072l.118.037c-.033.458.054.734.431.855a.49.49,0,0,0,.651-.345c.08-.25.012-.445-.266-.769-.457-.527-.532-.807-.381-1.279a.8.8,0,0,1,1.005-.547c.2.063.421.2.589.256l-.144.609-.108-.034c.021-.261-.011-.553-.352-.662a.471.471,0,0,0-.6.341c-.093.292-.052.431.35.875.447.491.467.78.345,1.162a.882.882,0,0,1-1.178.537,1.325,1.325,0,0,1-.586-.368Z" transform="translate(-1843.687 -1234.761)"/>
        <path id="패스_6174" data-name="패스 6174" class="cls-2" d="M1872.8,1266.965c.058-.234-.076-.306-.323-.368l.04-.16c.2.055.4.112.6.161s.432.1.629.141l-.04.162c-.247-.061-.4-.06-.455.176l-.531,2.164c-.058.236.074.308.321.368l-.039.161c-.193-.054-.414-.114-.623-.165s-.407-.094-.609-.137l.04-.161c.247.06.4.057.455-.177Z" transform="translate(-1847.84 -1235.7)"/>
        <path id="패스_6175" data-name="패스 6175" class="cls-2" d="M1878.909,1267.643l-.406-.07c-.325-.055-.4-.016-.559.4l-.14-.025.216-.816.106.019c-.021.119.1.171.208.189l1.7.287a.26.26,0,0,0,.308-.1l.107.018-.194.82-.144-.024c.035-.405.006-.489-.213-.527l-.534-.089-.411,2.436c-.041.24.1.3.382.349l-.028.163c-.228-.044-.452-.088-.666-.126s-.412-.063-.647-.1l.028-.162c.283.048.433.034.475-.2Z" transform="translate(-1851.764 -1236.149)"/>
        <path id="패스_6176" data-name="패스 6176" class="cls-2" d="M1886.91,1271.624c-.016.216.184.231.423.248l-.013.165c-.215-.022-.441-.045-.658-.062s-.449-.026-.666-.036l.013-.166c.27.02.421.031.44-.217l.072-.958-.756-1.442a.37.37,0,0,0-.321-.222l.012-.167c.172.021.382.042.57.056s.412.025.612.033l-.012.166c-.1-.009-.3-.023-.3.06,0,.056.02.091.063.177l.524,1.054.587-.818a.538.538,0,0,0,.133-.252c.008-.094-.01-.147-.3-.168l.012-.166c.162.017.356.039.517.05.137.01.294.009.45.021l-.013.166c-.177-.015-.276-.008-.528.324l-.771,1.021Z" transform="translate(-1856.735 -1237.209)"/>
        <path id="패스_6177" data-name="패스 6177" class="cls-2" d="M1900.356,1268.774a1.481,1.481,0,0,1,1.582,1.49,1.584,1.584,0,0,1-1.346,1.776,1.493,1.493,0,0,1-1.617-1.519A1.544,1.544,0,0,1,1900.356,1268.774Zm.279,3.058c.679-.057.837-.774.78-1.459-.075-.888-.549-1.437-1.122-1.389-.648.054-.851.742-.795,1.428C1899.571,1271.263,1900.069,1271.879,1900.635,1271.832Z" transform="translate(-1865.531 -1237.209)"/>
        <path id="패스_6178" data-name="패스 6178" class="cls-2" d="M1908.9,1268.008c-.045-.239-.2-.248-.447-.2l-.032-.161c.348-.061.688-.12,1.035-.185.5-.1.812-.162,1.12-.228l.152.686-.105.02c-.152-.418-.271-.455-.743-.365l-.568.109.224,1.183.5-.094c.266-.052.381-.08.309-.463l.138-.025c.025.162.053.333.085.5s.071.344.11.517l-.139.027c-.076-.395-.151-.419-.465-.359l-.5.1.177.92c.062.332.192.378.442.33l.113-.021.03.163c-.208.033-.434.071-.72.124-.2.04-.408.086-.609.131l-.031-.164c.251-.047.387-.11.341-.35Z" transform="translate(-1871.677 -1236.215)"/>
        <path id="패스_6179" data-name="패스 6179" class="cls-2" d="M1920.447,1264.1c.145.422.342.36.615.273l.053.157c-.257.082-.494.157-.73.239s-.464.167-.722.264l-.055-.158c.445-.154.453-.263.252-.847l-.924-2.674c-.169-.494-.26-.489-.67-.367l-.054-.156c.364-.126.741-.243,1.115-.373.465-.161.935-.325,1.387-.494l.324.836-.11.066c-.227-.494-.5-.589-1.058-.4l-.6.211.588,1.709.6-.209c.421-.144.431-.229.35-.68l.118-.042c.03.119.131.447.205.664.068.193.175.471.242.631l-.1.036c-.2-.394-.254-.526-.706-.368l-.624.216Z" transform="translate(-1878.048 -1231.514)"/>
        <path id="패스_6180" data-name="패스 6180" class="cls-2" d="M1929.657,1260.877a1.478,1.478,0,0,1,2,.844,1.585,1.585,0,0,1-.644,2.133,1.49,1.49,0,0,1-2.044-.859A1.541,1.541,0,0,1,1929.657,1260.877Zm1.324,2.768c.618-.292.515-1.017.224-1.639-.38-.807-1.016-1.155-1.535-.91-.588.277-.54.992-.247,1.615C1929.786,1263.483,1930.466,1263.887,1930.981,1263.645Z" transform="translate(-1884.93 -1232.01)"/>
        <path id="패스_6181" data-name="패스 6181" class="cls-2" d="M1936.711,1257.493c-.125-.207-.269-.163-.486-.03l-.087-.14c.179-.1.362-.208.538-.315.222-.136.525-.337.681-.433a.746.746,0,0,1,1.1.23.782.782,0,0,1-.1.943c1.111.708,1.311.764,1.656.665l.087.141c-.093.048-.2.1-.284.16s-.195.126-.293.193a13.808,13.808,0,0,1-1.476-.827,1.5,1.5,0,0,1-.146.106c-.051.03-.115.06-.164.084l.539.881c.134.222.283.153.488.028l.086.142c-.174.1-.37.213-.556.326s-.353.222-.524.336l-.086-.141c.216-.132.322-.242.2-.448Zm1.094.511a.618.618,0,0,0,.254-.955.563.563,0,0,0-.868-.177c-.042.027-.173.122-.217.155l.661,1.081Z" transform="translate(-1889.712 -1229.223)"/>
        <path id="패스_6182" data-name="패스 6182" class="cls-2" d="M1946.834,1253.452c-.317.229-.628.454-.941.689-.277.208-.554.425-.828.638l-.1-.132c.2-.154.3-.273.154-.465l-1.335-1.783c-.145-.195-.285-.137-.488.016l-.1-.133c.2-.141.4-.282.593-.428.356-.268.711-.542,1.058-.812l.431.522-.09.068c-.313-.307-.409-.282-.854.052l-.321.241.721.963.359-.269c.216-.163.308-.24.044-.59l.114-.086c.094.136.192.277.3.413s.214.277.325.417l-.113.084c-.21-.28-.29-.268-.544-.076l-.36.27.557.744c.164.219.327.222.688-.048.438-.327.418-.416.336-.88l.108-.081Z" transform="translate(-1894.301 -1225.737)"/>
        <path id="패스_6183" data-name="패스 6183" class="cls-2" d="M1949.858,1248.421c-.158-.181-.294-.116-.486.053l-.11-.126c.161-.13.323-.264.479-.4s.33-.3.477-.434l.109.125c-.191.168-.276.292-.118.476l1.463,1.68c.157.183.293.116.485-.052l.108.126c-.155.126-.33.27-.494.413s-.31.279-.461.42l-.108-.125c.192-.167.278-.292.119-.476Z" transform="translate(-1898.242 -1223.454)"/>
        <path id="패스_6184" data-name="패스 6184" class="cls-2" d="M1956.536,1242.092l-.083.086c-.345-.146-.7-.306-1.1.1-.411.425-.458,1.075.272,1.785a1.26,1.26,0,0,0,1.818.173.84.84,0,0,0,.2-.348c-.041-.039-.285-.291-.344-.349-.256-.248-.354-.284-.614-.016l-.12-.116c.149-.143.321-.3.464-.448.112-.117.238-.266.348-.388l.119.116c-.177.183-.192.252-.036.4l.291.284c.083.079.151.145.247.1l.086.085a3.634,3.634,0,0,1-.621.953,1.515,1.515,0,0,1-2.187-.055,1.535,1.535,0,0,1-.131-2.253,3.678,3.678,0,0,1,.4-.327c.058-.04.358-.241.424-.282Z" transform="translate(-1901.866 -1219.623)"/>
        <path id="패스_6185" data-name="패스 6185" class="cls-2" d="M1959.767,1235.887c-.225-.176-.435.073-.5.159l-.13-.1c.085-.1.167-.194.242-.292s.148-.2.212-.295l2.811.093-1.315-1.025c-.346-.268-.441-.157-.616.069l-.131-.1c.111-.132.232-.278.339-.415s.2-.266.289-.393l.131.1c-.157.2-.219.3.031.5l2.128,1.658-.079.1-3.1-.093,1.34,1.045c.362.281.48.305.73-.016l.13.1c-.114.139-.245.3-.359.441s-.222.3-.329.446l-.129-.1c.271-.351.065-.51-.3-.793Z" transform="translate(-1904.728 -1214.44)"/>
        <path id="패스_6186" data-name="패스 6186" class="cls-2" d="M1967.4,1226.084l.062-.108a1.017,1.017,0,0,0,1.234-.277.775.775,0,0,0-.373-1.063c-1.031-.581-1.513.991-2.82.255a1.122,1.122,0,0,1-.519-1.624,3.793,3.793,0,0,1,.406-.529l.752.323-.06.109a.7.7,0,0,0-.957.264c-.2.359-.014.738.391.967,1.031.58,1.566-1.036,2.84-.319a1.254,1.254,0,0,1,.5,1.746,1.769,1.769,0,0,1-.595.617Z" transform="translate(-1908.405 -1207.42)"/>
        <path id="패스_6187" data-name="패스 6187" class="cls-2" d="M1970.747,1218.24l-.169.376c-.136.3-.117.38.239.644l-.058.127-.734-.415.044-.1c.11.051.19-.05.237-.154l.711-1.577a.264.264,0,0,0-.019-.325l.045-.1.742.4-.06.134c-.384-.139-.472-.13-.562.071l-.225.494,2.248,1.019c.221.1.316-.018.434-.28l.151.069c-.1.209-.2.415-.291.613s-.165.382-.258.6l-.15-.069c.119-.261.144-.409-.077-.509Z" transform="translate(-1911.776 -1203.524)"/>
        <path id="패스_6188" data-name="패스 6188" class="cls-2" d="M1974.042,1211.07c-.218-.073-.29.144-.337.282l-.156-.052c.069-.188.145-.391.208-.583s.118-.371.171-.549l.157.053c-.052.155-.113.334.093.4l1.639.552c.555.185.875-.031,1.008-.427.242-.721-.415-.941-1.017-1.145l-.711-.24c-.6-.2-.669-.168-.784.176l-.157-.053c.063-.166.127-.339.183-.509.05-.144.089-.285.132-.431l.156.052c-.058.174-.073.318.319.452l1.224.411c.693.233,1.127.694.876,1.446a.959.959,0,0,1-1.349.72Z" transform="translate(-1914.057 -1198.237)"/>
        <path id="패스_6189" data-name="패스 6189" class="cls-2" d="M1976.99,1202.242c-.237-.05-.3.084-.357.334l-.162-.034c.048-.2.1-.412.147-.634.056-.271.1-.544.157-.809a1.467,1.467,0,0,1,1.815-1.208,1.45,1.45,0,0,1,1.228,1.879c-.049.234-.117.5-.161.7-.051.238-.094.474-.139.713l-.162-.034c.054-.25.045-.4-.19-.452Zm2.118-.029c.361.077.428-.086.482-.342.107-.509.055-1.214-1.033-1.444-.765-.162-1.432.013-1.582.725-.033.153-.077.421-.1.587Z" transform="translate(-1915.948 -1192.61)"/>
        <path id="패스_6190" data-name="패스 6190" class="cls-2" d="M1978.866,1194.956c-.239-.03-.3.111-.325.365l-.165-.02c.031-.2.063-.413.086-.618s.048-.443.066-.643l.164.02c-.031.254-.011.4.229.433l2.21.265c.24.029.3-.112.326-.365l.165.019c-.031.2-.064.424-.091.64s-.043.415-.06.62l-.164-.02c.03-.252.008-.4-.231-.432Z" transform="translate(-1917.181 -1188.847)"/>
        <path id="패스_6191" data-name="패스 6191" class="cls-2" d="M1982.171,1186.666c-.025.389-.049.774-.067,1.163-.016.348-.026.7-.036,1.047l-.164-.009c.01-.253-.02-.4-.262-.413l-2.223-.1c-.24-.012-.286.133-.3.388l-.164-.007c.018-.245.035-.488.046-.731.021-.445.035-.895.049-1.334l.676,0-.006.113c-.434.047-.476.136-.5.694l-.018.4,1.2.056.021-.452c.012-.27.01-.391-.427-.411l.006-.14c.166.012.337.026.509.034s.349.01.528.014l-.007.14c-.349-.015-.391.053-.406.373l-.02.448.927.043c.273.013.381-.112.4-.562.025-.547-.056-.589-.464-.819l.005-.135Z" transform="translate(-1917.557 -1183.945)"/>
        <path id="패스_6192" data-name="패스 6192" class="cls-2" d="M1981.372,1181.616l0-.125c.441-.125.671-.3.655-.7a.491.491,0,0,0-.547-.494c-.261.01-.421.141-.628.512-.341.61-.577.777-1.072.8a.8.8,0,0,1-.856-.76c-.007-.207.04-.464.04-.643l.621-.072,0,.114c-.252.069-.514.2-.5.556a.473.473,0,0,0,.527.454c.305-.012.421-.1.7-.629.309-.587.573-.706.972-.721a.885.885,0,0,1,.906.926,1.337,1.337,0,0,1-.146.678Z" transform="translate(-1917.532 -1179.699)"/>
      </g>
      <g id="그룹_185" data-name="그룹 185">
        <path id="패스_6193" data-name="패스 6193" class="cls-3" d="M1805.765,1182.554l1.385.007c.445,0,.453-.2.46-.49h.166c-.009.288-.016.544-.017.8,0,.234.008.472.007.716h-.166c0-.287-.008-.494-.455-.5l-3.192-.019c-.445,0-.451.2-.46.492h-.165c.007-.243.016-.488.017-.732s0-.5-.008-.786h.165c.005.289.01.494.455.5l1.544.009.014-2.192-1.544-.009c-.447,0-.455.2-.462.492h-.165c0-.261.015-.493.016-.732,0-.261,0-.516-.007-.787h.167c0,.289.007.494.453.5l3.191.018c.445,0,.453-.2.462-.49h.165c-.009.255-.017.5-.017.748s0,.5.009.771h-.167c-.005-.287-.01-.494-.453-.5l-1.387-.008Z" transform="translate(-1803.33 -1179.323)"/>
        <path id="패스_6194" data-name="패스 6194" class="cls-3" d="M1803.89,1194.373l.008.064c.014.134.075.265.182.251a.635.635,0,0,0,.2-.067l.615-.278-.11-.915-.425-.07a2,2,0,0,0-.421-.041c-.152.018-.157.2-.144.3l.008.065-.164.019c-.016-.184-.031-.366-.053-.55-.017-.14-.042-.3-.066-.44l.164-.019a.356.356,0,0,0,.312.365l2.4.494a.671.671,0,0,0,.214.029.451.451,0,0,0,.087-.021l.232.393-2.58,1.128c-.28.121-.354.213-.319.5l-.165.02c-.017-.207-.035-.407-.059-.605s-.055-.4-.085-.6Zm2.431-.653v-.011l-1.322-.24.095.791Z" transform="translate(-1803.456 -1187.976)"/>
        <path id="패스_6195" data-name="패스 6195" class="cls-3" d="M1807.4,1200.806c.28-.064.219-.384.195-.49l.161-.035c.023.127.044.251.072.372s.062.243.094.352l-1.851,2.121,1.624-.371c.428-.1.4-.243.338-.522l.16-.038c.032.17.069.358.107.526s.08.322.121.474l-.162.036c-.056-.248-.095-.362-.406-.292l-2.627.6-.029-.126,2.034-2.347-1.655.38c-.447.1-.54.18-.449.576l-.161.037c-.034-.175-.074-.379-.115-.559s-.086-.358-.135-.537l.162-.035c.1.434.353.374.8.273Z" transform="translate(-1804.227 -1192.886)"/>
        <path id="패스_6196" data-name="패스 6196" class="cls-3" d="M1809.82,1209.987c.229-.078.217-.229.135-.471l.157-.053c.06.2.123.4.189.593s.15.418.221.607l-.156.054c-.082-.241-.166-.367-.4-.289l-2.1.724c-.23.078-.217.23-.135.469l-.156.055c-.06-.193-.127-.409-.2-.615s-.141-.393-.214-.586l.157-.053c.083.241.166.367.395.287Zm-1.481,2.469a.593.593,0,0,0-.145.516l-.157.053c-.027-.1-.063-.224-.1-.323-.041-.117-.086-.233-.134-.355l1.145-1.563,1.34.5a.208.208,0,0,0,.166.011.092.092,0,0,0,.062-.129l-.037-.112.156-.054c.044.151.1.321.147.47s.118.3.168.453l-.157.053c-.1-.3-.232-.385-1.529-.874Z" transform="translate(-1805.811 -1198.829)"/>
        <path id="패스_6197" data-name="패스 6197" class="cls-3" d="M1813.542,1217.676c.207-.1.111-.3.049-.436l.151-.068c.078.184.164.383.247.565s.171.352.255.516l-.15.071c-.069-.148-.149-.32-.344-.228l-1.568.731c-.531.247-.614.627-.438,1,.319.689.948.4,1.524.127l.681-.318c.577-.269.6-.339.446-.668l.15-.07c.069.165.141.335.217.5.063.139.13.268.2.4l-.15.071c-.079-.168-.167-.283-.541-.107l-1.171.546c-.663.309-1.3.275-1.628-.443a.96.96,0,0,1,.482-1.451Z" transform="translate(-1808.501 -1203.818)"/>
        <path id="패스_6198" data-name="패스 6198" class="cls-3" d="M1817.117,1226.17c.207-.125.165-.27.034-.488l.141-.086c.1.181.2.365.311.542s.233.378.341.547l-.143.084c-.13-.219-.238-.324-.445-.2l-1.908,1.147c-.208.125-.166.27-.035.489l-.141.085c-.1-.175-.209-.374-.321-.56s-.219-.354-.332-.528l.143-.086c.131.219.238.325.446.2Zm-.934,2.724a.592.592,0,0,0-.036.535l-.143.085c-.047-.092-.108-.207-.161-.3-.065-.107-.134-.211-.206-.32l.8-1.767,1.413.207a.222.222,0,0,0,.165-.023.1.1,0,0,0,.034-.141l-.061-.1.141-.085c.076.137.163.294.244.428s.177.274.258.409l-.141.084c-.164-.275-.308-.327-1.676-.536Z" transform="translate(-1810.636 -1209.269)"/>
        <path id="패스_6199" data-name="패스 6199" class="cls-3" d="M1828.9,1236.2c-.279-.331-.467-.166-1.058.337l-1.4,1.186a1.35,1.35,0,0,1-2.067-.1,1.377,1.377,0,0,1,.277-2.136l1.771-1.5c.339-.289.21-.45.03-.673l.126-.108c.161.2.317.394.474.579s.326.377.507.579l-.126.108c-.191-.214-.329-.368-.668-.081l-1.648,1.4c-.577.489-1,1.125-.453,1.77.581.687,1.258.227,1.593-.058l1.381-1.175c.8-.676.761-.688.463-1.068l.126-.107c.142.178.284.356.432.529.119.141.244.269.364.409Z" transform="translate(-1816.701 -1214.194)"/>
        <path id="패스_6200" data-name="패스 6200" class="cls-3" d="M1831.855,1244.72c.194-.212-.035-.443-.113-.516l.11-.122c.093.093.179.184.27.269s.186.165.274.238l-.34,2.8,1.135-1.223c.3-.322.2-.426-.016-.622l.115-.122c.122.124.255.258.383.375s.247.222.365.324l-.113.121c-.186-.172-.282-.245-.5-.011l-1.835,1.978-.1-.089.366-3.086-1.156,1.247c-.312.335-.347.452-.049.728l-.111.121c-.127-.126-.275-.271-.408-.4s-.275-.245-.414-.366l.114-.122c.324.3.5.111.813-.226Z" transform="translate(-1820.412 -1221.233)"/>
        <path id="패스_6201" data-name="패스 6201" class="cls-3" d="M1839.286,1251.016c.149-.192.058-.311-.144-.468l.1-.13c.158.13.319.266.482.394s.353.269.514.388l-.1.13c-.2-.157-.339-.218-.489-.026l-1.373,1.754c-.15.191-.057.31.142.468l-.1.13c-.153-.129-.329-.274-.5-.409s-.331-.252-.5-.374l.1-.13c.2.156.339.216.488.026Z" transform="translate(-1825.438 -1225.333)"/>
        <path id="패스_6202" data-name="패스 6202" class="cls-3" d="M1845.024,1253.748c.061-.241.071-.312-.142-.452l.091-.138c.149.108.309.22.466.325s.338.216.508.323l-.092.138-.108-.073c-.1-.07-.183-.076-.246.02a.577.577,0,0,0-.059.158l-.54,2.08,1.584-1.232a.875.875,0,0,0,.2-.2c.091-.137-.049-.231-.207-.336l.091-.139c.141.1.291.21.436.3.108.074.233.148.345.215l-.091.137c-.146-.1-.195-.129-.53.122l-2.254,1.667-.158-.1Z" transform="translate(-1829.991 -1227.106)"/>
        <path id="패스_6203" data-name="패스 6203" class="cls-3" d="M1851.209,1261.7c-.34-.189-.677-.376-1.02-.559-.305-.166-.618-.326-.928-.483l.078-.146c.225.12.373.155.486-.058l1.05-1.966c.113-.215,0-.317-.222-.437l.079-.146c.211.121.423.242.639.357.39.21.79.416,1.18.618l-.289.609-.1-.053c.146-.414.083-.49-.409-.754l-.353-.189-.567,1.063.4.212c.238.127.347.179.553-.209l.124.067c-.082.144-.168.292-.25.444s-.159.313-.239.472l-.124-.066c.165-.31.121-.377-.16-.527l-.4-.212-.437.82c-.129.242-.062.392.334.605.482.258.555.2.938-.068l.121.063Z" transform="translate(-1833.203 -1230.179)"/>
        <path id="패스_6204" data-name="패스 6204" class="cls-3" d="M1858.014,1261.977c.094-.225-.026-.317-.262-.415l.064-.153c.188.086.38.172.569.252.24.1.578.228.748.3a.748.748,0,0,1,.458,1.028.779.779,0,0,1-.824.469c.078,1.317.15,1.513.433,1.734l-.064.153c-.092-.045-.2-.1-.295-.138s-.218-.084-.329-.124a14.452,14.452,0,0,1-.2-1.682c-.052-.016-.119-.038-.169-.058a1.416,1.416,0,0,1-.166-.084l-.4.953c-.1.241.042.32.262.414l-.064.151c-.182-.083-.389-.176-.589-.259s-.387-.155-.578-.229l.062-.152c.236.1.385.118.478-.105Zm.227,1.185a.616.616,0,0,0,.923-.353.568.568,0,0,0-.367-.81c-.045-.018-.2-.07-.254-.084l-.487,1.169Z" transform="translate(-1837.986 -1232.447)"/>
        <path id="패스_6205" data-name="패스 6205" class="cls-3" d="M1865.514,1267.072l.118.037c-.033.458.054.734.431.855a.49.49,0,0,0,.651-.345c.08-.25.012-.445-.266-.769-.457-.527-.532-.807-.381-1.279a.8.8,0,0,1,1.005-.547c.2.063.421.2.589.256l-.144.609-.108-.034c.021-.261-.011-.553-.352-.662a.471.471,0,0,0-.6.341c-.093.292-.052.431.35.875.447.491.467.78.345,1.162a.882.882,0,0,1-1.178.537,1.325,1.325,0,0,1-.586-.368Z" transform="translate(-1843.687 -1234.761)"/>
        <path id="패스_6206" data-name="패스 6206" class="cls-3" d="M1872.8,1266.965c.058-.234-.076-.306-.323-.368l.04-.16c.2.055.4.112.6.161s.432.1.629.141l-.04.162c-.247-.061-.4-.06-.455.176l-.531,2.164c-.058.236.074.308.321.368l-.039.161c-.193-.054-.414-.114-.623-.165s-.407-.094-.609-.137l.04-.161c.247.06.4.057.455-.177Z" transform="translate(-1847.84 -1235.7)"/>
        <path id="패스_6207" data-name="패스 6207" class="cls-3" d="M1878.909,1267.643l-.406-.07c-.325-.055-.4-.016-.559.4l-.14-.025.216-.816.106.019c-.021.119.1.171.208.189l1.7.287a.26.26,0,0,0,.308-.1l.107.018-.194.82-.144-.024c.035-.405.006-.489-.213-.527l-.534-.089-.411,2.436c-.041.24.1.3.382.349l-.028.163c-.228-.044-.452-.088-.666-.126s-.412-.063-.647-.1l.028-.162c.283.048.433.034.475-.2Z" transform="translate(-1851.764 -1236.149)"/>
        <path id="패스_6208" data-name="패스 6208" class="cls-3" d="M1886.91,1271.624c-.016.216.184.231.423.248l-.013.165c-.215-.022-.441-.045-.658-.062s-.449-.026-.666-.036l.013-.166c.27.02.421.031.44-.217l.072-.958-.756-1.442a.37.37,0,0,0-.321-.222l.012-.167c.172.021.382.042.57.056s.412.025.612.033l-.012.166c-.1-.009-.3-.023-.3.06,0,.056.02.091.063.177l.524,1.054.587-.818a.538.538,0,0,0,.133-.252c.008-.094-.01-.147-.3-.168l.012-.166c.162.017.356.039.517.05.137.01.294.009.45.021l-.013.166c-.177-.015-.276-.008-.528.324l-.771,1.021Z" transform="translate(-1856.735 -1237.209)"/>
        <path id="패스_6209" data-name="패스 6209" class="cls-3" d="M1900.356,1268.774a1.481,1.481,0,0,1,1.582,1.49,1.584,1.584,0,0,1-1.346,1.776,1.493,1.493,0,0,1-1.617-1.519A1.544,1.544,0,0,1,1900.356,1268.774Zm.279,3.058c.679-.057.837-.774.78-1.459-.075-.888-.549-1.437-1.122-1.389-.648.054-.851.742-.795,1.428C1899.571,1271.263,1900.069,1271.879,1900.635,1271.832Z" transform="translate(-1865.531 -1237.209)"/>
        <path id="패스_6210" data-name="패스 6210" class="cls-3" d="M1908.9,1268.008c-.045-.239-.2-.248-.447-.2l-.032-.161c.348-.061.688-.12,1.035-.185.5-.1.812-.162,1.12-.228l.152.686-.105.02c-.152-.418-.271-.455-.743-.365l-.568.109.224,1.183.5-.094c.266-.052.381-.08.309-.463l.138-.025c.025.162.053.333.085.5s.071.344.11.517l-.139.027c-.076-.395-.151-.419-.465-.359l-.5.1.177.92c.062.332.192.378.442.33l.113-.021.03.163c-.208.033-.434.071-.72.124-.2.04-.408.086-.609.131l-.031-.164c.251-.047.387-.11.341-.35Z" transform="translate(-1871.677 -1236.215)"/>
        <path id="패스_6211" data-name="패스 6211" class="cls-3" d="M1920.447,1264.1c.145.422.342.36.615.273l.053.157c-.257.082-.494.157-.73.239s-.464.167-.722.264l-.055-.158c.445-.154.453-.263.252-.847l-.924-2.674c-.169-.494-.26-.489-.67-.367l-.054-.156c.364-.126.741-.243,1.115-.373.465-.161.935-.325,1.387-.494l.324.836-.11.066c-.227-.494-.5-.589-1.058-.4l-.6.211.588,1.709.6-.209c.421-.144.431-.229.35-.68l.118-.042c.03.119.131.447.205.664.068.193.175.471.242.631l-.1.036c-.2-.394-.254-.526-.706-.368l-.624.216Z" transform="translate(-1878.048 -1231.514)"/>
        <path id="패스_6212" data-name="패스 6212" class="cls-3" d="M1929.657,1260.877a1.478,1.478,0,0,1,2,.844,1.585,1.585,0,0,1-.644,2.133,1.49,1.49,0,0,1-2.044-.859A1.541,1.541,0,0,1,1929.657,1260.877Zm1.324,2.768c.618-.292.515-1.017.224-1.639-.38-.807-1.016-1.155-1.535-.91-.588.277-.54.992-.247,1.615C1929.786,1263.483,1930.466,1263.887,1930.981,1263.645Z" transform="translate(-1884.93 -1232.01)"/>
        <path id="패스_6213" data-name="패스 6213" class="cls-3" d="M1936.711,1257.493c-.125-.207-.269-.163-.486-.03l-.087-.14c.179-.1.362-.208.538-.315.222-.136.525-.337.681-.433a.746.746,0,0,1,1.1.23.782.782,0,0,1-.1.943c1.111.708,1.311.764,1.656.665l.087.141c-.093.048-.2.1-.284.16s-.195.126-.293.193a13.808,13.808,0,0,1-1.476-.827,1.5,1.5,0,0,1-.146.106c-.051.03-.115.06-.164.084l.539.881c.134.222.283.153.488.028l.086.142c-.174.1-.37.213-.556.326s-.353.222-.524.336l-.086-.141c.216-.132.322-.242.2-.448Zm1.094.511a.618.618,0,0,0,.254-.955.563.563,0,0,0-.868-.177c-.042.027-.173.122-.217.155l.661,1.081Z" transform="translate(-1889.712 -1229.223)"/>
        <path id="패스_6214" data-name="패스 6214" class="cls-3" d="M1946.834,1253.452c-.317.229-.628.454-.941.689-.277.208-.554.425-.828.638l-.1-.132c.2-.154.3-.273.154-.465l-1.335-1.783c-.145-.195-.285-.137-.488.016l-.1-.133c.2-.141.4-.282.593-.428.356-.268.711-.542,1.058-.812l.431.522-.09.068c-.313-.307-.409-.282-.854.052l-.321.241.721.963.359-.269c.216-.163.308-.24.044-.59l.114-.086c.094.136.192.277.3.413s.214.277.325.417l-.113.084c-.21-.28-.29-.268-.544-.076l-.36.27.557.744c.164.219.327.222.688-.048.438-.327.418-.416.336-.88l.108-.081Z" transform="translate(-1894.301 -1225.737)"/>
        <path id="패스_6215" data-name="패스 6215" class="cls-3" d="M1949.858,1248.421c-.158-.181-.294-.116-.486.053l-.11-.126c.161-.13.323-.264.479-.4s.33-.3.477-.434l.109.125c-.191.168-.276.292-.118.476l1.463,1.68c.157.183.293.116.485-.052l.108.126c-.155.126-.33.27-.494.413s-.31.279-.461.42l-.108-.125c.192-.167.278-.292.119-.476Z" transform="translate(-1898.242 -1223.454)"/>
        <path id="패스_6216" data-name="패스 6216" class="cls-3" d="M1956.536,1242.092l-.083.086c-.345-.146-.7-.306-1.1.1-.411.425-.458,1.075.272,1.785a1.26,1.26,0,0,0,1.818.173.84.84,0,0,0,.2-.348c-.041-.039-.285-.291-.344-.349-.256-.248-.354-.284-.614-.016l-.12-.116c.149-.143.321-.3.464-.448.112-.117.238-.266.348-.388l.119.116c-.177.183-.192.252-.036.4l.291.284c.083.079.151.145.247.1l.086.085a3.634,3.634,0,0,1-.621.953,1.515,1.515,0,0,1-2.187-.055,1.535,1.535,0,0,1-.131-2.253,3.678,3.678,0,0,1,.4-.327c.058-.04.358-.241.424-.282Z" transform="translate(-1901.866 -1219.623)"/>
        <path id="패스_6217" data-name="패스 6217" class="cls-3" d="M1959.767,1235.887c-.225-.176-.435.073-.5.159l-.13-.1c.085-.1.167-.194.242-.292s.148-.2.212-.295l2.811.093-1.315-1.025c-.346-.268-.441-.157-.616.069l-.131-.1c.111-.132.232-.278.339-.415s.2-.266.289-.393l.131.1c-.157.2-.219.3.031.5l2.128,1.658-.079.1-3.1-.093,1.34,1.045c.362.281.48.305.73-.016l.13.1c-.114.139-.245.3-.359.441s-.222.3-.329.446l-.129-.1c.271-.351.065-.51-.3-.793Z" transform="translate(-1904.728 -1214.44)"/>
        <path id="패스_6218" data-name="패스 6218" class="cls-3" d="M1967.4,1226.084l.062-.108a1.017,1.017,0,0,0,1.234-.277.775.775,0,0,0-.373-1.063c-1.031-.581-1.513.991-2.82.255a1.122,1.122,0,0,1-.519-1.624,3.793,3.793,0,0,1,.406-.529l.752.323-.06.109a.7.7,0,0,0-.957.264c-.2.359-.014.738.391.967,1.031.58,1.566-1.036,2.84-.319a1.254,1.254,0,0,1,.5,1.746,1.769,1.769,0,0,1-.595.617Z" transform="translate(-1908.405 -1207.42)"/>
        <path id="패스_6219" data-name="패스 6219" class="cls-3" d="M1970.747,1218.24l-.169.376c-.136.3-.117.38.239.644l-.058.127-.734-.415.044-.1c.11.051.19-.05.237-.154l.711-1.577a.264.264,0,0,0-.019-.325l.045-.1.742.4-.06.134c-.384-.139-.472-.13-.562.071l-.225.494,2.248,1.019c.221.1.316-.018.434-.28l.151.069c-.1.209-.2.415-.291.613s-.165.382-.258.6l-.15-.069c.119-.261.144-.409-.077-.509Z" transform="translate(-1911.776 -1203.524)"/>
        <path id="패스_6220" data-name="패스 6220" class="cls-3" d="M1974.042,1211.07c-.218-.073-.29.144-.337.282l-.156-.052c.069-.188.145-.391.208-.583s.118-.371.171-.549l.157.053c-.052.155-.113.334.093.4l1.639.552c.555.185.875-.031,1.008-.427.242-.721-.415-.941-1.017-1.145l-.711-.24c-.6-.2-.669-.168-.784.176l-.157-.053c.063-.166.127-.339.183-.509.05-.144.089-.285.132-.431l.156.052c-.058.174-.073.318.319.452l1.224.411c.693.233,1.127.694.876,1.446a.959.959,0,0,1-1.349.72Z" transform="translate(-1914.057 -1198.237)"/>
        <path id="패스_6221" data-name="패스 6221" class="cls-3" d="M1976.99,1202.242c-.237-.05-.3.084-.357.334l-.162-.034c.048-.2.1-.412.147-.634.056-.271.1-.544.157-.809a1.467,1.467,0,0,1,1.815-1.208,1.45,1.45,0,0,1,1.228,1.879c-.049.234-.117.5-.161.7-.051.238-.094.474-.139.713l-.162-.034c.054-.25.045-.4-.19-.452Zm2.118-.029c.361.077.428-.086.482-.342.107-.509.055-1.214-1.033-1.444-.765-.162-1.432.013-1.582.725-.033.153-.077.421-.1.587Z" transform="translate(-1915.948 -1192.61)"/>
        <path id="패스_6222" data-name="패스 6222" class="cls-3" d="M1978.866,1194.956c-.239-.03-.3.111-.325.365l-.165-.02c.031-.2.063-.413.086-.618s.048-.443.066-.643l.164.02c-.031.254-.011.4.229.433l2.21.265c.24.029.3-.112.326-.365l.165.019c-.031.2-.064.424-.091.64s-.043.415-.06.62l-.164-.02c.03-.252.008-.4-.231-.432Z" transform="translate(-1917.181 -1188.847)"/>
        <path id="패스_6223" data-name="패스 6223" class="cls-3" d="M1982.171,1186.666c-.025.389-.049.774-.067,1.163-.016.348-.026.7-.036,1.047l-.164-.009c.01-.253-.02-.4-.262-.413l-2.223-.1c-.24-.012-.286.133-.3.388l-.164-.007c.018-.245.035-.488.046-.731.021-.445.035-.895.049-1.334l.676,0-.006.113c-.434.047-.476.136-.5.694l-.018.4,1.2.056.021-.452c.012-.27.01-.391-.427-.411l.006-.14c.166.012.337.026.509.034s.349.01.528.014l-.007.14c-.349-.015-.391.053-.406.373l-.02.448.927.043c.273.013.381-.112.4-.562.025-.547-.056-.589-.464-.819l.005-.135Z" transform="translate(-1917.557 -1183.945)"/>
        <path id="패스_6224" data-name="패스 6224" class="cls-3" d="M1981.372,1181.616l0-.125c.441-.125.671-.3.655-.7a.491.491,0,0,0-.547-.494c-.261.01-.421.141-.628.512-.341.61-.577.777-1.072.8a.8.8,0,0,1-.856-.76c-.007-.207.04-.464.04-.643l.621-.072,0,.114c-.252.069-.514.2-.5.556a.473.473,0,0,0,.527.454c.305-.012.421-.1.7-.629.309-.587.573-.706.972-.721a.885.885,0,0,1,.906.926,1.337,1.337,0,0,1-.146.678Z" transform="translate(-1917.532 -1179.699)"/>
      </g>
    </g>
  </g>
  <g id="그룹_188" data-name="그룹 188" transform="translate(4.451 2.588)">
    <path id="패스_6225" data-name="패스 6225" class="cls-3" d="M1808.115,1147.094l.373-.876c.321.141.531.227.621.266l.5-1.172.461.2-.249.583a1.113,1.113,0,0,1,.375-.04,1.074,1.074,0,0,1,.375.087,1.11,1.11,0,0,1,.62.665,1.247,1.247,0,0,1-.029.951,1.234,1.234,0,0,1-.668.675,1.1,1.1,0,0,1-.909.013,1.055,1.055,0,0,1-.321-.209,1.184,1.184,0,0,1-.229-.3l-.247.575-.456-.2.494-1.163-.058-.025A.733.733,0,0,0,1808.115,1147.094Zm3.127,1.487.4-.945,1,.426a.07.07,0,0,0,.065,0,.094.094,0,0,0,.046-.047l.988-2.316.465.2-1.115,2.61a.464.464,0,0,1-.236.271.459.459,0,0,1-.362-.031l-.59-.254A.918.918,0,0,0,1811.242,1148.581Zm-1.381-.785a.748.748,0,0,0,.494.035.482.482,0,0,0,.35-.28.494.494,0,0,0-.034-.442.725.725,0,0,0-.364-.332.739.739,0,0,0-.5-.037.48.48,0,0,0-.345.277.506.506,0,0,0,.037.44A.706.706,0,0,0,1809.861,1147.8Zm-.768-2.92.4-.93,1.292.553.288-.673.465.2-.286.673,1.654.707-.266.619-2.853-1.219A.918.918,0,0,0,1809.093,1144.876Z" transform="translate(-1808.115 -1126.027)"/>
    <path id="패스_6226" data-name="패스 6226" class="cls-3" d="M1826.076,1122.658l-1.41,1.559-.374-.34,2.4-2.65a.93.93,0,0,0-.176-.345,3.64,3.64,0,0,0-.376-.38l-.214-.194c-.033-.028-.058-.043-.078-.041s-.048.02-.077.051l-2.084,2.3-.372-.338,2.582-2.855a.054.054,0,0,1,.037-.023.083.083,0,0,1,.046.023l.669.609a2.209,2.209,0,0,1,.361.386.89.89,0,0,1,.127.311l.477-.526.375.34-1.408,1.555.627.565.99-1.1a.063.063,0,0,1,.039-.021.055.055,0,0,1,.041.018l1.332,1.206-.471.521-.958-.867a.058.058,0,0,0-.041-.018.05.05,0,0,0-.038.023l-2.018,2.229-.372-.34.988-1.1Z" transform="translate(-1817.951 -1110.221)"/>
    <path id="패스_6227" data-name="패스 6227" class="cls-3" d="M1850.207,1101.5l.888-.48,2.456,4.55-.595.32-.682-1.267a1.014,1.014,0,0,1-.291.32,5.178,5.178,0,0,1-.557.335l-2.332,1.259-.24-.446,1.3-.7a.935.935,0,0,0-.6-.5l.846-.455.344.638.638-.342a2.212,2.212,0,0,0,.433-.293,1.072,1.072,0,0,0,.21-.267l-1.234-2.287A.945.945,0,0,0,1850.207,1101.5Zm-1.916,2.488a1.113,1.113,0,0,1-.073-.911,1.346,1.346,0,0,1,1.582-.852,1.129,1.129,0,0,1,.793,1.473,1.342,1.342,0,0,1-1.578.852A1.1,1.1,0,0,1,1848.291,1103.992Zm.594-.32a.709.709,0,0,0,.378.339.529.529,0,0,0,.462-.026.537.537,0,0,0,.278-.373.745.745,0,0,0-.453-.839.547.547,0,0,0-.741.4A.71.71,0,0,0,1848.885,1103.672Z" transform="translate(-1834.169 -1098.328)"/>
    <path id="패스_6228" data-name="패스 6228" class="cls-3" d="M1876.957,1096.019l-2.074.338-.08-.5,3.529-.57a.944.944,0,0,0,.079-.382,3.741,3.741,0,0,0-.057-.528l-.048-.288a.1.1,0,0,0-.034-.079.117.117,0,0,0-.093-.009l-3.059.5-.083-.5,3.8-.614a.052.052,0,0,1,.043.007.055.055,0,0,1,.023.043l.144.9a2.1,2.1,0,0,1,.04.527.825.825,0,0,1-.1.323l.7-.113.079.5-2.067.335.133.834,1.457-.238a.057.057,0,0,1,.045.007.05.05,0,0,1,.02.039l.287,1.775-.692.112-.208-1.276a.051.051,0,0,0-.02-.04.055.055,0,0,0-.043-.006l-2.969.478-.079-.5,1.457-.237Z" transform="translate(-1851.508 -1093.382)"/>
    <path id="패스_6229" data-name="패스 6229" class="cls-3" d="M1908.363,1094.558l.992.174-.9,5.091-.657-.117.527-2.987-.764-.134a1.4,1.4,0,0,1-.645.726,1.521,1.521,0,0,1-1.959-.436,1.43,1.43,0,0,1,.356-2.022,1.533,1.533,0,0,1,2.014.285,1.4,1.4,0,0,1,.336.951l.749.132.174-.967A.912.912,0,0,0,1908.363,1094.558Zm-2.976,1.351a1.062,1.062,0,0,0,.1.7.685.685,0,0,0,.507.393.7.7,0,0,0,.616-.188,1.084,1.084,0,0,0,.337-.619,1.1,1.1,0,0,0-.1-.7.682.682,0,0,0-.51-.392.712.712,0,0,0-.605.186A1.027,1.027,0,0,0,1905.388,1095.909Z" transform="translate(-1870.948 -1094.143)"/>
    <path id="패스_6230" data-name="패스 6230" class="cls-3" d="M1936.348,1103.684l.809.455-2.531,4.506-.558-.314,1.485-2.646-.373-.208-1.485,2.646-.56-.314.809-1.441a1.439,1.439,0,0,1-.361-.107,5.223,5.223,0,0,1-.483-.245l-.837-.47a.7.7,0,0,1-.36-.394.733.733,0,0,1,.112-.544l.918-1.633a1.015,1.015,0,0,0,.026-.738l2.038,1.145-.247.441-1.151-.646-1.03,1.831a.113.113,0,0,0-.016.091.107.107,0,0,0,.053.06l.936.525a2.415,2.415,0,0,0,.368.175,1.156,1.156,0,0,0,.281.068l1.19-2.12a.831.831,0,0,0,.034-.646l.809.452-.8,1.421.37.21.514-.915A.841.841,0,0,0,1936.348,1103.684Z" transform="translate(-1888.654 -1099.113)"/>
    <path id="패스_6231" data-name="패스 6231" class="cls-3" d="M1957.594,1120.329l.627.713-.485.427.84.958-.375.33-.416-.473a1.146,1.146,0,0,1-.122.327,1.1,1.1,0,0,1-.227.279,1.08,1.08,0,0,1-.854.267,1.278,1.278,0,0,1-1.145-1.306,1.074,1.074,0,0,1,.376-.811,1.043,1.043,0,0,1,.3-.19,1.146,1.146,0,0,1,.343-.078l-.409-.465.378-.33.833.951.06-.054A.749.749,0,0,0,1957.594,1120.329Zm-.3,4.722a.12.12,0,0,1,.031.082.115.115,0,0,1-.042.076l-1.352,1.189-.462-.53,1.013-.89a.056.056,0,0,0,.023-.038.069.069,0,0,0-.015-.04l-1.876-2.133.38-.333Zm-1.017-3.482a.72.72,0,0,0-.243.417.45.45,0,0,0,.1.417.465.465,0,0,0,.4.159.7.7,0,0,0,.438-.186.74.74,0,0,0,.251-.415.461.461,0,0,0-.1-.416.482.482,0,0,0-.395-.154A.67.67,0,0,0,1956.276,1121.569Zm2.873.654.664.76-.8.706.485.549-.424.37-.482-.549-1.056.926-.442-.506,1.816-1.6A.865.865,0,0,0,1959.149,1122.224Z" transform="translate(-1903.49 -1110.593)"/>
    <path id="패스_6232" data-name="패스 6232" class="cls-3" d="M1970.626,1148.239l.354.872-1.921.782.69,1.693-.475.193-1.86-4.576.472-.192.477,1.17,1.408-.572a.765.765,0,0,0,.406-.476l.354.875-1.918.782.2.494,1.408-.571A.785.785,0,0,0,1970.626,1148.239Zm1.567,1a.128.128,0,0,0,.071-.053.144.144,0,0,0-.014-.091l-1.143-2.806.47-.191,1.423,3.5a.074.074,0,0,1,.005.048.082.082,0,0,1-.038.026l-1.515.615a4.608,4.608,0,0,1-.862.278,1.788,1.788,0,0,1-.65.016l-.25-.614a1.766,1.766,0,0,0,.671-.036,5.8,5.8,0,0,0,.887-.306Z" transform="translate(-1911.775 -1127.502)"/>
  </g>
  <g id="그룹_203" data-name="그룹 203" transform="translate(10.631 10.488)">
    <g id="그룹_191" data-name="그룹 191" transform="translate(4.836 4.633)">
      <g id="그룹_189" data-name="그룹 189">
        <path id="패스_6233" data-name="패스 6233" class="cls-4" d="M1878.964,1149.822c0,11.108-8.692,20.114-19.409,20.114s-19.411-9.006-19.411-20.114,8.691-20.116,19.411-20.116S1878.964,1138.712,1878.964,1149.822Z" transform="translate(-1840.144 -1129.706)"/>
      </g>
      <g id="그룹_190" data-name="그룹 190">
        <path id="패스_6234" data-name="패스 6234" class="cls-5" d="M1878.964,1149.822c0,11.108-8.692,20.114-19.409,20.114s-19.411-9.006-19.411-20.114,8.691-20.116,19.411-20.116S1878.964,1138.712,1878.964,1149.822Z" transform="translate(-1840.144 -1129.706)"/>
      </g>
    </g>
    <g id="그룹_201" data-name="그룹 201" transform="translate(4.298 3.588)">
      <g id="그룹_198" data-name="그룹 198">
        <g id="그룹_192" data-name="그룹 192" transform="translate(19.768 6.167)">
          <path id="패스_6235" data-name="패스 6235" class="cls-6" d="M1894.644,1144.816c3.729,2.041,7.569,6.8,9.133,11.314a29.086,29.086,0,0,1-1.6,21.69l.611.288a29.76,29.76,0,0,0,1.631-22.2c-1.639-4.731-5.523-9.537-9.446-11.685Z" transform="translate(-1894.644 -1144.222)"/>
        </g>
        <g id="그룹_193" data-name="그룹 193" transform="translate(21.082 4.988)">
          <path id="패스_6236" data-name="패스 6236" class="cls-7" d="M1898.368,1141.548c6.085.978,11.579,5.984,13.656,10.2,2.508,5.083,2.538,11.094.092,17.861l.635.231c2.513-6.949,2.471-13.136-.121-18.392-2.153-4.367-7.845-9.554-14.156-10.566Z" transform="translate(-1898.368 -1140.882)"/>
        </g>
        <g id="그룹_194" data-name="그룹 194" transform="translate(2.687 3.334)">
          <path id="패스_6237" data-name="패스 6237" class="cls-8" d="M1874.929,1136.489a7.722,7.722,0,0,1-.56,7.044,14.472,14.472,0,0,1-10.864,7.166c-7.453.94-14.623.572-16.61-8.408l-.661.145c2.11,9.534,9.958,9.865,17.354,8.934a15.168,15.168,0,0,0,11.377-7.515,8.387,8.387,0,0,0,.573-7.663Z" transform="translate(-1846.234 -1136.193)"/>
        </g>
        <g id="그룹_195" data-name="그룹 195" transform="translate(0 16.149)">
          <path id="패스_6238" data-name="패스 6238" class="cls-9" d="M1878.128,1172.514c-.342,7.034-7.624,15.73-16.856,16.839-10.075,1.208-18.9-3.207-22.094-7.977l-.56.377c3.385,5.059,12.282,9.526,22.734,8.27,9.556-1.147,17.1-10.172,17.452-17.476Z" transform="translate(-1838.618 -1172.514)"/>
        </g>
        <g id="그룹_196" data-name="그룹 196" transform="translate(6.183)">
          <path id="패스_6239" data-name="패스 6239" class="cls-10" d="M1876.694,1126.962a5.194,5.194,0,0,1-.976,3.852,12.07,12.07,0,0,1-8.378,5.555c-4.18.623-9.448-.272-10.541-4.833l-.658.158c1.124,4.686,6.484,6.061,11.3,5.346a12.672,12.672,0,0,0,8.855-5.872c1.022-1.676,1.411-3.33,1.038-4.423Z" transform="translate(-1856.141 -1126.744)"/>
        </g>
        <g id="그룹_197" data-name="그룹 197" transform="translate(0.039 8.862)">
          <path id="패스_6240" data-name="패스 6240" class="cls-11" d="M1874.846,1151.966a12.862,12.862,0,0,1-2.483,9.622,18.393,18.393,0,0,1-12.323,6.991c-9.188,1.41-16.745-1.7-20.729-8.541l-.582.342c4.131,7.089,11.936,10.321,21.416,8.867a19.073,19.073,0,0,0,12.766-7.258,13.538,13.538,0,0,0,2.6-10.127Z" transform="translate(-1838.729 -1151.86)"/>
        </g>
      </g>
      <g id="그룹_199" data-name="그룹 199" transform="translate(6.735 11.223)">
        <path id="패스_6241" data-name="패스 6241" class="cls-12" d="M1862.96,1158.552c-5.75,7.266-6.9,18.152-2.859,27.091l.613-.279c-3.939-8.713-2.822-19.319,2.777-26.393Z" transform="translate(-1857.705 -1158.552)"/>
      </g>
      <g id="그룹_200" data-name="그룹 200" transform="translate(1.622 8.249)">
        <path id="패스_6242" data-name="패스 6242" class="cls-13" d="M1851.484,1150.124c-5.738,4.161-8.883,12.167-8.167,20.091l.672-.06c-.694-7.7,2.343-15.461,7.9-19.488Z" transform="translate(-1843.216 -1150.124)"/>
      </g>
    </g>
    <path id="패스_6243" data-name="패스 6243" class="cls-14" d="M1850.868,1117.1a24.43,24.43,0,1,0,24.431,24.433A24.432,24.432,0,0,0,1850.868,1117.1Zm0,43.731a19.3,19.3,0,1,1,19.3-19.3A19.3,19.3,0,0,1,1850.868,1160.832Z" transform="translate(-1826.438 -1116.916)"/>
    <g id="그룹_202" data-name="그룹 202" transform="translate(14.166)">
      <path id="패스_6244" data-name="패스 6244" class="cls-15" d="M1888.635,1125.945v-9.37h-22.047v49.04h22.047v-9.154h-7.256v-30.516Z" transform="translate(-1866.588 -1116.575)"/>
      <path id="패스_6245" data-name="패스 6245" class="cls-16" d="M1890.084,1161.387v5.675h-18.572V1121.5h18.572v5.9h-7.255v33.993Z" transform="translate(-1869.775 -1119.762)"/>
    </g>
  </g>
</svg>
