<svg id="ls-10" xmlns="http://www.w3.org/2000/svg" xmlns:xlink="http://www.w3.org/1999/xlink" width="70" height="70" viewBox="0 0 70 70">
  <defs>
    <style>
      .cls-1 {
        fill: none;
      }

      .cls-2 {
        fill: #76777a;
      }

      .cls-3 {
        fill: url(#linear-gradient);
      }

      .cls-4 {
        fill: url(#linear-gradient-2);
      }

      .cls-5 {
        fill: url(#linear-gradient-3);
      }

      .cls-6 {
        fill: url(#linear-gradient-4);
      }

      .cls-7 {
        fill: url(#linear-gradient-5);
      }

      .cls-8 {
        fill: #003a6d;
      }
    </style>
    <linearGradient id="linear-gradient" x1="0.681" y1="0.656" x2="0.192" y2="0.374" gradientUnits="objectBoundingBox">
      <stop offset="0" stop-color="#fff"/>
      <stop offset="0.2" stop-color="#e6e997"/>
      <stop offset="0.76" stop-color="#afc940"/>
      <stop offset="1" stop-color="#96bf43"/>
    </linearGradient>
    <linearGradient id="linear-gradient-2" x1="1.054" y1="0.746" x2="-0.02" y2="0.178" gradientUnits="objectBoundingBox">
      <stop offset="0" stop-color="#e4e899"/>
      <stop offset="0.071" stop-color="#d6df82"/>
      <stop offset="0.144" stop-color="#ccd971"/>
      <stop offset="0.2" stop-color="#c9d76c"/>
      <stop offset="0.4" stop-color="#a7c441"/>
      <stop offset="0.687" stop-color="#8eb843"/>
      <stop offset="1" stop-color="#77ad45"/>
    </linearGradient>
    <linearGradient id="linear-gradient-3" x1="1.328" y1="0.615" x2="-1.816" y2="0.104" xlink:href="#linear-gradient-2"/>
    <linearGradient id="linear-gradient-4" x1="0.772" y1="1.495" x2="0.029" y2="0.073" xlink:href="#linear-gradient-2"/>
    <linearGradient id="linear-gradient-5" x1="0.681" y1="0.919" x2="-0.069" y2="-0.567" xlink:href="#linear-gradient-2"/>
  </defs>
  <path id="패스_5947" data-name="패스 5947" class="cls-1" d="M1319.534,433.544a35,35,0,1,1-35.046-34.955A35,35,0,0,1,1319.534,433.544Z" transform="translate(-1249.534 -398.589)"/>
  <path id="패스_5948" data-name="패스 5948" class="cls-1" d="M1326.055,447.889a27.185,27.185,0,1,1-27.22-27.149A27.185,27.185,0,0,1,1326.055,447.889Z" transform="translate(-1263.869 -412.924)"/>
  <path id="패스_5949" data-name="패스 5949" class="cls-1" d="M1330.747,456.35a22.017,22.017,0,1,1-22.045-21.988A22.016,22.016,0,0,1,1330.747,456.35Z" transform="translate(-1273.596 -421.74)"/>
  <g id="그룹_173" data-name="그룹 173" transform="translate(10.162 51.698)">
    <g id="그룹_172" data-name="그룹 172" transform="translate(42.143)">
      <path id="패스_5950" data-name="패스 5950" class="cls-2" d="M1409.7,555.462l-.639.672c.077.072,1.363,1.3,1.363,1.3l-.727.762-1.363-1.3c-.068.069-.617.647-.683.718l1.362,1.3-.965,1.013c.068.066.567.54.636.605.077-.08,4.641-4.873,4.719-4.953-.07-.066-.569-.54-.636-.606l-1.657,1.739-1.363-1.3Z" transform="translate(-1404.732 -552.06)"/>
      <path id="패스_5951" data-name="패스 5951" class="cls-2" d="M1406.278,549.394l-2.807-2.676-.046.048s-3.964,4.161-4.041,4.243l.634.6,3.4-3.574s2.094,2,2.174,2.071Z" transform="translate(-1399.384 -546.718)"/>
    </g>
    <path id="패스_5952" data-name="패스 5952" class="cls-2" d="M1280.448,559.426a1.929,1.929,0,1,0,2.569.223A1.829,1.829,0,0,0,1280.448,559.426Zm.636.664a1.018,1.018,0,1,1,.02,1.368A.972.972,0,0,1,1281.084,560.089Z" transform="translate(-1279.942 -554.664)"/>
    <path id="패스_5953" data-name="패스 5953" class="cls-2" d="M1293.758,556.781s-.544-.58-.611-.65l-.792.742-.771-.826c-.069.063-.549.513-.615.577l.771.824-1.042.975c.063.068.588.629.653.7.078-.071,2.374-2.221,2.451-2.293Z" transform="translate(-1286.903 -552.755)"/>
    <path id="패스_5954" data-name="패스 5954" class="cls-2" d="M1284.486,549.208l-3.611.151c.007.095.058.863.065.956.1-.007,2.587-.148,2.587-.148s-.3,2.33-.318,2.434c.092.012.855.116.948.128.011-.107.388-3.4.4-3.524C1284.523,549.2,1284.486,549.208,1284.486,549.208Z" transform="translate(-1280.546 -548.327)"/>
    <path id="패스_5955" data-name="패스 5955" class="cls-2" d="M1360.469,579.385l.947-.163-1.074-6.243-.063.012-.882.151c.016.106.331,1.919.331,1.919l-.559.1s-.312-1.813-.328-1.919l-.957.165.683,3.964-3,.516-.525-3.05,2.218-.382-.135-.79-.014,0-3.148.542c.195,1.124.793,4.59.808,4.679l3.942-.677.249,1.44.956-.163-.6-3.489.557-.1Z" transform="translate(-1327.844 -563.713)"/>
    <path id="패스_5956" data-name="패스 5956" class="cls-2" d="M1304.638,568.2l-.292-.155,1.175-2.209-.057-.029-5.045-2.686-.4.759,4.245,2.259s-.471.885-.77,1.449l-4.63-2.464-.4.757,1.819.967s-.484.908-.53,1l.867.463c.047-.089.532-1,.532-1l.772.411s-.483.908-.531,1l.869.464c.046-.089.531-1,.531-1l1.506.8.4-.759Zm-5.218-1.135-.855-.455-1.06,1.99,5.206,2.772.406-.759c-.1-.05-4.353-2.316-4.353-2.316S1299.372,567.155,1299.42,567.062Z" transform="translate(-1291.308 -557.332)"/>
    <path id="패스_5957" data-name="패스 5957" class="cls-2" d="M1326.912,577.71l-.062-.009-.9-.14-.35,2.228,5.872.922.132-.849-4.911-.77S1326.9,577.814,1326.912,577.71Zm5.324-2.158s.157-.995.172-1.095l-.061-.008s-.8-.127-.895-.141l-.406,2.587-.969-.152.387-2.473-.061-.01-4.012-.63-.135.851,3.116.488s-.174,1.115-.255,1.622l-.964-.151s.129-.809.144-.905l-.061-.008-.911-.143-.14.9-1.481-.232-.133.85,5.345.839-.156.992.955.15c.017-.1.391-2.492.391-2.492l.982.155.131-.844Z" transform="translate(-1309.47 -564.135)"/>
    <path id="패스_5958" data-name="패스 5958" class="cls-2" d="M1392.122,562.3l-.782.433c.054.091,1.758,3.166,1.81,3.258l.835-.463c-.049-.091-.872-1.574-.872-1.574l.848-.471c-.043-.08-.362-.656-.408-.735l-.849.471-.528-.952Z" transform="translate(-1352.035 -556.78)"/>
    <path id="패스_5959" data-name="패스 5959" class="cls-2" d="M1389.7,572.644l-5.214,2.893c.045.082.368.664.413.743l4.433-2.458s.582,1.048.63,1.138l.838-.466c-.05-.091-.994-1.79-1.044-1.88Z" transform="translate(-1347.599 -563.477)"/>
    <path id="패스_5960" data-name="패스 5960" class="cls-2" d="M1381.733,565.231l-1.554.862h0l-.283-.512-.85.47.285.514-1.58.876.4.711.569-.316a1.755,1.755,0,0,0,.214.991,1.948,1.948,0,0,0,3.4-1.887,1.771,1.771,0,0,0-.728-.7l.529-.3Zm-.647,3.432a.884.884,0,1,1,.384-1.221A.908.908,0,0,1,1381.086,568.663Z" transform="translate(-1343.238 -558.699)"/>
  </g>
  <g id="그룹_174" data-name="그룹 174" transform="translate(1.869 1.674)">
    <path id="패스_5961" data-name="패스 5961" class="cls-2" d="M1432.4,498.325l-.732-.459a1.354,1.354,0,0,0,.794-1.123.88.88,0,0,0-.836-1.031c-.679.006-.928.606-1.213,1.3-.312.746-.789,1.53-1.738,1.586-1.149.07-1.927-.946-1.869-2.343a2.662,2.662,0,0,1,1-2.012l.864.4a2.045,2.045,0,0,0-1.291,1.864,1.057,1.057,0,0,0,1.077,1.147c.68-.005.921-.585,1.2-1.261.313-.756.667-1.612,1.749-1.621,1.058-.008,1.7.83,1.636,2.133A2.21,2.21,0,0,1,1432.4,498.325Z" transform="translate(-1366.695 -462.167)"/>
    <path id="패스_5962" data-name="패스 5962" class="cls-2" d="M1262.409,528.978l.857.093a1.355,1.355,0,0,0-.222,1.358.879.879,0,0,0,1.2.561c.609-.3.569-.951.523-1.7a2.141,2.141,0,0,1,.868-2.187c1-.565,2.148.007,2.706,1.29a2.663,2.663,0,0,1-.014,2.244l-.954.021a2.042,2.042,0,0,0,.345-2.241,1.055,1.055,0,0,0-1.47-.559c-.61.3-.572.929-.527,1.658.05.817.105,1.743-.864,2.223-.947.47-1.891,0-2.4-1.2A2.2,2.2,0,0,1,1262.409,528.978Z" transform="translate(-1259.656 -483.292)"/>
    <path id="패스_5963" data-name="패스 5963" class="cls-2" d="M1257.858,471.894l-.062.059a4.138,4.138,0,0,0-1.007,2.066,2.973,2.973,0,0,0,2.344,3.851,2.864,2.864,0,0,0,3.636-2.49,6.962,6.962,0,0,0,.087-2.331l-.01-.074-2.274-.473-.193.927,1.919.395a2.855,2.855,0,0,1,0,1.22c-.313,1.507-1.378,2.151-3,1.813-1.517-.315-2.29-1.313-2-2.7a2.629,2.629,0,0,1,1.169-1.7l.041-.025Z" transform="translate(-1256.035 -447.703)"/>
    <path id="패스_5964" data-name="패스 5964" class="cls-2" d="M1270.833,438.286l-.532.758,1.348,2.811-3.108-.307-.677.964,4.047.232,2.025,1.419.543-.773-2.086-1.46Z" transform="translate(-1263.266 -425.953)"/>
    <path id="패스_5965" data-name="패스 5965" class="cls-2" d="M1424.742,534l.371-.847-1.871-2.494,3.109-.305.476-1.078-4.014.563-2.263-1-.382.866,2.332,1.024Z" transform="translate(-1362.398 -484.555)"/>
    <path id="패스_5966" data-name="패스 5966" class="cls-2" d="M1265.068,455l-1.256-3.662-.425.862,1.183,3.444-2.315-1.14-.417.849,5.313,2.611.417-.851-2.575-1.262,3.636-.893.529-1.078Z" transform="translate(-1259.367 -434.402)"/>
    <path id="패스_5967" data-name="패스 5967" class="cls-2" d="M1316.629,410.24l1.75-3.454-.917.3-1.642,3.248c-.057-.17-.794-2.455-.794-2.455l-.9.293,1.833,5.63.9-.293-.889-2.728,3.174,1.984,1.142-.372Z" transform="translate(-1293.4 -405.567)"/>
    <path id="패스_5968" data-name="패스 5968" class="cls-2" d="M1330.681,409.874l.709-.071,1.114-4.678,1.911,4.376.812-.08,1.375-6.089-.814.081-1.114,4.815-1.969-4.508-.539.053-1.1,4.807-1.861-4.508-1,.1Z" transform="translate(-1302.569 -403.332)"/>
    <path id="패스_5969" data-name="패스 5969" class="cls-2" d="M1354.564,404.483l-.417-.05-3.242,5.649.808.1,1.193-2.121,1.814.219.628,2.341,1.1.133Zm-.468,1.3c.1.346.407,1.685.477,1.92l-1.443-.174Z" transform="translate(-1317.32 -404.045)"/>
    <rect id="사각형_1250" data-name="사각형 1250" class="cls-2" width="5.917" height="0.942" transform="matrix(0.828, -0.561, 0.561, 0.828, 55.297, 17.834)"/>
    <rect id="사각형_1251" data-name="사각형 1251" class="cls-2" width="0.941" height="5.918" transform="matrix(0.158, -0.987, 0.987, 0.158, 59.862, 38.406)"/>
    <path id="패스_5970" data-name="패스 5970" class="cls-2" d="M1394.069,421.707c-.825,1.205-1.7,1.4-2.623.767-1.047-.717-1.082-1.438-.209-2.715l1.867-2.726-.776-.529-1.912,2.8a2.632,2.632,0,0,0-.609,2,2.783,2.783,0,0,0,1.249,1.617,2.24,2.24,0,0,0,3.452-.663l1.989-2.9-.557-.381Z" transform="translate(-1342.604 -411.857)"/>
    <path id="패스_5971" data-name="패스 5971" class="cls-2" d="M1283.6,428.946c1.024,1.043,1.048,1.934.246,2.722-.905.888-1.619.784-2.7-.32l-2.315-2.357-.669.658,2.373,2.414a2.638,2.638,0,0,0,1.849.987,2.786,2.786,0,0,0,1.828-.913,2.242,2.242,0,0,0,.017-3.516l-2.469-2.512-.48.472Z" transform="translate(-1269.928 -418.073)"/>
    <path id="패스_5972" data-name="패스 5972" class="cls-2" d="M1259.3,511.816c1.423-.339,2.2.1,2.459,1.194.3,1.234-.163,1.791-1.667,2.15l-3.214.767.219.914,3.292-.788a2.624,2.624,0,0,0,1.8-1.077,2.783,2.783,0,0,0,.191-2.041,2.263,2.263,0,0,0-3.031-1.821l-3.425.817.156.657Z" transform="translate(-1255.535 -473.017)"/>
    <path id="패스_5973" data-name="패스 5973" class="cls-2" d="M1418.444,453.132l.245.476,6.4-.5-.393-.762-5.04.5,3.33-3.812-.484-.938Z" transform="translate(-1361.283 -432.299)"/>
    <path id="패스_5974" data-name="패스 5974" class="cls-2" d="M1423.194,468.116l2.063-.655.622,1.956.572-.182-.62-1.956,1.864-.591.675,2.133.485-.153-.958-3.027-5.642,1.789.974,3.077.656-.208Z" transform="translate(-1363.75 -443.656)"/>
    <path id="패스_5975" data-name="패스 5975" class="cls-2" d="M1430.5,517.684l-.475-.134-.5,1.769-5.223-1.463-.254.9,5.22,1.464-.471,1.695.478.131Z" transform="translate(-1364.91 -477.25)"/>
    <path id="패스_5976" data-name="패스 5976" class="cls-2" d="M1425.756,480.627l.118.933,2.853-.379-2.519,2.9.132,1,2.518-2.882a1.779,1.779,0,0,0,1.8,1.612c.971-.13,1.384-.8,1.213-2.1l-.246-1.853Zm3.527.48,1.959-.259.119.889a.9.9,0,0,1-.825,1.157c-.555.052-1.011-.18-1.147-1.012Z" transform="translate(-1366.015 -452.852)"/>
    <path id="패스_5977" data-name="패스 5977" class="cls-2" d="M1297.145,414.759l-.571.363,2.258,3.554c-2.081-.537-5.706-1.363-5.706-1.363l-.406.256,3.172,4.994.572-.362s-1.319-2.079-2.376-3.742l5.892,1.509.343-.216Z" transform="translate(-1279.479 -410.727)"/>
    <path id="패스_5978" data-name="패스 5978" class="cls-2" d="M1254.832,492.683l.014.677,4.211-.09c-1.537,1.5-4.123,4.175-4.123,4.175l.009.479,5.918-.125-.015-.677-4.433.094,4.343-4.257-.008-.406Z" transform="translate(-1254.832 -461.074)"/>
    <path id="패스_5979" data-name="패스 5979" class="cls-2" d="M1373.958,408.223l-.642-.216L1371.973,412c-.891-1.955-2.531-5.293-2.531-5.293l-.454-.154-1.885,5.609.641.216,1.413-4.2,2.533,5.529.385.129Z" transform="translate(-1327.863 -405.416)"/>
    <path id="패스_5980" data-name="패스 5980" class="cls-2" d="M1409.215,432.521l-.462-.495-3.084,2.868c.149-2.144.3-5.86.3-5.86l-.326-.352-4.333,4.03.46.5s1.8-1.676,3.247-3.02l-.411,6.068.276.3Z" transform="translate(-1350.195 -419.738)"/>
  </g>
  <g id="그룹_177" data-name="그룹 177" transform="translate(12.875 12.337)">
    <g id="그룹_175" data-name="그룹 175">
      <path id="패스_5981" data-name="패스 5981" class="cls-3" d="M1317.062,453.2a8.729,8.729,0,0,1,12.018-8.124,19.683,19.683,0,0,0-28.417,27.121,31.914,31.914,0,0,1,6.785-6.722c2.2-1.55,5.252-3.1,7.706-3.337a17.14,17.14,0,0,1,7.882,1,59.244,59.244,0,0,1-4.218-4.687A8.721,8.721,0,0,1,1317.062,453.2Z" transform="translate(-1292.763 -437.933)"/>
      <path id="패스_5982" data-name="패스 5982" class="cls-4" d="M1328.1,463.184l-9.251-17.764a19.623,19.623,0,0,0-4.772,3.249l13.962,14.492Z" transform="translate(-1304.414 -441.518)"/>
      <path id="패스_5983" data-name="패스 5983" class="cls-5" d="M1347.359,459.627l1.194-19.635a19.771,19.771,0,0,0-4.793.112l3.58,19.517Z" transform="translate(-1323.623 -437.943)"/>
      <path id="패스_5984" data-name="패스 5984" class="cls-6" d="M1316.543,482.792l-19.021-7.038a19.712,19.712,0,0,0-1.209,5.224l20.279,1.865Z" transform="translate(-1292.916 -461.149)"/>
      <path id="패스_5985" data-name="패스 5985" class="cls-7" d="M1296.671,498.732a19.712,19.712,0,0,0,1.036,4.038l19.062-6.781Z" transform="translate(-1293.148 -474.243)"/>
      <path id="패스_5986" data-name="패스 5986" class="cls-8" d="M1294.225,473.435a19.017,19.017,0,0,1-2.432-2.553c-4.026-4.5-8.631-16.325-1.006-27.063a22.282,22.282,0,0,1,34.386-2.525.882.882,0,0,1,.041,1.273c-.457.385-.869.186-1.791-.08a9.441,9.441,0,0,0-4-.34,6.417,6.417,0,0,0-5.367,7.243c.342,3.64,3.154,6.266,5.126,8,6.933,6.088,4.625,12.627,4.061,14.064-1.908,4.877-6.81,8.322-13.171,8.33a19.526,19.526,0,0,1-10.3-3.1c-.148-.066-.3-.264-.114-.591a21.152,21.152,0,0,1,2.042-3.53,12.651,12.651,0,0,0,8.706,4.4c4.887.172,8.033-2.476,9.182-5.835,1.292-3.772-.092-7.613-3.749-11.077-3.151-2.985-5.964-5.748-6.134-10.49-.216-6.073,5.068-9.688,9.982-9.453a18.034,18.034,0,0,0-15.707-2,18.482,18.482,0,0,0-8.216,5.511.358.358,0,0,0,0,.491c.139.2,3.173,4.419,3.173,4.419l-5.465-1.25a.326.326,0,0,0-.341.132,18.732,18.732,0,0,0,1.444,19.536,19.764,19.764,0,0,1,14.52-8.385c.643-.044.562.187.14.34-8.629,3.184-12.027,9.519-14.221,14.4A.473.473,0,0,1,1294.225,473.435Z" transform="translate(-1286.687 -434.36)"/>
    </g>
    <g id="그룹_176" data-name="그룹 176" transform="translate(16.229 32.049)">
      <path id="패스_5987" data-name="패스 5987" class="cls-2" d="M1332.883,526.272s.538-.241.691-.326l.006,3.744h.677l-.007-4.4-.109-.073-.035.017c-.492.245-1,.476-1.424.651Z" transform="translate(-1332.682 -525.206)"/>
      <path id="패스_5988" data-name="패스 5988" class="cls-2" d="M1341.316,527.489c.548,0,.816.282.816.863a.9.9,0,0,1-.939.981,1.083,1.083,0,0,1-.8-.4l-.084-.1-.162.583.052.025a2.155,2.155,0,0,0,.977.224,1.5,1.5,0,0,0,1.665-1.4,1,1,0,0,0-.923-1.017,1.116,1.116,0,0,0,.722-1.036c0-.617-.488-1-1.269-1a1.3,1.3,0,0,0-1,.432l.29.5.049-.142a.693.693,0,0,1,.636-.457c.28,0,.6.184.6.7,0,.405-.111.889-.641.889l-.351-.027v.416A1.506,1.506,0,0,1,1341.316,527.489Z" transform="translate(-1337.516 -525.21)"/>
      <path id="패스_5989" data-name="패스 5989" class="cls-2" d="M1350.113,528.787l.181.712a1.466,1.466,0,0,0,.676.16c1.129-.005,1.917-1.063,1.915-2.581,0-1.691-1.034-1.873-1.476-1.872a1.374,1.374,0,0,0-1.458,1.412,1.207,1.207,0,0,0,1.287,1.315,1.151,1.151,0,0,0,.949-.456c-.045.946-.417,1.809-1.19,1.815A1.017,1.017,0,0,1,1350.113,528.787Zm1.23-1.224c-.473,0-.7-.309-.7-.945s.306-1.075.764-1.075.766.365.767.91S1351.888,527.562,1351.343,527.562Z" transform="translate(-1343.858 -525.201)"/>
      <path id="패스_5990" data-name="패스 5990" class="cls-2" d="M1362.045,527.113a1.017,1.017,0,0,0,.632-.933c0-.456-.332-.988-1.267-.987a1.138,1.138,0,0,0-1.243,1.065.953.953,0,0,0,.637.891,1.242,1.242,0,0,0-.856,1.2,1.313,1.313,0,0,0,1.467,1.292,1.406,1.406,0,0,0,1.467-1.439A1.082,1.082,0,0,0,1362.045,527.113Zm-1.229-.848c0-.172.043-.735.6-.736s.611.513.612.734c0,.172-.043.735-.61.735S1360.816,526.437,1360.816,526.265Zm.6,3.04c-.466,0-.781-.395-.781-.984s.313-.985.779-.985.778.394.779.983S1361.889,529.3,1361.415,529.305Z" transform="translate(-1350.328 -525.193)"/>
    </g>
  </g>
</svg>
