<svg xmlns="http://www.w3.org/2000/svg" width="70.75" height="70.75" viewBox="0 0 70.75 70.75">
  <defs>
    <style>
      .cls-1 {
        fill: none;
        stroke: #008d48;
        stroke-width: 0.75px;
      }

      .cls-2 {
        fill: #008d48;
      }

      .cls-3 {
        fill: #fff;
      }
    </style>
  </defs>
  <g id="ls-13" transform="translate(0.375 0.375)">
    <path id="패스_6043" data-name="패스 6043" class="cls-1" d="M1864.752,426.363a35,35,0,1,1-68.654.752m.22-1.076a35.009,35.009,0,0,1,68.284-.365m-.775-2.807a35,35,0,1,1-66.935.925m-1.391,9.8a35,35,0,1,1,35,35A35,35,0,0,1,1795.5,433.589Zm9.486,0A25.514,25.514,0,1,1,1830.5,459.1,25.514,25.514,0,0,1,1804.987,433.589Zm25.515,0" transform="translate(-1795.501 -398.589)"/>
    <path id="패스_6044" data-name="패스 6044" class="cls-2" d="M1808.758,479.117a.614.614,0,1,0-.615-.616A.616.616,0,0,0,1808.758,479.117Z" transform="translate(-1803.682 -450.137)"/>
    <path id="패스_6045" data-name="패스 6045" class="cls-2" d="M1978.178,479.117a.614.614,0,1,1,.612-.616A.617.617,0,0,1,1978.178,479.117Z" transform="translate(-1913.892 -450.137)"/>
    <g id="그룹_178" data-name="그룹 178" transform="translate(6.932 2.059)">
      <path id="패스_6046" data-name="패스 6046" class="cls-2" d="M1818.91,441.114a2.111,2.111,0,0,1-.851.219,1.728,1.728,0,0,1,.074.831,2.524,2.524,0,0,1-.462,1.093l-.617-.451a1.5,1.5,0,0,0,.319-.961,1.215,1.215,0,0,0-.575-.886l-.241-.174-.793,1.091-.616-.447,2.106-2.885.612.446-.787,1.081.24.175a1.115,1.115,0,0,0,1.049.227,1.953,1.953,0,0,0,.844-.639l.617.449h0A2.419,2.419,0,0,1,1818.91,441.114Zm.58-2.309-.64.881-.614-.447.64-.879-.989-.72.531-.73,3.116,2.27-.531.728Zm.319,5.213a.76.76,0,0,1-.513-.14l-1.176-.856.529-.729,1.183.859,2.481-3.405.582.423-2.535,3.484A.756.756,0,0,1,1819.809,444.019Z" transform="translate(-1815.147 -425.448)"/>
      <path id="패스_6047" data-name="패스 6047" class="cls-2" d="M1846.321,416.875a.774.774,0,0,1-.4-.352l-.945-1.8.8-.418.927,1.767,2.527-1.327.357.678-2.611,1.368A.756.756,0,0,1,1846.321,416.875Zm4.482-2.064-.8.42-1.293-2.467.8-.418.567,1.085.612-.322.353.673-.612.321Zm-2.974,4.447a.7.7,0,0,1-.379-.343l-.809-1.547,4.316-2.263,1.123,2.141-3.7,1.942A.675.675,0,0,1,1847.829,419.258Zm-.046-1.648.432.821,2.737-1.436-.431-.82Z" transform="translate(-1834.573 -409.551)"/>
      <path id="패스_6048" data-name="패스 6048" class="cls-2" d="M1886.089,408.188a.673.673,0,0,1-.214-.488l-.071-3.151,2.793-.062.015.758-1.889.042.052,2.332,1.9-.044.016.759-2.052.047A.725.725,0,0,1,1886.089,408.188Zm4.43-1.761-.444.01.08,3.55-.9.02-.123-5.532.9-.02.026,1.224.444-.01-.029-1.225.9-.019.122,5.532-.9.02Z" transform="translate(-1861.155 -404.425)"/>
      <path id="패스_6049" data-name="패스 6049" class="cls-2" d="M1926.656,412.755a1.516,1.516,0,0,1-1.012,1.2,1.622,1.622,0,0,1-2.023-.956,1.46,1.46,0,0,1,.041-1.187,1.421,1.421,0,0,1,.235-.355,1.655,1.655,0,0,1,.313-.274L1923.8,411l.335-.71,1.25.587.231-.5.783.366-.231.5,1.244.583-.334.716-.413-.193A1.545,1.545,0,0,1,1926.656,412.755Zm1.108,2.541-.817-.383,1.406-3,.816.383-.518,1.109.625.292-.322.687-.626-.292Zm-1.27.626-3.868-1.81.323-.687,4.666,2.186-.792,1.695-.8-.375Zm-.688-3.683a.78.78,0,0,0-.97-.455.727.727,0,0,0-.446.952.776.776,0,0,0,.969.454.7.7,0,0,0,.423-.382h0A.7.7,0,0,0,1925.806,412.24Z" transform="translate(-1885.14 -408.218)"/>
      <path id="패스_6050" data-name="패스 6050" class="cls-2" d="M1954.073,437.053l.417.525,2.067-1.649.548.689-2.063,1.648.514.641,2.062-1.648.551.688-2.064,1.651.556.7,2.762-2.209L1956.964,435l.592-.474,3.012,3.771-3.357,2.682.26.325-.592.473-3.4-4.254Z" transform="translate(-1905.237 -423.909)"/>
    </g>
    <path id="패스_6051" data-name="패스 6051" d="M1926.209,536.618" transform="translate(-1880.461 -488.308)"/>
    <path id="패스_6052" data-name="패스 6052" d="M1894.273,503.319" transform="translate(-1859.703 -466.664)"/>
    <path id="패스_6053" data-name="패스 6053" d="M1894.273,503.319" transform="translate(-1859.703 -466.664)"/>
    <path id="패스_6054" data-name="패스 6054" d="M1852.742,538.047" transform="translate(-1832.708 -489.237)"/>
    <path id="패스_6055" data-name="패스 6055" class="cls-3" d="M1893.558,505.638" transform="translate(-1859.238 -468.171)"/>
    <g id="그룹_179" data-name="그룹 179" transform="translate(17.994 20.083)">
      <path id="패스_6056" data-name="패스 6056" class="cls-2" d="M1910.749,464.667l.007-2.373,3.585.01-.008-5.775h-16.411l.006,5.745h7.253v0l0,.851a4.083,4.083,0,0,1,1.5-.305,5.763,5.763,0,0,1,.18.645s1.7-1,2.475,1.4A4.49,4.49,0,0,1,1910.749,464.667Z" transform="translate(-1880.065 -456.475)"/>
      <path id="패스_6057" data-name="패스 6057" class="cls-2" d="M1910.562,493.862l-.014,5.161-.01,3.046c.147,3.1,3.344,4.344,3.344,4.344l-.018,6.037c-3.354-.319-6.132-3.527-6.132-3.527a14.883,14.883,0,0,1-10.074,4.631l.009-5.57s6.841.207,7.3-7.378l.008-2.632a4.605,4.605,0,0,0,1.631-2.087,2.284,2.284,0,0,0-.409-.362s.7-.385.392-1.7C1906.589,493.825,1909.142,494.451,1910.562,493.862Z" transform="translate(-1879.893 -480.613)"/>
      <path id="패스_6058" data-name="패스 6058" class="cls-2" d="M1869.755,527.479a10.834,10.834,0,0,0,6.517,2.348l-.013,5.548a16.314,16.314,0,0,1-9.43-3.141,6.745,6.745,0,0,0,2.943-3,.786.786,0,0,0-.437-.363S1870.115,528.176,1869.755,527.479Z" transform="translate(-1859.942 -502.393)"/>
      <path id="패스_6059" data-name="패스 6059" class="cls-2" d="M1853.668,507.379a10.863,10.863,0,0,1-.344-2.115l-5.556-.02a16.374,16.374,0,0,0,1.785,6.812,2.719,2.719,0,0,1,1.543.523S1850.667,510.158,1853.668,507.379Z" transform="translate(-1847.607 -488.003)"/>
      <path id="패스_6060" data-name="패스 6060" class="cls-2" d="M1863.708,460.994l0,1.15a10.876,10.876,0,0,0-10.691,10.043l-5.537-.02a15.328,15.328,0,0,1,4.149-10.026l.03-.022-4.337-.012-.007-5.728,16.413.024Z" transform="translate(-1847.311 -456.379)"/>
      <path id="패스_6061" data-name="패스 6061" class="cls-2" d="M1850.442,527.313a1.168,1.168,0,1,1,1.164,1.171A1.168,1.168,0,0,1,1850.442,527.313Zm1.167,0,0,.53a.529.529,0,1,0-.527-.531A.531.531,0,0,0,1851.608,527.846Zm0-.53" transform="translate(-1849.337 -501.532)"/>
      <path id="패스_6062" data-name="패스 6062" class="cls-2" d="M1867.048,526.117a1.167,1.167,0,1,1,1.164,1.172A1.168,1.168,0,0,1,1867.048,526.117Zm1.168,0,0,.529a.529.529,0,1,0-.527-.53A.531.531,0,0,0,1868.213,526.651Zm0-.529" transform="translate(-1860.084 -500.758)"/>
      <path id="패스_6063" data-name="패스 6063" class="cls-2" d="M1873.964,510.926a1.168,1.168,0,1,1,1.164,1.17A1.169,1.169,0,0,1,1873.964,510.926Zm1.169,0,0,.529a.529.529,0,1,0-.527-.53A.531.531,0,0,0,1875.132,511.458Zm0-.529" transform="translate(-1864.56 -490.927)"/>
      <path id="패스_6064" data-name="패스 6064" class="cls-2" d="M1891.23,509.659a1.167,1.167,0,1,1,1.164,1.171A1.167,1.167,0,0,1,1891.23,509.659Zm1.167,0,0,.529a.529.529,0,1,0-.528-.531A.527.527,0,0,0,1892.4,510.191Zm0-.529" transform="translate(-1875.734 -490.106)"/>
      <path id="패스_6065" data-name="패스 6065" class="cls-2" d="M1898.007,494.467a1.167,1.167,0,1,1,1.163,1.172A1.166,1.166,0,0,1,1898.007,494.467Zm1.167,0,0,.529a.529.529,0,1,0-.526-.531A.529.529,0,0,0,1899.171,495Zm0-.529" transform="translate(-1880.12 -480.275)"/>
      <path id="패스_6066" data-name="패스 6066" class="cls-2" d="M1915.12,493.346a1.168,1.168,0,1,1,1.164,1.174A1.166,1.166,0,0,1,1915.12,493.346Zm1.168,0,0,.531a.529.529,0,1,0-.531-.531A.529.529,0,0,0,1916.288,493.881Zm0-.531" transform="translate(-1891.195 -479.55)"/>
      <path id="패스_6067" data-name="패스 6067" class="cls-2" d="M1921.887,478.448a1.168,1.168,0,1,1,1.165,1.171A1.171,1.171,0,0,1,1921.887,478.448Zm1.17,0,0,.53a.529.529,0,1,0-.527-.531A.529.529,0,0,0,1923.055,478.981Zm0-.53" transform="translate(-1895.574 -469.908)"/>
      <path id="패스_6068" data-name="패스 6068" class="cls-2" d="M1882.293,500.2a6.979,6.979,0,0,1,5.351-7.76S1889.2,498.32,1882.293,500.2Zm4.913-6.469-3.834,5.47a4.81,4.81,0,0,0,2.9-2.178,5.846,5.846,0,0,0,.951-3.309Zm-.43-.345a5.852,5.852,0,0,0-2.78,2.035,4.8,4.8,0,0,0-1.042,3.472l3.812-5.484Z" transform="translate(-1869.92 -479.717)"/>
      <path id="패스_6069" data-name="패스 6069" class="cls-2" d="M1895.285,500.108a6.982,6.982,0,0,1,9.17-2.192S1901.678,503.327,1895.285,500.108Zm7.979-1.525-6.507,1.5a4.806,4.806,0,0,0,3.612.32,5.842,5.842,0,0,0,2.919-1.823Zm-.087-.544a5.848,5.848,0,0,0-3.428-.344,4.8,4.8,0,0,0-3.1,1.883l6.5-1.526Z" transform="translate(-1878.358 -482.667)"/>
      <path id="패스_6070" data-name="패스 6070" class="cls-2" d="M1858.547,516.66a6.981,6.981,0,0,1,5.352-7.76S1865.451,514.781,1858.547,516.66Zm4.914-6.469-3.835,5.467a4.8,4.8,0,0,0,2.9-2.176,5.851,5.851,0,0,0,.952-3.309Zm-.431-.345a5.844,5.844,0,0,0-2.776,2.035,4.8,4.8,0,0,0-1.045,3.474l3.812-5.485Z" transform="translate(-1854.552 -490.369)"/>
      <path id="패스_6071" data-name="패스 6071" class="cls-2" d="M1871.251,516.712a6.98,6.98,0,0,1,9.166-2.191S1877.642,519.932,1871.251,516.712Zm7.978-1.523-6.506,1.5a4.8,4.8,0,0,0,3.611.322,5.857,5.857,0,0,0,2.922-1.824Zm-.089-.545a5.849,5.849,0,0,0-3.427-.345,4.8,4.8,0,0,0-3.1,1.885l6.5-1.529Z" transform="translate(-1862.804 -493.413)"/>
      <path id="패스_6072" data-name="패스 6072" class="cls-2" d="M1906.33,483.594a6.983,6.983,0,0,1,5.352-7.761S1913.232,481.715,1906.33,483.594Zm4.915-6.469-3.836,5.469a4.79,4.79,0,0,0,2.9-2.176,5.849,5.849,0,0,0,.956-3.31Zm-.433-.346a5.859,5.859,0,0,0-2.777,2.036,4.809,4.809,0,0,0-1.046,3.472l3.816-5.482Z" transform="translate(-1885.475 -468.969)"/>
      <path id="패스_6073" data-name="패스 6073" class="cls-2" d="M1918.886,484.235a6.979,6.979,0,0,1,9.166-2.192S1925.275,487.454,1918.886,484.235Zm7.978-1.524-6.507,1.5a4.8,4.8,0,0,0,3.611.319,5.854,5.854,0,0,0,2.922-1.822Zm-.089-.544a5.848,5.848,0,0,0-3.425-.346,4.814,4.814,0,0,0-3.1,1.885l6.5-1.527Z" transform="translate(-1893.632 -472.395)"/>
      <path id="패스_6074" data-name="패스 6074" class="cls-2" d="M1847.465,533.4a6.981,6.981,0,0,1,9.147-2.279S1853.884,536.56,1847.465,533.4Zm7.962-1.6-6.492,1.564a4.8,4.8,0,0,0,3.614.286,5.84,5.84,0,0,0,2.906-1.851Zm-.092-.544a5.859,5.859,0,0,0-3.43-.312,4.806,4.806,0,0,0-3.082,1.912l6.489-1.586Z" transform="translate(-1847.411 -504.178)"/>
    </g>
    <g id="그룹_180" data-name="그룹 180" transform="translate(2.524 33.551)">
      <path id="패스_6075" data-name="패스 6075" class="cls-2" d="M1806.4,498.758a1.4,1.4,0,0,0,.085-.592,1.626,1.626,0,0,0-.476-1.088,1.485,1.485,0,0,0-2.18.1,1.614,1.614,0,0,0-.376,1.124,1.355,1.355,0,0,0,.134.583,1.111,1.111,0,0,0,.292.355l-1.18.053a.261.261,0,0,0,.048-.052.13.13,0,0,0,.023-.056.207.207,0,0,0,.017-.053.276.276,0,0,0,0-.059,1.335,1.335,0,0,0-.062-.262,2.077,2.077,0,0,1-.071-.473,2.455,2.455,0,0,1,.573-1.756,2.321,2.321,0,0,1,3.324-.148,2.452,2.452,0,0,1,.724,1.7,1.741,1.741,0,0,1,0,.255c-.007.073-.014.143-.025.205s-.019.113-.026.16a.415.415,0,0,0-.011.122.2.2,0,0,0,.039.122c.024.033.046.063.068.091l-1.179.051A1.075,1.075,0,0,0,1806.4,498.758Z" transform="translate(-1802.655 -495.62)"/>
      <path id="패스_6076" data-name="패스 6076" class="cls-2" d="M1807.846,508.428a.236.236,0,0,0,.136-.07.485.485,0,0,0,.081-.131l.2,1.147a.542.542,0,0,0-.118-.1.223.223,0,0,0-.151-.023l-3.875.664a.224.224,0,0,0-.132.074.564.564,0,0,0-.086.128l-.2-1.147a.415.415,0,0,0,.124.1.225.225,0,0,0,.147.021l1.6-.272-.244-1.416-1.592.273a.234.234,0,0,0-.134.071.483.483,0,0,0-.086.131l-.2-1.152a.477.477,0,0,0,.122.1.237.237,0,0,0,.151.022l3.872-.665a.221.221,0,0,0,.136-.07.518.518,0,0,0,.083-.131l.2,1.152a.505.505,0,0,0-.12-.1.23.23,0,0,0-.153-.019l-1.555.265.24,1.416Z" transform="translate(-1803.082 -502.204)"/>
      <path id="패스_6077" data-name="패스 6077" class="cls-2" d="M1806.027,519.268a2.226,2.226,0,0,1,3.113-1.036,2.519,2.519,0,0,1,1.082,3.251,2.23,2.23,0,0,1-3.114,1.037,2.427,2.427,0,0,1-1.18-1.416h0A2.424,2.424,0,0,1,1806.027,519.268Zm2.773-.288a1.463,1.463,0,0,0-2.053.684,1.636,1.636,0,0,0,.7,2.107,1.46,1.46,0,0,0,2.05-.682,1.6,1.6,0,0,0,.062-1.2h0A1.6,1.6,0,0,0,1808.8,518.981Z" transform="translate(-1804.686 -509.95)"/>
      <path id="패스_6078" data-name="패스 6078" class="cls-2" d="M1812.83,531.584l-2.373,1.229a.225.225,0,0,0-.105.106.407.407,0,0,0-.041.151l-.54-1.037a.431.431,0,0,0,.148.052.218.218,0,0,0,.147-.024l3.49-1.808a.225.225,0,0,0,.108-.108.43.43,0,0,0,.039-.15l.476.922-1.734,2.826,0,.01,2.3-1.193a.214.214,0,0,0,.107-.109.41.41,0,0,0,.039-.148l.538,1.038a.419.419,0,0,0-.145-.054.228.228,0,0,0-.15.024l-3.489,1.809a.22.22,0,0,0-.106.107.494.494,0,0,0-.041.152l-.449-.868,1.78-2.917Z" transform="translate(-1807.26 -517.749)"/>
      <path id="패스_6079" data-name="패스 6079" class="cls-2" d="M1818.94,541.808l-2.183,1.544a.256.256,0,0,0-.089.12.412.412,0,0,0-.018.156l-.677-.953a.414.414,0,0,0,.151.032.231.231,0,0,0,.144-.045l3.21-2.268a.232.232,0,0,0,.091-.124.485.485,0,0,0,.018-.152l.6.848L1818.856,544l.007.01,2.116-1.5a.231.231,0,0,0,.094-.122.563.563,0,0,0,.017-.153l.674.956a.428.428,0,0,0-.15-.036.219.219,0,0,0-.144.046l-3.21,2.27a.236.236,0,0,0-.09.12.453.453,0,0,0-.02.157l-.564-.8,1.362-3.134Z" transform="translate(-1811.274 -524.299)"/>
      <path id="패스_6080" data-name="패스 6080" class="cls-2" d="M1824.461,554.357c-.076.032-.164.07-.255.114a.747.747,0,0,0-.206.122.253.253,0,0,0-.066.1.654.654,0,0,0-.023.1l-.788-.839a1,1,0,0,0,.216-.017,1.054,1.054,0,0,0,.215-.062l3.34-1.346c.081-.032.171-.07.265-.113a.762.762,0,0,0,.2-.119.223.223,0,0,0,.066-.1.681.681,0,0,0,.021-.1l.637.679-1.857,3.957a1.03,1.03,0,0,0-.076.21,1.164,1.164,0,0,0-.03.213l-.8-.853a.491.491,0,0,0,.108-.018.249.249,0,0,0,.1-.059.886.886,0,0,0,.138-.194c.049-.089.092-.172.127-.25l.11-.24-1.2-1.274Zm2.638-1.159.032-.048-1.7.812.832.889Z" transform="translate(-1815.901 -532.049)"/>
      <path id="패스_6081" data-name="패스 6081" class="cls-2" d="M1835.35,561.518l.01.008,2.373-1.413.74.586a.278.278,0,0,0-.168.047.5.5,0,0,0-.107.1,2.6,2.6,0,0,0-.169.263c-.074.127-.131.225-.169.294l-1.562,2.745a1.107,1.107,0,0,0-.095.224.519.519,0,0,0-.02.16l-.858-.678a.27.27,0,0,0,.14-.028.369.369,0,0,0,.1-.09,1.936,1.936,0,0,0,.118-.178c.047-.081.095-.161.144-.241l1.069-1.8-.011-.006-2.758,1.558-.009-.008.907-3.026-.011-.008-1.47,1.4-.274.251a1.446,1.446,0,0,0-.156.163.265.265,0,0,0-.048.1.277.277,0,0,0,0,.115l-.81-.639a.472.472,0,0,0,.158-.052,1.142,1.142,0,0,0,.2-.143l2.308-2.153c.058-.054.141-.132.245-.233a2.326,2.326,0,0,0,.219-.224.572.572,0,0,0,.074-.128.274.274,0,0,0,.01-.17l.729.574Z" transform="translate(-1821.913 -536.08)"/>
      <path id="패스_6082" data-name="패스 6082" class="cls-2" d="M1852.524,571.2l-1.139,2.421a.228.228,0,0,0-.018.149.421.421,0,0,0,.058.144l-1.058-.5a.454.454,0,0,0,.15-.047.248.248,0,0,0,.1-.11l1.673-3.555a.233.233,0,0,0,.021-.154.46.46,0,0,0-.061-.14l.94.442.335,3.3.014.005,1.1-2.346a.222.222,0,0,0,.019-.152.429.429,0,0,0-.06-.142l1.056.5a.476.476,0,0,0-.146.047.21.21,0,0,0-.1.11l-1.675,3.556a.246.246,0,0,0-.019.15.443.443,0,0,0,.06.143l-.884-.415-.356-3.4Z" transform="translate(-1833.691 -543.255)"/>
      <path id="패스_6083" data-name="패스 6083" class="cls-2" d="M1862.906,578.761c-.051.067-.108.142-.168.224a.771.771,0,0,0-.116.209.225.225,0,0,0-.007.118.5.5,0,0,0,.028.1l-1.1-.342a1.119,1.119,0,0,0,.177-.121,1,1,0,0,0,.159-.159l2.236-2.821c.056-.071.116-.146.176-.229a.776.776,0,0,0,.115-.2.211.211,0,0,0,.005-.122.821.821,0,0,0-.033-.1l.892.278.337,4.356a1.009,1.009,0,0,0,.039.221,1.17,1.17,0,0,0,.078.2l-1.116-.346a.574.574,0,0,0,.084-.069.286.286,0,0,0,.06-.1.828.828,0,0,0,.025-.236c0-.1-.007-.2-.013-.281l-.024-.263-1.669-.517Zm1.723-2.31,0-.058-1.079,1.546,1.161.362Z" transform="translate(-1840.959 -547.08)"/>
      <path id="패스_6084" data-name="패스 6084" class="cls-2" d="M1878.742,578.865a.358.358,0,0,0-.115-.2.988.988,0,0,0-.454-.164l-.337-.062-.637,3.386a.231.231,0,0,0,.02.149.447.447,0,0,0,.088.125l-1.143-.217a.463.463,0,0,0,.133-.081.246.246,0,0,0,.072-.132l.636-3.386-.344-.065a.986.986,0,0,0-.482-.014.349.349,0,0,0-.181.149l.181-.971,2.744.516Z" transform="translate(-1850.354 -548.412)"/>
      <path id="패스_6085" data-name="패스 6085" class="cls-2" d="M1883.6,583.146a.24.24,0,0,0,.061-.138l.435-3.9a.231.231,0,0,0-.029-.151.455.455,0,0,0-.1-.114l1.162.13a.463.463,0,0,0-.127.089.227.227,0,0,0-.062.14l-.435,3.907a.22.22,0,0,0,.029.145.456.456,0,0,0,.1.119l-1.159-.13A.471.471,0,0,0,1883.6,583.146Z" transform="translate(-1855.211 -549.358)"/>
      <path id="패스_6086" data-name="패스 6086" class="cls-2" d="M1889.912,583.219a2.228,2.228,0,0,1-.011-3.283,2.523,2.523,0,0,1,3.425-.009,2.226,2.226,0,0,1,.011,3.281,2.42,2.42,0,0,1-1.716.676h0A2.415,2.415,0,0,1,1889.912,583.219Zm.593-2.725a1.46,1.46,0,0,0,.009,2.163,1.632,1.632,0,0,0,2.219-.006,1.46,1.46,0,0,0-.007-2.164,1.6,1.6,0,0,0-1.115-.433h0A1.6,1.6,0,0,0,1890.5,580.494Z" transform="translate(-1858.939 -549.631)"/>
      <path id="패스_6087" data-name="패스 6087" class="cls-2" d="M1904.89,579.589l.422,2.639a.222.222,0,0,0,.069.135.391.391,0,0,0,.13.084l-1.156.186a.472.472,0,0,0,.1-.124.228.228,0,0,0,.023-.149l-.617-3.88a.217.217,0,0,0-.07-.137.429.429,0,0,0-.129-.083l1.028-.164,2.133,2.539.012,0-.408-2.561a.227.227,0,0,0-.069-.137.537.537,0,0,0-.129-.084l1.152-.183a.462.462,0,0,0-.1.12.221.221,0,0,0-.022.151l.615,3.882a.231.231,0,0,0,.069.133.421.421,0,0,0,.13.088l-.964.152-2.208-2.607Z" transform="translate(-1868.352 -548.601)"/>
      <path id="패스_6088" data-name="패스 6088" class="cls-2" d="M1918.726,579.613c-.006.083-.009.175-.011.279a.717.717,0,0,0,.02.237.215.215,0,0,0,.06.1.571.571,0,0,0,.083.07l-1.1.336a.97.97,0,0,0,.078-.2.957.957,0,0,0,.04-.22l.264-3.591c.007-.09.013-.186.015-.289a.688.688,0,0,0-.02-.231.184.184,0,0,0-.063-.1.57.57,0,0,0-.084-.066l.891-.273,2.732,3.412a.986.986,0,0,0,.157.16,1.15,1.15,0,0,0,.177.123l-1.119.341a.61.61,0,0,0,.031-.1.254.254,0,0,0-.008-.119.759.759,0,0,0-.111-.21c-.06-.084-.116-.159-.171-.225l-.166-.2-1.672.511Zm.125-2.879-.029-.05-.025,1.886,1.166-.355Z" transform="translate(-1877.533 -547.304)"/>
      <path id="패스_6089" data-name="패스 6089" class="cls-2" d="M1926.818,572.843a.241.241,0,0,0,.016.152l1.379,3.157,1.009-.44a.6.6,0,0,0,.23-.159.494.494,0,0,0,.1-.2l.371.855-2.333,1.021a.465.465,0,0,0,.063-.144.229.229,0,0,0-.014-.149l-1.573-3.6a.246.246,0,0,0-.1-.114.544.544,0,0,0-.146-.049l1.065-.464A.482.482,0,0,0,1926.818,572.843Z" transform="translate(-1882.759 -545.389)"/>
      <path id="패스_6090" data-name="패스 6090" class="cls-2" d="M1941.3,566.082a1.493,1.493,0,0,1-.885-.567l-1.6-2.328a.237.237,0,0,0-.122-.1.5.5,0,0,0-.151-.018l.957-.658a.582.582,0,0,0-.031.146.22.22,0,0,0,.047.147l1.465,2.138a1,1,0,0,0,.529.43.661.661,0,0,0,.579-.111.673.673,0,0,0,.316-.5,1.026,1.026,0,0,0-.208-.651l-1.467-2.138a.23.23,0,0,0-.122-.094.455.455,0,0,0-.153-.019l.959-.658a.509.509,0,0,0-.031.146.219.219,0,0,0,.044.147l1.6,2.328a1.493,1.493,0,0,1,.209,1.034,1.469,1.469,0,0,1-.693,1.062h0A1.454,1.454,0,0,1,1941.3,566.082Z" transform="translate(-1891.046 -537.88)"/>
      <path id="패스_6091" data-name="패스 6091" class="cls-2" d="M1948.99,556.53l1.788,1.988a.237.237,0,0,0,.131.077.485.485,0,0,0,.155,0l-.87.782a.412.412,0,0,0,.013-.155.214.214,0,0,0-.061-.138l-2.625-2.921a.24.24,0,0,0-.132-.077.46.46,0,0,0-.155,0l.771-.695,3.172.969.009-.007-1.735-1.927a.214.214,0,0,0-.132-.078.443.443,0,0,0-.153,0l.869-.782a.462.462,0,0,0-.018.154.218.218,0,0,0,.063.139l2.628,2.922a.234.234,0,0,0,.13.076.428.428,0,0,0,.155,0l-.723.653-3.272-.988Z" transform="translate(-1896.788 -533.002)"/>
      <path id="패스_6092" data-name="패스 6092" class="cls-2" d="M1959.1,553.914a.218.218,0,0,0-.073-.131l-2.9-2.654a.219.219,0,0,0-.139-.064.42.42,0,0,0-.152.016l.787-.864a.481.481,0,0,0,0,.154.236.236,0,0,0,.077.133l2.9,2.654a.233.233,0,0,0,.137.062.4.4,0,0,0,.155-.013l-.79.862A.411.411,0,0,0,1959.1,553.914Z" transform="translate(-1902.354 -530.836)"/>
      <path id="패스_6093" data-name="패스 6093" class="cls-2" d="M1960.49,540.769a.812.812,0,0,0,.1.2l1.887,3.067c.044.071.1.15.151.236a.79.79,0,0,0,.156.183.228.228,0,0,0,.11.046.63.63,0,0,0,.11,0l-.556.732-4.193-1.2a.832.832,0,0,0-.224-.04,1.1,1.1,0,0,0-.212.005l.722-.949a.435.435,0,0,0,.03.1.239.239,0,0,0,.078.1.789.789,0,0,0,.213.094c.1.03.191.06.275.087l2.575.8.006-.01-1.453-2.278c-.051-.074-.1-.152-.16-.238a.826.826,0,0,0-.15-.179.237.237,0,0,0-.112-.048.647.647,0,0,0-.1-.006l.7-.926A.947.947,0,0,0,1960.49,540.769Z" transform="translate(-1903.637 -524.587)"/>
      <path id="패스_6094" data-name="패스 6094" class="cls-2" d="M1968.56,538.053a.258.258,0,0,0-.1-.116l-3.38-2a.254.254,0,0,0-.15-.034.569.569,0,0,0-.148.047l1.394-2.347.8.475a.485.485,0,0,0-.4.279l-.655,1.1.941.558.4-.668a.656.656,0,0,0,.089-.212.561.561,0,0,0,0-.194l.866.514a.551.551,0,0,0-.173.09.665.665,0,0,0-.145.179l-.4.667.972.577.656-1.1a.488.488,0,0,0,.053-.479l.8.476-1.392,2.347A.47.47,0,0,0,1968.56,538.053Z" transform="translate(-1908.146 -520.08)"/>
      <path id="패스_6095" data-name="패스 6095" class="cls-2" d="M1973.764,529.265a.4.4,0,0,0-.138-.1,1.411,1.411,0,0,0-.977-.038,1.734,1.734,0,0,0-.949.686l1.393.632a.222.222,0,0,0,.149.017.409.409,0,0,0,.144-.062l-.482,1.066a.478.478,0,0,0-.051-.149.227.227,0,0,0-.111-.1l-3.894-1.767a.505.505,0,0,0,.128-.1.548.548,0,0,0,.088-.133,1.347,1.347,0,0,0,.08-.3,1.548,1.548,0,0,1,.125-.4,1.4,1.4,0,0,1,.778-.759,1.318,1.318,0,0,1,1.086.035,1.418,1.418,0,0,1,.544.4.722.722,0,0,1,.1.626l.013,0a1.391,1.391,0,0,1,.885-.559,2.166,2.166,0,0,1,1.047.045,1.244,1.244,0,0,0,.4.069.466.466,0,0,0,.2-.05l-.481,1.058A.416.416,0,0,0,1973.764,529.265Zm-2.684.18a.485.485,0,0,0,.051-.092.591.591,0,0,0,.022-.492.643.643,0,0,0-.34-.342.631.631,0,0,0-.48-.03.6.6,0,0,0-.356.339.575.575,0,0,0-.036.1.239.239,0,0,0,0,.089l1.075.488A.208.208,0,0,0,1971.08,529.445Z" transform="translate(-1910.777 -516.239)"/>
      <path id="패스_6096" data-name="패스 6096" class="cls-2" d="M1974.062,519.761a.941.941,0,0,0-.411.155.71.71,0,0,0-.25.358.39.39,0,0,0,.009.3.333.333,0,0,0,.2.171c.3.1.629-.067.989-.5a1.277,1.277,0,0,1,1.518-.323,1.319,1.319,0,0,1,.854.747,1.648,1.648,0,0,1,.013,1.188,2.072,2.072,0,0,1-.082.191c-.031.063-.063.119-.093.17s-.056.091-.08.132a.432.432,0,0,0-.051.105.206.206,0,0,0-.009.13.492.492,0,0,0,.035.109l-1.215-.406,0-.011a1.012,1.012,0,0,0,.473-.221.91.91,0,0,0,.277-.42.786.786,0,0,0,0-.564.631.631,0,0,0-.411-.353.918.918,0,0,0-1.1.463,1.1,1.1,0,0,1-1.378.37,1.01,1.01,0,0,1-.645-.567,1.208,1.208,0,0,1-.019-.886.876.876,0,0,1,.063-.138c.025-.042.052-.088.079-.13s.051-.078.074-.113a.42.42,0,0,0,.048-.089.34.34,0,0,0,.012-.133.291.291,0,0,0-.035-.124l1.134.379Z" transform="translate(-1913.214 -510.872)"/>
      <path id="패스_6097" data-name="패스 6097" class="cls-2" d="M1978.222,516.87a.225.225,0,0,0-.126-.081l-3.812-.959a.227.227,0,0,0-.153.009.513.513,0,0,0-.129.086l.289-1.133a.41.41,0,0,0,.071.137.225.225,0,0,0,.129.081l3.812.959a.237.237,0,0,0,.151-.01.455.455,0,0,0,.13-.085l-.288,1.134A.39.39,0,0,0,1978.222,516.87Z" transform="translate(-1914.112 -507.909)"/>
      <path id="패스_6098" data-name="패스 6098" class="cls-2" d="M1976.324,506.039a.354.354,0,0,0-.2.116.958.958,0,0,0-.155.457l-.06.336,3.393.59a.225.225,0,0,0,.15-.021.489.489,0,0,0,.124-.089l-.2,1.146a.455.455,0,0,0-.084-.131.239.239,0,0,0-.134-.071l-3.393-.588-.061.344a.972.972,0,0,0-.005.481.346.346,0,0,0,.15.18l-.973-.168.476-2.751Z" transform="translate(-1914.676 -502.135)"/>
      <path id="패스_6099" data-name="패스 6099" class="cls-2" d="M1980.178,497.9a.237.237,0,0,0-.139-.054l-1.863-.128-2.052,1.026c-.064.032-.129.067-.193.1a.53.53,0,0,0-.159.138l.081-1.2c.021.022.04.042.06.06a.117.117,0,0,0,.072.029.245.245,0,0,0,.105-.017,1.194,1.194,0,0,0,.148-.059l1.21-.56v-.012l-1.122-.719a.948.948,0,0,0-.138-.084.368.368,0,0,0-.1-.032.118.118,0,0,0-.075.02.447.447,0,0,0-.066.059l.082-1.19a.473.473,0,0,0,.139.161c.059.042.116.085.178.126l1.892,1.3,1.862.127a.222.222,0,0,0,.145-.039.676.676,0,0,0,.113-.1l-.08,1.16A.378.378,0,0,0,1980.178,497.9Z" transform="translate(-1915.258 -495.285)"/>
    </g>
  </g>
</svg>
