<svg id="ls-12" xmlns="http://www.w3.org/2000/svg" width="70.919" height="70" viewBox="0 0 70.919 70">
  <defs>
    <style>
      .cls-1 {
        fill: #306d3e;
      }

      .cls-2 {
        fill: #336f41;
      }

      .cls-3 {
        fill: #326e40;
      }

      .cls-4 {
        fill: #326f40;
      }

      .cls-5 {
        fill: #316e3f;
      }
    </style>
  </defs>
  <path id="패스_6006" data-name="패스 6006" class="cls-1" d="M1828.7,59.805h1.767l1.352.085c.826.053,1.649.148,2.468.264a36.465,36.465,0,0,1,3.605.686,23.44,23.44,0,0,1,4.921,1.733,11.583,11.583,0,0,1,2.358,1.518,7.228,7.228,0,0,1,1.914,2.433,5.16,5.16,0,0,1,.44,2.8,8.443,8.443,0,0,1-.325,1.542.9.9,0,0,1-.028.1c-.025.057,0,.09.046.12a.083.083,0,0,0,.112,0c.039-.028.078-.055.118-.082a7.645,7.645,0,0,1,2.2-1.085,5.4,5.4,0,0,1,3.307.14,8.861,8.861,0,0,1,2.863,1.689,18.1,18.1,0,0,1,2.974,3.328,36.173,36.173,0,0,1,3.752,6.815,30.353,30.353,0,0,1,1.855,6.13c.218,1.107.395,2.221.519,3.343a28.383,28.383,0,0,1,.165,4.4,14.759,14.759,0,0,1-.729,4.209,7.766,7.766,0,0,1-1.522,2.652,5.2,5.2,0,0,1-3.065,1.692,7.948,7.948,0,0,1-1.408.13h-.1a.1.1,0,0,0-.1.08.088.088,0,0,0,.037.106l.13.1a7.974,7.974,0,0,1,1.529,1.51,5.176,5.176,0,0,1,1.017,2.645,8.048,8.048,0,0,1-.522,3.582,16.4,16.4,0,0,1-1.964,3.659,30.736,30.736,0,0,1-3.263,3.926,36.435,36.435,0,0,1-4.08,3.653,33.511,33.511,0,0,1-5.133,3.152,31.727,31.727,0,0,1-5.153,2.113,18.322,18.322,0,0,1-2.979.663,10.191,10.191,0,0,1-3.169-.027,6.42,6.42,0,0,1-2.59-1.031,5.542,5.542,0,0,1-1.828-2.3c-.131-.286-.245-.579-.348-.876-.02-.058-.017-.142-.117-.144s-.1.075-.122.136a10.993,10.993,0,0,1-.493,1.171,5.466,5.466,0,0,1-3.66,2.959,8.78,8.78,0,0,1-2.684.269,17.835,17.835,0,0,1-5.212-1.126,33.942,33.942,0,0,1-16.592-12.575,15.759,15.759,0,0,1-1.883-3.517,8.768,8.768,0,0,1-.569-2.841,5.389,5.389,0,0,1,1.774-4.252,9.762,9.762,0,0,1,.751-.638l.1-.075c.047-.037.1-.065.074-.148s-.082-.059-.135-.061c-.335-.013-.669-.035-1-.071a5.482,5.482,0,0,1-4.084-2.376,8.861,8.861,0,0,1-1.318-2.984,15.883,15.883,0,0,1-.422-2.836,24.667,24.667,0,0,1,.013-3.384,33.907,33.907,0,0,1,6.517-18.1,16.8,16.8,0,0,1,2.911-3.136,8.489,8.489,0,0,1,3.048-1.643,5.29,5.29,0,0,1,4.018.413,9.359,9.359,0,0,1,1,.6c.04.027.079.054.118.083a.109.109,0,0,0,.148.011c.051-.039.028-.083.016-.129-.062-.231-.129-.461-.185-.693a6.857,6.857,0,0,1-.2-1.81,5.121,5.121,0,0,1,.769-2.563,7.811,7.811,0,0,1,2.1-2.249,14.872,14.872,0,0,1,3.453-1.826,28.453,28.453,0,0,1,4.587-1.312c1.213-.249,2.437-.434,3.668-.567C1827.049,59.9,1827.875,59.844,1828.7,59.805Zm-26.2,44.1h0a1.847,1.847,0,0,0-.106-.395,28.439,28.439,0,0,1-1-4.77c-.108-.883-.17-1.77-.195-2.659a28.682,28.682,0,0,1,.3-4.99,27.486,27.486,0,0,1,1.387-5.5,28.414,28.414,0,0,1,9.57-12.984c.064-.049.126-.1.2-.162-.121-.1-.228-.2-.337-.289a9.135,9.135,0,0,0-1.692-1.189,4,4,0,0,0-1.867-.486,5.333,5.333,0,0,0-3.192,1.133,5.39,5.39,0,0,0-1.468,1.8,12.018,12.018,0,0,0-.951,2.352,34.145,34.145,0,0,0-.941,4.449c-.208,1.3-.388,2.609-.622,3.908a13.869,13.869,0,0,1-1.085,3.494c-.429.909-.887,1.8-1.349,2.7-.667,1.287-1.337,2.572-1.906,3.906a14.791,14.791,0,0,0-1.184,3.954,5.832,5.832,0,0,0,.041,1.879,5.386,5.386,0,0,0,1.358,2.582,3.883,3.883,0,0,0,2.084,1.193,6.844,6.844,0,0,0,1.856.137c.341-.018.683-.039,1.024-.058l.06,0a.1.1,0,0,0,.044.077c0,.044-.005.093.041.122-.016.1.054.2.042.3a2.146,2.146,0,0,1-.343.223,10.892,10.892,0,0,0-1.337.95,4.27,4.27,0,0,0-1.417,2.092,5.43,5.43,0,0,0,.046,2.936,5.155,5.155,0,0,0,1.207,2.074,11.711,11.711,0,0,0,2.185,1.854,33.934,33.934,0,0,0,3.715,2.134c1.156.592,2.322,1.164,3.474,1.762a15.107,15.107,0,0,1,3.666,2.673c1.063,1.047,2.1,2.123,3.162,3.166a31.261,31.261,0,0,0,2.679,2.389,11.717,11.717,0,0,0,2.544,1.566,5.01,5.01,0,0,0,3.483.306,4.252,4.252,0,0,0,3.093-2.6,12.923,12.923,0,0,0,.645-2.153c-.016-.009-.028-.02-.04-.021-.048,0-.1-.006-.143-.007a29.488,29.488,0,0,1-3.72-.3,28.1,28.1,0,0,1-5.073-1.226,28.544,28.544,0,0,1-17.281-16.507,12.252,12.252,0,0,1-.46-1.292,1.458,1.458,0,0,0-.119-.328c-.007-.043,0-.091-.042-.123A.094.094,0,0,0,1802.5,103.91Zm-.708-8.616a27.879,27.879,0,1,0,28.113-27.864A27.874,27.874,0,0,0,1801.795,95.293ZM1829.6,123.8c.039,0,.078.006.118.007.241.005.241.005.3.249a13.172,13.172,0,0,0,.418,1.457,4.338,4.338,0,0,0,2.981,2.893,5.246,5.246,0,0,0,3.669-.181,10.578,10.578,0,0,0,1.726-.94,23.11,23.11,0,0,0,3.035-2.507c1.187-1.126,2.318-2.308,3.472-3.467a15.911,15.911,0,0,1,4.15-3.045q1.53-.77,3.057-1.544a37.208,37.208,0,0,0,3.643-2.053,13.18,13.18,0,0,0,2.349-1.915,5.282,5.282,0,0,0,1.533-3.757,4.164,4.164,0,0,0-1.028-2.866,9.528,9.528,0,0,0-2.334-1.771A28.642,28.642,0,0,1,1829.6,123.8Zm17.023-51.387c.1.08.179.139.255.2a28.02,28.02,0,0,1,2.878,2.5,28.453,28.453,0,0,1,8.2,23.539,28.916,28.916,0,0,1-.559,3.189q-.216.928-.5,1.839c-.05.161-.046.169.083.18a10.835,10.835,0,0,0,2.294,0,3.973,3.973,0,0,0,2.413-1.159,5.314,5.314,0,0,0,1.543-4.592,12.367,12.367,0,0,0-.542-2.29,27.508,27.508,0,0,0-1.558-3.634c-.663-1.319-1.345-2.628-2.007-3.948a14.5,14.5,0,0,1-1.077-2.656,25.252,25.252,0,0,1-.548-2.711c-.223-1.4-.411-2.8-.665-4.191a26.019,26.019,0,0,0-.777-3.268,10.559,10.559,0,0,0-1.18-2.607,4.924,4.924,0,0,0-2.089-1.853,5.7,5.7,0,0,0-1.74-.52,4.039,4.039,0,0,0-2.247.415,8.753,8.753,0,0,0-1.788,1.228C1846.886,72.187,1846.764,72.294,1846.623,72.416Zm-33.529-.276c.34-.231.654-.451.974-.66a28.445,28.445,0,0,1,31.964.513c.134.095.139.093.2-.051a11.908,11.908,0,0,0,.6-1.72,4.672,4.672,0,0,0,.039-2.252,5.418,5.418,0,0,0-3.133-3.394,9.357,9.357,0,0,0-2.859-.489,23.424,23.424,0,0,0-3.805.254c-1.5.2-3,.477-4.5.712-.689.108-1.381.2-2.076.258a12.615,12.615,0,0,1-2.682-.089c-1.174-.145-2.339-.355-3.507-.543-.749-.121-1.5-.239-2.25-.343-.806-.111-1.616-.192-2.43-.232a13.135,13.135,0,0,0-3.188.186,5.261,5.261,0,0,0-3.42,2.219,4.113,4.113,0,0,0-.8,2.659,5.706,5.706,0,0,0,.205,1.19A13.181,13.181,0,0,0,1813.095,72.14Z" transform="translate(-1794.188 -59.804)"/>
  <path id="패스_6007" data-name="패스 6007" class="cls-2" d="M1818.288,186.725a.1.1,0,0,0-.086-.023c.012-.1-.059-.2-.043-.3l.008-.006A1.468,1.468,0,0,1,1818.288,186.725Z" transform="translate(-1809.7 -142.089)"/>
  <path id="패스_6008" data-name="패스 6008" class="cls-2" d="M1818.054,186.043c.041.032.035.08.042.124l-.008.006c-.047-.03-.038-.079-.042-.124Z" transform="translate(-1809.628 -141.86)"/>
  <path id="패스_6009" data-name="패스 6009" class="cls-2" d="M1817.929,185.82a.1.1,0,0,1,.044.079l-.008.006a.1.1,0,0,1-.044-.078Z" transform="translate(-1809.547 -141.715)"/>
  <path id="패스_6010" data-name="패스 6010" class="cls-2" d="M1817.75,185.809a.065.065,0,0,1,.07,0h0l-.008.007Z" transform="translate(-1809.436 -141.699)"/>
  <path id="패스_6011" data-name="패스 6011" class="cls-3" d="M1857.7,90.087a4.3,4.3,0,0,1-2.721-4.909,4.251,4.251,0,0,1,8.264-.26,4.312,4.312,0,0,1-2.62,5.16,19.227,19.227,0,0,1,13.866,7.542,19.5,19.5,0,0,1-1.325,25.363,19.161,19.161,0,0,1-12.549,5.989,4.288,4.288,0,0,1,2.671,2.9,4.143,4.143,0,0,1-.136,2.691,4.25,4.25,0,0,1-8.127-.687,4.332,4.332,0,0,1,2.708-4.9A19.308,19.308,0,0,1,1845,122.842a19.507,19.507,0,0,1,12.7-32.755Zm5.347,42.407a.073.073,0,0,1,.023.1c-.042-.025-.036-.06-.022-.1a1.147,1.147,0,0,0-.055-.286.656.656,0,0,0-.009-.081,3.894,3.894,0,0,0-7.69.911,1.944,1.944,0,0,0,3.884.1,4.331,4.331,0,0,1,.044-.509,1.947,1.947,0,0,1,3.525-.734c.069.1.124.211.186.317A.918.918,0,0,0,1863.048,132.494Zm-8.865-4.783c.07-.773.14-1.534.208-2.295.074-.836.145-1.672.219-2.508q.132-1.478.269-2.956a4.969,4.969,0,0,1,1.134-2.8,4.07,4.07,0,0,1,5.692-.584,4.682,4.682,0,0,1,1.663,2.877c.122.645.138,1.3.2,1.954.081.835.147,1.672.221,2.508.092,1.04.182,2.08.281,3.12a5.372,5.372,0,0,0,.07.681.394.394,0,0,0,.2-.031,18.892,18.892,0,0,0,13.549-16.511c.035-.394.06-.79.06-1.186,0-.143,0-.143-.146-.147h-2.754a.632.632,0,0,1-.081,0c-.113-.015-.142.043-.133.143.005.054,0,.109,0,.164,0,.362,0,.724,0,1.086,0,.143,0,.143-.148.147-.041,0-.081,0-.122,0H1871.7q-.857,0-1.714,0c-.159,0-.16,0-.163-.155,0-.068,0-.137,0-.2,0-.342,0-.683,0-1.024,0-.152,0-.152-.16-.155h-3.1c-.287,0-.287,0-.287.3,0,.369,0,.738,0,1.106,0,.109-.036.15-.14.137a.449.449,0,0,0-.061,0h-3.121c-.057,0-.09-.02-.089-.082q0-.277,0-.553c0-.063.035-.081.091-.08s.1,0,.143,0h2.244c.212,0,.215.025.215-.207q0-.573,0-1.147c0-.22-.008-.194.2-.195.286,0,.571,0,.857,0,.144,0,.147,0,.148-.146q0-.512,0-1.024c0-.258.025-.228-.229-.228h-3.488c-.179,0-.182,0-.181-.177,0-.361.007-.723.007-1.085q0-1.8,0-3.605c0-.048,0-.1,0-.143.008-.093-.038-.119-.121-.115s-.191,0-.286,0c-.154,0-.156,0-.157.159,0,.41,0,.819,0,1.229,0,.129.054.293-.023.378s-.257.03-.391.035c-.153,0-.156,0-.156-.158,0-.41,0-.82,0-1.229,0-.128.056-.3-.024-.375-.1-.1-.27-.023-.41-.038-.111-.012-.138.043-.134.144.006.164,0,.328,0,.492,0,.341,0,.683,0,1.024,0,.1-.022.154-.136.145a2.408,2.408,0,0,0-.306,0c-.092,0-.144-.022-.133-.125a1.4,1.4,0,0,0,0-.143c0-.465,0-.929,0-1.393,0-.1-.022-.153-.134-.144-.094.008-.19,0-.286,0-.145,0-.148,0-.149.147,0,.287,0,.574,0,.86,0,.225,0,.451,0,.676,0,.087-.03.124-.118.119s-.177,0-.265,0c-.2,0-.2.021-.2-.2,0-.4,0-.806,0-1.208,0-.127.06-.292-.031-.373s-.248-.023-.376-.024c-.154,0-.156,0-.157.157,0,.417,0,.833,0,1.25,0,.126.063.288-.035.37s-.249.022-.376.024c-.155,0-.157,0-.158-.158,0-.41,0-.82,0-1.229,0-.133.065-.308-.034-.391s-.262-.013-.4-.024c-.111-.009-.136.041-.135.143,0,.416,0,.833,0,1.25,0,.128.055.292-.025.376s-.258.029-.392.033c-.153,0-.156,0-.157-.159,0-.41,0-.819,0-1.229,0-.128.056-.295-.024-.376-.1-.1-.27-.024-.41-.038-.094-.009-.133.025-.131.127.006.28,0,.56,0,.84,0,.239,0,.478,0,.717,0,.087-.03.124-.118.12-.109,0-.218-.005-.327,0-.093,0-.141-.023-.133-.126.006-.081,0-.164,0-.246,0-.43,0-.861,0-1.291,0-.1-.026-.151-.135-.144s-.231,0-.347,0c-.059,0-.088.026-.087.086s0,.1,0,.144q0,1.209,0,2.417,0,1.157,0,2.315c0,.159,0,.16-.154.163-.047,0-.095,0-.142,0h-3.448c-.17,0-.172,0-.172.163q0,.543,0,1.086c0,.146,0,.149.144.15.279,0,.558,0,.836,0,.24,0,.224-.037.224.235,0,.375,0,.751,0,1.127,0,.186,0,.187.194.187h1.408c.319,0,.639,0,.959,0,.147,0,.148,0,.151.144s0,.273,0,.41c0,.158,0,.162-.153.162q-1.571,0-3.142,0c-.14,0-.143,0-.144-.15,0-.41,0-.819,0-1.229,0-.156,0-.159-.159-.159q-1.611,0-3.223,0c-.16,0-.161,0-.161.173,0,.382,0,.765,0,1.147,0,.228.03.219-.22.219h-4.569c-.041,0-.082,0-.122,0-.07,0-.1-.034-.093-.1,0-.047,0-.1,0-.143,0-.389,0-.779,0-1.168,0-.1-.03-.136-.128-.128s-.177,0-.265,0h-2.55c-.169,0-.17,0-.168.167,0,.246.019.491.033.736a18.464,18.464,0,0,0,.586,3.63,18.924,18.924,0,0,0,12.912,13.289A.632.632,0,0,0,1854.183,127.711Zm21.843-18.6h1.754c.163,0,.165,0,.162-.17,0-.246-.019-.491-.036-.736a18.779,18.779,0,0,0-20.624-17.458,18.431,18.431,0,0,0-3.629.73,18.9,18.9,0,0,0-13.291,17.4c-.009.268-.043.235.237.235q1.713,0,3.427,0c.181,0,.177-.015.176.179,0,.4-.008.805-.009,1.208,0,.159,0,.162.154.162q1.631,0,3.263,0c.141,0,.144,0,.145-.152,0-.382,0-.765,0-1.147,0-.286-.031-.249.25-.25.809,0,1.618,0,2.427,0,.163,0,.169,0,.169-.124,0-.533,0-1.065,0-1.6,0-.082-.025-.118-.109-.133-.254-.046-.507-.1-.759-.154a7.561,7.561,0,0,1-2.742-1.21,3.452,3.452,0,0,1-.581-.512.229.229,0,0,1-.06-.256c.061-.181.108-.366.16-.549.077-.27.077-.265.346-.294q.781-.082,1.56-.177a1.6,1.6,0,0,0,.676-.207c.288-.18.586-.345.877-.521.453-.276.9-.555,1.331-.872a.558.558,0,0,0,.228-.349c.03-.147.062-.293.088-.441.029-.168.027-.169.206-.17.163,0,.327-.006.489,0,.1.006.127-.034.127-.129q0-1.229,0-2.458c0-.093-.026-.128-.121-.144-.334-.058-.667-.127-1-.215a19.991,19.991,0,0,1-2.5-.992c-.087-.036-.089-.083-.065-.158.066-.208.136-.415.189-.626a.217.217,0,0,1,.2-.182c.753-.148,1.506-.3,2.255-.461a.847.847,0,0,0,.541-.36c.277-.389.513-.8.774-1.2a.569.569,0,0,0,.107-.408.319.319,0,0,1,.172-.352.676.676,0,0,0,.109-.093.276.276,0,0,1,.31-.076,16.625,16.625,0,0,0,3.374.541q2.354.1,4.709,0c.36-.016.719-.047,1.077-.089a13.062,13.062,0,0,0,2.078-.4.638.638,0,0,1,.736.194.241.241,0,0,1,.085.21.758.758,0,0,0,.119.508c.223.351.456.7.67,1.052a1.039,1.039,0,0,0,.761.513c.715.129,1.423.292,2.137.432a.207.207,0,0,1,.19.171c.055.2.112.408.182.607.038.107.018.158-.086.2-.314.13-.623.271-.936.4a8.815,8.815,0,0,1-1.743.619c-.193.038-.384.087-.576.133-.223.053-.223.054-.223.272v1.761c0,.212,0,.423,0,.635,0,.078.026.11.107.106.136-.007.272-.006.408-.009.165,0,.166,0,.2.15.02.1.047.2.057.3a.805.805,0,0,0,.4.607c.715.487,1.451.937,2.2,1.36a.863.863,0,0,0,.288.1c.214.035.43.066.646.092.432.05.864.1,1.3.14a.188.188,0,0,1,.193.165q.084.337.19.668a.222.222,0,0,1-.052.241,3.1,3.1,0,0,1-.5.454,7.444,7.444,0,0,1-2.663,1.238c-.277.066-.559.112-.837.176-.24.056-.212-.01-.213.251,0,.41,0,.819,0,1.229,0,.1,0,.205,0,.307,0,.059.026.087.085.086h2.59c.167,0,.169,0,.169.166,0,.4,0,.805,0,1.208,0,.171,0,.174.162.174h3.243c.155,0,.156,0,.156-.16,0-.4-.007-.805-.009-1.208,0-.178,0-.18.174-.18Zm-16.773,19.3c.414.015.8-.016,1.187-.038a.078.078,0,0,0,.086-.056,6.362,6.362,0,0,0,.417-1.128,1.547,1.547,0,0,0-.263-1.318,4.15,4.15,0,0,0-.428-.494,5.393,5.393,0,0,1-.486-.524.622.622,0,0,1-.152-.35,1.693,1.693,0,0,1,.309-1.081c.143-.2.145-.2.346-.071.057.037.113.077.173.109.086.045.1.092.04.176a1.578,1.578,0,0,0-.231.649.529.529,0,0,0,.139.471c.131.139.262.277.4.412a4,4,0,0,1,.455.524,1.718,1.718,0,0,1,.307,1.337,6.164,6.164,0,0,1-.283,1.023.611.611,0,0,0-.072.236.542.542,0,0,0,.081,0,18.531,18.531,0,0,0,2.009-.335c.087-.019.1-.066.1-.146-.024-.279-.042-.558-.065-.837q-.113-1.326-.227-2.652c-.066-.775-.133-1.55-.194-2.326a.508.508,0,0,0-.119-.293q-.914-1.141-1.823-2.286c-.028-.035-.048-.082-.114-.1l-1.691,2.12-1.7-2.128a.26.26,0,0,0-.046.031q-.956,1.2-1.912,2.4a.33.33,0,0,0-.07.188q-.085,1.04-.171,2.081-.07.847-.141,1.694c-.059.693-.118,1.387-.18,2.08-.009.1.01.158.128.182.426.089.852.175,1.282.236a1.569,1.569,0,0,0,.478.045c-.06-.113-.062-.114.014-.186a3.485,3.485,0,0,0,.738-.946,1.149,1.149,0,0,0,.029-1.026c-.053-.118-.113-.233-.171-.349-.067-.134-.135-.268-.189-.408a1.263,1.263,0,0,1-.058-.7,3.8,3.8,0,0,1,.46-1.219c.026-.044.039-.1.114-.12.115.085.232.178.356.261.074.05.073.1.033.168a3.2,3.2,0,0,0-.3.738,1.16,1.16,0,0,0,.071.836c.086.178.169.357.255.536a1.556,1.556,0,0,1-.087,1.579,6.563,6.563,0,0,1-.59.808c-.027.031-.083.053-.055.123.454.04.911.077,1.377.075-.011-.029-.012-.044-.021-.051-.132-.106-.132-.106-.045-.247a6.348,6.348,0,0,0,.464-.909,1.255,1.255,0,0,0-.289-1.514,2.753,2.753,0,0,1-.379-.454,1.09,1.09,0,0,1-.2-.675,2.054,2.054,0,0,1,.421-1.133c.145-.2.147-.2.343-.063a1.246,1.246,0,0,1,.262.194,2.031,2.031,0,0,0-.347.629.851.851,0,0,0,.134.831c.088.112.18.222.272.332a4.075,4.075,0,0,1,.359.471,1.263,1.263,0,0,1,.162.962,4.063,4.063,0,0,1-.35.958C1859.5,127.953,1859.379,128.166,1859.253,128.4Zm-4.005-42.353a3.9,3.9,0,1,0,3.891-3.9A3.907,3.907,0,0,0,1855.248,86.05Zm7.476,34.573a2.013,2.013,0,0,0,0-.634,4.176,4.176,0,0,0-.66-1.976,3.4,3.4,0,0,0-5.552-.351,4.2,4.2,0,0,0-.93,2.422q-.02.258-.039.516l.035.014,1.861-2.333.684.855,1.026-1.284,1.024,1.284.686-.853Zm-8.214-20.166c0-.321,0-.641,0-.962,0-.1-.025-.145-.136-.144-.387.005-.775.006-1.162,0-.118,0-.13.052-.13.147,0,.635,0,1.269,0,1.9,0,.139,0,.143.151.143q.55,0,1.1,0c.169,0,.17,0,.171-.167C1854.511,101.071,1854.509,100.764,1854.509,100.457Zm.708-.014c0,.321,0,.642,0,.962,0,.107.033.144.139.143q.581-.006,1.162,0c.1,0,.127-.035.127-.131q-.005-.962,0-1.924c0-.1-.028-.142-.137-.141-.38.006-.761,0-1.141,0-.144,0-.147,0-.148.147C1855.216,99.815,1855.217,100.129,1855.217,100.443Zm5.7.012c0-.328,0-.656,0-.984,0-.088-.03-.119-.118-.119q-.582,0-1.163,0c-.094,0-.132.025-.132.127q0,.963,0,1.926c0,.106.032.145.14.143.374,0,.748,0,1.122,0,.145,0,.148,0,.148-.148C1860.917,101.083,1860.915,100.769,1860.915,100.455Zm2.131.006c0-.327,0-.654,0-.981,0-.1-.031-.13-.128-.128-.387,0-.773,0-1.159,0-.112,0-.135.044-.135.145,0,.633,0,1.267,0,1.9,0,.144,0,.148.149.149q.56,0,1.119,0c.147,0,.149,0,.15-.165C1863.048,101.074,1863.047,100.768,1863.047,100.461Zm-4.276-.019c0-.321,0-.641,0-.961,0-.1-.029-.131-.128-.129q-.581.007-1.161,0c-.1,0-.125.039-.125.132q0,.961,0,1.922c0,.1.031.143.138.141.38,0,.76-.006,1.14,0,.112,0,.136-.044.135-.144C1858.768,101.083,1858.771,100.763,1858.771,100.443Zm5,0c0,.321,0,.641,0,.962,0,.14,0,.143.149.144q.55,0,1.1,0c.157,0,.161,0,.161-.156q0-.941,0-1.882c0-.15,0-.152-.162-.153q-.55,0-1.1,0c-.145,0-.147,0-.148.144C1863.771,99.812,1863.772,100.126,1863.772,100.44Zm2.525,4.183v-1.7c0-.342,0-.343-.346-.341-.246,0-.217-.019-.217.221q0,1.731,0,3.462c0,.122-.051.277.023.356s.244.027.371.031c.167.005.169,0,.169-.165Q1866.3,105.554,1866.3,104.622Zm-1.706-.018q0,.911,0,1.821c0,.048,0,.1,0,.143s.028.084.086.083c.136,0,.272,0,.408,0a.066.066,0,0,0,.074-.075c0-.054,0-.109,0-.163q0-1.709,0-3.418c0-.128.054-.29-.024-.376s-.256-.031-.389-.035c-.151-.005-.153,0-.153.159Q1864.589,103.674,1864.59,104.6Zm-1.139.019c0,.539,0,1.077,0,1.615,0,.133-.064.307.032.39s.26.017.395.024c.02,0,.041,0,.061,0a.067.067,0,0,0,.074-.075c0-.054,0-.109,0-.164,0-1.145,0-2.29,0-3.435,0-.127.06-.291-.032-.372s-.248-.022-.376-.024c-.152,0-.155,0-.155.159Q1863.45,103.682,1863.451,104.623Zm-8.564.008c0-.566,0-1.132,0-1.7,0-.108.046-.242-.021-.317s-.217-.03-.33-.033c-.248-.006-.216-.006-.216.222q0,1.719,0,3.438c0,.128-.055.291.024.375s.257.028.39.032c.15.006.152,0,.153-.158Q1854.888,105.562,1854.887,104.631Zm-1.71-.03c0,.539,0,1.078,0,1.616,0,.141-.065.329.034.41s.287.019.436.026h.02c.048,0,.077-.02.077-.072s0-.109,0-.164q0-1.729,0-3.458c0-.12.055-.275-.031-.352s-.234-.023-.355-.024c-.178,0-.18,0-.18.176Q1853.176,103.68,1853.177,104.6Zm-.571.042v-1.186c0-.252,0-.5,0-.757,0-.086-.025-.124-.115-.12-.115.006-.231,0-.346,0-.079,0-.112.033-.106.111,0,.041,0,.082,0,.123v3.621c0,.041,0,.082,0,.123,0,.071.03.1.1.1.1,0,.2,0,.306,0,.161,0,.163,0,.163-.169Q1852.607,105.564,1852.606,104.643Zm1.684-8.018v1.126c0,.177.006.355,0,.532,0,.11.036.145.141.137a2.03,2.03,0,0,1,.306,0c.1.008.134-.038.123-.131a.629.629,0,0,1,0-.082V95.094c0-.041,0-.082,0-.123,0-.071-.028-.1-.1-.1-.109,0-.218,0-.327,0-.141,0-.144,0-.144.151C1854.289,95.56,1854.29,96.092,1854.29,96.625Zm9.165.006c0,.456,0,.913,0,1.369,0,.134-.064.31.031.39s.273.018.414.026c.014,0,.027,0,.041,0,.047,0,.077-.021.076-.073s0-.1,0-.143V95.094c0-.021,0-.041,0-.061,0-.151,0-.151-.162-.154q-.122,0-.244,0c-.155,0-.157,0-.158.158C1863.454,95.568,1863.454,96.1,1863.454,96.631Zm-.574.147c0-.437,0-.874,0-1.311,0-.12.056-.275-.032-.351s-.234-.022-.356-.023c-.177,0-.178,0-.179.177q0,1.444,0,2.888c0,.068,0,.137,0,.2-.006.085.025.127.115.123s.191,0,.286,0c.166,0,.168,0,.168-.169Q1862.882,97.547,1862.881,96.779Zm-6.889.011c0-.429,0-.858,0-1.287,0-.133.066-.311-.035-.387s-.275-.015-.416-.023c-.08,0-.112.031-.107.109,0,.034,0,.068,0,.1v2.963c0,.041,0,.082,0,.123,0,.068.033.1.1.1.1,0,.2,0,.305,0,.151,0,.154,0,.154-.162C1855.993,97.812,1855.992,97.3,1855.992,96.79Zm8.6-.188c0,.456,0,.913,0,1.369,0,.126-.061.285.034.371s.234.022.355.023c.175,0,.177,0,.177-.179q0-1.277,0-2.555a.38.38,0,0,0-.024-.18c-.084-.171-.162-.345-.246-.516a.2.2,0,0,0-.242-.081c-.09.025-.053.1-.054.153C1864.592,95.54,1864.594,96.071,1864.594,96.6Zm-5.181.278V95.347c0-.056,0-.115-.078-.115-.135,0-.271,0-.407,0-.062,0-.081.038-.079.094s0,.1,0,.143v2.393c0,.184.006.368,0,.552-.005.112.04.144.142.137.081-.006.163,0,.245,0,.178,0,.18,0,.18-.176Q1859.414,97.627,1859.413,96.881Zm2.326.02V95.347c0-.057,0-.115-.078-.115-.136,0-.272,0-.407,0-.062,0-.08.038-.079.094s0,.1,0,.143v2.393c0,.184.006.368,0,.552-.005.113.041.144.143.137.081-.006.163,0,.244,0,.178,0,.18,0,.18-.176C1861.739,97.882,1861.738,97.392,1861.738,96.9Zm-3.464,0v-.858c0-.232,0-.463,0-.7,0-.087-.031-.123-.118-.119-.115,0-.231,0-.346,0-.066,0-.1.027-.1.1,0,.048,0,.1,0,.143v2.6c0,.123,0,.246,0,.368,0,.09.037.121.121.117s.19,0,.285,0c.155,0,.157,0,.158-.155C1858.275,97.9,1858.274,97.4,1858.274,96.9Zm1.762-.024v.9c0,.218,0,.436,0,.654,0,.088.032.124.119.119s.149,0,.224,0c.248,0,.222.021.222-.215q0-1.063,0-2.126c0-.286,0-.572,0-.859,0-.085-.026-.126-.116-.121-.074,0-.149,0-.224,0-.234,0-.225-.019-.225.217Q1860.036,96.162,1860.036,96.877Zm-2.9.023v-.962c0-.191,0-.382,0-.572,0-.109-.037-.146-.142-.138-.088.007-.177,0-.265,0-.157,0-.158,0-.162.158,0,.041,0,.082,0,.123v2.721c0,.048,0,.1,0,.143,0,.171,0,.172.164.175.081,0,.163,0,.244,0,.155,0,.158,0,.158-.155Q1857.136,97.647,1857.135,96.9Zm-3.423-.294V95.07c0-.048,0-.1,0-.143s-.025-.068-.075-.075c-.136-.016-.174,0-.236.129s-.122.259-.186.387a.514.514,0,0,0-.056.235c0,.867,0,1.733,0,2.6,0,.16,0,.16.154.163q.122,0,.245,0c.151,0,.154,0,.154-.163C1853.713,97.67,1853.712,97.138,1853.712,96.606Zm13.16,6.918v.259c0,.818,0,1.636,0,2.455,0,.133-.063.306.031.39s.26.014.394.026c.1.009.146-.024.142-.136-.008-.2,0-.409,0-.614,0-.627,0-1.255,0-1.882a.245.245,0,0,0-.149-.256C1867.16,103.7,1867.036,103.619,1866.872,103.524Zm-15.434.022c-.134.094-.263.191-.4.276a.277.277,0,0,0-.139.268c.005.717,0,1.434,0,2.15,0,.133-.065.309.034.39s.262.016.4.022h.041c.059,0,.087-.023.085-.084,0-.041,0-.082,0-.123q0-1.352,0-2.7A.351.351,0,0,0,1851.438,103.546Zm-1.123,3.031v-2.37c-.164.1-.3.2-.448.285a.2.2,0,0,0-.108.2c.005.258,0,.517,0,.776q0,.429,0,.857c0,.067-.012.141.084.159C1850,106.511,1850.148,106.543,1850.315,106.577Zm17.71,0c.152-.032.29-.067.43-.087.1-.014.121-.062.121-.151,0-.559,0-1.118,0-1.677,0-.049,0-.1-.046-.129a4.765,4.765,0,0,0-.5-.309Zm-8.877,12.285-.552.692c-.041.051-.071.1-.018.161.189.231.375.465.571.709.192-.241.373-.47.558-.7a.109.109,0,0,0,0-.161C1859.525,119.338,1859.344,119.108,1859.148,118.862Zm6.638-22.627-.053.031v1.758c0,.034,0,.068,0,.1-.007.085.041.1.113.1.109,0,.218,0,.326,0s.131-.031.13-.13c0-.41,0-.819,0-1.229a.2.2,0,0,0-.055-.147C1866.091,96.561,1865.939,96.4,1865.786,96.235Zm-13.222-.008-.492.485a.165.165,0,0,0-.056.126q0,.645,0,1.289c0,.067.023.1.095.1.1,0,.2,0,.306,0,.156,0,.159,0,.16-.158q0-.849,0-1.7C1852.576,96.337,1852.571,96.3,1852.565,96.227Zm-3.371,10.106c0-.456,0-.877,0-1.3,0-.094-.034-.122-.122-.1-.111.03-.223.058-.334.084a.122.122,0,0,0-.113.138c0,.3,0,.6,0,.9,0,.061.014.1.078.123C1848.859,106.226,1849.011,106.276,1849.194,106.333Zm19.987-.014.439-.136a.108.108,0,0,0,.086-.118q0-.46,0-.92a.1.1,0,0,0-.089-.115c-.112-.028-.223-.058-.335-.085s-.128-.022-.129.1c0,.382,0,.763,0,1.145A.181.181,0,0,0,1869.181,106.32Zm-17.735-8.858c0-.15,0-.3,0-.45,0-.12-.013-.129-.134-.107s-.212.056-.319.067-.118.065-.115.151c0,.137,0,.273,0,.409s-.057.3.029.4.255.065.383.105c.013,0,.027,0,.04.008.076.019.116,0,.115-.089C1851.443,97.789,1851.445,97.625,1851.445,97.461Zm15.44.583a3.3,3.3,0,0,0,.484-.086.079.079,0,0,0,.068-.088q0-.4,0-.8c0-.044-.015-.081-.064-.089a3.417,3.417,0,0,0-.488-.087Zm3.4,7.858c.187-.058.34-.107.495-.153a.1.1,0,0,0,.072-.107c0-.163,0-.327,0-.49,0-.081-.035-.105-.111-.1-.115,0-.231,0-.346,0-.075,0-.113.022-.112.1C1870.285,105.392,1870.284,105.629,1870.284,105.9Zm-22.26-.019a6.735,6.735,0,0,0,.027-.758c-.008-.064-.046-.074-.1-.074-.122,0-.245,0-.367,0-.072,0-.095.031-.094.1,0,.164,0,.328,0,.492,0,.05.008.093.068.109A4.279,4.279,0,0,0,1848.024,105.884Zm2.284-8.2c0-.07.005-.143,0-.216-.012-.146.069-.34-.038-.425s-.284.016-.432.019c-.083,0-.095.046-.1.117-.024.408-.026.409.372.491A.441.441,0,0,0,1850.308,97.682Zm17.706.016c.086-.014.147-.022.207-.035.389-.084.389-.084.36-.485,0-.014,0-.027,0-.041,0-.05-.03-.07-.077-.075-.128-.013-.257-.025-.385-.042-.083-.011-.106.028-.1.1C1868.016,97.308,1868.014,97.491,1868.014,97.7Z" transform="translate(-1823.667 -74.031)"/>
  <path id="패스_6012" data-name="패스 6012" class="cls-2" d="M1841.847,111.079a5.391,5.391,0,0,0,2.251-.785c0,.241,0,.451.006.661,0,.072-.058.087-.107.109a6.931,6.931,0,0,1-2.088.631c-.075.008-.15.019-.228.029-.007.079.057.107.1.146.24.238.484.472.725.709.1.1.1.1,0,.208-.086.09-.177.175-.258.269-.059.068-.1.068-.165,0-.25-.248-.5-.491-.757-.735-.034-.032-.057-.079-.135-.088a3.613,3.613,0,0,1-.009.526,3.981,3.981,0,0,1-.63,1.881.251.251,0,0,1-.252.136c-.178-.01-.357,0-.536,0-.029-.083.037-.119.069-.165a4.336,4.336,0,0,0,.7-1.466,1.949,1.949,0,0,0,.061-.615c0-.032.008-.07-.053-.1l-1.555,1.6a.146.146,0,0,1-.034-.01,3.678,3.678,0,0,1-.38-.377,1.545,1.545,0,0,1,.337-.382c.506-.528,1.017-1.051,1.526-1.576.11-.114.11-.115,0-.223-.044-.044-.087-.088-.132-.131-.294-.284-.294-.289-.7-.291-.19,0-.38.024-.583.038a.393.393,0,0,0,.147.2q.286.285.58.561c.067.063.092.109.011.182-.122.11-.236.23-.37.362l-.794-.766a6.127,6.127,0,0,1-.02.855,4.038,4.038,0,0,1-.089.508.115.115,0,0,1-.127.107c-.177,0-.355,0-.555,0a4.058,4.058,0,0,0,.186-.894,2.841,2.841,0,0,0-.055-.9c-.134.053-.2.177-.3.267s-.193.2-.289.3l-.3.3-.4-.434a2.678,2.678,0,0,1,.3-.32c.184-.2.375-.386.562-.579.128-.132.128-.132-.01-.268-.049-.048-.1-.094-.159-.15-.15.182-.3.353-.437.533a.206.206,0,0,1-.248.086c-.17-.047-.344-.083-.538-.128a11.5,11.5,0,0,0,1.471-1.893.205.205,0,0,1,.228-.125c.191.026.384.034.608.052a7.684,7.684,0,0,1-.678.954,2.1,2.1,0,0,0,.3.3c.269-.252.532-.5.792-.742.206-.2.135-.207.356,0,.08.074.163.146.252.226l-.78.807c.28-.042.519-.084.761-.1.144-.007.289-.009.434-.017.1-.006.155.019.156.134a3.19,3.19,0,0,0,.038.329c.067.023.1-.035.143-.061.083-.049.161-.107.246-.152.164-.088.192-.079.235.1s.174.259.294.378a.959.959,0,0,0,.207-.191q.823-.845,1.644-1.692c.152-.157.14-.12.253-.007l.3.293Z" transform="translate(-1821.457 -91.711)"/>
  <path id="패스_6013" data-name="패스 6013" class="cls-3" d="M1919.969,210.027c.129.556.257,1.105.385,1.654q.32,1.368.64,2.736c.042.18.04.181-.115.272s-.314.174-.464.272c-.094.062-.151.045-.228-.03-.475-.462-.954-.918-1.432-1.376l-2.465-2.363c-.028-.027-.07-.046-.075-.112.217-.128.442-.259.665-.393.085-.051.125.013.172.061l1.027,1.05,1.968,2.012a.243.243,0,0,0,.111.078c-.115-.488-.229-.969-.343-1.45l-.679-2.854c-.043-.182-.042-.183.13-.283l.446-.261c.181-.106.149-.091.277.028q.775.717,1.547,1.436l1.516,1.408.169.153a.308.308,0,0,0-.019-.206q-.569-1.976-1.136-3.952c-.008-.026-.017-.052-.026-.078a.131.131,0,0,1,.07-.186c.194-.1.384-.217.572-.332.09-.055.116-.02.138.067.12.488.245.975.367,1.463l.941,3.747c.045.181.046.181-.112.274s-.314.174-.463.272a.157.157,0,0,1-.23-.028c-.355-.337-.716-.668-1.075-1q-1.045-.972-2.092-1.944C1920.1,210.111,1920.064,210.041,1919.969,210.027Z" transform="translate(-1873.55 -155.717)"/>
  <path id="패스_6014" data-name="패스 6014" class="cls-4" d="M1838.108,199.191a.593.593,0,0,0,.235-.1q1.795-.94,3.588-1.883c.209-.109.151-.138.33.068.127.145.25.294.374.439a.321.321,0,0,1-.158.1q-2.371,1.151-4.743,2.3c-.168.082-.169.081-.286-.054-.095-.109-.187-.221-.283-.329-.134-.15-.1-.134-.018-.259.311-.464.624-.927.936-1.39q.723-1.072,1.444-2.145a.432.432,0,0,0,.1-.188.48.48,0,0,0-.2.073l-3.82,1.785c-.031.015-.063.028-.094.044a.112.112,0,0,1-.161-.029c-.121-.15-.246-.3-.376-.44-.061-.066-.048-.115,0-.178.09-.122.173-.249.26-.374l2.772-3.994c.035-.05.072-.1.118-.162.184.17.323.364.482.542a.089.089,0,0,1,0,.129c-.075.1-.147.2-.221.3q-1.137,1.54-2.273,3.08a.487.487,0,0,0-.111.179.4.4,0,0,0,.193-.071l3.741-1.76a.78.78,0,0,0,.093-.045c.075-.049.125-.02.175.041.119.143.237.288.365.423.078.082.066.143.006.23-.331.483-.657.971-.984,1.457l-1.41,2.093C1838.157,199.107,1838.141,199.137,1838.108,199.191Z" transform="translate(-1820.687 -146.091)"/>
  <path id="패스_6015" data-name="패스 6015" class="cls-3" d="M1921.815,94.846l3.047,1.656c-.089.163-.176.311-.251.464-.044.09-.092.076-.162.038-.344-.189-.688-.379-1.035-.564-.2-.108-.151-.1-.277.049a5.653,5.653,0,0,1-1.365,1.193l-.21.134a12.115,12.115,0,0,1,.95,1.954c-.212.086-.43.121-.639.184-.086.026-.109-.029-.128-.092a7.6,7.6,0,0,0-.3-.793,6.967,6.967,0,0,0-.413-.809.149.149,0,0,0-.212-.08,3.914,3.914,0,0,1-2.557-.015.254.254,0,0,1-.2-.225c-.035-.222-.081-.442-.128-.7a3.632,3.632,0,0,0,1.869.468,1.778,1.778,0,0,0,.7-.168c.018-.066-.024-.108-.051-.152a4.929,4.929,0,0,0-.564-.739c-.064-.071-.116-.1-.207-.032a3.26,3.26,0,0,1-.29.157.1.1,0,0,1-.141-.029c-.132-.159-.266-.315-.413-.488a7.955,7.955,0,0,0,1.841-1.3l-1.706-.932c.086-.161.169-.309.246-.461.042-.084.09-.082.165-.04.271.151.545.3.817.445s.548.291.817.446a.186.186,0,0,0,.265-.029,11.142,11.142,0,0,0,1.063-1.157c.033-.042.052-.1.123-.118.134.161.266.328.408.487.066.074.054.122,0,.193a7.82,7.82,0,0,1-.882.9ZM1922.6,96c-.405-.22-.8-.434-1.2-.654-.078-.043-.114,0-.158.042-.222.207-.461.393-.7.579-.063.049-.143.082-.185.166a6.838,6.838,0,0,1,.723.929c.088.134.091.136.236.047a5.8,5.8,0,0,0,1.217-1.016A.966.966,0,0,0,1922.6,96Z" transform="translate(-1874.664 -81.464)"/>
  <path id="패스_6016" data-name="패스 6016" class="cls-4" d="M1938.207,108.855l-1.855-2.021a4.451,4.451,0,0,1,.452-.426.458.458,0,0,1,.156.141q.807.874,1.612,1.75c.114.123.116.123.238.012q.526-.482,1.052-.965c.108-.1.111-.1.209.007a2.187,2.187,0,0,1,.279.358c.113.187.1.282-.1.36a4.615,4.615,0,0,0-1.1.863l1.865,2.032c-.141.131-.277.255-.41.38-.046.043-.084.034-.122-.011s-.056-.061-.083-.092l-1.569-1.7a.6.6,0,0,0-.161-.15,1.876,1.876,0,0,0-.266.356,3.707,3.707,0,0,0-.484,1.461,5.8,5.8,0,0,0-.014,1.608,3.852,3.852,0,0,0,.233.827c-.275.014-.532-.035-.791-.038-.076,0-.077-.073-.087-.122-.03-.141-.059-.284-.075-.427a6.969,6.969,0,0,1,.141-2.606c.031-.119.076-.235.114-.352-.016-.04-.043-.02-.066-.012a3.788,3.788,0,0,1-1.343.2,6.167,6.167,0,0,1-1.951-.314l-.156-.055a.109.109,0,0,1-.083-.123,7.4,7.4,0,0,1,.049-.755.052.052,0,0,1,.063,0,4.2,4.2,0,0,0,2.427.532,3.009,3.009,0,0,0,1.471-.432A1.548,1.548,0,0,0,1938.207,108.855Z" transform="translate(-1885.011 -90.112)"/>
  <path id="패스_6017" data-name="패스 6017" class="cls-3" d="M1822.708,155.352c.02-.033.031-.05.04-.068a1.472,1.472,0,0,1,1.652-.783,1.7,1.7,0,0,1,1.491,1.609,2.589,2.589,0,0,1-.135,1.16,1.63,1.63,0,0,1-1.865,1.129,1.378,1.378,0,0,1-1.144-.811c-.018-.037-.038-.073-.057-.109a.063.063,0,0,0-.015-.014c-.039.02-.051.061-.072.1a1.17,1.17,0,0,1-1.26.593,1.529,1.529,0,0,1-1.347-1.431,2.415,2.415,0,0,1,.125-1.119,1.45,1.45,0,0,1,1.828-.9,1.068,1.068,0,0,1,.632.473A.553.553,0,0,0,1822.708,155.352Zm1.495-.095a1.027,1.027,0,0,0-1.125.866,1.7,1.7,0,0,0-.005.637,1.037,1.037,0,0,0,.945.869,1.068,1.068,0,0,0,1.162-.728,1.644,1.644,0,0,0,.022-.936.881.881,0,0,0-.685-.67A1.949,1.949,0,0,0,1824.2,155.257Zm-1.791,1.116a.986.986,0,0,0-.146-.554.85.85,0,0,0-.876-.422.782.782,0,0,0-.68.58,1.412,1.412,0,0,0-.047.772.787.787,0,0,0,.608.63.826.826,0,0,0,.882-.248A1.05,1.05,0,0,0,1822.412,156.373Z" transform="translate(-1810.879 -121.355)"/>
  <path id="패스_6018" data-name="패스 6018" class="cls-3" d="M1823.99,144.178c-.066.019-.083.061-.109.091a1.132,1.132,0,0,1-1.195.374,1.523,1.523,0,0,1-1.2-1.51,2.371,2.371,0,0,1,.321-1.226,1.427,1.427,0,0,1,1.226-.761,1.314,1.314,0,0,1,1.367.947c.077,0,.1-.068.135-.11a1.433,1.433,0,0,1,1.465-.448,1.73,1.73,0,0,1,1.382,2.094,2.512,2.512,0,0,1-.357.984,1.61,1.61,0,0,1-1.824.774A1.442,1.442,0,0,1,1823.99,144.178Zm2.756-.84a.9.9,0,0,0-.42-.864,1.4,1.4,0,0,0-.563-.189,1,1,0,0,0-1.09.567,1.615,1.615,0,0,0-.171.675,1.043,1.043,0,0,0,.8,1.085,1.056,1.056,0,0,0,1.286-.595A1.721,1.721,0,0,0,1826.746,143.338Zm-2.792-.48a.841.841,0,0,0-.052-.345.877.877,0,0,0-.781-.611.817.817,0,0,0-.793.454,1.522,1.522,0,0,0-.186.628.819.819,0,0,0,.563.884.847.847,0,0,0,1.01-.3A1.223,1.223,0,0,0,1823.954,142.858Z" transform="translate(-1811.852 -112.69)"/>
  <path id="패스_6019" data-name="패스 6019" class="cls-4" d="M1828,131.154a2.334,2.334,0,0,1-.174-.43,1.739,1.739,0,0,1,.35-1.44,1.686,1.686,0,0,1,1.943-.633,2.046,2.046,0,0,1,1.35,1.188,1.525,1.525,0,0,1,.125.867,1.889,1.889,0,0,1-1.476,1.69,2.413,2.413,0,0,1-1.108-.035,5.624,5.624,0,0,1-2.217-1.066,2.887,2.887,0,0,1-.682-.771,1.893,1.893,0,0,1,.525-2.456,1.508,1.508,0,0,1,1.359-.2c.082.023.114.058.073.145q-.105.224-.2.455c-.029.071-.067.1-.141.072a.172.172,0,0,0-.041-.008,1.012,1.012,0,0,0-1.079,1.41,1.621,1.621,0,0,0,.337.516,3.3,3.3,0,0,0,.929.682C1827.913,131.154,1827.946,131.185,1828,131.154Zm1.744.572a1.128,1.128,0,0,0,1.112-.767,1.064,1.064,0,0,0-.337-1.246,1.648,1.648,0,0,0-.673-.35,1.078,1.078,0,0,0-1.333.655,1.443,1.443,0,0,0-.07.194,1.043,1.043,0,0,0,.354,1.152A1.492,1.492,0,0,0,1829.746,131.726Z" transform="translate(-1814.784 -104.008)"/>
  <path id="패스_6020" data-name="패스 6020" class="cls-3" d="M1953.617,139.838c.053.22.1.414.148.607.023.086,0,.132-.086.15l-.019.007a.867.867,0,0,0-.592.819,1.038,1.038,0,0,0,.562.988,2.063,2.063,0,0,0,.839.2,5.165,5.165,0,0,0,.98-.043c.008-.022,0-.032-.014-.039a1.576,1.576,0,0,1-.928-1.367,1.677,1.677,0,0,1,1.253-1.889,2.225,2.225,0,0,1,1.2-.07,1.733,1.733,0,0,1,1.348,1.409,2.066,2.066,0,0,1,.027.842,1.659,1.659,0,0,1-.6.988,2.943,2.943,0,0,1-.9.5,5.889,5.889,0,0,1-2.291.372,2.955,2.955,0,0,1-.891-.167,1.74,1.74,0,0,1-1.186-1.46,1.785,1.785,0,0,1,.016-.739A1.54,1.54,0,0,1,1953.617,139.838Zm4.088,1.3a1.128,1.128,0,0,0-1.261-1.244,2.024,2.024,0,0,0-.619.153.967.967,0,0,0-.653,1.111,1.4,1.4,0,0,0,.119.436.951.951,0,0,0,.73.577,1.678,1.678,0,0,0,1.259-.277A.91.91,0,0,0,1957.7,141.139Z" transform="translate(-1897.183 -111.391)"/>
  <path id="패스_6021" data-name="패스 6021" class="cls-4" d="M1829.278,186.355l-1.274-2.7-1.615.761c-.02.07.021.114.043.161q.615,1.31,1.233,2.618c.018.037.034.076.054.111.038.068.025.111-.05.145-.163.072-.324.151-.481.225a.324.324,0,0,1-.1-.162q-.781-1.654-1.56-3.31c-.014-.031-.027-.063-.044-.093-.032-.057-.01-.089.044-.112.038-.016.075-.035.113-.052l4.563-2.148c.037-.018.076-.033.112-.054.053-.03.09-.019.115.037.011.025.024.049.036.074l1.577,3.347c.014.03.025.062.042.106-.173.082-.341.159-.507.243-.069.035-.1.009-.126-.052s-.071-.149-.106-.224l-1.147-2.43c-.026-.055-.055-.11-.091-.181l-.357.168-.991.466c-.15.071-.151.073-.082.221q.549,1.17,1.1,2.339a.64.64,0,0,0,.045.093c.064.1.028.143-.069.184C1829.6,186.2,1829.451,186.274,1829.278,186.355Z" transform="translate(-1814.527 -139.087)"/>
  <path id="패스_6022" data-name="패스 6022" class="cls-3" d="M1938.661,195.943c.146-.188.285-.358.413-.537.064-.089.109-.092.194-.025.411.324.828.641,1.243.961l1.343,1.036a2.018,2.018,0,0,0,.61.34,1.136,1.136,0,0,0,.958-.089,2,2,0,0,0,.964-1.286,1.153,1.153,0,0,0-.192-.962,1.865,1.865,0,0,0-.417-.427l-2.521-1.946a.734.734,0,0,1-.195-.174l.47-.612c.071,0,.107.046.149.078q1.335,1.028,2.669,2.058a1.938,1.938,0,0,1,.635,2.381,3.4,3.4,0,0,1-1.092,1.429,1.842,1.842,0,0,1-2.35,0c-.932-.711-1.858-1.429-2.786-2.144C1938.729,196,1938.7,195.98,1938.661,195.943Z" transform="translate(-1888.136 -145.913)"/>
  <path id="패스_6023" data-name="패스 6023" class="cls-4" d="M1851.141,210.289a.4.4,0,0,0-.137.165q-.591.886-1.179,1.773c-.113.17-.114.169-.291.051l-.293-.194c-.149-.1-.149-.1-.054-.245l1.2-1.808,1.637-2.461a.311.311,0,0,1,.11-.124c.172.114.352.235.535.354.088.058.024.105-.007.152q-.4.613-.81,1.224l-.348.526c.029.069.084.088.127.117q1.041.693,2.083,1.384c.143.095.129.113.233-.043l1.018-1.533c.045-.068.092-.135.142-.209.184.122.354.24.529.349.083.052.069.1.024.165q-.459.687-.915,1.377l-1.932,2.911c-.023.035-.048.067-.07.1s-.066.043-.1.018l-.5-.331a.066.066,0,0,1-.016-.105l.172-.258q.538-.809,1.075-1.619a.448.448,0,0,0,.1-.189Z" transform="translate(-1829.91 -155.817)"/>
  <path id="패스_6024" data-name="패스 6024" class="cls-4" d="M1957.375,166.388a1.9,1.9,0,0,1,.091,1.377,1.814,1.814,0,0,1-2.263,1.282,2.353,2.353,0,0,1-.612-.245,1.736,1.736,0,0,1-.9-1.491,2.658,2.658,0,0,1,.2-1.194,1.58,1.58,0,0,1,1.542-1.01c.136,0,.145,0,.128.138-.021.171-.055.34-.077.511a.094.094,0,0,1-.106.1c-.048,0-.1.009-.144.015a.906.906,0,0,0-.575.3,1.262,1.262,0,0,0,.494,2.069,1.475,1.475,0,0,0,.795.071,1.155,1.155,0,0,0,.933-.939,1.254,1.254,0,0,0-.264-1.144.274.274,0,0,1-.062-.28,1.665,1.665,0,0,1,.116-.431,1.979,1.979,0,0,1,.417.111q1.178.35,2.356.7c.033.01.066.021.1.028.084.018.1.061.088.147-.055.333-.1.668-.15,1q-.12.8-.243,1.594c-.008.054-.022.108-.029.163s-.037.079-.1.068c-.15-.025-.3-.042-.45-.065-.169-.026-.167-.028-.142-.195.1-.667.21-1.334.3-2,.041-.287.087-.225-.2-.319-.367-.119-.735-.234-1.1-.35A.172.172,0,0,0,1957.375,166.388Z" transform="translate(-1897.986 -128.271)"/>
  <path id="패스_6025" data-name="패스 6025" class="cls-4" d="M1865.488,222.078c-.215-.087-.424-.173-.635-.255a.12.12,0,0,1-.083-.143c.031-.475.053-.949.089-1.424a.164.164,0,0,0-.12-.2q-.892-.355-1.779-.724a.156.156,0,0,0-.21.052q-.458.52-.924,1.033c-.135.149-.084.132-.275.06-.173-.066-.343-.14-.509-.208-.019-.071.034-.094.064-.127q1.873-2.029,3.746-4.058a.191.191,0,0,1,.265-.061,3.842,3.842,0,0,0,.477.2.19.19,0,0,1,.151.223c-.026.461-.039.923-.058,1.384-.021.5-.043.991-.062,1.487-.033.868-.063,1.736-.1,2.6A.216.216,0,0,1,1865.488,222.078Zm-.468-5.165a21.288,21.288,0,0,0-1.68,1.866l1.525.617Z" transform="translate(-1837.653 -161.452)"/>
  <path id="패스_6026" data-name="패스 6026" class="cls-4" d="M1954.853,155.455c.008-.108-.061-.24.017-.318s.2-.028.3-.034c.3-.016.592-.024.888-.038.17-.008.174-.011.167-.178-.027-.688-.057-1.376-.085-2.065-.011-.279-.007-.267.277-.3a1.045,1.045,0,0,1,.749.194c1.085.732,2.181,1.448,3.276,2.164a.31.31,0,0,1,.173.315,1.453,1.453,0,0,0,.015.289c.01.092-.032.121-.117.124-.3.01-.606.025-.908.037q-1.24.05-2.479.1c-.246.01-.229.006-.217.23.008.158.012.316.015.475s0,.153-.159.159l-.268.007c-.205,0-.193.029-.2-.2-.006-.165-.022-.33-.024-.5,0-.107-.037-.14-.146-.134-.357.02-.716.031-1.074.044-.188.007-.189.005-.2-.188C1954.851,155.58,1954.853,155.518,1954.853,155.455Zm4.557-.535.015-.042-2.64-1.689c.026.6.052,1.159.074,1.715,0,.1.039.131.138.124.233-.017.468-.024.7-.035Z" transform="translate(-1898.725 -120.082)"/>
  <path id="패스_6027" data-name="패스 6027" class="cls-2" d="M1866.677,99.257a3.3,3.3,0,0,0,.681.011c.058-.008.087.026.106.076a1.037,1.037,0,0,1-.2,1.169,2.151,2.151,0,0,1-.465.343q-.509.275-1.026.536a1.683,1.683,0,0,1-.388.14.479.479,0,0,1-.642-.293q-.69-1.319-1.379-2.639c-.1-.183-.189-.368-.289-.549-.04-.072-.03-.114.05-.138.191-.058.38-.123.573-.173.112-.029.158,0,.15.1a1.231,1.231,0,0,0,.214.721c.061.107.116.218.172.324a.339.339,0,0,0,.2-.119,4.612,4.612,0,0,0,.951-1.084.138.138,0,0,1,.2-.073c.155.074.313.144.464.226.122.066.134.132.033.223-.4.364-.741.8-1.179,1.13-.094.071-.177.154-.269.227a.118.118,0,0,0-.04.174q.3.555.586,1.117a.206.206,0,0,0,.236.122.64.64,0,0,0,.215-.07c.25-.132.5-.261.75-.394a1.824,1.824,0,0,0,.192-.122.4.4,0,0,0,.192-.51A3.158,3.158,0,0,1,1866.677,99.257Z" transform="translate(-1838.964 -84.37)"/>
  <path id="패스_6028" data-name="패스 6028" class="cls-4" d="M1856.186,94.3l-.593.31-.182-.339c-.08-.149-.081-.15-.224-.076l-1.337.7-.193.1a4.882,4.882,0,0,1-.261-.468c-.031-.053-.017-.088.037-.115.111-.055.22-.115.33-.173q.531-.278,1.062-.556a.487.487,0,0,0,.182-.12c-.092-.179-.182-.364-.283-.543-.054-.1-.036-.144.063-.187.158-.067.308-.155.469-.216s.2-.015.195.142a.919.919,0,0,0,.166.439c.024.05.067.036.106.016.293-.153.585-.308.879-.46.072-.037.052-.081.023-.135-.081-.152-.156-.307-.24-.457-.045-.08-.03-.123.052-.161.138-.062.271-.136.41-.194s.18-.041.2.1a1.556,1.556,0,0,0,.15.381c.042.1.091.11.187.059.449-.241.9-.475,1.354-.711.267-.14.267-.14.407.13l.166.319c-.589.3-1.184.551-1.754.881.062.122.116.241.181.353.043.075.022.109-.048.143-.13.064-.259.13-.384.2-.076.043-.122.037-.16-.048-.052-.112-.115-.219-.181-.345l-1.026.535Z" transform="translate(-1832.677 -80.441)"/>
  <path id="패스_6029" data-name="패스 6029" class="cls-3" d="M1826.375,168.942a7.308,7.308,0,0,1-.781.13c-1.042.159-2.084.31-3.126.465-.134.02-.137.025-.117.157.053.361.1.722.163,1.082.016.094-.011.122-.1.13a2.443,2.443,0,0,0-.346.054c-.1.023-.122-.024-.141-.1-.034-.14-.069-.281-.108-.42a1.02,1.02,0,0,0-.9-.8.839.839,0,0,0-.142-.024c-.117,0-.153-.058-.161-.162-.006-.082-.023-.164-.035-.245-.025-.171-.026-.174.15-.2.313-.049.627-.094.94-.14l2.922-.439c.5-.076,1.008-.151,1.513-.224.15-.022.155-.017.18.134C1826.319,168.539,1826.345,168.735,1826.375,168.942Z" transform="translate(-1811.262 -130.274)"/>
  <path id="패스_6030" data-name="패스 6030" class="cls-3" d="M1949.926,131.929c.142-.063.273-.122.4-.179l3.17-1.364c.032-.014.062-.03.095-.041.07-.023.078-.065.05-.128-.086-.2-.17-.392-.254-.588-.065-.152-.126-.306-.2-.455-.035-.072-.028-.112.049-.143.135-.053.27-.163.4-.155.15.01.149.221.237.328a.507.507,0,0,1,.043.071,1.07,1.07,0,0,0,1.21.583c.172-.029.177-.023.243.137.049.119.167.247.12.357s-.209.113-.323.161l-4.725,2.034a.754.754,0,0,0-.095.041c-.082.049-.134.04-.172-.059C1950.1,132.331,1950.015,132.137,1949.926,131.929Z" transform="translate(-1895.455 -104.712)"/>
  <path id="패스_6031" data-name="패스 6031" class="cls-4" d="M1858.613,102.329c-.089.249-.17.483-.255.715-.079.215-.081.218-.295.165-.131-.032-.319,0-.377-.116-.049-.095.073-.236.114-.358a8.182,8.182,0,0,0,.372-1.585,2.28,2.28,0,0,0-.013-.6c-.032-.228.005-.269.238-.264a1.752,1.752,0,0,1,.411.036c.136.035.147.05.116.185-.037.161-.081.32-.111.482-.02.107-.04.224.108.271a.079.079,0,0,1,.051.082.792.792,0,0,0,.142.382q.592,1.135,1.187,2.268c.078.148.077.15-.066.226s-.269.139-.4.211c-.053.029-.089.022-.116-.033s-.051-.1-.077-.146q-.45-.86-.9-1.72A.672.672,0,0,0,1858.613,102.329Z" transform="translate(-1835.461 -86.127)"/>
  <path id="패스_6032" data-name="패스 6032" class="cls-2" d="M1847.522,105.472c.085-.095.142-.153.193-.217.167-.208.164-.31-.022-.5-.15-.152-.3-.3-.458-.447q-.593-.575-1.185-1.152a.386.386,0,0,1-.124-.15,2.214,2.214,0,0,1,.545-.389c.1-.05.146-.032.168.073a.779.779,0,0,0,.266.405q.7.673,1.394,1.351a.693.693,0,0,1,.042,1.039c-.041.047-.076.094-.153.081C1847.978,105.534,1847.767,105.507,1847.522,105.472Z" transform="translate(-1827.823 -87.621)"/>
  <path id="패스_6033" data-name="패스 6033" class="cls-2" d="M1845.016,107.825l-.7-.681q-.533-.518-1.064-1.036c-.114-.111-.115-.117.009-.213a4.594,4.594,0,0,1,.387-.273c.122-.075.148-.065.188.07a.653.653,0,0,0,.2.284l1.317,1.28c.114.111.114.112.009.221S1845.136,107.7,1845.016,107.825Z" transform="translate(-1826.028 -89.56)"/>
  <path id="패스_6034" data-name="패스 6034" class="cls-2" d="M1943.143,215.1l.654-.586c.167.187.326.366.487.544a.074.074,0,0,1-.008.122q-.264.233-.524.468c-.044.04-.079.046-.121,0C1943.471,215.467,1943.311,215.288,1943.143,215.1Z" transform="translate(-1891.016 -160.373)"/>
  <path id="패스_6035" data-name="패스 6035" class="cls-2" d="M1960.2,193.2c.221.113.421.22.625.318.086.042.085.086.045.161-.1.187-.2.377-.292.568-.039.081-.082.094-.16.051q-.253-.138-.513-.263c-.076-.037-.1-.073-.056-.157C1959.969,193.662,1960.078,193.44,1960.2,193.2Z" transform="translate(-1901.959 -146.518)"/>
  <path id="패스_6036" data-name="패스 6036" class="cls-4" d="M1859.341,175.813a3.351,3.351,0,0,0-.474-.839,4.4,4.4,0,0,1,.443-.361.062.062,0,0,1,.1.013,4.592,4.592,0,0,1,.483.817.1.1,0,0,1-.036.126,1.024,1.024,0,0,0-.217.243h.256c.276,0,.552-.01.828,0a.228.228,0,0,0,.258-.175,6.745,6.745,0,0,0,.285-.927.233.233,0,0,1,.058-.13c.168.091.339.186.513.277.079.041.056.1.039.159a3.707,3.707,0,0,1-.213.581.419.419,0,0,0-.072.212h.206c.379,0,.759,0,1.138,0,.144,0,.146,0,.148.15s-.005.29,0,.434c.005.1-.037.128-.133.127-.49,0-.979,0-1.469,0-.255,0-.51,0-.766,0-.1,0-.13.036-.128.132.009.4-.045.317.309.321.51.006,1.021,0,1.531,0,.149,0,.151,0,.153.145s-.006.29,0,.434c.007.116-.044.139-.146.138-.531,0-1.062,0-1.594,0-.048,0-.1,0-.145,0-.08-.005-.105.03-.112.109-.029.353-.031.352.321.352h2.069c.188,0,.189,0,.19.194,0,.124,0,.248,0,.372,0,.155,0,.157-.162.158h-2.152c-.055,0-.11,0-.166,0s-.093.027-.1.1c-.039.4-.04.4.362.4h1.821c.245,0,.218-.01.219.227,0,.09,0,.179,0,.269,0,.233.015.216-.208.216h-1.953a.474.474,0,0,0,.11.248,2.168,2.168,0,0,0,.594.569,4.454,4.454,0,0,0,1.743.722c.061.011.121.026.2.043a2.276,2.276,0,0,1-.28.376c-.231.3-.234.3-.583.177a4.665,4.665,0,0,1-2-1.271,4.3,4.3,0,0,1-.31-.41c-.07.01-.087.07-.12.11a5.144,5.144,0,0,1-2.364,1.639.191.191,0,0,1-.261-.073c-.13-.184-.277-.357-.433-.556a5.066,5.066,0,0,0,2.075-.934,2.125,2.125,0,0,0,.43-.445.388.388,0,0,0,.1-.2h-1.97c-.2,0-.2.026-.2-.2q0-.155,0-.31c0-.22,0-.2.208-.2.648,0,1.3,0,1.946,0,.278,0,.258.037.259-.251,0-.028,0-.055,0-.083,0-.155,0-.157-.163-.158h-2.193c-.048,0-.1,0-.145,0s-.094-.017-.094-.08c0-.186,0-.372,0-.559,0-.064.036-.084.091-.084h2.256c.048,0,.1,0,.145,0,.066,0,.106-.024.1-.1,0-.014,0-.028,0-.041,0-.392.04-.32-.311-.322-.51,0-1.021,0-1.531,0-.159,0-.16,0-.163-.159,0-.124,0-.248,0-.372,0-.182,0-.183.178-.184.524,0,1.049,0,1.573,0,.277,0,.252.041.254-.253,0-.042,0-.083,0-.124a.07.07,0,0,0-.08-.073h-2.235c-.158,0-.164.013-.162-.154,0-.131,0-.262,0-.393,0-.161,0-.163.175-.163h1.672Z" transform="translate(-1835.116 -134.451)"/>
  <path id="패스_6037" data-name="패스 6037" class="cls-2" d="M1918.6,175.406c.376,0,.713,0,1.05,0a.175.175,0,0,0,.182-.128,4.642,4.642,0,0,0,.268-.8.507.507,0,0,1,.066-.187c.178.082.356.168.538.246.083.035.1.081.062.158-.074.171-.143.343-.214.515a.454.454,0,0,0-.07.2h1.5c.159,0,.161,0,.162.156s0,.29,0,.435c0,.067-.026.1-.1.1-.048,0-.1,0-.145,0q-1.076,0-2.152,0c-.052,0-.113-.019-.153.035a.829.829,0,0,0,0,.286c.046.043.1.026.158.026h1.49c.09,0,.179,0,.269,0,.071,0,.1.032.1.1,0,.165,0,.331,0,.5,0,.086-.046.1-.118.1-.173,0-.345,0-.517,0-.407,0-.814,0-1.221,0-.056,0-.138-.037-.162.044a.456.456,0,0,0,0,.265c.013.04.073.028.114.028h2.38c.166,0,.167,0,.168.171,0,.131,0,.262,0,.393,0,.1-.027.133-.129.132-.3-.006-.607,0-.911,0-.169,0-.173,0-.214.172s-.129.346-.191.541h.343c.358,0,.717,0,1.076,0,.144,0,.146,0,.148.15q0,.186,0,.373c0,.152,0,.152-.165.155h-5.794c-.282,0-.245.014-.247-.242,0-.1.005-.207,0-.31s.041-.128.135-.127c.4,0,.8,0,1.2,0a.55.55,0,0,0,.216-.018,1.936,1.936,0,0,0-.163-.605c-.032-.079-.09-.09-.165-.09-.29,0-.579,0-.869,0-.268,0-.236.029-.238-.248,0-.1,0-.193,0-.29,0-.154,0-.156.163-.157h2.235c.048,0,.1,0,.145,0,.08.006.114-.029.107-.108,0-.028,0-.055,0-.083,0-.145,0-.149-.148-.149-.476,0-.952,0-1.428,0-.135,0-.307.063-.4-.032s-.024-.251-.024-.38c0-.332-.044-.277.287-.279.517,0,1.034,0,1.552,0,.052,0,.132.028.147-.036a.45.45,0,0,0-.008-.283c-.022-.05-.087-.028-.133-.028-.359,0-.717,0-1.076,0-.386,0-.772,0-1.159,0-.146,0-.147,0-.15-.15q0-.2,0-.393c0-.145,0-.148.147-.148.49,0,.979,0,1.469,0h.219a3.468,3.468,0,0,0-.45-.77c.151-.114.3-.223.448-.337.056-.044.092-.038.135.017a4.308,4.308,0,0,1,.465.78.088.088,0,0,1-.035.123A.852.852,0,0,0,1918.6,175.406Zm1.793,2.771c-.245,0-.471,0-.7,0-.08,0-.11.03-.109.108,0,.164,0,.329,0,.493,0,.094.04.117.123.114a2.647,2.647,0,0,1,.308,0,.165.165,0,0,0,.188-.117A2.881,2.881,0,0,0,1920.394,178.177Zm-2.2,0c.041.128.073.238.113.346s.011.294.129.349a1.028,1.028,0,0,0,.387.017h.021c.077.007.112-.022.11-.1,0-.165,0-.33,0-.5,0-.074-.016-.116-.1-.114C1918.635,178.18,1918.422,178.177,1918.19,178.177Z" transform="translate(-1873.516 -134.234)"/>
  <path id="패스_6038" data-name="패스 6038" class="cls-5" d="M1892.9,155.191h1.7c.165,0,.167,0,.167.172q0,1.386,0,2.772c0,.174,0,.176-.183.176h-3.372c-.191,0-.177,0-.177-.183v-2.751c0-.2-.009-.186.194-.186Zm0,2.573h.434c.241,0,.483,0,.724,0,.1,0,.139-.033.126-.131a.346.346,0,0,1,0-.083c.009-.087-.024-.124-.116-.121-.159.005-.317,0-.476,0q-.9,0-1.8,0c-.053,0-.126-.026-.156.023a.375.375,0,0,0-.014.26c.013.074.09.045.139.046C1892.14,157.765,1892.519,157.764,1892.9,157.764Zm-.012-1.688h1.158c.047,0,.115.017.128-.038a.421.421,0,0,0-.005-.265c-.029-.064-.112-.033-.172-.033-.545,0-1.089,0-1.634,0h-.621c-.041,0-.1-.012-.113.03a.452.452,0,0,0-.005.265c.017.066.094.041.145.041C1892.142,156.077,1892.514,156.076,1892.886,156.076Zm.005.85h1.116c.175,0,.175,0,.174-.167s0-.157-.182-.157h-2.233c-.046,0-.11-.021-.135.025a.39.39,0,0,0-.012.242c.011.079.084.056.134.056C1892.133,156.927,1892.513,156.927,1892.892,156.927Z" transform="translate(-1857.151 -121.818)"/>
  <path id="패스_6039" data-name="패스 6039" class="cls-5" d="M1891.531,159.25a6.2,6.2,0,0,0,1.428.726,6.643,6.643,0,0,1-.388.636c-.034.054-.086.032-.131.016a3.8,3.8,0,0,1-.437-.184,6.679,6.679,0,0,1-1.128-.767l.357-.422a17.079,17.079,0,0,0-2.194-.024,1.5,1.5,0,0,0,.206.347c.075.124.079.126-.039.214a2.578,2.578,0,0,1-.259.171,5.962,5.962,0,0,1-1.321.579c-.179.051-.18.05-.269-.115s-.183-.339-.287-.531a4.9,4.9,0,0,0,1.655-.639.157.157,0,0,0-.144-.042c-.345,0-.69,0-1.034,0-.159,0-.162,0-.162-.159q0-1.872,0-3.744c0-.146.007-.147.152-.146a1.467,1.467,0,0,1,.364.073.148.148,0,0,1,.121.187,6.939,6.939,0,0,0-.05,1.381c-.011.531,0,1.062,0,1.593,0,.2,0,.2.2.2h4.739c.287,0,.289,0,.286.28,0,.1.043.233-.021.3s-.21.03-.318.031c-.393,0-.786,0-1.18,0A.211.211,0,0,0,1891.531,159.25Z" transform="translate(-1854.585 -121.811)"/>
  <path id="패스_6040" data-name="패스 6040" class="cls-3" d="M1894.056,149.182c.134.116.257.226.385.33a.139.139,0,0,1,.047.18,1.174,1.174,0,0,1-1.059.791c-1.117,0-2.234,0-3.352,0a2.134,2.134,0,0,1-.369-.04.458.458,0,0,1-.425-.478c-.009-.5,0-.993-.006-1.489,0-.095.042-.115.125-.115a1.544,1.544,0,0,1,.408.059c.1.028.128.078.1.186-.015.06-.042.117-.052.178-.019.12,0,.147.128.146.165,0,.331-.006.5-.021a21.688,21.688,0,0,0,2.619-.361c.206-.044.153-.058.222.133.043.116.076.236.111.355s.037.132-.1.165c-.295.073-.593.122-.893.169-.764.117-1.535.165-2.305.213-.062,0-.124.009-.186.016s-.1.012-.1.08.006.131.086.142a2.341,2.341,0,0,0,.329.031q1.355,0,2.71,0a2.6,2.6,0,0,0,.35-.028.814.814,0,0,0,.548-.372C1893.942,149.365,1893.994,149.277,1894.056,149.182Z" transform="translate(-1856.017 -117.372)"/>
  <path id="패스_6041" data-name="패스 6041" class="cls-4" d="M1921.247,190.265h1.843c.156,0,.159,0,.159.159q0,.869,0,1.738c0,.151,0,.153-.145.156-.124,0-.249,0-.373,0-.079,0-.14-.012-.128-.111s-.041-.127-.134-.127c-.821,0-1.642,0-2.463,0-.114,0-.137.042-.137.144,0,.148-.008.149-.146.152s-.248,0-.372,0c-.091,0-.119-.035-.119-.122,0-.621,0-1.242,0-1.862,0-.125.061-.129.155-.129C1920.005,190.266,1920.626,190.265,1921.247,190.265Zm-.019,1.151h1.032c.37,0,.37,0,.344-.37a.128.128,0,0,1,0-.02c0-.07-.03-.1-.1-.1-.048,0-.1,0-.145,0h-2.167c-.331,0-.331,0-.323.326,0,.158,0,.161.16.162C1920.43,191.417,1920.829,191.416,1921.229,191.416Z" transform="translate(-1875.486 -144.614)"/>
  <path id="패스_6042" data-name="패스 6042" class="cls-5" d="M1888.885,83.757a.475.475,0,0,0,.23.24c.048.028.095.056.141.086a.719.719,0,0,1,.214,1.072.337.337,0,0,0-.074.206c0,.441,0,.883,0,1.324,0,.143,0,.146.15.146.428,0,.855,0,1.283,0a.365.365,0,0,0,.225-.08.726.726,0,0,1,1.087.223c.084.132.141.288.318.361a.781.781,0,0,0-.313.37.778.778,0,0,1-.4.343.674.674,0,0,1-.683-.106.4.4,0,0,0-.265-.084c-.421,0-.841,0-1.262,0-.106,0-.145.029-.143.139,0,.435,0,.869,0,1.3a.272.272,0,0,0,.064.189.732.732,0,0,1-.231,1.127c-.067.035-.129.079-.194.119a.576.576,0,0,0-.148.171.51.51,0,0,0-.208-.207,2.607,2.607,0,0,1-.228-.142.709.709,0,0,1-.184-1,.545.545,0,0,0,.1-.345c0-.4,0-.8,0-1.2,0-.145,0-.149-.149-.149-.428,0-.856,0-1.283,0a.324.324,0,0,0-.207.07.725.725,0,0,1-1.128-.228c-.04-.064-.082-.128-.119-.194s-.11-.1-.167-.171a.4.4,0,0,0,.2-.188c.031-.054.065-.106.1-.16a.728.728,0,0,1,1.086-.228.31.31,0,0,0,.208.072c.434,0,.869,0,1.3,0,.155,0,.157,0,.158-.162,0-.428,0-.855,0-1.283a.328.328,0,0,0-.072-.206.725.725,0,0,1,.221-1.115A.851.851,0,0,0,1888.885,83.757Z" transform="translate(-1853.447 -75.306)"/>
</svg>
