<svg id="ls-3" xmlns="http://www.w3.org/2000/svg" width="70" height="70" viewBox="0 0 70 70">
  <defs>
    <style>
      .cls-1 {
        fill: #7d0119;
      }

      .cls-2 {
        fill: #d7c9b0;
      }
    </style>
  </defs>
  <g id="그룹_110" data-name="그룹 110" transform="translate(0)">
    <g id="그룹_109" data-name="그룹 109">
      <g id="그룹_108" data-name="그룹 108">
        <path id="패스_5580" data-name="패스 5580" class="cls-1" d="M158.908,808.241c.043-.126.658-1.959.658-1.959l-.8-.268s-.612,1.835-.655,1.96c-.117-.037-1.475-.492-1.59-.531.133-.435.8-2.4.806-2.42l.026-.067-.821-.275-1.192,3.553.068.022,6.064,2.022,1.318-3.933-.86-.284s-.917,2.741-.96,2.87l-2.061-.689Z" transform="translate(-154.21 -782.843)"/>
        <path id="패스_5581" data-name="패스 5581" class="cls-1" d="M334.548,861.688l.3-.983-5.421-4.423-.3.951,2.03,1.553c-.026.086-.653,2.131-.686,2.219-.092,0-2.556.155-2.556.155l-.364,1.181,6.973-.6.016-.048m-3.147-.776c.052-.165.441-1.413.489-1.582.14.112,1.545,1.235,1.781,1.426-.3.018-2.092.144-2.271.156Z" transform="translate(-266.233 -816.399)"/>
        <path id="패스_5582" data-name="패스 5582" class="cls-1" d="M253.031,923.752l.171,6.471,1.116-.03-.178-6.471h-.067l-1.042.029Z" transform="translate(-217.725 -860.258)"/>
        <path id="패스_5583" data-name="패스 5583" class="cls-1" d="M334.711,805.717l-6.094,2.185.378,1.051,6.092-2.195-.023-.06-.353-.982Z" transform="translate(-266.917 -783.51)"/>
        <path id="패스_5584" data-name="패스 5584" class="cls-1" d="M340.156,844.475l-6.467-.4-.068,1.112,6.466.39,0-.068.065-1.038Z" transform="translate(-270.155 -808.444)"/>
        <path id="패스_5585" data-name="패스 5585" class="cls-1" d="M153.6,855.472l6.415-1.029-.175-1.1-6.41,1.037.011.065.16,1.027Z" transform="translate(-152.975 -814.468)"/>
        <path id="패스_5586" data-name="패스 5586" class="cls-1" d="M311.956,898.952c-.008,0-.923.288-.923.288l-.786.243c-.592.171-1.006.133-1.233-.1a.658.658,0,0,1-.152-.708,1.6,1.6,0,0,1,.49-.676,2.684,2.684,0,0,1,1.336-.693l.143-.012-.784-.832-.047.024a4.683,4.683,0,0,0-1.206.846,3.276,3.276,0,0,0-.949,1.441,1.48,1.48,0,0,0,.344,1.528,1.725,1.725,0,0,0,1.669.458c.009,0,.341-.1.341-.1l1.372-.43a1.228,1.228,0,0,1,1.277.157.791.791,0,0,1,.148.8,1.644,1.644,0,0,1-.459.764,3.909,3.909,0,0,1-1.764.954l-.146.036.716.777.226-.1a4.972,4.972,0,0,0,1.466-.984,3.127,3.127,0,0,0,1.013-1.777,1.788,1.788,0,0,0-.511-1.536,1.613,1.613,0,0,0-1.579-.368Z" transform="translate(-253.422 -842.613)"/>
        <path id="패스_5587" data-name="패스 5587" class="cls-1" d="M310.63,771.487c0-.008-.358-.9-.358-.9l-.3-.765c-.21-.578-.206-.992.015-1.236a.664.664,0,0,1,.695-.2,1.521,1.521,0,0,1,.711.438,2.667,2.667,0,0,1,.789,1.277l.024.144.768-.846-.024-.046a4.7,4.7,0,0,0-.93-1.135,3.3,3.3,0,0,0-1.511-.841,1.473,1.473,0,0,0-1.5.458,1.716,1.716,0,0,0-.337,1.694l.134.332.531,1.338a1.22,1.22,0,0,1-.063,1.284.786.786,0,0,1-.792.209,1.654,1.654,0,0,1-.795-.4A3.9,3.9,0,0,1,306.6,770.6l-.043-.14-.726.767.113.218a5.011,5.011,0,0,0,1.093,1.391,3.106,3.106,0,0,0,1.847.875,1.789,1.789,0,0,0,1.5-.62,1.618,1.618,0,0,0,.251-1.6Z" transform="translate(-252.17 -758.477)"/>
        <path id="패스_5588" data-name="패스 5588" class="cls-1" d="M232.811,927.013s-.824-1.5-1.032-1.879a2.421,2.421,0,0,0,.989-.4,1.624,1.624,0,0,0,.678-1.036,1.434,1.434,0,0,0-.326-1.232,2.332,2.332,0,0,0-1.417-.716l-2.041-.357-.073-.014-1.116,6.35,1.131.2.019-.1c.012-.221.061-.531.2-1.3,0,0,.712-4.032.737-4.17a3.12,3.12,0,0,1,1.567.518.768.768,0,0,1,.2.736c-.13.7-.714,1.032-1.8,1.006l-.12-.006,1.721,3.264a1.391,1.391,0,0,0,1.062.7l.91.164-.168-.162a6.67,6.67,0,0,1-1.12-1.566Z" transform="translate(-201.776 -858.741)"/>
        <path id="패스_5589" data-name="패스 5589" class="cls-1" d="M155.551,829.278a2.1,2.1,0,0,0-.582.952,1.352,1.352,0,0,0-1.2-.9,1.232,1.232,0,0,0-1.1.515,2.608,2.608,0,0,0-.454,1.494l-.083,1.92,6.457.274.053-1.23c.022-.54.03-.9.019-1.1a3.245,3.245,0,0,0-.23-1.09,2.214,2.214,0,0,0-.677-.882,1.712,1.712,0,0,0-1.01-.384A1.614,1.614,0,0,0,155.551,829.278Zm-2.558,2.907c0-.029.037-.538.037-.538a1.267,1.267,0,0,1,.226-.832.709.709,0,0,1,.623-.249.743.743,0,0,1,.711.42A2.489,2.489,0,0,1,154.7,832s-.011.223-.013.254C154.659,832.256,153.023,832.188,152.993,832.185Zm4.6-1.627a1.612,1.612,0,0,1,.179,1.052s-.03.7-.039.778l-2.246-.1c0-.029.023-.608.023-.608a2.014,2.014,0,0,1,.309-1.165,1.016,1.016,0,0,1,.914-.467A1.111,1.111,0,0,1,157.595,830.558Z" transform="translate(-152.142 -798.552)"/>
        <path id="패스_5590" data-name="패스 5590" class="cls-1" d="M264.52,921.129l.014.068.165.76,1.762-.39c.031.137,1.226,5.486,1.226,5.486l1.089-.246s-1.193-5.347-1.222-5.484c.128-.026,1.8-.4,1.8-.4l-.186-.833-4.644,1.035Z" transform="translate(-225.211 -857.91)"/>
        <path id="패스_5591" data-name="패스 5591" class="cls-1" d="M325.7,783.26l-.06.037-.667.4s.861,1.431.93,1.543l-4.815,2.906.575.956,4.818-2.907c.066.114.947,1.579.947,1.579l.732-.44L325.7,783.26Z" transform="translate(-262.047 -768.915)"/>
        <path id="패스_5592" data-name="패스 5592" class="cls-1" d="M339.092,820.247l-.069.007-.773.092.214,1.789-5.586.67.132,1.107,5.587-.668c.017.13.217,1.828.217,1.828l.848-.1-.571-4.721Z" transform="translate(-269.675 -792.963)"/>
        <path id="패스_5593" data-name="패스 5593" class="cls-1" d="M178.72,766.719l.05.048.541.561s1.2-1.161,1.293-1.25c.1.1,3.914,4.028,3.914,4.028l.8-.779-3.912-4.03c.1-.09,1.324-1.279,1.324-1.279l-.595-.61-3.418,3.312Z" transform="translate(-169.342 -755.94)"/>
        <path id="패스_5594" data-name="패스 5594" class="cls-1" d="M160.42,871.034l6.035-2.36-1.518-3.871-.839.342,1.1,2.815-5.2,2.033Z" transform="translate(-157.233 -821.942)"/>
        <g id="그룹_103" data-name="그룹 103" transform="translate(11.906 54.848)">
          <path id="패스_5595" data-name="패스 5595" class="cls-1" d="M192.294,902.469l-4.681,2.713c.127-.348,1.856-5.066,1.856-5.066l-.982-.817-2.3,6.53.779.645,6.082-3.379-.08-.066Z" transform="translate(-186.19 -899.3)"/>
        </g>
        <path id="패스_5596" data-name="패스 5596" class="cls-1" d="M171.646,785.352s-1.71.162-2.138.2a2.455,2.455,0,0,0,.026-1.066,1.617,1.617,0,0,0-.686-1.032,1.439,1.439,0,0,0-1.257-.192,2.339,2.339,0,0,0-1.221,1.02l-1.137,1.728-.038.061,5.383,3.547.632-.961-.083-.055a12.532,12.532,0,0,1-1.115-.694l-3.534-2.331c.571-.886.912-1.16,1.1-1.231a.772.772,0,0,1,.753.1c.595.4.665,1.066.208,2.047l-.052.112,3.68-.283a1.41,1.41,0,0,0,1.063-.7l.506-.77-.212.089a6.58,6.58,0,0,1-1.88.406Z" transform="translate(-160.59 -768.874)"/>
        <path id="패스_5597" data-name="패스 5597" class="cls-1" d="M231.559,745.424c-.008,0-.928-.268-.928-.268l-.794-.227c-.587-.188-.911-.444-.969-.769a.655.655,0,0,1,.265-.672,1.539,1.539,0,0,1,.781-.3,2.682,2.682,0,0,1,1.493.159l.128.066-.2-1.125-.05-.009a4.882,4.882,0,0,0-1.474.044,3.3,3.3,0,0,0-1.584.679,1.481,1.481,0,0,0-.557,1.464,1.721,1.721,0,0,0,1.14,1.3c.006,0,.342.1.342.1l1.381.4c.584.185.913.466.977.833a.78.78,0,0,1-.319.755,1.672,1.672,0,0,1-.8.384,3.873,3.873,0,0,1-2-.177l-.138-.047.164,1.039.242.047a4.958,4.958,0,0,0,1.767-.016,3.123,3.123,0,0,0,1.824-.922,1.809,1.809,0,0,0,.425-1.564,1.615,1.615,0,0,0-1.116-1.178Z" transform="translate(-201.236 -742.245)"/>
        <g id="그룹_104" data-name="그룹 104" transform="translate(18.41 3.255)">
          <path id="패스_5598" data-name="패스 5598" class="cls-1" d="M205.7,751.492l-.921.461.565,6.974.891-.448s-.278-2.445-.29-2.539c.086-.041,1.992-1,2.078-1.044.067.064,1.884,1.732,1.884,1.732l1.106-.555-5.271-4.6-.043.02m1.617,2.8c-.155.077-1.321.663-1.479.743-.017-.176-.179-1.969-.207-2.268.225.2,1.554,1.4,1.686,1.525Z" transform="translate(-204.783 -751.472)"/>
        </g>
        <g id="그룹_105" data-name="그룹 105" transform="translate(47.318 2.761)">
          <path id="패스_5599" data-name="패스 5599" class="cls-1" d="M294.368,752.518l-.679-.375-1.918,3.486c-.575,1.037-1.126,1.467-2.4.762l.011,0c-.849-.467-.983-1.242-.4-2.3l1.93-3.479-.981-.541L288,753.552a5.9,5.9,0,0,0-.439.913,1.817,1.817,0,0,0-.055,1.031,2.327,2.327,0,0,0,1.234,1.477l.475.261a2.335,2.335,0,0,0,1.909.256,1.842,1.842,0,0,0,.843-.6,6.03,6.03,0,0,0,.543-.858l1.921-3.485-.062-.034Z" transform="translate(-287.456 -750.071)"/>
        </g>
        <g id="그룹_106" data-name="그룹 106" transform="translate(18.362 59.934)">
          <path id="패스_5600" data-name="패스 5600" class="cls-1" d="M206.967,917.258c.12.055,1.873.881,1.873.881l.361-.764s-1.753-.823-1.874-.878c.055-.115.665-1.406.717-1.517.417.185,2.289,1.079,2.311,1.088l.064.032.37-.783-3.393-1.6-.029.064-2.721,5.779,3.757,1.77.382-.821s-2.618-1.229-2.74-1.287c.055-.118.87-1.849.923-1.964Z" transform="translate(-204.645 -913.717)"/>
        </g>
        <g id="그룹_107" data-name="그룹 107" transform="translate(48.386 59.683)">
          <path id="패스_5601" data-name="패스 5601" class="cls-1" d="M291.4,913.027l-.905.491.777,6.951.874-.474-.364-2.531c.082-.043,1.963-1.061,2.042-1.106l1.94,1.677,1.087-.589L291.447,913l-.045.023m1.7,2.754c-.155.078-1.3.7-1.455.786-.023-.175-.24-1.962-.278-2.257.231.2,1.6,1.353,1.733,1.471Z" transform="translate(-290.497 -913.004)"/>
        </g>
      </g>
    </g>
  </g>
  <g id="그룹_114" data-name="그룹 114" transform="translate(20.114 16.484)">
    <path id="패스_5602" data-name="패스 5602" class="cls-1" d="M240.258,811.89V789.868h-30.3V811.9c0,.322-.022,8.064,5.5,12.653l-.013-.01a39.816,39.816,0,0,0,9.429,5.977l.1.042h.276l.106-.05a52.687,52.687,0,0,0,9.483-5.954C240.368,819.963,240.265,812.218,240.258,811.89Z" transform="translate(-209.963 -789.868)"/>
    <g id="그룹_111" data-name="그룹 111" transform="translate(1.05 1.122)">
      <path id="패스_5603" data-name="패스 5603" class="cls-2" d="M213.118,793.047v.215h28.138v-.215Z" transform="translate(-213.054 -793.047)"/>
      <path id="패스_5604" data-name="패스 5604" class="cls-2" d="M213.118,810.1v.215h28.138V810.1Z" transform="translate(-213.054 -804.086)"/>
      <path id="패스_5605" data-name="패스 5605" class="cls-2" d="M212.937,820.289v.215h28.14v-.215Z" transform="translate(-212.937 -810.677)"/>
      <path id="패스_5606" data-name="패스 5606" class="cls-2" d="M221.334,799.9a4.376,4.376,0,0,1-.6-.544l-1.5-1.657c.05-.061,1.512-1.847,1.512-1.848l.086-.091H220.1l-1.643,2.03v-2.03h-.743v4.288h.743v-2.2l1.716,1.908a.9.9,0,0,0,.755.288h.613l-.146-.1-.057-.043Z" transform="translate(-216.026 -794.805)"/>
      <path id="패스_5607" data-name="패스 5607" class="cls-2" d="M233.627,795.4a2.318,2.318,0,0,0-1.672.653,2.138,2.138,0,0,0-.687,1.594,2.168,2.168,0,0,0,.68,1.634,2.257,2.257,0,0,0,1.618.633,2.283,2.283,0,0,0,1.637-.656,2.206,2.206,0,0,0,.681-1.642,2.13,2.13,0,0,0-.632-1.543,2.217,2.217,0,0,0-1.625-.673m-.031,3.955a1.378,1.378,0,0,1-1.118-.556,1.878,1.878,0,0,1-.416-1.208,1.689,1.689,0,0,1,.416-1.174,1.429,1.429,0,0,1,1.105-.456,1.355,1.355,0,0,1,1.109.549,1.955,1.955,0,0,1,.4,1.233,1.674,1.674,0,0,1-.4,1.155,1.416,1.416,0,0,1-1.09.457Z" transform="translate(-224.8 -794.572)"/>
      <path id="패스_5608" data-name="패스 5608" class="cls-2" d="M266,797.979h1.38v-.561H266v-1.111c.3-.007,1.688,0,1.7,0h.046v-.577l-2.5,0v.048l0,4.252h2.757l.007-.6-2.018,0v-1.448Z" transform="translate(-246.794 -794.783)"/>
      <path id="패스_5609" data-name="패스 5609" class="cls-2" d="M279.9,795.729h-.689l-1.755,4.3h.664s.57-1.518.591-1.578h1.55c.021.059.6,1.578.6,1.578h.824l-1.756-4.3H279.9m.122,2.153h-1.1c.043-.111.483-1.224.558-1.412.071.188.5,1.3.545,1.412Z" transform="translate(-254.692 -794.783)"/>
      <path id="패스_5610" data-name="패스 5610" class="cls-2" d="M252.847,799.059l-.894-1.116a1.623,1.623,0,0,0,.6-.376,1.077,1.077,0,0,0,.324-.76.957.957,0,0,0-.357-.77,1.55,1.55,0,0,0-1.013-.305h-1.429v4.3h.767v-.067a7.959,7.959,0,0,1-.021-.876v-2.82a2.073,2.073,0,0,1,1.09.158.521.521,0,0,1,.218.461c0,.475-.351.758-1.064.865l-.08.012,1.508,1.929a.938.938,0,0,0,.779.337h.614l-.127-.086a4.359,4.359,0,0,1-.917-.885Z" transform="translate(-236.977 -794.785)"/>
      <path id="패스_5611" data-name="패스 5611" class="cls-2" d="M249.6,813.88h.659v-.268H249.6v-.53c.143,0,.8,0,.813,0h.021v-.275h-1.19v2.049h1.31l.008-.289H249.6v-.689Z" transform="translate(-236.433 -805.835)"/>
      <path id="패스_5612" data-name="패스 5612" class="cls-2" d="M219.426,812.811h-.247l0,1.263c0,.376-.088.582-.551.582h-.054c-.308,0-.464-.2-.464-.582l0-1.263h-.356v1.264a1.816,1.816,0,0,0,.019.321.6.6,0,0,0,.143.3.743.743,0,0,0,.57.22h.23a.741.741,0,0,0,.57-.22.6.6,0,0,0,.143-.3,1.88,1.88,0,0,0,.018-.321v-1.264Z" transform="translate(-216.056 -805.837)"/>
      <path id="패스_5613" data-name="패스 5613" class="cls-2" d="M228.5,812.811v.023s0,1.363,0,1.482c-.077-.1-1.187-1.505-1.187-1.505H227v2.052h.268s0-1.414,0-1.534c.075.1,1.2,1.533,1.2,1.533h.3v-2.052H228.5Z" transform="translate(-222.04 -805.837)"/>
      <path id="패스_5614" data-name="패스 5614" class="cls-2" d="M236.3,812.811v2.052h.353l0-2.052H236.3Z" transform="translate(-228.059 -805.838)"/>
      <path id="패스_5615" data-name="패스 5615" class="cls-2" d="M272.7,814.864h.354v-2.052h-.356v1.6l0,.45" transform="translate(-251.61 -805.838)"/>
      <path id="패스_5616" data-name="패스 5616" class="cls-2" d="M242.183,812.811s-.548,1.5-.588,1.609c-.038-.11-.577-1.609-.577-1.609h-.4l.765,2.054h.321l.794-2.054h-.312Z" transform="translate(-230.849 -805.837)"/>
      <path id="패스_5617" data-name="패스 5617" class="cls-2" d="M265.617,813.725s-.276-.136-.276-.136l-.235-.116c-.173-.09-.261-.189-.261-.293a.21.21,0,0,1,.121-.2.49.49,0,0,1,.26-.049.852.852,0,0,1,.459.133l.036.029v-.365l-.014-.005a1.585,1.585,0,0,0-.463-.068,1.049,1.049,0,0,0-.533.125.467.467,0,0,0-.255.428.546.546,0,0,0,.283.469l.1.05.41.2c.172.091.259.2.259.315a.244.244,0,0,1-.141.218.5.5,0,0,1-.272.076,1.234,1.234,0,0,1-.616-.164l-.04-.024.053.358.013,0a1.573,1.573,0,0,0,.555.094.992.992,0,0,0,.621-.188.572.572,0,0,0,.219-.466.512.512,0,0,0-.284-.429Z" transform="translate(-246.268 -805.739)"/>
      <path id="패스_5618" data-name="패스 5618" class="cls-2" d="M277.516,812.79v.269h.573v1.784h.354s0-1.74,0-1.784h.586v-.27Z" transform="translate(-254.73 -805.824)"/>
      <path id="패스_5619" data-name="패스 5619" class="cls-2" d="M285.574,812.793l-.559.863c-.036-.055-.551-.866-.551-.866h-.408s.731,1.149.74,1.161,0,.894,0,.894h.355s0-.88,0-.893l.769-1.158Z" transform="translate(-258.962 -805.824)"/>
      <path id="패스_5620" data-name="패스 5620" class="cls-2" d="M258.106,814.394l-.426-.532a.775.775,0,0,0,.288-.177.52.52,0,0,0,.154-.363.458.458,0,0,0-.169-.368.741.741,0,0,0-.482-.145h-.681v2.049h.364v-.032a3.981,3.981,0,0,1-.009-.418v-1.344a.966.966,0,0,1,.518.077.244.244,0,0,1,.1.219c0,.226-.167.362-.506.413l-.039,0,.718.919a.446.446,0,0,0,.369.162h.3l-.062-.042a2.071,2.071,0,0,1-.436-.421Z" transform="translate(-241.317 -805.836)"/>
    </g>
    <g id="그룹_112" data-name="그룹 112" transform="translate(1.054 12.091)">
      <path id="패스_5621" data-name="패스 5621" class="cls-2" d="M241.135,834.078v.048c0,.65-.115,7.711-5.029,11.8a52.017,52.017,0,0,1-9.067,5.723,39.663,39.663,0,0,1-8.962-5.714l-.012-.009c-5.058-4.207-5.116-11.563-5.116-11.833v-9.954h28.186Z" transform="translate(-212.949 -824.136)"/>
    </g>
    <g id="그룹_113" data-name="그룹 113" transform="translate(2.94 14.302)">
      <path id="패스_5622" data-name="패스 5622" class="cls-1" d="M246.02,889.369h.387a.033.033,0,0,0,.035-.048,3.547,3.547,0,0,1-.046-1.4s.015-.048-.041-.048h-.382c-.052,0-.033.041-.033.041a4.209,4.209,0,0,1,.047,1.405s-.024.052.033.052Z" transform="translate(-236.184 -867.593)"/>
      <path id="패스_5623" data-name="패스 5623" class="cls-1" d="M249.129,887.748c-.616.06-.578.781-.578.781a.877.877,0,0,0,.715.776,1.133,1.133,0,0,1-.68.65c-.117.046-.031.079-.031.079a.657.657,0,0,0,.363-.037,1.6,1.6,0,0,0,.928-1.354c.019-.966-.718-.9-.718-.9m.22,1.328c-.294.008-.366-.45-.366-.45-.075-.5.121-.532.121-.532.206-.066.3.363.3.363.1.494-.053.619-.053.619Z" transform="translate(-237.859 -867.514)"/>
      <path id="패스_5624" data-name="패스 5624" class="cls-1" d="M254.461,888.32a.671.671,0,0,0-.644-.593s-.556-.014-.581.756c0,0-.021.812.682.777,0,0,.688-.043.544-.94m-.534.682c-.267.1-.3-.445-.3-.445-.029-.519.183-.569.183-.569.213-.054.273.327.273.327.1.59-.16.687-.16.687Z" transform="translate(-240.908 -867.501)"/>
      <path id="패스_5625" data-name="패스 5625" class="cls-1" d="M257.025,889.426a.608.608,0,0,0,.751-.3c.189-.6-.556-.625-.556-.625l.12-.768a3.438,3.438,0,0,0,.949-.064s.046-.031.02.081a.329.329,0,0,1-.286.274l-.368.03-.035.217a.612.612,0,0,1,.624.673.751.751,0,0,1-.644.661,1.164,1.164,0,0,1-.628-.073s-.05-.025-.023-.065a.07.07,0,0,1,.075-.039Z" transform="translate(-243.306 -867.458)"/>
      <path id="패스_5626" data-name="패스 5626" class="cls-1" d="M250.707,851.856c.048-.056.108-.016.159,0s.049.107.076.155.108.128.117.157a1.637,1.637,0,0,1-.156,1.06.226.226,0,0,1-.166.125c-.066.006-.087-.09-.11-.125-.1-.139-.024-.469,0-.624.026-.2-.129-.52-.03-.664l.109-.084Z" transform="translate(-239.179 -844.267)"/>
      <path id="패스_5627" data-name="패스 5627" class="cls-1" d="M237.515,852.036c.083-.025.2.017.255,0l.113-.046a.557.557,0,0,1,.393-.047c.066.007.263.092.327.095.1.012.6.065,1.125.141,0,0,.281-.037.208-.116.046.051-.007-.043-.115-.08l-.037-.04s-.091-.08.079-.136a.531.531,0,0,0,.145-.063c.068-.073-.032-.151-.032-.151-.248-.084-.528.076-.9.037a2.564,2.564,0,0,0-.7-.078,2.457,2.457,0,0,0-.9.363s-.094.164.039.121Z" transform="translate(-230.688 -844.083)"/>
      <path id="패스_5628" data-name="패스 5628" class="cls-1" d="M244.015,847.175c.254-.016.266.248.272.221-.029.188-.491.2-.6.351-.323.42-.189.821-.951.864,0,0-.153-.035-.094-.1a2.258,2.258,0,0,1,.3-.141c.1-.056.091-.215.156-.313.014-.024.1-.054.121-.074.213-.29.237-.582.615-.754a1.469,1.469,0,0,1,.181-.055Z" transform="translate(-234.042 -841.256)"/>
      <path id="패스_5629" data-name="패스 5629" class="cls-1" d="M252.473,843.936a.2.2,0,0,1,.23.052,6.429,6.429,0,0,1,.324.758,3.1,3.1,0,0,1,0,.983c-.094.25-.326.444-.275.888a2.036,2.036,0,0,0,.253.693c.012.037.128.26.134.306a2.713,2.713,0,0,1-.109.742c-.059.482.135.92.058,1.38a.74.74,0,0,1-.2.421l-.088.073c-.023.048-.066.064-.11.1l-.053.054c-.081.02-.09.068-.123.071-.207.046-.249-.074-.236-.047-.21-.59.141-1.278-.038-1.847-.041-.131-.2-.261-.216-.4-.072-.51.406-.779.4-1.122,0-.244-.322-.563-.395-.8a2.165,2.165,0,0,1-.028-1.177c.03-.086.139-.23.171-.344.059-.22.149-.4.18-.548a.747.747,0,0,1,.063-.151.4.4,0,0,1,.066-.076Z" transform="translate(-240.058 -839.148)"/>
      <path id="패스_5630" data-name="패스 5630" class="cls-1" d="M267.045,840.51c.346-.04.5.1.339.39l-.068.064a1.287,1.287,0,0,0-.138.147,2.176,2.176,0,0,0-.452.355c-.043.052-.079.186-.133.23a2.377,2.377,0,0,1-.5.223,1.166,1.166,0,0,1-1.048-.59c-.053-.207,0-.408.09-.454a2.374,2.374,0,0,1,.639-.048,2.881,2.881,0,0,0,.771-.091c.15-.048.321-.2.5-.224Z" transform="translate(-248.537 -836.939)"/>
      <path id="패스_5631" data-name="패스 5631" class="cls-1" d="M265.518,839.048a.69.69,0,0,0,.371.039c.124-.031.354-.136.47-.156.071-.017.169.018.238,0,.191-.059.541-.432.121-.472a3.66,3.66,0,0,0-.75.2,1.43,1.43,0,0,0-.349.121c-.031.018-.194.152-.175.129,0,0-.107.09.074.141Z" transform="translate(-248.788 -835.616)"/>
      <path id="패스_5632" data-name="패스 5632" class="cls-1" d="M254.085,839.395c-.124-.017-.124-.222-.432-.156-.216.045-.274.362-.589.354l-.156-.076c-.136-.033-.234.015-.354-.044-.552-.258.429-1.583.746-1.565a1.053,1.053,0,0,1,.2.077c.1.086.1.456.191.59.071.093.181.085.277.156a1.1,1.1,0,0,1,.312.472s.051.226-.195.193Z" transform="translate(-240.359 -835.259)"/>
      <path id="패스_5633" data-name="패스 5633" class="cls-1" d="M271.665,872.46c.006-.007.006-.008,0,0Z" transform="translate(-252.835 -857.617)"/>
      <path id="패스_5634" data-name="패스 5634" class="cls-1" d="M284.146,839.438Z" transform="translate(-260.912 -836.246)"/>
      <path id="패스_5635" data-name="패스 5635" class="cls-1" d="M271.663,872.47h0Z" transform="translate(-252.832 -857.627)"/>
      <path id="패스_5636" data-name="패스 5636" class="cls-1" d="M284.146,839.446v.008h0a.019.019,0,0,1,0-.009Z" transform="translate(-260.912 -836.255)"/>
      <path id="패스_5637" data-name="패스 5637" class="cls-1" d="M270.106,838.353l.008-.02c-.009.02-.012.024-.008.02Z" transform="translate(-251.825 -835.535)"/>
      <path id="패스_5638" data-name="패스 5638" class="cls-1" d="M263.329,857.356h-.007c.007,0,.009,0,.007,0Z" transform="translate(-247.435 -847.845)"/>
      <path id="패스_5639" data-name="패스 5639" class="cls-1" d="M242.605,842.387c-.213.12-.681.3-.778.511a2.439,2.439,0,0,0-.1.334c-.006.013-.064.037-.082.076a2.426,2.426,0,0,0-.626.039,5.959,5.959,0,0,1-.549.237c-.349.06-.615-.1-.942-.04-.145.026-.239.177-.358.237a.674.674,0,0,0-.223.121l-.072.084a1.394,1.394,0,0,1-.07.148.77.77,0,0,0-.117.331,2.2,2.2,0,0,1-.14.489c-.029.054-.176.174-.2.224-.011.033-.045.066,0,.116-.051-.055-.041.055.242.069a4.74,4.74,0,0,0,.988-.2l.325-.175a4.208,4.208,0,0,0,.37-.306c.237-.293.87-1.362,1.362-1.082l.089.062a1.3,1.3,0,0,1-.12.891l-.111.133c-.089.029-.15.256-.162.362a1.4,1.4,0,0,0,.041.416,1.2,1.2,0,0,1-.079.71.388.388,0,0,0-.079.271c.023.154.242.267.273.395.019.064.075.073,0,.2a3.5,3.5,0,0,1-.273.235c-.072.072-.01.185.037.229.136.123.249.138.353.279.151.193.142.36.472.392.26.024.627.038.472-.315l-.078-.132a2.487,2.487,0,0,1-.276-.688c-.031-.321.228-.484.119-.744-.087-.2-.479-.176-.512-.436a2.828,2.828,0,0,1,.158-.589,2.183,2.183,0,0,1,.041-.469c.039-.116.211-.246.23-.39.037-.258-.164-.422-.077-.706.043-.146.271-.13.356-.236.108-.146.049-.346.115-.55.007-.023.062-.145.074-.167-.006-.009.045-.262.045-.262-.033-.159-.132-.094-.145-.1m-2.485,2.07c-.22.05-.239-.418-.768-.236a1.134,1.134,0,0,0-.188.169c-.062.139-.028.5-.1.53,0,0-.2.05-.165-.209a.81.81,0,0,1,.351-.663.541.541,0,0,1,.146-.09,1.051,1.051,0,0,1,.792.165c.071.1-.08.337-.07.335Z" transform="translate(-231.26 -838.153)"/>
      <path id="패스_5640" data-name="패스 5640" class="cls-1" d="M241.53,833.6c-.037-.192-.558-.178-.768-.434-.078-.1-.02-.158,0-.235.06-.223.536-.09.647-.289a.637.637,0,0,0,.032-.363c-.3-.366-.929-.192-1.374-.369-.215-.088-.481-.265-.707-.35-.283-.108-.5-.124-.784-.236-.065-.028-.191-.119-.257-.148-.315-.126-.565-.152-.879-.285-.037-.014-.133-.067-.174-.085-.126-.054-.165-.062-.3-.111a4.453,4.453,0,0,0-1.806-.286,4.14,4.14,0,0,0-1.138.095c-.164.041-.394.183-.548.232a2.54,2.54,0,0,0-.3.094,2.611,2.611,0,0,1-.444.18c-.541.121-1.26-.012-1.807.079-.474.076-.748.375-1.139.509-.119.04-.168.028-.285.07a2.827,2.827,0,0,0-.285.1c-.162.084-.269.109-.452.186-.092.041-.2.125-.29.167a1.167,1.167,0,0,0-.249.162l-.089.065s-.192.168-.215.2c-.076.08-.15.189-.216.273a4.891,4.891,0,0,1-.747.7c-.09.065-.154.052-.233.12s-.176.148-.265.216a6.073,6.073,0,0,1-.638.369l-.146.1c-.192.126-.185.177-.384.3-.13.088-.186.221-.306.324a1.592,1.592,0,0,0-.222.334,7.072,7.072,0,0,0-.515,1.339,3.356,3.356,0,0,1-.588.783l-.079.075a1.512,1.512,0,0,0-.116.121,1.924,1.924,0,0,0-.352.314c-.08.107-.127.232-.2.35a6.658,6.658,0,0,0-.39.589,2,2,0,0,0-.092.22.106.106,0,0,0-.016.023,1.648,1.648,0,0,0-.134.314c-.087.2-.295.315-.569.706a6.713,6.713,0,0,1-2.175-.613,3.815,3.815,0,0,0,2,.861c-.066.1-.071.194-.19.225a4.562,4.562,0,0,1-2-.44,3.411,3.411,0,0,0,2.064.677,6.24,6.24,0,0,1-3.113-.2,6.3,6.3,0,0,0,2.521.492c-.156.079-.566.172-.828.267a10.435,10.435,0,0,1-1.108-.161c.026.084.437.2.777.274a7.714,7.714,0,0,1-1,.223,4.479,4.479,0,0,0,1.214-.182,8.69,8.69,0,0,0,1.631.171c-.1.051-.485.3-.788.475-.773.072-1.615.138-1.8.159.1.016.78.026,1.5.008-.441.259-.913.529-1.139.631a7.781,7.781,0,0,0,1.546-.643,6.335,6.335,0,0,0,1.414-.156,3.1,3.1,0,0,1-1.03,1.219,1.679,1.679,0,0,0,1.215-1.17,1.388,1.388,0,0,0,.472.1,1.052,1.052,0,0,0,.794.565c.092.263.933,1.633,2.114,1.1a1.319,1.319,0,0,1-.715-.923,3.015,3.015,0,0,1,2.328,2.37c-.328-.112-.739-.3-.783-.465-.09.38-.149.869.692,1.716a5.931,5.931,0,0,0,.052.6,5.543,5.543,0,0,0,.448.379c.011.237-.023.566.6.749.213.176.9.365,1,.481a2.255,2.255,0,0,0,.728.066s.3-.05.376-.164c.149-.008.35-.013,1.259-.98.191-.228,0-1.479.046-1.782.089-.221.129-.425.25-.7a.849.849,0,0,1,.355-.375.307.307,0,0,1,.049-.013c.524-.119,1.206.37,1.528.508.116.049.179.023.273.08.047.025.112.131.159.158.115.065.227.047.355.116.188.1.569.655.9.591.1-.025.185-.26.274-.318.155-.094.372-.086.511-.193.159-.125.094-.264.117-.434a.869.869,0,0,0,.081-.12,1.723,1.723,0,0,0,.354-.035.547.547,0,0,0,.077-.078c.067-.07.018-.145,0-.2s-.184-.137-.235-.191a2.334,2.334,0,0,1-.394-.43c-.036-.072.01-.087-.04-.161s-.189-.166-.231-.271a8.688,8.688,0,0,1-.158-1.192c-.063-.1-.14-.087-.2-.182-.13-.206.03-.873.042-1.136.012-.212-.2-.08-.2-.08a3.227,3.227,0,0,0-.194,1.216c-.007.053-.08.377-.08.433a2.735,2.735,0,0,1,.038.824.474.474,0,0,1-.432.235,3.669,3.669,0,0,1-.626-.157c-.019-.009-.113-.116-.12-.119-.219-.175-.265-.012-.273.075s.029.108.047.158.1.238.088.254-.08.225-.488-.016a1.984,1.984,0,0,1-.628-.786.585.585,0,0,1,.057-.412c.152-.138.335.053.488.137a1.009,1.009,0,0,0,.181.1,1.061,1.061,0,0,0,.254-.017c.595-.035,1.213.181,1.317-.218.067-.251-.18-.386-.224-.49a1.008,1.008,0,0,1-.059-.276c0-.01-.046-.1-.056-.113-.061-.105-.016-.2-.078-.313s-.238-.205-.312-.315c-.1-.145-.1-.327-.237-.432-.2-.165-1-.4-1.1-.591-.152-.3.037-.841-.038-1.213a.8.8,0,0,0-.245-.471.213.213,0,0,1-.057-.2c.034-.13.1-.094.143-.387.025-.161-.014-.342,0-.509,0-.027.078-.284.083-.314a3.461,3.461,0,0,0-.119-1.213c-.046-.154-.189-.287-.236-.434-.041-.123.008-.193-.041-.315s-.176-.182-.231-.271c-.107-.156-.075-.421-.239-.512-.119-.067-.162.026-.154,0a.719.719,0,0,0,.038.469c.029.08.176.2.2.277.03.145-.024.32,0,.47l.075.158a1.828,1.828,0,0,1-.313,1.134c-.112.146-.45.332-.47.549-.017.136.039.14.073.2.05.072.213.166.238.235.018.051.038.04.058.091l.02.107c.027.274-.33.337-.157.666.049.094.218.094.312.154a1.283,1.283,0,0,1,.549.7,4.485,4.485,0,0,1-.035.826c-.082.175-.523.242-.473.589.056.378,1.051.271,1.331.469.134.094.16.294.2.476.023.1-.075.13-.118.151-.105.062-.18.014-.314.043-.324.065-.841.211-.977.471-.171.3.03.71-.042,1.055a3.314,3.314,0,0,1-.475.945,1.5,1.5,0,0,0-.285.52,9.386,9.386,0,0,0-.069,1.551l-.007.005a.705.705,0,0,1-.169.486c-.215.236-.963.935-1.492.935-.2-.006-.278-.07-.491-.226a1.09,1.09,0,0,1-.626-.273c-.056-.1-.642-.693-.274-.863.346-.159.906.188,1.166.355a2.054,2.054,0,0,0,1.666-1.015,9.179,9.179,0,0,0-.144-1.385c-.083-.271-.54-.749-.638-1.034a2.464,2.464,0,0,1-.1-1c-.032-.352-.254-.429-.346-.714a.709.709,0,0,0-.072-.15.881.881,0,0,0-.111-.29c-.139-.212-.276-.259-.4-.467s-.11-.486-.315-.627c-.113-.076-.265-.083-.391-.156a3.38,3.38,0,0,0-.314-.235l-.284-.127c-.061-.03-.173-.079-.226-.108s-.111,0-.157-.042c-.151-.128-.042-.244-.117-.467-.007-.028-.067-.029-.08-.079-.062-.017-.173-.117-.258-.057-.118.086-.151.061-.223.241a2.408,2.408,0,0,1-.2.55,1.479,1.479,0,0,1-.271.28.408.408,0,0,1-.2.047l-.294.042-.146.225s-.159-.021-.244-.021a1.831,1.831,0,0,1-.279.256c-.248.145-.4.042-.417-.011s-.091-.145.077-.245a3,3,0,0,0,1.34-1.1,10.4,10.4,0,0,1-1.484.857c.237-.56,1.7-1.382,1.785-1.479a4.959,4.959,0,0,0-1.833,1.139c-.206.334-.45.241-.679.231s-.2.232-.214.378-.114.435-.02.487c.152.131.554-.4.681-.115.071.319-.755.3-.748.562-.04.136.762.183.909.328a2.6,2.6,0,0,1-1.075.258,1.358,1.358,0,0,1-.283,0,.606.606,0,0,1-.361-.309c-.229-.415.157-.7.163-.807s-.043-.051-.05-.225.188-.2.239-.24-.015-.087,0-.256c.1-.381.725-.821.565-.943-.145-.077-.447.256-.563.407a1.066,1.066,0,0,1-1.1.386c-.378.02-.312-.392-.048-.364.3-.062.282-.483.5-.44.071.307-.27.35-.111.418.217.086.239-.2.307-.318s.371-.382.336-.448c-.088-.031-.314.129-.417.209-.248-.619.379-1.091.409-1.274.205-.324,1.355-.739,1.376-1.23l.03-.027s.023-.014.058.043h0c.008.03.013.062.022.095a.438.438,0,0,1,0,.077l.005-.047c.009.077.006.144.009.127v.075c.01.043.068.066.078.071a.268.268,0,0,0,.146-.092c.01-.01.077-.074.077-.089a.662.662,0,0,0,.208-.2c.2-.287-.183-.708-.078-1.095a2.035,2.035,0,0,1,.313-.562c.065-.147-.038-.146-.038-.146a.247.247,0,0,0-.234.114,1.761,1.761,0,0,0-.393.515s-.118.107-.153-.04a1.142,1.142,0,0,1,.294-.781,2.68,2.68,0,0,1,.527-.241c.1-.042.253-.205.354-.233a.189.189,0,0,1,.155,0s.077.056.041.233a.71.71,0,0,0-.05.291c.017.052.009.1.128.1a3.48,3.48,0,0,0,1.1-.159c.043-.017.083-.078.121-.114.058-.06.042-.147,0-.156l-.121-.04c.092-.013-.532-.019-.431-.037-.109.018.147-.29.117-.437-.012-.07-.135-.1-.156-.153-.013-.036-.079-.088,0-.119l.089-.038a.669.669,0,0,1,.106-.078,1.222,1.222,0,0,1,.706,0,.56.56,0,0,1,.354.314.869.869,0,0,0,.078.2.48.48,0,0,0,.667.027.858.858,0,0,0,.12-.182.646.646,0,0,0-.474-.905c-.152-.054-.4-.069-.588-.118-.134-.038-.054-.15-.016-.184l.057-.051a.907.907,0,0,1,.393-.234.856.856,0,0,1,.706-.038c.044.015.158.105.192.114a.569.569,0,0,0,.513-.036c.083-.04.071-.051.079-.076a.281.281,0,0,0-.068-.327c-.044-.283.764.066.889-.112.118-.162.042-.469.2-.587.019-.01.11-.075.119-.077a.7.7,0,0,1,.4.077l.127.061a1.167,1.167,0,0,1,.612.369c.086.137.071.334.154.473.036.059.121.1.163.157a.562.562,0,0,0,.152.1.67.67,0,0,0,.195.094c.07.028.17.133.236.16a1.993,1.993,0,0,0,.785.077c.154-.006.245.084.39.04.076-.025.055-.158.008-.214-.093-.12-.165-.091-.32-.179-.06-.037-.136-.158-.2-.193-.179-.117-.439-.133-.547-.315a.376.376,0,0,1-.038-.115l-.044-.083c-.216-.439-.285-.7-.078-.783.131-.049.414-.021.553-.078.033-.017.092-.1.116-.118a1.676,1.676,0,0,1,1.218-.156c.1.046,0,.295.036.391a.326.326,0,0,0,.175.14,13.542,13.542,0,0,1,1.841.384,3.588,3.588,0,0,1,.786.586c.228.2-.043.431.192.5-.161.021-.3.039-.325-.045a.576.576,0,0,0-.079-.115,2.009,2.009,0,0,0-.626-.509c-.127-.046-.182-.007-.316-.041l-.158-.054c-.171-.047-.183-.031-.35-.066-.075-.014-.243-.106-.316-.113-.333-.049-.521.084-.826,0-.139-.041-.321-.264-.435-.324a2.066,2.066,0,0,0-.429-.158.172.172,0,0,0-.144.007c-.087.05-.058.129-.013.193.026.034.048.093.078.112.111.08.332.08.393.2.173.343-.081.462-.118.565-.018.062-.066.11,0,.193a.477.477,0,0,0,.159.115c.159.069.284.042.433.12.105.056.216.246.351.276.316.068.39-.165.549-.2.227-.05.367.069.629,0,.086-.023.134-.126.2-.155a.45.45,0,0,1,.393-.042s.1.049-.04.12c-.081.044-.15.044-.234.086a.384.384,0,0,0-.117.124.483.483,0,0,0-.044.141.214.214,0,0,0,.08.081c.273.094.553-.083.788-.119a1.606,1.606,0,0,1,.8.107s.129.026.045.262c-.052.141-.276.245-.36.364-.049.068-.1.2-.155.262-.083.107-.1.1-.181.2l-.058.084c-.034.1-.434.439-.508.553-.046.068-.066.139-.114.211-.072.1-.124.12-.161.182a1.959,1.959,0,0,1-.526.586.614.614,0,0,1-.316-.026c-.079-.022-.164-.167-.233-.2-.275-.125-.58-.09-.823-.236a1.7,1.7,0,0,1-.317-.391c-.058-.074-.11-.2-.2-.239-.141-.048-.482,0-.548.118-.129.247.209.88.237,1.14.02.222-.082.323,0,.507.038.095.185.119.233.2.214.334.028.807.079,1.253a1.706,1.706,0,0,1,.078.512c-.033.313-.436.583-.273,1.057.006.02.082.075.087.08a.352.352,0,0,0,.228,0c.131-.046.258-.308.394-.391a.149.149,0,0,1,.083-.039c.015-.026.052-.029.073-.039.058-.044.08-.045.116-.118a2.909,2.909,0,0,0,.079-.434,4.66,4.66,0,0,0,.2-.589c.048-.48-.3-1.418-.05-1.573a.855.855,0,0,1,.355-.2c.073-.018.31.055.412.052l0,0c-.128.3.344,1.085.306,1.517A3.385,3.385,0,0,1,235,840.3c-.067.067-.009.143.041.2.119.111.4.062.554.039a2.775,2.775,0,0,0,.47-.2c.059-.024.129.013.194,0,.162-.044.3-.265.393-.4,0,0,.191-.206.231.067l0,.015a4.636,4.636,0,0,0,0,.783c.047.295.585,1.178.864,1.218.653.095-.016-.726-.042-.785a2.7,2.7,0,0,1-.2-1.019c0-.12.1-.362.117-.475.007-.055-.023-.186,0-.23.052-.105.4-.139.473-.277.02-.039-.009-.11,0-.154a.861.861,0,0,1,.159-.351c.046-.059.113-.092.194,0,.068.075.086.25.2.377l.1.106c.116.075.3-.025.254-.014.122-.033.108-.157.159-.2a.745.745,0,0,1,.075-.037c.284-.291-.345-.555-.353-.826a3.275,3.275,0,0,0-.037-.979c-.025-.083-.179-.2-.2-.274a1.205,1.205,0,0,1,.078-.509c.045-.25-.041-.636.041-.746a.254.254,0,0,1,.273-.08c.1.019.166.181.235.236a1.238,1.238,0,0,0,.983.273c.052,0,.1-.082.105-.1a.284.284,0,0,0-.027-.247c-.155-.207-.753-.365-.785-.468-.024-.077-.118-.18-.014-.232a1.741,1.741,0,0,0,.523-.044c.2-.044.214-.243.352-.312.2-.1.482-.013.592-.2.064-.118.014-.287.076-.394.078-.139.311-.167.432-.277.035-.032.019-.154.011-.192m-15.777,9.169c-.076-.085-.011-.251.131-.323a.3.3,0,0,1,.427.087,5.864,5.864,0,0,0,.828,1.109,1.789,1.789,0,0,1-1.387-.874m2.16,3.966c-.138,0-1.012-.735-.88-1.192a5.746,5.746,0,0,0,.913.589c.079.046.14.552-.034.6m1.016,0c-.114-.1-.962-.994-.749-1.409a4.97,4.97,0,0,0,1.11.886c.065.169.056.637-.361.523m.091-3.413a1.12,1.12,0,0,1,.341.83c-.014.116.024.14.122.131.088-.026.04-.577.308-.541.227.033.073.349.186.7a2.632,2.632,0,0,1,.23,1.361c-.006.2-.39.462-.608.31-.179-.109-.179-.242-.282-1.066-.043-.486-.637-.653-.888-.875-.252-.186-.108-.277-.155-.614-.145-.489-.715-.716-.524-1.042a.209.209,0,0,1,.3-.088c.01.241.588.429.974.89m-4.045-1.541c-.015.008-.017.009.005,0l-.005,0c.059-.026.312-.145.379-.169.268-.095.411.048.658-.089a2.279,2.279,0,0,0,.177-.174c.047-.042.131-.037.187-.076.137-.092.391-.384.567-.415.1-.02.1.007.152.012,0,.009.075-.016.055.134-.047.291.636,0,1.086.1.3.073.6.176.523.373.011-.02-.089.06-.113.075-.21.152-.373-.014-.48-.029-.183-.022-.313.035-.5.011,0,0-.225-.075-.225-.075a3.5,3.5,0,0,0-.456.075c-.207.016-.306-.057-.491-.037-.091.01-.237.129-.3.152s-.131.043-.19.062a1.672,1.672,0,0,0-.189.088,2.4,2.4,0,0,1-.53.152l-.134.037c-.287.038-.258-.159-.169-.209m-.7,1.12c.309-.073.4.006.548.358a6.994,6.994,0,0,0,.428.615c-.356.04-.922-.445-1.082-.711-.1-.131.054-.235.106-.261m-3.933-1.472a5.2,5.2,0,0,0,.916-.317c.055,0,.108,0,.162-.006a1.076,1.076,0,0,0,.129.326c.014.024.028.044.042.063-.246.006-.742-.025-1.249-.065m.848.711c.209-.125.409-.261.6-.4a2.521,2.521,0,0,0,.286.286c-.11.029-.455.072-.884.115Z" transform="translate(-218.296 -830.402)"/>
      <path id="패스_5641" data-name="패스 5641" class="cls-1" d="M237.207,862.661l.005,0c-.022.011-.02.01-.005,0Z" transform="translate(-230.527 -851.278)"/>
    </g>
  </g>
  <path id="패스_5642" data-name="패스 5642" class="cls-1" d="M272.615,744.1l-1.08-.29-1.266,4.292a2.236,2.236,0,0,1-.286.689.8.8,0,0,1-.868.23,3.214,3.214,0,0,1-.73-.351l-.235.8a3.072,3.072,0,0,0,1,.445,1.764,1.764,0,0,0,1.6-.339,2.338,2.338,0,0,0,.578-1.105Z" transform="translate(-227.569 -743.261)"/>
</svg>
