<svg id="ls-4" xmlns="http://www.w3.org/2000/svg" width="56.622" height="70" viewBox="0 0 56.622 70">
  <defs>
    <style>
      .cls-1 {
        fill: #231815;
      }

      .cls-2 {
        fill: #de4227;
      }

      .cls-3 {
        fill: #4b4847;
      }
    </style>
  </defs>
  <g id="그룹_117" data-name="그룹 117" transform="translate(0 57.187)">
    <g id="그룹_115" data-name="그룹 115" transform="translate(0.012 10.169)">
      <path id="패스_5643" data-name="패스 5643" class="cls-1" d="M172.863,1617.845l-.121.23a.727.727,0,0,0-.43-.153.67.67,0,0,0-.529.225.864.864,0,0,0-.191.586.815.815,0,0,0,.189.561.674.674,0,0,0,.518.211.562.562,0,0,0,.378-.127v-.474h-.3v-.236h.589v.879a.972.972,0,0,1-.326.149,1.454,1.454,0,0,1-.405.056.887.887,0,0,1-.7-.281,1.063,1.063,0,0,1-.255-.749,1.043,1.043,0,0,1,.278-.756,1.017,1.017,0,0,1,.758-.293A.836.836,0,0,1,172.863,1617.845Z" transform="translate(-171.287 -1617.646)"/>
      <path id="패스_5644" data-name="패스 5644" class="cls-1" d="M178.239,1620.8h-.077l-.454-1-.456,1h-.07l-.56-1.5h.3l.333.965.414-.965h.071l.43.965.355-.965h.272Z" transform="translate(-174.74 -1618.698)"/>
      <path id="패스_5645" data-name="패스 5645" class="cls-1" d="M184.03,1620.55a.616.616,0,0,1-.508.2.45.45,0,0,1-.317-.125.414.414,0,0,1-.137-.311.457.457,0,0,1,.206-.376.884.884,0,0,1,.532-.155.561.561,0,0,1,.2.038c0-.241-.113-.361-.338-.361a.557.557,0,0,0-.4.127l-.121-.216a.717.717,0,0,1,.218-.1.97.97,0,0,1,.267-.044.72.72,0,0,1,.492.145.61.61,0,0,1,.154.464v.527a.259.259,0,0,0,.123.255v.133a.547.547,0,0,1-.255-.044A.233.233,0,0,1,184.03,1620.55ZM184,1620a1.348,1.348,0,0,0-.186-.026.552.552,0,0,0-.336.1.3.3,0,0,0-.133.24c0,.153.092.229.286.229a.473.473,0,0,0,.369-.189Z" transform="translate(-178.911 -1618.649)"/>
      <path id="패스_5646" data-name="패스 5646" class="cls-1" d="M188.6,1620.719v-.854a.571.571,0,0,0-.073-.329.315.315,0,0,0-.251-.094.461.461,0,0,0-.2.052.438.438,0,0,0-.158.132v1.091h-.276v-1.469h.187l.089.189a.49.49,0,0,1,.444-.217c.343,0,.513.2.513.589v.908Z" transform="translate(-181.871 -1618.649)"/>
      <path id="패스_5647" data-name="패스 5647" class="cls-1" d="M191.946,1621l.151-.209a.83.83,0,0,0,.444.155.645.645,0,0,0,.295-.059.183.183,0,0,0,.109-.153c0-.114-.09-.172-.272-.172a1.515,1.515,0,0,0-.167.018,1.011,1.011,0,0,1-.192.022c-.22,0-.333-.077-.333-.236a.167.167,0,0,1,.078-.131.473.473,0,0,1,.192-.082.516.516,0,0,1-.326-.506.5.5,0,0,1,.168-.387.605.605,0,0,1,.418-.154.651.651,0,0,1,.361.089l.137-.154.179.158-.163.12a.569.569,0,0,1-.042.717.578.578,0,0,1-.385.17l-.227.024a.664.664,0,0,0-.109.029c-.043.015-.069.037-.069.067s.047.055.142.055a1.344,1.344,0,0,0,.194-.022,1.258,1.258,0,0,1,.2-.022.576.576,0,0,1,.359.1.349.349,0,0,1,.126.285.369.369,0,0,1-.2.326.854.854,0,0,1-.485.127,1.061,1.061,0,0,1-.319-.051A.855.855,0,0,1,191.946,1621Zm.588-1.683a.31.31,0,0,0-.234.094.333.333,0,0,0-.092.236.374.374,0,0,0,.087.256.3.3,0,0,0,.239.1.273.273,0,0,0,.227-.1.378.378,0,0,0,.081-.256.338.338,0,0,0-.086-.236A.305.305,0,0,0,192.534,1619.314Z" transform="translate(-184.644 -1618.53)"/>
      <path id="패스_5648" data-name="패스 5648" class="cls-1" d="M195.841,1620.328v-.234a.655.655,0,0,0,.392-.083.314.314,0,0,0,.1-.268v-1.238h-.31v-.222h.587v1.456a.519.519,0,0,1-.189.445A.962.962,0,0,1,195.841,1620.328Zm.6-2.6a.174.174,0,0,1,.123.049.138.138,0,0,1,.05.11.158.158,0,0,1-.05.117.2.2,0,0,1-.246,0,.164.164,0,0,1-.043-.117.14.14,0,0,1,.043-.111A.175.175,0,0,1,196.439,1617.731Z" transform="translate(-187.178 -1617.684)"/>
      <path id="패스_5649" data-name="패스 5649" class="cls-1" d="M199.563,1619.3v.94c0,.226.1.34.307.34a.453.453,0,0,0,.251-.076.381.381,0,0,0,.153-.17V1619.3h.274v1.469h-.274v-.2a.455.455,0,0,1-.186.16.634.634,0,0,1-.276.072.523.523,0,0,1-.393-.14.537.537,0,0,1-.139-.391v-.968Z" transform="translate(-189.403 -1618.699)"/>
      <path id="패스_5650" data-name="패스 5650" class="cls-1" d="M205.656,1619.779v-2.009h.291v2.009Z" transform="translate(-193.627 -1617.709)"/>
      <path id="패스_5651" data-name="패스 5651" class="cls-1" d="M208.657,1620.719v-.854a.543.543,0,0,0-.075-.329.3.3,0,0,0-.248-.094.485.485,0,0,0-.2.052.428.428,0,0,0-.154.132v1.091H207.7v-1.469h.191l.086.189a.483.483,0,0,1,.446-.217c.34,0,.513.2.513.589v.908Z" transform="translate(-194.958 -1618.649)"/>
      <path id="패스_5652" data-name="패스 5652" class="cls-1" d="M211.925,1620.635l.1-.25a.782.782,0,0,0,.371.144c.168,0,.255-.07.255-.2,0-.1-.085-.181-.248-.252a2.168,2.168,0,0,1-.255-.124.626.626,0,0,1-.115-.1.365.365,0,0,1-.073-.115.372.372,0,0,1-.026-.134.331.331,0,0,1,.142-.28.592.592,0,0,1,.362-.1,1.209,1.209,0,0,1,.432.1l-.08.241a.541.541,0,0,0-.333-.123.308.308,0,0,0-.165.044.132.132,0,0,0-.066.114.232.232,0,0,0,.17.21l.2.087a.78.78,0,0,1,.269.176.4.4,0,0,1,.079.252.371.371,0,0,1-.149.31.659.659,0,0,1-.408.112A.986.986,0,0,1,211.925,1620.635Z" transform="translate(-197.704 -1618.649)"/>
      <path id="패스_5653" data-name="패스 5653" class="cls-1" d="M215.479,1618.767H215.3v-.208h.179v-.306l.279-.1v.4h.428v.208h-.428v.729a.392.392,0,0,0,.066.26.249.249,0,0,0,.21.081.568.568,0,0,0,.223-.049l.04.226a1.419,1.419,0,0,1-.376.043.425.425,0,0,1-.316-.13.459.459,0,0,1-.126-.324Z" transform="translate(-199.898 -1617.958)"/>
      <path id="패스_5654" data-name="패스 5654" class="cls-1" d="M218.757,1619.754v-1.247h-.215v-.222h.492v1.469Zm.152-2.023a.173.173,0,0,1,.122.049.15.15,0,0,1,.05.11.172.172,0,0,1-.05.117.184.184,0,0,1-.122.043.167.167,0,0,1-.116-.043.153.153,0,0,1-.052-.117.132.132,0,0,1,.052-.111A.159.159,0,0,1,218.909,1617.731Z" transform="translate(-202.004 -1617.684)"/>
      <path id="패스_5655" data-name="패스 5655" class="cls-1" d="M221.04,1618.767h-.179v-.208h.179v-.306l.279-.1v.4h.426v.208h-.426v.729a.4.4,0,0,0,.066.26.256.256,0,0,0,.211.081.584.584,0,0,0,.222-.049l.04.226a1.414,1.414,0,0,1-.375.043.42.42,0,0,1-.315-.13.453.453,0,0,1-.128-.324Z" transform="translate(-203.513 -1617.958)"/>
      <path id="패스_5656" data-name="패스 5656" class="cls-1" d="M224.574,1619.3v.94c0,.226.107.34.312.34a.47.47,0,0,0,.251-.076.338.338,0,0,0,.147-.17V1619.3h.279v1.469h-.279v-.2a.439.439,0,0,1-.187.16.589.589,0,0,1-.276.072.483.483,0,0,1-.527-.531v-.968Z" transform="translate(-205.746 -1618.699)"/>
      <path id="패스_5657" data-name="패스 5657" class="cls-1" d="M228.8,1618.767h-.182v-.208h.182v-.306l.278-.1v.4h.424v.208h-.424v.729a.4.4,0,0,0,.064.26.261.261,0,0,0,.213.081.583.583,0,0,0,.221-.049l.041.226a1.45,1.45,0,0,1-.38.043.414.414,0,0,1-.31-.13.454.454,0,0,1-.127-.324Z" transform="translate(-208.558 -1617.958)"/>
      <path id="패스_5658" data-name="패스 5658" class="cls-1" d="M233.226,1620.012H232.1a.519.519,0,0,0,.147.393.487.487,0,0,0,.345.124.6.6,0,0,0,.393-.132l.116.188a.5.5,0,0,1-.192.1,1.127,1.127,0,0,1-.373.06.7.7,0,0,1-.5-.188.71.71,0,0,1-.231-.557.752.752,0,0,1,.234-.584.7.7,0,0,1,.5-.2.75.75,0,0,1,.524.177.6.6,0,0,1,.182.452A.484.484,0,0,1,233.226,1620.012Zm-.673-.569a.457.457,0,0,0-.307.113.4.4,0,0,0-.133.268h.86a.358.358,0,0,0-.1-.265A.428.428,0,0,0,232.553,1619.443Z" transform="translate(-210.632 -1618.649)"/>
      <path id="패스_5659" data-name="패스 5659" class="cls-1" d="M237.922,1619.984a.77.77,0,0,1,.194-.55.741.741,0,0,1,1.028-.009.79.79,0,0,1,.185.559.8.8,0,0,1-.189.56.671.671,0,0,1-.517.2.653.653,0,0,1-.517-.208A.815.815,0,0,1,237.922,1619.984Zm.29,0c0,.368.139.551.412.551a.371.371,0,0,0,.307-.148.693.693,0,0,0,.105-.4c0-.367-.137-.546-.412-.546a.352.352,0,0,0-.3.146A.619.619,0,0,0,238.212,1619.984Z" transform="translate(-214.605 -1618.649)"/>
      <path id="패스_5660" data-name="패스 5660" class="cls-1" d="M243.3,1617.832a.529.529,0,0,0-.158-.028.263.263,0,0,0-.208.092.318.318,0,0,0-.085.228.291.291,0,0,0,.01.074h.317v.222h-.317v1.247h-.279v-1.247h-.223v-.222h.225a.639.639,0,0,1,.146-.442.511.511,0,0,1,.39-.159.935.935,0,0,1,.258.043Z" transform="translate(-217.487 -1617.598)"/>
      <path id="패스_5661" data-name="패스 5661" class="cls-1" d="M247.265,1619.626l.106-.25a.765.765,0,0,0,.2.09.749.749,0,0,0,.218.037.41.41,0,0,0,.274-.088.274.274,0,0,0,.1-.221.348.348,0,0,0-.061-.192.709.709,0,0,0-.286-.187l-.173-.074a.666.666,0,0,1-.307-.23.585.585,0,0,1-.085-.316.463.463,0,0,1,.168-.372.635.635,0,0,1,.435-.152.818.818,0,0,1,.489.112l-.083.239a.686.686,0,0,0-.18-.077.715.715,0,0,0-.22-.038.331.331,0,0,0-.236.082.272.272,0,0,0-.083.2.3.3,0,0,0,.029.139.351.351,0,0,0,.087.1,1.489,1.489,0,0,0,.224.12l.175.078a.713.713,0,0,1,.307.232.624.624,0,0,1,.087.344.48.48,0,0,1-.194.385.8.8,0,0,1-.515.155A.872.872,0,0,1,247.265,1619.626Z" transform="translate(-220.672 -1617.646)"/>
      <path id="패스_5662" data-name="패스 5662" class="cls-1" d="M252.44,1619.368l-.139.184a.469.469,0,0,0-.149-.076.8.8,0,0,0-.215-.033.46.46,0,0,0-.36.148.6.6,0,0,0-.134.409.536.536,0,0,0,.134.393.515.515,0,0,0,.378.136.64.64,0,0,0,.376-.136l.109.219a1.081,1.081,0,0,1-.553.136.708.708,0,0,1-.735-.748.754.754,0,0,1,.215-.562.835.835,0,0,1,.6-.216.882.882,0,0,1,.265.048A.922.922,0,0,1,252.44,1619.368Z" transform="translate(-223.204 -1618.649)"/>
      <path id="패스_5663" data-name="패스 5663" class="cls-1" d="M255.5,1619.754v-1.247h-.217v-.222h.491v1.469Zm.152-2.023a.185.185,0,0,1,.121.049.144.144,0,0,1,.05.11.165.165,0,0,1-.05.117.2.2,0,0,1-.121.043.206.206,0,0,1-.123-.043.163.163,0,0,1-.049-.117.14.14,0,0,1,.049-.111A.185.185,0,0,1,255.652,1617.731Z" transform="translate(-225.887 -1617.684)"/>
      <path id="패스_5664" data-name="패스 5664" class="cls-1" d="M258.958,1620.012h-1.125a.5.5,0,0,0,.152.393.47.47,0,0,0,.338.124.61.61,0,0,0,.4-.132l.118.188a.5.5,0,0,1-.2.1,1.126,1.126,0,0,1-.369.06.712.712,0,0,1-.728-.745.766.766,0,0,1,.236-.584.694.694,0,0,1,.5-.2.756.756,0,0,1,.52.177.583.583,0,0,1,.18.452A.6.6,0,0,1,258.958,1620.012Zm-.669-.569a.453.453,0,0,0-.311.113.408.408,0,0,0-.137.268h.863a.356.356,0,0,0-.1-.265A.444.444,0,0,0,258.289,1619.443Z" transform="translate(-227.36 -1618.649)"/>
      <path id="패스_5665" data-name="패스 5665" class="cls-1" d="M263.3,1620.719v-.854a.572.572,0,0,0-.074-.329.321.321,0,0,0-.252-.094.461.461,0,0,0-.2.052.44.44,0,0,0-.161.132v1.091h-.274v-1.469h.186l.088.189a.493.493,0,0,1,.447-.217c.343,0,.513.2.513.589v.908Z" transform="translate(-230.479 -1618.649)"/>
      <path id="패스_5666" data-name="패스 5666" class="cls-1" d="M267.846,1619.368l-.139.184a.505.505,0,0,0-.151-.076.773.773,0,0,0-.212-.033.45.45,0,0,0-.359.148.589.589,0,0,0-.133.409.53.53,0,0,0,.133.393.508.508,0,0,0,.378.136.644.644,0,0,0,.375-.136l.107.219a1.055,1.055,0,0,1-.551.136.722.722,0,0,1-.527-.2.731.731,0,0,1-.21-.545.743.743,0,0,1,.218-.562.822.822,0,0,1,.6-.216.887.887,0,0,1,.263.048A.918.918,0,0,1,267.846,1619.368Z" transform="translate(-233.219 -1618.649)"/>
      <path id="패스_5667" data-name="패스 5667" class="cls-1" d="M272.055,1620.012h-1.121a.513.513,0,0,0,.147.393.478.478,0,0,0,.342.124.613.613,0,0,0,.4-.132l.118.188a.516.516,0,0,1-.2.1,1.113,1.113,0,0,1-.371.06.713.713,0,0,1-.5-.188.721.721,0,0,1-.227-.557.748.748,0,0,1,.236-.584.693.693,0,0,1,.5-.2.747.747,0,0,1,.522.177.585.585,0,0,1,.184.452A.533.533,0,0,1,272.055,1620.012Zm-.667-.569a.459.459,0,0,0-.312.113.4.4,0,0,0-.139.268h.869a.349.349,0,0,0-.109-.265A.421.421,0,0,0,271.387,1619.443Z" transform="translate(-235.874 -1618.649)"/>
      <path id="패스_5668" data-name="패스 5668" class="cls-1" d="M278.194,1620.55a.624.624,0,0,1-.513.2.451.451,0,0,1-.315-.125.414.414,0,0,1-.137-.311.457.457,0,0,1,.206-.376.886.886,0,0,1,.53-.155.587.587,0,0,1,.2.038c0-.241-.113-.361-.343-.361a.57.57,0,0,0-.4.127l-.116-.216a.668.668,0,0,1,.217-.1.961.961,0,0,1,.269-.044.725.725,0,0,1,.494.145.615.615,0,0,1,.149.464v.527a.268.268,0,0,0,.121.255v.133a.53.53,0,0,1-.249-.044A.234.234,0,0,1,278.194,1620.55Zm-.03-.55a1.374,1.374,0,0,0-.185-.026.554.554,0,0,0-.34.1.3.3,0,0,0-.13.24c0,.153.092.229.286.229a.489.489,0,0,0,.369-.189Z" transform="translate(-240.156 -1618.649)"/>
      <path id="패스_5669" data-name="패스 5669" class="cls-1" d="M282.76,1620.719v-.854a.56.56,0,0,0-.073-.329.316.316,0,0,0-.252-.094.486.486,0,0,0-.357.185v1.091h-.272v-1.469h.184l.088.189a.491.491,0,0,1,.447-.217c.342,0,.513.2.513.589v.908Z" transform="translate(-243.132 -1618.649)"/>
      <path id="패스_5670" data-name="패스 5670" class="cls-1" d="M287.137,1619.668v-.108a.591.591,0,0,1-.418.135.6.6,0,0,1-.471-.2.728.728,0,0,1-.182-.525.824.824,0,0,1,.208-.564.648.648,0,0,1,.5-.234.553.553,0,0,1,.366.107v-.68h.274v2.07Zm0-1.128a.331.331,0,0,0-.286-.148.439.439,0,0,0-.358.158.573.573,0,0,0-.137.4q0,.532.51.531a.425.425,0,0,0,.158-.04.25.25,0,0,0,.114-.084Z" transform="translate(-245.901 -1617.598)"/>
      <path id="패스_5671" data-name="패스 5671" class="cls-1" d="M293.212,1618.019v1.76h-.293v-1.76h-.678v-.249h1.675v.249Z" transform="translate(-249.918 -1617.709)"/>
      <path id="패스_5672" data-name="패스 5672" class="cls-1" d="M297.6,1620.012h-1.123a.5.5,0,0,0,.151.393.468.468,0,0,0,.34.124.6.6,0,0,0,.395-.132l.116.188a.476.476,0,0,1-.2.1,1.1,1.1,0,0,1-.368.06.707.707,0,0,1-.5-.188.716.716,0,0,1-.231-.557.754.754,0,0,1,.236-.584.7.7,0,0,1,.5-.2.749.749,0,0,1,.522.177.593.593,0,0,1,.183.452A.534.534,0,0,1,297.6,1620.012Zm-.673-.569a.464.464,0,0,0-.308.113.406.406,0,0,0-.135.268h.865a.358.358,0,0,0-.1-.265A.433.433,0,0,0,296.929,1619.443Z" transform="translate(-252.481 -1618.649)"/>
      <path id="패스_5673" data-name="패스 5673" class="cls-1" d="M301.98,1619.368l-.137.184a.525.525,0,0,0-.152-.076.758.758,0,0,0-.208-.033.45.45,0,0,0-.359.148.582.582,0,0,0-.137.409.524.524,0,0,0,.137.393.509.509,0,0,0,.376.136.647.647,0,0,0,.371-.136l.109.219a1.048,1.048,0,0,1-.549.136.773.773,0,0,1-.517-1.31.808.808,0,0,1,.6-.216.836.836,0,0,1,.262.048A.776.776,0,0,1,301.98,1619.368Z" transform="translate(-255.495 -1618.649)"/>
      <path id="패스_5674" data-name="패스 5674" class="cls-1" d="M306.035,1619.668v-.919a.382.382,0,0,0-.089-.263.314.314,0,0,0-.241-.094.416.416,0,0,0-.2.056.432.432,0,0,0-.152.128v1.091h-.274v-2.07h.274v.762a.4.4,0,0,1,.177-.134.625.625,0,0,1,.253-.055.5.5,0,0,1,.387.154.6.6,0,0,1,.14.42v.922Z" transform="translate(-258.33 -1617.598)"/>
      <path id="패스_5675" data-name="패스 5675" class="cls-1" d="M310.541,1620.719v-.854a.533.533,0,0,0-.078-.329.3.3,0,0,0-.248-.094.421.421,0,0,0-.194.052.437.437,0,0,0-.164.132v1.091h-.274v-1.469h.187l.087.189a.5.5,0,0,1,.451-.217c.338,0,.508.2.508.589v.908Z" transform="translate(-261.246 -1618.649)"/>
      <path id="패스_5676" data-name="패스 5676" class="cls-1" d="M313.808,1619.984a.776.776,0,0,1,.192-.55.653.653,0,0,1,.509-.211.665.665,0,0,1,.52.2.813.813,0,0,1,.184.559.79.79,0,0,1-.193.56.745.745,0,0,1-1.03,0A.822.822,0,0,1,313.808,1619.984Zm.288,0c0,.368.14.551.414.551a.371.371,0,0,0,.305-.148.68.68,0,0,0,.107-.4c0-.367-.14-.546-.412-.546a.348.348,0,0,0-.3.146A.617.617,0,0,0,314.1,1619.984Z" transform="translate(-263.98 -1618.649)"/>
      <path id="패스_5677" data-name="패스 5677" class="cls-1" d="M318.583,1619.255V1617.6h.279v1.614a.235.235,0,0,0,.073.184.252.252,0,0,0,.184.068v.233C318.762,1619.7,318.583,1619.548,318.583,1619.255Z" transform="translate(-267.07 -1617.598)"/>
      <path id="패스_5678" data-name="패스 5678" class="cls-1" d="M320.626,1619.984a.771.771,0,0,1,.194-.55.741.741,0,0,1,1.028-.009.788.788,0,0,1,.185.559.8.8,0,0,1-.191.56.75.75,0,0,1-1.033,0A.823.823,0,0,1,320.626,1619.984Zm.29,0c0,.368.142.551.416.551a.355.355,0,0,0,.3-.148.656.656,0,0,0,.107-.4c0-.367-.137-.546-.407-.546a.34.34,0,0,0-.3.146A.6.6,0,0,0,320.916,1619.984Z" transform="translate(-268.393 -1618.649)"/>
      <path id="패스_5679" data-name="패스 5679" class="cls-1" d="M325.138,1621l.147-.209a.83.83,0,0,0,.445.155.632.632,0,0,0,.295-.059.178.178,0,0,0,.108-.153c0-.114-.088-.172-.268-.172a1.551,1.551,0,0,0-.174.018.97.97,0,0,1-.191.022c-.217,0-.326-.077-.326-.236a.16.16,0,0,1,.077-.131.453.453,0,0,1,.192-.082.515.515,0,0,1-.331-.506.491.491,0,0,1,.173-.387.6.6,0,0,1,.416-.154.621.621,0,0,1,.359.089l.139-.154.177.158-.161.12a.528.528,0,0,1,.1.339.544.544,0,0,1-.142.378.594.594,0,0,1-.388.17l-.227.024a.613.613,0,0,0-.109.029c-.043.015-.068.037-.068.067s.045.055.142.055a1.326,1.326,0,0,0,.192-.022,1.187,1.187,0,0,1,.2-.022.576.576,0,0,1,.359.1.34.34,0,0,1,.128.285.369.369,0,0,1-.189.326.892.892,0,0,1-.49.127,1,1,0,0,1-.315-.051A.827.827,0,0,1,325.138,1621Zm.586-1.683a.307.307,0,0,0-.234.094.333.333,0,0,0-.09.236.382.382,0,0,0,.085.256.3.3,0,0,0,.239.1.263.263,0,0,0,.224-.1.372.372,0,0,0,.088-.256.327.327,0,0,0-.094-.236A.286.286,0,0,0,325.724,1619.314Z" transform="translate(-271.296 -1618.53)"/>
      <path id="패스_5680" data-name="패스 5680" class="cls-1" d="M329.751,1621.016a.482.482,0,0,1-.225.235.827.827,0,0,1-.387.093v-.234a.551.551,0,0,0,.3-.077.225.225,0,0,0,.126-.185.664.664,0,0,0-.049-.237c-.031-.077-.071-.175-.114-.287l-.424-1.024h.28l.458,1.136.409-1.136h.283Z" transform="translate(-273.798 -1618.699)"/>
    </g>
    <g id="그룹_116" data-name="그룹 116">
      <path id="패스_5681" data-name="패스 5681" class="cls-1" d="M175.673,1591.729v2.423h.276v.962h-4.7v-.962h1.168v-.777h1.109v.777h1.032v-1.463h-3.037v-.96Zm1,4.226a1.622,1.622,0,0,1,.49,1.186,1.577,1.577,0,0,1-.49,1.171,1.659,1.659,0,0,1-2.344,0,1.6,1.6,0,0,1-.482-1.171,1.649,1.649,0,0,1,.482-1.186,1.681,1.681,0,0,1,2.344,0Zm-1.6.751a.591.591,0,0,0-.174.434.557.557,0,0,0,.174.413.569.569,0,0,0,.428.184.532.532,0,0,0,.416-.184.551.551,0,0,0,.182-.413.573.573,0,0,0-.182-.434.559.559,0,0,0-.416-.169A.586.586,0,0,0,175.073,1596.706Zm3.052-3.81H179v.964h-.872v1.254h-1.184v-3.326h1.184Z" transform="translate(-171.253 -1590.688)"/>
      <path id="패스_5682" data-name="패스 5682" class="cls-1" d="M201.783,1595.694v1.013H198.46v1.2h-1.1v-1.2h-3.317v-1.013Zm-1.739-3.806v1.041h-1.919l2.426,1.52-.79.821-1.827-1.219-1.685,1.238-.892-.831,2.333-1.529H195.9v-1.041Z" transform="translate(-185.999 -1590.791)"/>
      <path id="패스_5683" data-name="패스 5683" class="cls-1" d="M220.114,1595.876v-1.662h1.111v1.662h2.491v.963h-4.687v-.963Zm3.328-3.941v3.338h-1.109V1592.9H219.29v-.962Zm2.451,1.793h.87v.965h-.87v3.374h-1.184v-6.132h1.184Z" transform="translate(-202.329 -1590.821)"/>
      <path id="패스_5684" data-name="패스 5684" class="cls-1" d="M243.587,1591.53V1590.5h1.562v-.762h1.108v.762h1.553v1.031h-.595a2.032,2.032,0,0,1,.086.309,1.615,1.615,0,0,1-.449,1.506,1.547,1.547,0,0,1-1.156.5,1.568,1.568,0,0,1-1.168-.5,1.585,1.585,0,0,1-.471-1.16,2.286,2.286,0,0,1,.021-.346,2.132,2.132,0,0,1,.1-.309Zm6.651,2.844v2.218h-1.106v-1.253h-5.3v-.965Zm-4.957-2.587a.55.55,0,0,0-.175.408.609.609,0,0,0,.6.587.549.549,0,0,0,.405-.181.564.564,0,0,0,.168-.406.584.584,0,0,0-1-.408Zm4.957-.189h.872v.965h-.872v1.253h-1.106v-3.322h1.106Z" transform="translate(-218.302 -1589.399)"/>
      <path id="패스_5685" data-name="패스 5685" class="cls-1" d="M270.8,1591.935v3.324h-1.1V1592.9h-2.761v-.962Zm1.315,0h1.108v6.055h-1.108Z" transform="translate(-233.481 -1590.821)"/>
      <path id="패스_5686" data-name="패스 5686" class="cls-1" d="M295.491,1592.1v.965h-3.319v.524h2.77v2.119h-5.524v.335h5.554v.9h-6.661V1594.8h5.524v-.309h-5.524v-.905h2.758v-.524h-3.321v-.965Zm-2.468-.522-1.4-1.482-1.4,1.482-.891-.676,2.068-2.123h.446l2.069,2.1Z" transform="translate(-247.102 -1588.778)"/>
      <path id="패스_5687" data-name="패스 5687" class="cls-1" d="M316.81,1592.251v.951h-1.794v.847h-1.109v-.847h-1.794v-.951Zm-3.12,2.779H319.4v.965h-6.821v-1.841h1.109Zm1.938-5.765a1.655,1.655,0,1,1-1.165-.486A1.593,1.593,0,0,1,315.628,1589.264Zm-1.6.736a.608.608,0,0,0-.177.433.565.565,0,0,0,.177.415.582.582,0,0,0,.432.182.555.555,0,0,0,.423-.182.549.549,0,0,0,.18-.415.59.59,0,0,0-.18-.433.579.579,0,0,0-.423-.171A.607.607,0,0,0,314.032,1590Zm5.37-.125v3.326h-1.1v-1.256h-1.2v-.966h1.2v-1.1Z" transform="translate(-262.871 -1588.778)"/>
    </g>
  </g>
  <g id="그룹_118" data-name="그룹 118" transform="translate(1.099 0)">
    <path id="패스_5688" data-name="패스 5688" class="cls-2" d="M174.368,1476.129h12.184v-51.036H174.368Zm7.6-45.476a6.944,6.944,0,0,1,2.908.561l-.379,1.284a5.546,5.546,0,0,0-2.567-.527c-2.824,0-4.664,1.85-4.664,4.911,0,3.1,1.752,4.928,4.474,4.928a4.751,4.751,0,0,0,2-.324v-3.642h-2.342v-1.271h3.825v5.873a10.069,10.069,0,0,1-3.587.672,5.794,5.794,0,0,1-4.34-1.616,6.456,6.456,0,0,1-1.621-4.546A5.957,5.957,0,0,1,181.963,1430.653Z" transform="translate(-174.368 -1425.093)"/>
    <path id="패스_5689" data-name="패스 5689" class="cls-3" d="M214.509,1476.129h12.18v-51.036h-12.18Zm5.633-32.183h1.588v12.209h-1.588Z" transform="translate(-200.499 -1425.093)"/>
    <path id="패스_5690" data-name="패스 5690" class="cls-3" d="M254.655,1476.129h12.177v-51.036H254.655Zm6.231-10.48c-1.978-.724-3.205-1.778-3.205-3.48,0-1.9,1.565-3.315,3.926-3.315a5.43,5.43,0,0,1,2.666.6l-.433,1.286a4.5,4.5,0,0,0-2.292-.575c-1.648,0-2.281,1-2.281,1.829,0,1.141.737,1.7,2.413,2.355,2.049.813,3.077,1.789,3.077,3.586,0,1.884-1.366,3.532-4.227,3.532a6.274,6.274,0,0,1-3.1-.8l.416-1.321a5.311,5.311,0,0,0,2.787.8c1.607,0,2.541-.832,2.541-2.082C263.172,1466.936,262.528,1466.264,260.886,1465.649Z" transform="translate(-226.633 -1425.093)"/>
    <path id="패스_5691" data-name="패스 5691" class="cls-3" d="M294.8,1425.093v51.036h12.182v-51.036Zm10.724,20.2h-3.711v10.866h-1.584v-10.866h-3.689v-1.343h8.984Z" transform="translate(-252.763 -1425.093)"/>
  </g>
</svg>
