<svg id="ls-6" xmlns="http://www.w3.org/2000/svg" width="69.994" height="70" viewBox="0 0 69.994 70">
  <defs>
    <style>
      .cls-1 {
        fill: #707271;
      }

      .cls-2 {
        fill: #fff;
      }

      .cls-3 {
        fill: #b2301c;
      }
    </style>
  </defs>
  <rect id="사각형_1244" data-name="사각형 1244" class="cls-1" width="0.298" height="47.388" transform="translate(34.836 11.211)"/>
  <path id="패스_5743" data-name="패스 5743" class="cls-1" d="M802.109,821.429l-2.5-47.322.3-.017,2.507,47.323Z" transform="translate(-766.019 -762.854)"/>
  <path id="패스_5744" data-name="패스 5744" class="cls-1" d="M801.059,821.509l-5.022-47.13.3-.034,5.011,47.128Z" transform="translate(-763.71 -763.019)"/>
  <path id="패스_5745" data-name="패스 5745" class="cls-1" d="M800.009,821.637l-7.51-46.8.308-.044,7.5,46.8Z" transform="translate(-761.42 -763.309)"/>
  <path id="패스_5746" data-name="패스 5746" class="cls-1" d="M798.987,821.819l-9.969-46.341.295-.06,9.97,46.341Z" transform="translate(-759.168 -763.713)"/>
  <path id="패스_5747" data-name="패스 5747" class="cls-1" d="M797.976,822.063l-12.41-45.754.3-.076,12.4,45.754Z" transform="translate(-756.933 -764.241)"/>
  <path id="패스_5748" data-name="패스 5748" class="cls-1" d="M796.988,822.348,782.177,777.3l.279-.093,14.823,45.044Z" transform="translate(-754.74 -764.874)"/>
  <path id="패스_5749" data-name="패스 5749" class="cls-1" d="M796,822.69l-17.185-44.205.286-.106,17.183,44.2Z" transform="translate(-752.566 -765.63)"/>
  <path id="패스_5750" data-name="패스 5750" class="cls-1" d="M795.053,823.08l-19.5-43.247.268-.126,19.51,43.249Z" transform="translate(-750.454 -766.49)"/>
  <path id="패스_5751" data-name="패스 5751" class="cls-1" d="M794.111,823.538,772.34,781.372l.265-.132L794.38,823.4Z" transform="translate(-748.374 -767.482)"/>
  <path id="패스_5752" data-name="패스 5752" class="cls-1" d="M793.211,824.021l-23.97-40.965.252-.149,23.977,40.966Z" transform="translate(-746.368 -768.561)"/>
  <path id="패스_5753" data-name="패스 5753" class="cls-1" d="M792.321,824.567,766.2,784.917l.251-.165,26.116,39.655Z" transform="translate(-744.404 -769.755)"/>
  <path id="패스_5754" data-name="패스 5754" class="cls-1" d="M791.47,825.154l-28.186-38.237.246-.176,28.185,38.233Z" transform="translate(-742.513 -771.042)"/>
  <path id="패스_5755" data-name="패스 5755" class="cls-1" d="M790.653,825.779l-30.176-36.7.234-.189L790.888,825.6Z" transform="translate(-740.697 -772.433)"/>
  <path id="패스_6246" data-name="패스 6246" class="cls-1" d="M0,0,.3,0,.675,47.539l-.3,0Z" transform="matrix(0.743, -0.669, 0.669, 0.743, 18.83, 17.464)"/>
  <path id="패스_5756" data-name="패스 5756" class="cls-1" d="M789.127,827.742l-33.909-33.906.21-.216,33.908,33.911Z" transform="translate(-737.293 -775.775)"/>
  <path id="패스_5757" data-name="패스 5757" class="cls-1" d="M787.859,828.5,752.784,796.41l.2-.222,35.072,32.086Z" transform="translate(-735.435 -777.437)"/>
  <path id="패스_5758" data-name="패스 5758" class="cls-1" d="M787.2,829.291l-36.7-30.176.177-.235,36.71,30.18Z" transform="translate(-733.96 -779.179)"/>
  <path id="패스_5759" data-name="패스 5759" class="cls-1" d="M786.573,830.123l-38.232-28.189.172-.239,38.231,28.183Z" transform="translate(-732.56 -781.001)"/>
  <path id="패스_5760" data-name="패스 5760" class="cls-1" d="M786,830.982l-39.657-26.118.16-.248,39.655,26.115Z" transform="translate(-731.267 -782.892)"/>
  <path id="패스_5761" data-name="패스 5761" class="cls-1" d="M785.471,831.865l-40.96-23.976.148-.257,40.964,23.974Z" transform="translate(-730.081 -784.844)"/>
  <path id="패스_5762" data-name="패스 5762" class="cls-1" d="M784.982,832.775l-42.164-21.769.136-.272,42.16,21.778Z" transform="translate(-728.985 -786.851)"/>
  <path id="패스_5763" data-name="패스 5763" class="cls-1" d="M784.565,833.725l-43.24-19.51.116-.273,43.249,19.508Z" transform="translate(-728.019 -788.927)"/>
  <path id="패스_5764" data-name="패스 5764" class="cls-1" d="M784.18,834.69,739.98,817.5l.1-.282,44.205,17.188Z" transform="translate(-727.148 -791.05)"/>
  <path id="패스_5765" data-name="패스 5765" class="cls-1" d="M783.845,835.674,738.8,820.856l.092-.284,45.042,14.816Z" transform="translate(-726.387 -793.217)"/>
  <path id="패스_5766" data-name="패스 5766" class="cls-1" d="M783.567,836.678,737.81,824.264l.076-.29,45.755,12.412Z" transform="translate(-725.744 -795.42)"/>
  <path id="패스_5767" data-name="패스 5767" class="cls-1" d="M783.341,837.7,737,827.723l.057-.291L783.4,837.4Z" transform="translate(-725.219 -797.658)"/>
  <path id="패스_5768" data-name="패스 5768" class="cls-1" d="M783.171,838.721l-46.8-7.5.048-.3,46.794,7.5Z" transform="translate(-724.814 -799.918)"/>
  <path id="패스_5769" data-name="패스 5769" class="cls-1" d="M783.057,839.754l-47.123-5.013.034-.3,47.121,5.02Z" transform="translate(-724.53 -802.193)"/>
  <path id="패스_5770" data-name="패스 5770" class="cls-1" d="M783,840.806l-47.318-2.513.015-.3,47.319,2.509Z" transform="translate(-724.365 -804.492)"/>
  <rect id="사각형_1246" data-name="사각형 1246" class="cls-1" width="47.388" height="0.3" transform="translate(11.288 34.756)"/>
  <path id="패스_5771" data-name="패스 5771" class="cls-1" d="M735.693,840.806l-.015-.3L783,837.992l.012.3Z" transform="translate(-724.365 -804.492)"/>
  <path id="패스_5772" data-name="패스 5772" class="cls-1" d="M735.968,839.757l-.034-.294,47.123-5.018.032.3Z" transform="translate(-724.53 -802.197)"/>
  <path id="패스_5773" data-name="패스 5773" class="cls-1" d="M736.42,838.721l-.048-.3,46.8-7.5.042.3Z" transform="translate(-724.814 -799.918)"/>
  <path id="패스_5774" data-name="패스 5774" class="cls-1" d="M737.055,837.7l-.057-.3,46.343-9.969.064.291Z" transform="translate(-725.219 -797.658)"/>
  <path id="패스_5775" data-name="패스 5775" class="cls-1" d="M737.886,836.678l-.076-.292,45.757-12.412.08.29Z" transform="translate(-725.744 -795.42)"/>
  <path id="패스_5776" data-name="패스 5776" class="cls-1" d="M738.9,835.677l-.092-.29,45.042-14.816.092.284Z" transform="translate(-726.387 -793.217)"/>
  <path id="패스_5777" data-name="패스 5777" class="cls-1" d="M740.081,834.69l-.1-.279,44.2-17.188.106.282Z" transform="translate(-727.148 -791.05)"/>
  <path id="패스_5778" data-name="패스 5778" class="cls-1" d="M741.424,833.733l-.122-.273,43.248-19.509.122.27Z" transform="translate(-728.004 -788.933)"/>
  <path id="패스_5779" data-name="패스 5779" class="cls-1" d="M742.949,832.779l-.134-.267,42.165-21.778.132.272Z" transform="translate(-728.983 -786.851)"/>
  <path id="패스_5780" data-name="패스 5780" class="cls-1" d="M744.658,831.873l-.148-.267,40.96-23.974.148.257Z" transform="translate(-730.081 -784.844)"/>
  <path id="패스_5781" data-name="패스 5781" class="cls-1" d="M746.494,830.987l-.164-.251,39.652-26.119.166.248Z" transform="translate(-731.258 -782.892)"/>
  <path id="패스_5782" data-name="패스 5782" class="cls-1" d="M748.5,830.125l-.178-.243,38.237-28.187.172.239Z" transform="translate(-732.551 -781.001)"/>
  <path id="패스_5783" data-name="패스 5783" class="cls-1" d="M750.661,829.3l-.187-.231,36.708-30.184.183.235Z" transform="translate(-733.94 -779.179)"/>
  <path id="패스_5784" data-name="패스 5784" class="cls-1" d="M752.979,828.5l-.2-.223,35.069-32.094.2.222Z" transform="translate(-735.435 -777.437)"/>
  <path id="패스_5785" data-name="패스 5785" class="cls-1" d="M755.421,827.746l-.213-.215,33.912-33.911.209.216Z" transform="translate(-737.287 -775.775)"/>
  <path id="패스_5786" data-name="패스 5786" class="cls-1" d="M758,826.461l-.221-.2,32.088-35.074.223.2Z" transform="translate(-738.951 -773.916)"/>
  <path id="패스_5787" data-name="패스 5787" class="cls-1" d="M760.693,825.783l-.233-.184,30.178-36.709.235.189Z" transform="translate(-740.685 -772.433)"/>
  <path id="패스_5788" data-name="패스 5788" class="cls-1" d="M763.513,825.154l-.247-.172,28.188-38.241.247.176Z" transform="translate(-742.502 -771.042)"/>
  <path id="패스_5789" data-name="패스 5789" class="cls-1" d="M766.437,824.573l-.252-.166,26.121-39.655.253.165Z" transform="translate(-744.39 -769.755)"/>
  <path id="패스_5790" data-name="패스 5790" class="cls-1" d="M769.455,824.033l-.263-.152,23.983-40.968.263.147Z" transform="translate(-746.337 -768.564)"/>
  <path id="패스_5791" data-name="패스 5791" class="cls-1" d="M772.593,823.538l-.267-.136L794.1,781.24l.261.132Z" transform="translate(-748.365 -767.482)"/>
  <path id="패스_5792" data-name="패스 5792" class="cls-1" d="M775.8,823.08l-.274-.12,19.509-43.253.275.126Z" transform="translate(-750.435 -766.49)"/>
  <path id="패스_5793" data-name="패스 5793" class="cls-1" d="M779.083,822.7l-.277-.11,17.189-44.207.277.109Z" transform="translate(-752.558 -765.63)"/>
  <path id="패스_5794" data-name="패스 5794" class="cls-1" d="M782.44,822.348l-.288-.092,14.82-45.044.286.093Z" transform="translate(-754.724 -764.874)"/>
  <path id="패스_6247" data-name="패스 6247" class="cls-1" d="M0,0,47.411.151v.3L0,.3Z" transform="matrix(0.267, -0.964, 0.964, 0.267, 28.441, 57.696)"/>
  <path id="패스_5795" data-name="패스 5795" class="cls-1" d="M789.312,821.823l-.294-.058,9.969-46.347.294.06Z" transform="translate(-759.168 -763.713)"/>
  <path id="패스_5796" data-name="패스 5796" class="cls-1" d="M792.8,821.637l-.3-.044,7.506-46.8.3.044Z" transform="translate(-761.42 -763.309)"/>
  <path id="패스_5797" data-name="패스 5797" class="cls-1" d="M796.335,821.513l-.3-.032,5.009-47.13.3.032Z" transform="translate(-763.71 -763.023)"/>
  <path id="패스_5798" data-name="패스 5798" class="cls-1" d="M799.879,821.433l-.307-.018,2.51-47.325.3.017Z" transform="translate(-765.998 -762.854)"/>
  <path id="패스_5799" data-name="패스 5799" class="cls-1" d="M738.6,742.245a35,35,0,1,0,35.007,34.987A35.03,35.03,0,0,0,738.6,742.245Zm0,68.726a33.726,33.726,0,1,1,33.727-33.729A33.727,33.727,0,0,1,738.6,810.971Z" transform="translate(-703.613 -742.245)"/>
  <g id="그룹_121" data-name="그룹 121" transform="translate(28.969 12.228)">
    <path id="패스_5800" data-name="패스 5800" class="cls-2" d="M789.894,777.2l-.968.431a3.424,3.424,0,0,1-.779.222l-.259.038-.346.943.453,0c-.143.395-.578,1.569-.578,1.569s-.054.138-.082.191l-.4.063-.114.235-.3.724h2.176l.373-.917-.446-.065C788.758,780.263,789.894,777.2,789.894,777.2Z" transform="translate(-786.516 -777.2)"/>
    <path id="패스_5801" data-name="패스 5801" class="cls-2" d="M797.643,778.653a.972.972,0,0,0-.792-.354h0a1.861,1.861,0,0,0-1.664,1.521,1.938,1.938,0,0,0-.02.273,1.087,1.087,0,0,0,.248.708.874.874,0,0,0,.3.236,1.747,1.747,0,0,1-.76.351l-.329.07-.084.957h.482a3.219,3.219,0,0,0,.774-.173,3.284,3.284,0,0,0,2.073-2.421A1.418,1.418,0,0,0,797.643,778.653Zm-.987.793a.763.763,0,0,1-.023.171s-.062.2-.113.34a.424.424,0,0,1-.072.03v0a.482.482,0,0,1,.011-.117A.8.8,0,0,1,796.656,779.446Z" transform="translate(-791.706 -777.911)"/>
    <path id="패스_5802" data-name="패스 5802" class="cls-2" d="M805.476,779.385a1.677,1.677,0,0,1,.277-.171l.793-.239.068-.324.045-.711-.557.108-.108.018-.592.144a3.127,3.127,0,0,0-2.183,2.439,1.481,1.481,0,0,0-.03.266.452.452,0,0,1-.037.051s.034-.009.034-.013c0,.013-.014.031-.014.037a1.19,1.19,0,0,0,.269.8,1.037,1.037,0,0,0,.814.369,1.866,1.866,0,0,0,1.7-1.563,2.441,2.441,0,0,0,.027-.29,1.132,1.132,0,0,0-.236-.724A.987.987,0,0,0,805.476,779.385Zm-.771,1a.7.7,0,0,1-.014.134.841.841,0,0,1-.259.528h0a.982.982,0,0,1,.029-.221,1.373,1.373,0,0,1,.122-.394.656.656,0,0,1,.122-.056Z" transform="translate(-797.282 -777.679)"/>
    <path id="패스_5803" data-name="패스 5803" class="cls-2" d="M814.193,778.629a.928.928,0,0,0-.739-.33h-.008c-1.185,0-1.9,1.657-2.053,2.455a1.538,1.538,0,0,0,.173,1.311.92.92,0,0,0,.732.327c1.188,0,1.911-1.676,2.078-2.488A1.533,1.533,0,0,0,814.193,778.629Zm-1.069,1.1a5.551,5.551,0,0,1-.482,1.214A5.726,5.726,0,0,1,813.124,779.726Z" transform="translate(-802.572 -777.911)"/>
  </g>
  <g id="그룹_122" data-name="그룹 122" transform="translate(29.634 13.033)">
    <path id="패스_5804" data-name="패스 5804" class="cls-1" d="M788.4,782.7l.048-.109c.41-.048.446-.073.6-.5l.676-1.832c.114-.294.1-.317-.149-.324l-.187-.006.041-.12a2.889,2.889,0,0,0,.891-.253l-.934,2.534c-.159.426-.128.452.269.5l-.044.109Z" transform="translate(-788.404 -779.537)"/>
    <path id="패스_5805" data-name="패스 5805" class="cls-1" d="M797.636,779.717c.46,0,.361.587.32.8a2.791,2.791,0,0,1-.2.593.943.943,0,0,1-.46.15c-.355,0-.466-.285-.395-.66.082-.446.376-.881.731-.881Zm.094-.158a1.409,1.409,0,0,0-1.213,1.161c-.1.466.146.8.519.8a.692.692,0,0,0,.27-.073l.38-.179a2.7,2.7,0,0,1-1.772,1.374l-.013.137a2.374,2.374,0,0,0,.625-.143,2.81,2.81,0,0,0,1.784-2.083c.086-.454,0-1-.575-1Z" transform="translate(-793.256 -779.537)"/>
    <path id="패스_5806" data-name="패스 5806" class="cls-1" d="M805.577,780.941c.441,0,.468.378.416.67-.109.562-.416.956-.757.956-.384,0-.426-.418-.35-.816a2.259,2.259,0,0,1,.211-.65,1.091,1.091,0,0,1,.481-.16Zm1.468-1.445a3.963,3.963,0,0,0-.644.148,2.729,2.729,0,0,0-1.891,2.1c-.107.569.126.982.607.982a1.43,1.43,0,0,0,1.266-1.208c.086-.452-.108-.834-.556-.834a.964.964,0,0,0-.3.085l-.331.159-.007,0a2.559,2.559,0,0,1,1.269-1.115,2.6,2.6,0,0,1,.577-.17Z" transform="translate(-798.81 -779.496)"/>
    <path id="패스_5807" data-name="패스 5807" class="cls-1" d="M814.207,779.717c.328,0,.276.442.211.746-.1.471-.648,2.145-1.254,2.145-.306,0-.27-.432-.2-.766.105-.5.64-2.124,1.243-2.124Zm.047-.158c-.856,0-1.48,1.372-1.63,2.1-.115.53-.063,1.107.482,1.107.85,0,1.49-1.382,1.638-2.136.107-.5.065-1.071-.482-1.071Z" transform="translate(-804.046 -779.537)"/>
  </g>
  <g id="그룹_123" data-name="그룹 123" transform="translate(21.563 17.787)">
    <path id="패스_5808" data-name="패스 5808" class="cls-2" d="M791.533,814.255a22.971,22.971,0,0,1-.229-16.317l-3.985-4.361H770.626l-3.988,4.361a22.975,22.975,0,0,1-.234,16.317c-.593,1.532-1.844,5.888.468,9.646,2.637,4.293,8.987,7.045,12.1,8.669v-.041l.006.041c3.1-1.624,9.451-4.376,12.1-8.669C793.389,820.143,792.125,815.787,791.533,814.255Z" transform="translate(-765.529 -793.577)"/>
  </g>
  <g id="그룹_132" data-name="그룹 132" transform="translate(3.151 3.224)">
    <g id="그룹_125" data-name="그룹 125" transform="translate(0 27.428)">
      <g id="그룹_124" data-name="그룹 124">
        <path id="패스_5809" data-name="패스 5809" class="cls-1" d="M714.922,833.9c-.6.165-1.841.685-1.881,1.675a1,1,0,0,0,1.069,1.028c.671.022,1.111-.372,1.524-1.126.526-.961,1.185-1.649,2.191-1.607a2.052,2.052,0,0,1,2.015,2.31,4.081,4.081,0,0,1-.337,1.36c-.4.025-.886.072-1.617.138l-.069-.4c.658-.176,1.495-.454,1.524-1.258a.93.93,0,0,0-1-.974c-.545-.019-.955.321-1.378,1.14a2.427,2.427,0,0,1-2.283,1.632,2.21,2.21,0,0,1-2.136-2.478,2.9,2.9,0,0,1,.213-1.01,3.744,3.744,0,0,1,.27-.587c.285-.072,1.036-.163,1.768-.239Z" transform="translate(-712.544 -832.523)"/>
        <path id="패스_5810" data-name="패스 5810" class="cls-1" d="M719.552,853.14c.187.968-.754,1.7-2.45,2.025-1.61.308-2.465-.073-2.609-.851-.2-1.029.9-1.792,2.415-2.082,1.453-.279,2.5.075,2.645.891Zm.434.045a2.859,2.859,0,0,0-3.536-2.14,2.718,2.718,0,0,0-2.4,3.19,2.815,2.815,0,0,0,3.56,2.1,2.7,2.7,0,0,0,2.374-3.143Z" transform="translate(-713.486 -843.834)"/>
        <path id="패스_5811" data-name="패스 5811" class="cls-1" d="M722.5,875.469a4.364,4.364,0,0,0-.722.383,6.136,6.136,0,0,1-1.068-1.5,2.8,2.8,0,0,1,1.435-3.973,2.945,2.945,0,0,1,4.095,1.572,6.024,6.024,0,0,1,.433,1.5c-.261.146-.665.377-1.33.743l-.175-.284a1.462,1.462,0,0,0,.628-1.924c-.4-.893-1.548-1.193-2.987-.549-1.266.583-2.233,1.628-1.676,2.831a.546.546,0,0,0,.256.312.552.552,0,0,0,.5-.055l.727-.328c.532-.243.57-.31.3-1.1l.31-.141,1,2.205-.3.144c-.252-.324-.293-.365-.8-.13Z" transform="translate(-717.614 -856.18)"/>
        <path id="패스_5812" data-name="패스 5812" class="cls-1" d="M730.013,889.569c.612-.221,1.214-.447,1.853-.67l.01.021-1.132,1.6Zm.434,1.351c-.159.263-.414.656-.565.881-.222.35-.316.375-.68.014l-.262.207,1.392,1.8.26-.2c-.21-.381-.26-.526.2-1.24.506-.761,1.14-1.689,1.77-2.6l.983-1.436-.378-.289-4.6,1.5c-.762.247-.9.176-1.237-.164l-.263.2,1.123,1.462.262-.207c-.319-.5-.233-.555.186-.737.335-.14.692-.279.909-.348Z" transform="translate(-721.948 -867.823)"/>
        <path id="패스_5813" data-name="패스 5813" class="cls-1" d="M743.34,897.376c.355-.447.5-.616.513-.873a.861.861,0,0,0-.333-.67l.2-.259,1.153.932-.135,4.929.016.014.981-1.209a14.3,14.3,0,0,0,.891-1.2c.171-.288.1-.537-.292-.915l.2-.257,1.6,1.3-.217.259c-.312-.223-.552-.243-.8,0a12.983,12.983,0,0,0-1.021,1.118l-2.2,2.7-.417-.34.277-5.293-.018-.008-1.171,1.454a10.625,10.625,0,0,0-.879,1.2c-.191.294-.121.533.279.9l-.215.261-1.6-1.3.21-.259c.336.235.574.264.824.021a11.334,11.334,0,0,0,1.01-1.106Z" transform="translate(-730.517 -872.693)"/>
        <path id="패스_5814" data-name="패스 5814" class="cls-1" d="M763.589,914.7a4.253,4.253,0,0,0-.313.745,6.629,6.629,0,0,1-1.776-.478,2.781,2.781,0,0,1-1.4-3.981,2.944,2.944,0,0,1,4.166-1.381,6.081,6.081,0,0,1,1.276.879c-.109.288-.284.721-.549,1.422l-.327-.1a1.477,1.477,0,0,0-.73-1.9c-.878-.425-1.957.065-2.654,1.482-.609,1.245-.694,2.667.492,3.252a.529.529,0,0,0,.4.077c.119-.024.237-.121.355-.361l.352-.721c.257-.529.25-.6-.459-1.037l.149-.3,2.172,1.065-.15.3c-.4-.1-.451-.1-.7.4Z" transform="translate(-743.245 -881.536)"/>
        <path id="패스_5815" data-name="패스 5815" class="cls-1" d="M786.132,914.156c.117-.984.043-1.071-.675-1.231l.052-.4,2.966.359-.057.411c-.723-.018-.836.05-.956,1.029l-.278,2.3c-.193,1.614.184,2.56,1.234,2.689,1.127.135,1.744-.751,1.96-2.519l.133-1.049a11.341,11.341,0,0,0,.085-1.622c0-.377-.218-.549-.862-.674l.047-.405,2.479.3-.049.405c-.5-.032-.744.1-.851.472a15.593,15.593,0,0,0-.286,1.59l-.135,1.094a4.084,4.084,0,0,1-1.021,2.572,2.406,2.406,0,0,1-1.938.563,2.619,2.619,0,0,1-1.714-.8,3.2,3.2,0,0,1-.434-2.57Z" transform="translate(-759.985 -883.661)"/>
        <path id="패스_5816" data-name="패스 5816" class="cls-1" d="M807.289,917.814c-.079-.565-.113-.774-.293-.962a.858.858,0,0,0-.72-.213l-.057-.328,1.467-.215,3.543,3.43h.02l-.227-1.535a12.416,12.416,0,0,0-.284-1.478c-.089-.316-.32-.441-.867-.393l-.053-.336,2.033-.3.049.336c-.387.081-.559.243-.549.587a12.12,12.12,0,0,0,.14,1.51l.5,3.437-.532.079-3.7-3.779h-.019l.27,1.855a14.391,14.391,0,0,0,.285,1.456c.1.33.324.444.851.4l.05.33-2.034.3-.054-.334c.4-.083.576-.241.571-.583a10.657,10.657,0,0,0-.126-1.5Z" transform="translate(-773.489 -885.581)"/>
        <path id="패스_5817" data-name="패스 5817" class="cls-1" d="M825.172,914.068c-.235-.695-.33-.735-.911-.6l-.108-.312,2.321-.79.107.32c-.549.247-.6.332-.36,1.029l1.085,3.2c.235.7.328.735.9.6l.114.32-2.319.79-.107-.322c.545-.25.6-.33.361-1.029Z" transform="translate(-785.146 -883.561)"/>
        <path id="패스_5818" data-name="패스 5818" class="cls-1" d="M837.9,910.813c-1.243-1.136-2.981-2.691-3.671-3.3-.551-.488-.693-.488-1.12-.318l-.17-.3,2.082-1.164.17.3c-.49.344-.462.409-.191.676.336.33,1.679,1.545,2.633,2.383l.022-.012c-.2-1.2-.444-2.428-.624-3.226-.127-.581-.212-.674-.8-.405l-.168-.3,1.7-.94.166.288c-.4.3-.488.413-.369,1.292.1.672.452,2.9.784,4.779Z" transform="translate(-790.871 -878.279)"/>
        <path id="패스_5819" data-name="패스 5819" class="cls-1" d="M849.456,898.679c-.482-.551-.589-.551-1.063-.2l-.221-.259,2.855-2.507c.11.105.567.567.976.972l-.231.253a1.669,1.669,0,0,0-.737-.362c-.2-.024-.434.089-.764.381l-.245.206c-.206.191-.223.231-.028.45l1.166,1.325.4-.357c.525-.458.516-.514.148-1.079l.245-.224,1.29,1.462-.255.221c-.529-.454-.581-.472-1.108-.01l-.409.356,1.032,1.166c.278.324.436.45.612.4a1.755,1.755,0,0,0,.559-.381,1.145,1.145,0,0,0,.472-.808,2.815,2.815,0,0,0-.249-.936l.3-.158c.211.314.68,1.093.788,1.322l-3.1,2.726-.217-.251c.492-.519.5-.612.024-1.162Z" transform="translate(-800.885 -872.782)"/>
        <path id="패스_5820" data-name="패스 5820" class="cls-1" d="M860.348,887.315c-.141-.105-.2-.17-.214-.251a.479.479,0,0,1,.123-.312,1.049,1.049,0,0,1,1.549-.028,1.358,1.358,0,0,1,.6.95,1.046,1.046,0,0,1-.273.735l-.126.164Zm2.353,3.126c.579.441.591.545.257,1.073l.276.2,1.476-1.946-.267-.2c-.413.447-.514.468-1.1.022l-1.026-.777.105-.138A.48.48,0,0,1,863,888.5a11.73,11.73,0,0,0,1.5.28c.636.047.992-.022,1.651-.812.069-.081.12-.146.184-.211l-.227-.223a1.071,1.071,0,0,1-.571.16,7.324,7.324,0,0,1-1.177-.069c-.47-.038-1.116-.176-1.383-.227a1.523,1.523,0,0,0-.6-1.7,1.337,1.337,0,0,0-1.24-.261,2.484,2.484,0,0,0-1.124.972l-1.355,1.786.267.206c.407-.429.5-.454,1.069-.016Z" transform="translate(-807.674 -866.094)"/>
        <path id="패스_5821" data-name="패스 5821" class="cls-1" d="M872.735,876.737c.51.081,1.612.1,1.976-.632a.814.814,0,0,0-.464-1.126c-.5-.251-.962-.1-1.521.326a2.013,2.013,0,0,1-2.191.492,1.7,1.7,0,0,1-.749-2.414,3.161,3.161,0,0,1,.713-.909c.308.115.692.237,1.263.435l-.079.32c-.557-.089-1.278-.154-1.572.441a.768.768,0,0,0,.427,1.057c.407.2.826.077,1.424-.4a1.977,1.977,0,0,1,2.254-.468,1.807,1.807,0,0,1,.786,2.57,2.373,2.373,0,0,1-.5.7,3.389,3.389,0,0,1-.4.35c-.241-.041-.83-.225-1.407-.4Z" transform="translate(-814.727 -857.743)"/>
        <path id="패스_5822" data-name="패스 5822" class="cls-1" d="M874.578,864.539c-.7-.225-.788-.17-1.029.377l-.32-.1.753-2.333.314.105c-.127.579-.089.681.612.9l3.215,1.031c.7.221.782.17,1.027-.385l.316.109-.746,2.331-.318-.1c.123-.583.089-.678-.613-.9Z" transform="translate(-817.101 -851.277)"/>
        <path id="패스_5823" data-name="패스 5823" class="cls-1" d="M876.458,850.038l-.03.2c-.087.607.006.822.125.954a2.568,2.568,0,0,0,.812.446l-.047.324c-.7-.13-1.3-.267-1.742-.344l.024-.188a.388.388,0,0,0,.275-.391l.456-3.23a.441.441,0,0,0-.154-.457l.018-.185c.377.05,1.114.107,1.745.153l-.022.328a2.062,2.062,0,0,0-.943.2c-.168.113-.261.367-.32.8l-.047.308,4.093.576c.733.105.81.031.972-.674l.328.047-.364,2.642-.332-.053c.024-.676-.014-.773-.745-.875Z" transform="translate(-818.62 -841.369)"/>
        <path id="패스_5824" data-name="패스 5824" class="cls-1" d="M880.917,833.582a.971.971,0,0,0-.5.156c-.49.254-1.041.591-1.989,1.165-.555.339-.6.439-.638.861l-.334.025-.156-2.277.334-.025c.115.535.2.515.467.375.594-.325,1.249-.71,1.813-1.052-.47-.2-1.351-.537-1.907-.7-.324-.093-.405-.074-.434.531l-.338.026-.14-1.928.344-.021c.089.5.21.622.773.883a17.62,17.62,0,0,0,1.8.771,1.224,1.224,0,0,0,.721.118l1.018-.078c.788-.054.837-.12.853-.839l.334-.026.188,2.626-.342.023c-.105-.676-.164-.74-.95-.68Z" transform="translate(-819.605 -830.724)"/>
      </g>
    </g>
    <g id="그룹_131" data-name="그룹 131" transform="translate(10.376)">
      <g id="그룹_126" data-name="그룹 126" transform="translate(21.775 0.215)">
        <path id="패스_5825" data-name="패스 5825" class="cls-1" d="M808.239,756.749c-.32.075-.327.12-.59.081a.829.829,0,0,1-.34-.079c-.131-.059-.171-.071-.312-.132a.809.809,0,0,1-.591-.973,5.112,5.112,0,0,1,.323-1.681c.15-.129.117-.273.15-.385s.182-.134.261-.11a1.834,1.834,0,0,0,.439.134,3.082,3.082,0,0,1,.361-.016.571.571,0,0,0,.5-.059s.444-.246.492-.468.032-.528-.47-.606a8.556,8.556,0,0,1-1.135-.244c-.211-.063-.378-.108-.534-.15a.641.641,0,0,0-.661.049c-.244.177-.221.319-.169.448.081.207.462.421.418.508s-.257.192-.31.261-.18.164-.151.3a.383.383,0,0,1-.178.372c-.146.1-.185.368-.206.495l-.237,1.7s-.391,1.2,1.6,1.53a7.346,7.346,0,0,0,1.363.09c.15-.022.211-.143.328-.234a.653.653,0,0,0,.113-.423A.413.413,0,0,0,808.239,756.749Z" transform="translate(-805.273 -751.99)"/>
        <path id="패스_5826" data-name="패스 5826" class="cls-1" d="M821.106,756.49a17.641,17.641,0,0,0,.113-2.127c0-.042.126-.6-.113-.666a.776.776,0,0,0-.391-.032.276.276,0,0,0-.344.27c-.034.346-.2.663-.239.922-.018.138-.213,1.657-.257,2.221-.229-.024-.526-.067-.717-.093.162-1.164.352-2.853.048-3.14-.231-.217-.3-.329-.518-.312a.274.274,0,0,0-.243.105.612.612,0,0,0-.077.464c.028.286-.389,2.681-.441,3.2a7.85,7.85,0,0,0-.142,1.768.333.333,0,0,0,.435.03c.2-.119.492.044.662-.073a3.7,3.7,0,0,0,.129-.963.986.986,0,0,1,.012-.134c.047-.014.117-.028.2-.051a1.042,1.042,0,0,1,.561.052c-.044.5-.1,1.036-.1,1.063a.466.466,0,0,0,.4.528c.535.091.636-.047.812-.518A19.854,19.854,0,0,0,821.106,756.49Z" transform="translate(-813.349 -752.988)"/>
      </g>
      <g id="그룹_127" data-name="그룹 127" transform="translate(8.543)">
        <path id="패스_5827" data-name="패스 5827" class="cls-1" d="M771.365,757.861a1.508,1.508,0,0,0,.758-1.3c.052-.471-.017-1.609-.473-1.838-.34-.174-.488-.111-.539-.094-.117.041-.289.168-.388.189a4.106,4.106,0,0,0-.767.189,7.563,7.563,0,0,1-1.225.267,2.391,2.391,0,0,1-.474-.054c-.145-.009-.274.218-.274.218a1.522,1.522,0,0,0-.2.824c.082.287.262.448.825.317a1.617,1.617,0,0,0,.83-.443c.2-.145.845-.719,1.182-.61s.295,1.3-.081,2.639c-.012,0,.035-.049.451-.226C771.177,757.861,771.243,757.914,771.365,757.861Z" transform="translate(-767.77 -753.47)"/>
        <path id="패스_5828" data-name="패스 5828" class="cls-1" d="M785.156,752.534a.718.718,0,0,1-.135-.229.7.7,0,0,0-.12-.173c-.133-.152-.5,0-.629.014a2.272,2.272,0,0,0-.534.149,1.705,1.705,0,0,1-.549.2c-.2.032-.4.1-.576.133a1.7,1.7,0,0,0-.246.058c-.077-.183-.159-.357-.206-.442-.068-.1-.345-1-.864-.845-.151.043-.18.222-.227.283a2.059,2.059,0,0,0-.013,1.005,16.618,16.618,0,0,0,.592,1.814.526.526,0,0,0,.382.325c.145.009.289-.029.4-.029a.386.386,0,0,0,.332-.225c.135-.229.1-.257.056-.465-.04-.188-.193-.727-.223-.821a2.021,2.021,0,0,1,.261-.049,1.971,1.971,0,0,1,.812.171,2.128,2.128,0,0,0,.858-.117c.164-.085.252-.224.4-.311C785.316,752.75,785.206,752.594,785.156,752.534Z" transform="translate(-776.335 -751.382)"/>
        <path id="패스_5829" data-name="패스 5829" class="cls-1" d="M780.781,762.073l-.616.074a.391.391,0,0,0-.175-.2.316.316,0,0,0-.287.126,6.378,6.378,0,0,0-.707.4,1.8,1.8,0,0,0-.456.366,2.133,2.133,0,0,0-.219,2.321,1.885,1.885,0,0,0,1.953.963,3.5,3.5,0,0,0,2.034-1.018,1.883,1.883,0,0,0,.105-1.95A1.8,1.8,0,0,0,780.781,762.073Zm.735,2.246a1.489,1.489,0,0,1-1.57.668,1.01,1.01,0,0,1-.749-1.261.962.962,0,0,1,.567-.735c.526-.19.543-.156.543-.156.626-.044.735.134.875.241A1.056,1.056,0,0,1,781.516,764.319Z" transform="translate(-774.447 -758.22)"/>
      </g>
      <g id="그룹_128" data-name="그룹 128" transform="translate(33.755 3.237)">
        <path id="패스_5830" data-name="패스 5830" class="cls-1" d="M850.182,761.776a.474.474,0,0,0,.69.115.751.751,0,0,0,.219-.782.843.843,0,0,0-.693-.553s-.411.009-.407.379A2.067,2.067,0,0,0,850.182,761.776Z" transform="translate(-846.193 -760.556)"/>
        <path id="패스_5831" data-name="패스 5831" class="cls-1" d="M840.481,766.332a2.228,2.228,0,0,0,.62.165,1.427,1.427,0,0,1,.5.055,1.1,1.1,0,0,0,.948-.316,2.123,2.123,0,0,0,.451-2.116,3.882,3.882,0,0,0-.367-.661c-.178-.215.3.05.391.1s.334.284.575.132.156-.132.318-.184c.124-.046.182-.17.1-.407a1.026,1.026,0,0,0-.389-.545c-.227-.17-.806-.561-1-.709s-.852-.629-.852-.629-.511-.408-.763,0-.359.652-.069,1.009a3.639,3.639,0,0,0,.559.547,2.322,2.322,0,0,0-1.381.362,1.664,1.664,0,0,0-.826,1.822A2.345,2.345,0,0,0,840.481,766.332Zm.2-2.19a.746.746,0,0,1,1-.254,1.035,1.035,0,0,1,.567,1.349c-.188.4-.394.45-.484.428a3.249,3.249,0,0,0-.4-.106c-.13-.012-.144.084-.312.008a.7.7,0,0,1-.423-.42A.874.874,0,0,1,840.683,764.142Z" transform="translate(-839.226 -760.868)"/>
        <path id="패스_5832" data-name="패스 5832" class="cls-1" d="M852.819,769.95c-.21-.433-.526-.575-1.083-1.024a1.773,1.773,0,0,1-.616-.784c.225-.338.419-.641.5-.78a3.327,3.327,0,0,0,.681-1.576c0-.551-.373-.375-.383-.366a2.005,2.005,0,0,1-.365.278c-.107.038-.33.163-.35.268,0,0-1.1,1.689-1.644,2.61-.682,1.163-.812,1.42-.6,1.54a.645.645,0,0,0,.553.052.811.811,0,0,0,.63-.483c.069-.15.308-.523.577-.931.212.172.231.208.314.555a1.72,1.72,0,0,0,.7,1.1c.541.385.814.271.915.18A.5.5,0,0,0,852.819,769.95Z" transform="translate(-845.463 -763.682)"/>
        <path id="패스_5833" data-name="패스 5833" class="cls-1" d="M844,778.162s-.123-.066-.261-.145a1.469,1.469,0,0,1-.429-.34,9.5,9.5,0,0,0-1.282-.922,8.2,8.2,0,0,0-1.618-.773c-.417-.155-.5.042-.551.087,0,0-.3.3.215.6.389.231.608.057,1.138.418s1.424.718,1.7.965.338.389.16.682-.6.894-.6.894-.166.341.091.482a.793.793,0,0,0,.634.06c.267-.07.607-.647.7-.784A.982.982,0,0,0,844,778.162Z" transform="translate(-839.582 -770.501)"/>
      </g>
      <g id="그룹_129" data-name="그룹 129" transform="translate(0 5.212)">
        <path id="패스_5834" data-name="패스 5834" class="cls-1" d="M745.583,773.78s-.254.11-.3-.108a2.162,2.162,0,0,0-.473-1.1s-.267-.359-.578-.359c-.194-.008-.194.1-.21.118-.009.1.023.085.051.248.043.27.061.359-.168,1.427-.206.947-.158.835-.241,1.136-.066.215-.245,1.092.063,1.466.266.325.605.407.9.1a1.607,1.607,0,0,0,.326-.848,2.221,2.221,0,0,1,.19-.57.852.852,0,0,1,.94-.378c.4.1.517.318.513.905a1.088,1.088,0,0,1,.059.284,3.039,3.039,0,0,1-.453,1.033c-.245.3-.3.178-.429.289a1.655,1.655,0,0,0-.3.9c.035.235.115.344.533.364.29.013.494-.132.823-.6a4.659,4.659,0,0,0,.7-2.081,2.686,2.686,0,0,0-.678-1.874A1.211,1.211,0,0,0,745.583,773.78Z" transform="translate(-743.557 -770.078)"/>
        <path id="패스_5835" data-name="패스 5835" class="cls-1" d="M756.412,769.551c-.509-.606-1.761-2.316-1.761-2.316a2.64,2.64,0,0,0-1.582-1.08.44.44,0,0,0-.342.346c-.085.319.173.622.291.778s.161.156.232.342a3.125,3.125,0,0,0,.531.765c.087.122.038.34-.187.5s-.741.614-.741.614.041-.059-.093.1.1.235.208.308a.567.567,0,0,0,.457.1,1.738,1.738,0,0,0,.593-.162c.2-.128.494-.365.494-.365.148-.045.185-.081.282,0s1.325,1.7,1.569,1.856a.423.423,0,0,0,.5.007c.116-.055.267.037.343-.408C757.3,770.364,756.914,770.162,756.412,769.551Z" transform="translate(-749.481 -766.155)"/>
      </g>
      <g id="그룹_130" data-name="그룹 130" transform="translate(40.941 13.043)">
        <path id="패스_5836" data-name="패스 5836" class="cls-1" d="M873.8,789.373c.146.2.091.229.166.349a6.173,6.173,0,0,0,.545.619c.217.226.667.85.63,1.028-.044.161-.057.45-.875,1.1-.9.734-1.021.829-1.069,1.068s-.041.216.036.379c.091.184.2.322.64.126a7.96,7.96,0,0,1,.837-.422,2.482,2.482,0,0,0,.978-.717,1.584,1.584,0,0,0,.2-1.858c-.243-.516-.283-.464-.389-.694s-.636-.876-.812-1.16-.358-.656-.456-.792c-.062-.085-.231-.053-.334,0a.338.338,0,0,0-.257.3A.941.941,0,0,0,873.8,789.373Z" transform="translate(-868.377 -788.349)"/>
        <path id="패스_5837" data-name="패스 5837" class="cls-1" d="M865.258,790.216a.556.556,0,0,0,.1.329c.093.109.306.08.393.116a1.516,1.516,0,0,0,.438.095c.115,0,.15-.049.162-.14s.237-.321.336-.46a.689.689,0,0,0,.017-.578c-.065-.116-.194-.15-.426-.018a.764.764,0,0,1-.411.108.63.63,0,0,0-.549.288A.472.472,0,0,0,865.258,790.216Z" transform="translate(-863.259 -789.077)"/>
        <path id="패스_5838" data-name="패스 5838" class="cls-1" d="M865.643,796.976c-.065-.149-.059-.237-.129-.385s-.931-1.239-1.142-1.52c-.111-.158-.656-1.033-1.422-2.086a.706.706,0,0,0,.213.041,1.456,1.456,0,0,1,.476.1c.077.025.774-.289.857-.6a3.268,3.268,0,0,0,.1-.771.357.357,0,0,0-.543-.235.768.768,0,0,1-.365.061,1.037,1.037,0,0,0-.563.312,3.946,3.946,0,0,1-.375.439c-.051.052-.112.123-.156.178a21.284,21.284,0,0,0-1.59-1.9,1.4,1.4,0,0,1-.322-.417c-.085-.2.043-.395-.241-.551a1.7,1.7,0,0,0-.342-.039c-.16,0-.186.078-.253.087s-.306.032-.243.278a1.249,1.249,0,0,0,.156.519c.083.116.134.333.243.467.125.138.494.419.7.633s1.972,2.291,2.284,2.777,1.571,2.329,1.748,2.677.249.317.451.4a.588.588,0,0,0,.533-.079C865.785,797.286,865.714,797.131,865.643,796.976Z" transform="translate(-859.592 -789.16)"/>
      </g>
    </g>
  </g>
  <g id="그룹_133" data-name="그룹 133" transform="translate(22.934 19.126)">
    <path id="패스_5839" data-name="패스 5839" class="cls-3" d="M793.551,819.778a3.622,3.622,0,0,0-.073-.369c-.166-.656-.37-1.332-.593-2.048a30.2,30.2,0,0,1-1.772-9.59,33.217,33.217,0,0,1,1.087-7.163c-.673-.725-2.5-2.619-3.084-3.248H773.851c-.587.629-2.418,2.523-3.086,3.248a33.13,33.13,0,0,1,1.1,7.163,29.86,29.86,0,0,1-1.783,9.59c-.214.716-.42,1.392-.59,2.048,0,0-.032.13-.071.356l12.061-11.721Z" transform="translate(-769.416 -797.359)"/>
    <path id="패스_5840" data-name="패스 5840" class="cls-3" d="M771.436,855.565a8.637,8.637,0,0,0,.987,1.626c1.854,2.46,5.135,4.364,7.771,5.749,1.058.55,1.91.83,2.59,1.279v0h.019v0c.671-.449,1.526-.729,2.587-1.279,2.634-1.385,5.912-3.289,7.763-5.749a8.2,8.2,0,0,0,.988-1.622l-11.357-10.728Z" transform="translate(-770.723 -828.089)"/>
  </g>
  <g id="그룹_134" data-name="그룹 134" transform="translate(27.109 22.417)">
    <path id="패스_5841" data-name="패스 5841" class="cls-2" d="M781.47,807.1c0-.289-.03-.391-.3-.414v-.1h1.364v.108c-.278.022-.308.118-.308.42v3.7c0,.293.02.39.3.414v.113h-1.353v-.108c.272-.018.3-.113.3-.413Z" transform="translate(-781.167 -806.499)"/>
    <path id="패스_5842" data-name="패스 5842" class="cls-2" d="M790.553,808.669v-1.543c0-.3.021-.395-.225-.416v-.12h1.27v.12c-.278.021-.306.12-.306.416v3.687c0,.3.028.395.3.423v.113h-1.343v-.108c.282-.018.3-.113.3-.413V809h-1.814v1.822c0,.3.015.395.276.413v.108H787.7v-.1c.274-.023.3-.122.3-.411v-3.723c0-.3-.017-.4-.3-.42v-.108h1.265v.1c-.238.023-.221.125-.221.414v1.567Z" transform="translate(-785.392 -806.499)"/>
    <path id="패스_5843" data-name="패스 5843" class="cls-2" d="M800.258,810.3a1.494,1.494,0,0,0,1.306.694.772.772,0,0,0,.811-.843c0-.487-.346-.8-.878-1.068-.556-.289-1.265-.7-1.265-1.424a1.407,1.407,0,0,1,1.59-1.328,3.469,3.469,0,0,1,.957.158c.025.286.055.442.083.66l-.127.018c-.083-.217-.331-.56-1.04-.56a.717.717,0,0,0-.73.758c0,.437.334.708.865.967.634.307,1.3.7,1.3,1.514a1.517,1.517,0,0,1-1.695,1.435,2.374,2.374,0,0,1-.673-.093,2.9,2.9,0,0,1-.5-.162,5.9,5.9,0,0,1-.12-.695Z" transform="translate(-793.444 -806.332)"/>
  </g>
  <g id="그룹_135" data-name="그룹 135" transform="translate(27.852 44.044)">
    <path id="패스_5844" data-name="패스 5844" class="cls-2" d="M794.034,868.454l-.347,1.012a6.334,6.334,0,0,1,.706.14l-.592,1.6s-1.16-.194-2.276-.253l.063-1.725a4.777,4.777,0,0,1,.585.037l.119-1.011c-.583-.047-1.171-.069-1.774-.069-.587,0-1.176.022-1.758.069l.116,1.011a4.65,4.65,0,0,1,.572-.037l.069,1.725c-1.11.059-2.265.253-2.265.253l-.605-1.6c.361-.083.712-.138.712-.138l-.345-1.011a22.2,22.2,0,0,0-3.658.9,43.13,43.13,0,0,1,2.932,4.913,22.171,22.171,0,0,1,8.464,0,38.783,38.783,0,0,1,2.938-4.913A21.38,21.38,0,0,0,794.034,868.454Z" transform="translate(-783.354 -868.181)"/>
  </g>
  <g id="그룹_137" data-name="그룹 137" transform="translate(6.689 16.32)">
    <g id="그룹_136" data-name="그룹 136">
      <path id="패스_5845" data-name="패스 5845" class="cls-1" d="M727.308,806.3l-.227.421a4.621,4.621,0,0,1-2.657-.432,4.7,4.7,0,0,1-1.852-1.972l.225-.426a5.1,5.1,0,0,0,1.919,1.844A5.183,5.183,0,0,0,727.308,806.3Z" transform="translate(-722.572 -798.607)"/>
      <path id="패스_5846" data-name="패스 5846" class="cls-1" d="M731.356,788.948a4.184,4.184,0,0,1,4.515,2.4l-.228.423a5.18,5.18,0,0,0-1.913-1.839,5.1,5.1,0,0,0-2.6-.562Z" transform="translate(-728.114 -788.922)"/>
    </g>
  </g>
  <g id="그룹_138" data-name="그룹 138" transform="translate(6.783 26.224)">
    <path id="패스_5847" data-name="패스 5847" class="cls-1" d="M882.852,818.064a.834.834,0,1,1-.788-.878A.831.831,0,0,1,882.852,818.064Z" transform="translate(-825.881 -817.185)"/>
    <path id="패스_5848" data-name="패스 5848" class="cls-1" d="M724.5,818.064a.833.833,0,1,1-.787-.878A.832.832,0,0,1,724.5,818.064Z" transform="translate(-722.836 -817.185)"/>
  </g>
  <g id="그룹_140" data-name="그룹 140" transform="translate(7.61 17.747)">
    <g id="그룹_139" data-name="그룹 139">
      <path id="패스_5849" data-name="패스 5849" class="cls-1" d="M726.132,795l.551-.973.512.294-.268.474a1,1,0,0,1,.725.1,1.238,1.238,0,0,1-1.222,2.149,1.058,1.058,0,0,1-.458-.569l-.273.478-.517-.29.571-1-.481-.275.381-.664Zm1.15.494a.537.537,0,1,0,.246.754A.593.593,0,0,0,727.282,795.5Zm.647-1.884.342-.592.526.3-.336.592.917.525-.351.626-2.564-1.462.359-.626Zm.728,3.7-.512-.293,1.415-2.481,1.64.932-.361.631-1.125-.642Z" transform="translate(-725.181 -792.977)"/>
    </g>
  </g>
</svg>
