<svg id="ls-7" xmlns="http://www.w3.org/2000/svg" width="72.079" height="70" viewBox="0 0 72.079 70">
  <defs>
    <style>
      .cls-1 {
        fill: #231815;
      }
    </style>
  </defs>
  <g id="그룹_141" data-name="그룹 141" transform="translate(56.958 0.86)">
    <path id="패스_5850" data-name="패스 5850" class="cls-1" d="M883.591,1121.011l-.159-.162-.247.213Z" transform="translate(-876.316 -1109.43)"/>
    <path id="패스_5851" data-name="패스 5851" class="cls-1" d="M878.549,1092.849a4.111,4.111,0,0,0-3.206-3.1,18.608,18.608,0,0,0-3.011,0l-.35.023c-2.307.158-5.177.355-6.612-1.211a.241.241,0,0,0-.3-.042.237.237,0,0,0-.113.2.219.219,0,0,0,.016.085,11.071,11.071,0,0,0,1.952,3.318,6.283,6.283,0,0,1-2.855-.189.24.24,0,0,0-.291.06.236.236,0,0,0-.057.154.243.243,0,0,0,.049.144,8.114,8.114,0,0,0,2.214,2.028l-.029.068a.237.237,0,0,1,.235.061l.182.187.141-.338a.239.239,0,0,0,.019-.093.229.229,0,0,0-.02-.095.242.242,0,0,0-.137-.129,5.326,5.326,0,0,1-1.733-1.391,10.7,10.7,0,0,0,2.924-.068.239.239,0,0,0,.2-.2.187.187,0,0,0,.005-.04.241.241,0,0,0-.124-.21,6.353,6.353,0,0,1-1.857-2.592c1.674,1.053,4.162.905,6.23.763l.35-.024a18.547,18.547,0,0,1,2.917,0,3.643,3.643,0,0,1,2.809,2.764,5.261,5.261,0,0,1-.994,5.158c-2.186,2.057-5.468.656-5.5.641a.241.241,0,0,0-.253.038l-.483.417.336.344.351-.3c.6.241,3.655,1.3,5.876-.787A5.675,5.675,0,0,0,878.549,1092.849Z" transform="translate(-863.717 -1088.485)"/>
    <path id="패스_5852" data-name="패스 5852" class="cls-1" d="M874.991,1110.852l.364-.314-4.492-4.6c-.06.144-.132.315-.2.48Z" transform="translate(-868.211 -1099.777)"/>
    <path id="패스_5853" data-name="패스 5853" class="cls-1" d="M882.933,1119.3l.336.344.363-.314-.336-.344Z" transform="translate(-876.153 -1108.222)"/>
    <path id="패스_5854" data-name="패스 5854" class="cls-1" d="M881.885,1121.548a.241.241,0,0,0,.319.005l.115-.1-.472.06Z" transform="translate(-875.45 -1109.821)"/>
    <path id="패스_5855" data-name="패스 5855" class="cls-1" d="M869.351,1105.776l.162.167c.07-.165.142-.336.2-.48l-.182-.187a.237.237,0,0,0-.235-.061l-.41.98Z" transform="translate(-867.063 -1099.306)"/>
  </g>
  <line id="선_87" data-name="선 87" class="cls-1" x2="4.538" y2="4.676" transform="translate(58.008 8.219)"/>
  <path id="패스_5856" data-name="패스 5856" class="cls-1" d="M866.087,1108.729a.238.238,0,0,0,0,.339l4.538,4.676a.241.241,0,0,0,.34,0,.238.238,0,0,0,0-.339l-4.539-4.676A.24.24,0,0,0,866.087,1108.729Z" transform="translate(-808.246 -1100.682)"/>
  <path id="패스_5857" data-name="패스 5857" class="cls-1" d="M870.343,1104.187a.241.241,0,0,0,.138.309,6.342,6.342,0,0,0,3.441.282.24.24,0,0,0-.127-.463,5.953,5.953,0,0,1-3.142-.267A.241.241,0,0,0,870.343,1104.187Z" transform="translate(-811.037 -1097.687)"/>
  <path id="패스_5858" data-name="패스 5858" class="cls-1" d="M881.471,1098.383a3.714,3.714,0,0,0-1.435,3.2c.138,2.926,1.95,3.646,2.027,3.675a.24.24,0,0,0,.17-.448c-.064-.025-1.6-.654-1.719-3.25a3.245,3.245,0,0,1,1.24-2.788,3.018,3.018,0,0,1,2.858-.35,2.39,2.39,0,0,1,1.285,2.8,1.423,1.423,0,0,1-1.615,1.209,1.607,1.607,0,0,1-1.575-1.37,1.086,1.086,0,0,1,.661-1.182.24.24,0,0,0-.151-.455,1.561,1.561,0,0,0-.987,1.684,2.064,2.064,0,0,0,1.993,1.8,1.879,1.879,0,0,0,2.14-1.573,2.878,2.878,0,0,0-1.589-3.362A3.485,3.485,0,0,0,881.471,1098.383Z" transform="translate(-817.318 -1093.61)"/>
  <path id="패스_5859" data-name="패스 5859" class="cls-1" d="M701.485,1101.7a.24.24,0,0,0,0,.479h5.9a.24.24,0,0,0,0-.479Z" transform="translate(-701.03 -1096.177)"/>
  <path id="패스_5860" data-name="패스 5860" class="cls-1" d="M719.656,1113.392l-5.636.107a.24.24,0,1,0,.01.479l5.635-.106a.24.24,0,0,0-.009-.48Z" transform="translate(-709.145 -1103.744)"/>
  <path id="패스_5861" data-name="패스 5861" class="cls-1" d="M723.792,1093.39v5.074a.24.24,0,0,0,.479,0v-5.074a.24.24,0,0,0-.479,0Z" transform="translate(-715.621 -1090.644)"/>
  <g id="그룹_144" data-name="그룹 144" transform="translate(0 0)">
    <path id="패스_5862" data-name="패스 5862" class="cls-1" d="M727.137,1116.193a34.357,34.357,0,0,1,5.133-5.132" transform="translate(-717.786 -1102.235)"/>
    <path id="패스_5863" data-name="패스 5863" class="cls-1" d="M702.041,1092.611a2.973,2.973,0,0,1-.926-2.094,3.965,3.965,0,0,1,3.712-3.988,2.974,2.974,0,0,1,2.155.773l8.135,7.571c.126-.1.251-.2.378-.3l-8.186-7.62a3.452,3.452,0,0,0-2.5-.9,4.441,4.441,0,0,0-4.173,4.485,3.442,3.442,0,0,0,1.078,2.428l7.969,7.418c.1-.126.2-.25.3-.375Z" transform="translate(-700.634 -1086.047)"/>
    <g id="그룹_142" data-name="그룹 142" transform="translate(14.278 1.275)">
      <path id="패스_5864" data-name="패스 5864" class="cls-1" d="M865.167,1106.212l.41-.98a.224.224,0,0,0-.1.051l-2.34,2.117c.125.1.249.205.373.309Z" transform="translate(-820.663 -1099.738)"/>
      <path id="패스_5865" data-name="패스 5865" class="cls-1" d="M877.71,1121.116l2.113-.264a.239.239,0,0,0,.2-.159.228.228,0,0,0,.014-.079.241.241,0,0,0-.068-.167l-.476-.487-.363.314.159.162-.406.051-.115.1a.241.241,0,0,1-.319,0l-.039-.035-.837.1a.239.239,0,0,0-.14.068l-.9.9c.1.123.2.249.3.374Z" transform="translate(-829.33 -1109.269)"/>
      <path id="패스_5866" data-name="패스 5866" class="cls-1" d="M867.55,1116.971l.341-.34a34.377,34.377,0,0,0-4.353-4.378l-.358.325A33.852,33.852,0,0,1,867.55,1116.971Z" transform="translate(-820.69 -1104.282)"/>
      <path id="패스_5867" data-name="패스 5867" class="cls-1" d="M763.734,1089.66a33.885,33.885,0,0,0-20.979,7.248l.356.331a33.5,33.5,0,0,1,41.759.408l.361-.325A33.892,33.892,0,0,0,763.734,1089.66Z" transform="translate(-742.755 -1089.66)"/>
      <path id="패스_5868" data-name="패스 5868" class="cls-1" d="M862.849,1111.687c-.124-.1-.248-.208-.373-.309l-.361.325q.189.153.375.309Z" transform="translate(-820.001 -1103.715)"/>
      <path id="패스_5869" data-name="패스 5869" class="cls-1" d="M875.906,1124.661l-.341.34c.1.124.2.25.3.374l.341-.34C876.108,1124.91,876.008,1124.784,875.906,1124.661Z" transform="translate(-828.705 -1112.312)"/>
    </g>
    <g id="그룹_143" data-name="그룹 143" transform="translate(1.587 0.86)">
      <path id="패스_5870" data-name="패스 5870" class="cls-1" d="M715.6,1098.615l-10.059-10.06a.24.24,0,0,0-.339.339l10.056,10.056C715.371,1098.837,715.487,1098.726,715.6,1098.615Z" transform="translate(-705.132 -1088.485)"/>
      <path id="패스_5871" data-name="패스 5871" class="cls-1" d="M727.137,1120.777l.351.328a33.859,33.859,0,0,1,2.35-2.621l-.339-.339A34.14,34.14,0,0,0,727.137,1120.777Z" transform="translate(-719.373 -1107.68)"/>
      <path id="패스_5872" data-name="패스 5872" class="cls-1" d="M737.584,1111.391l-.355-.33q-1.266,1.024-2.429,2.164l.339.338Q736.31,1112.421,737.584,1111.391Z" transform="translate(-724.333 -1103.095)"/>
      <path id="패스_5873" data-name="패스 5873" class="cls-1" d="M734.514,1117.533l-.339-.338c-.114.111-.229.222-.341.335l.339.339C734.286,1117.756,734.4,1117.645,734.514,1117.533Z" transform="translate(-723.707 -1107.065)"/>
    </g>
    <path id="패스_5874" data-name="패스 5874" class="cls-1" d="M726.935,1125.933l-.351-.328c-.1.125-.2.249-.3.375l.353.328C726.734,1126.182,726.835,1126.057,726.935,1125.933Z" transform="translate(-717.232 -1111.648)"/>
    <path id="패스_5875" data-name="패스 5875" class="cls-1" d="M742.039,1110.836c.125-.1.251-.2.379-.3l-.356-.331c-.127.1-.252.2-.378.3Z" transform="translate(-727.331 -1101.68)"/>
  </g>
  <g id="그룹_147" data-name="그룹 147" transform="translate(1.681 12.457)">
    <g id="그룹_146" data-name="그룹 146" transform="translate(0 0.974)">
      <path id="패스_5876" data-name="패스 5876" class="cls-1" d="M734.07,1253.728l.348-.333q-1.048-.94-2.015-1.963l-.346.331Q733.023,1252.786,734.07,1253.728Z" transform="translate(-722.651 -1207.077)"/>
      <path id="패스_5877" data-name="패스 5877" class="cls-1" d="M706.187,1147.663A33.407,33.407,0,0,1,713.319,1127l-.353-.328a33.986,33.986,0,0,0,1.711,44l.346-.331A33.444,33.444,0,0,1,706.187,1147.663Z" transform="translate(-705.598 -1126.334)"/>
      <g id="그룹_145" data-name="그룹 145" transform="translate(11.196)">
        <path id="패스_5878" data-name="패스 5878" class="cls-1" d="M879.947,1147.05a33.886,33.886,0,0,0-7.528-21.329l-.341.34a33.507,33.507,0,0,1-2.369,44.629l.344.335A33.943,33.943,0,0,0,879.947,1147.05Z" transform="translate(-823.513 -1125.721)"/>
        <path id="패스_5879" data-name="패스 5879" class="cls-1" d="M761.163,1266.165a33.435,33.435,0,0,1-22.033-8.264l-.348.332a33.979,33.979,0,0,0,43.248,1.249l-.349-.337A33.4,33.4,0,0,1,761.163,1266.165Z" transform="translate(-738.783 -1211.264)"/>
        <path id="패스_5880" data-name="패스 5880" class="cls-1" d="M861.446,1256.4l.347.336a34.252,34.252,0,0,0,2.57-2.277l-.343-.335A33.86,33.86,0,0,1,861.446,1256.4Z" transform="translate(-818.166 -1208.822)"/>
        <path id="패스_5881" data-name="패스 5881" class="cls-1" d="M860.748,1260.58c-.126.1-.252.2-.381.3l.349.337q.19-.149.378-.3Z" transform="translate(-817.468 -1212.997)"/>
        <path id="패스_5882" data-name="패스 5882" class="cls-1" d="M868.741,1253.51l.343.335c.114-.112.228-.223.342-.337l-.344-.335C868.97,1253.286,868.855,1253.4,868.741,1253.51Z" transform="translate(-822.887 -1208.204)"/>
      </g>
      <path id="패스_5883" data-name="패스 5883" class="cls-1" d="M708.255,1261.878a1.405,1.405,0,1,1-1.943-2.031l8.492-8.122c-.11-.116-.218-.234-.327-.352l-8.5,8.126a1.886,1.886,0,0,0,2.606,2.726l8.591-8.218c-.121-.105-.24-.211-.36-.318Z" transform="translate(-705.398 -1207.039)"/>
      <path id="패스_5884" data-name="패스 5884" class="cls-1" d="M738.11,1256.995l-.348.333c.12.108.239.213.36.318l.348-.332C738.349,1257.209,738.229,1257.1,738.11,1256.995Z" transform="translate(-726.343 -1210.677)"/>
      <path id="패스_5885" data-name="패스 5885" class="cls-1" d="M731.8,1250.787l-.327-.352-.346.331c.108.118.217.236.327.352Z" transform="translate(-722.051 -1206.432)"/>
    </g>
    <path id="패스_5886" data-name="패스 5886" class="cls-1" d="M761.018,1122.96a22.352,22.352,0,0,0-16.372,37.188l.342-.331a21.47,21.47,0,1,1,16.031,7.267A21.252,21.252,0,0,1,747.7,1162.4l-.345.333a21.722,21.722,0,0,0,13.659,4.827,22.3,22.3,0,0,0,0-44.6Z" transform="translate(-727.15 -1122.96)"/>
    <path id="패스_5887" data-name="패스 5887" class="cls-1" d="M756.46,1228.42l-.346.332a22.436,22.436,0,0,0,2.05,1.93l.348-.333A21.942,21.942,0,0,1,756.46,1228.42Z" transform="translate(-738.378 -1191.21)"/>
    <path id="패스_5888" data-name="패스 5888" class="cls-1" d="M762.272,1233.887l-.348.333c.123.1.249.2.375.3l.35-.333C762.522,1234.09,762.4,1233.989,762.272,1233.887Z" transform="translate(-742.152 -1194.748)"/>
    <path id="패스_5889" data-name="패스 5889" class="cls-1" d="M755.866,1227.773c-.109-.116-.218-.234-.324-.352l-.347.331c.107.12.215.237.324.354Z" transform="translate(-737.777 -1190.564)"/>
  </g>
  <path id="패스_5890" data-name="패스 5890" class="cls-1" d="M745.965,1168.76a6.519,6.519,0,0,0,0,13.029h31.089a6.519,6.519,0,0,0,0-13.029Zm-5.806,6.516a5.928,5.928,0,0,1,5.806-6.03h31.089a6.034,6.034,0,0,1,0,12.058H745.965A5.927,5.927,0,0,1,740.159,1175.276Z" transform="translate(-725.903 -1139.864)"/>
  <path id="패스_5891" data-name="패스 5891" class="cls-1" d="M786.556,1176.2a6.311,6.311,0,1,0,6.312-6.312A6.319,6.319,0,0,0,786.556,1176.2Zm.468,0a5.844,5.844,0,1,1,5.844,5.843A5.85,5.85,0,0,1,787.024,1176.2Z" transform="translate(-756.534 -1140.595)"/>
  <g id="그룹_150" data-name="그룹 150" transform="translate(6.963 34.957)">
    <path id="패스_5892" data-name="패스 5892" class="cls-1" d="M747.251,1238.764s4.192-.687,10.546,5.074a27.208,27.208,0,0,0,6.354,3.017s3.11.412,7.842-2.606,5.273-5.485,10.139-5.347L777,1244.525s6.218,0,8.382-.96a7.592,7.592,0,0,1-7.3,3.154c-4.866-.685-9.6.548-10.275,1.508,0,0,2.975,1.92,3.786,3.566l-2.706.275s-2.163-3.154-3.92-3.429-3.921,3.291-3.921,3.291l-3.38.139a18.443,18.443,0,0,1,4.191-3.7,10.455,10.455,0,0,0-5.408-1.372c-2.974.138-8.787.822-11.762-2.88,0,0,7.707.412,8.112.137S747.251,1238.764,747.251,1238.764Z" transform="translate(-736.103 -1220.387)"/>
    <g id="그룹_148" data-name="그룹 148">
      <path id="패스_5893" data-name="패스 5893" class="cls-1" d="M720.719,1186.727s-1.646,6.72,2.193,9.737C722.912,1196.464,724.284,1190.293,720.719,1186.727Z" transform="translate(-720.368 -1186.727)"/>
      <path id="패스_5894" data-name="패스 5894" class="cls-1" d="M720.97,1215.786s2.332,6.995,8.641,7.817c0,0,1.1-8.092-3.291-10.834,0,0,.137,6.171,1.234,7.542A43.082,43.082,0,0,0,720.97,1215.786Z" transform="translate(-720.758 -1203.581)"/>
      <path id="패스_5895" data-name="패스 5895" class="cls-1" d="M728.564,1218.9a.685.685,0,1,1-.686-.684A.686.686,0,0,1,728.564,1218.9Z" transform="translate(-724.785 -1207.103)"/>
      <path id="패스_5896" data-name="패스 5896" class="cls-1" d="M749.941,1246.5a.686.686,0,1,1-.686-.686A.686.686,0,0,1,749.941,1246.5Z" transform="translate(-738.619 -1224.964)"/>
    </g>
    <g id="그룹_149" data-name="그룹 149" transform="translate(46.463)">
      <path id="패스_5897" data-name="패스 5897" class="cls-1" d="M880.305,1186.727s1.646,6.72-2.193,9.737C878.112,1196.464,876.739,1190.293,880.305,1186.727Z" transform="translate(-869.333 -1186.727)"/>
      <path id="패스_5898" data-name="패스 5898" class="cls-1" d="M869.124,1215.786s-2.331,6.995-8.64,7.817c0,0-1.1-8.092,3.291-10.834,0,0-.137,6.171-1.235,7.542A43.052,43.052,0,0,1,869.124,1215.786Z" transform="translate(-858.014 -1203.581)"/>
      <path id="패스_5899" data-name="패스 5899" class="cls-1" d="M875.087,1218.9a.686.686,0,1,0,.687-.684A.687.687,0,0,0,875.087,1218.9Z" transform="translate(-867.544 -1207.103)"/>
      <path id="패스_5900" data-name="패스 5900" class="cls-1" d="M853.708,1246.5a.686.686,0,1,0,.686-.686A.687.687,0,0,0,853.708,1246.5Z" transform="translate(-853.708 -1224.964)"/>
    </g>
    <path id="패스_5901" data-name="패스 5901" class="cls-1" d="M786.856,1251.157a.685.685,0,1,0,.685-.687A.684.684,0,0,0,786.856,1251.157Z" transform="translate(-763.637 -1227.979)"/>
    <path id="패스_5902" data-name="패스 5902" class="cls-1" d="M814.842,1251.157a.685.685,0,1,0,.686-.687A.685.685,0,0,0,814.842,1251.157Z" transform="translate(-781.85 -1227.979)"/>
  </g>
  <g id="그룹_151" data-name="그룹 151" transform="translate(6.94 4.122)">
    <path id="패스_5903" data-name="패스 5903" class="cls-1" d="M720.856,1146.88c.045-.026.113.014.2.12.039.044.067.076.087.095a.486.486,0,0,0,.114.092,2.361,2.361,0,0,0,.415.243c.161.073.376.168.645.281a3.887,3.887,0,0,0,1.96.185,3.814,3.814,0,0,0,1.952-.719,4.635,4.635,0,0,0,.166.589,3.451,3.451,0,0,0,.229.563,4.5,4.5,0,0,1-1.552.5,4.172,4.172,0,0,1-1.479.044,5.919,5.919,0,0,1,.976,1.024,4.357,4.357,0,0,1,.76,1.494,5.413,5.413,0,0,0-.506.253c-.189.1-.355.2-.494.283a4.491,4.491,0,0,0-1.269-2.176,8.541,8.541,0,0,0-2.761-1.764l.256-.605A1.187,1.187,0,0,1,720.856,1146.88Zm1.074-3.794c.049-.035.117-.008.2.079a.852.852,0,0,0,.134.124.889.889,0,0,0,.2.121l6.29,2.663-.45,1.063-3.621-1.533-.514,1.216-.9-.38.515-1.217-2.39-1.011.246-.582A2.084,2.084,0,0,1,721.931,1143.086Z" transform="translate(-720.302 -1127.073)"/>
    <path id="패스_5904" data-name="패스 5904" class="cls-1" d="M740.064,1119.242a.972.972,0,0,1,1.333,1.354,6.91,6.91,0,0,1-3.3,3.248.973.973,0,0,1-1.334-1.354,7.052,7.052,0,0,1,3.3-3.248Zm3.477,1.471-2.262,2.227.219.223,1.7-1.679,1.333,1.354-3.4,3.347.284.289,3.5-3.446.549.558-4.306,4.24-1.372-1.392,3.377-3.324-.253-.257-3.376,3.325-.543-.553,1.681-1.656-.218-.223-2.268,2.232-.625-.634,5.348-5.267Zm-5.784,1.569c-.153.282-.17.484-.049.608s.312.1.6-.052a5.338,5.338,0,0,0,1.134-.909,5.457,5.457,0,0,0,.938-1.131q.242-.436.071-.608t-.619.051a6.018,6.018,0,0,0-1.136.931A5.84,5.84,0,0,0,737.757,1122.282Z" transform="translate(-730.878 -1111.579)"/>
    <path id="패스_5905" data-name="패스 5905" class="cls-1" d="M767.711,1102.134a18.851,18.851,0,0,1,.762,2.24,13.456,13.456,0,0,1,.378,2.065l-1.142.368a11.895,11.895,0,0,0-.752-3.28l-4.481,1.811-.378-.935Zm-2.9,6.663-.909-2.247.569-.23a1.879,1.879,0,0,1,.5-.159c.046,0,.07.05.073.139a.369.369,0,0,0,0,.116.5.5,0,0,0,.036.129l.743,1.84.876-.352-.909-2.248.606-.244a1.561,1.561,0,0,1,.5-.153c.046,0,.063.054.051.149a.873.873,0,0,0,0,.119.384.384,0,0,0,.028.133l.742,1.834,2.581-1.043.378.935-6.964,2.814-.378-.935Z" transform="translate(-747.524 -1100.58)"/>
    <path id="패스_5906" data-name="패스 5906" class="cls-1" d="M800.181,1101.006l-.007.86-2.01-.017-.006.61,1.219.011-.022,2.752-1.158-.01.014-1.775-4.769-.04.008-.978,1.228.01.005-.61-2.016-.017.006-.86Zm-1.424-2.819a1.072,1.072,0,0,1-.017,2.056,6.128,6.128,0,0,1-4.629-.038,1.073,1.073,0,0,1,.017-2.057,6.34,6.34,0,0,1,4.628.04Zm-3.78.569c-.309.1-.464.242-.467.419s.153.314.459.426a4.529,4.529,0,0,0,1.444.192,4.688,4.688,0,0,0,1.466-.168c.318-.106.479-.246.48-.417s-.157-.319-.475-.427a5.016,5.016,0,0,0-1.46-.177A4.944,4.944,0,0,0,794.976,1098.757Zm2.03,3.083-1.164-.01-.006.611,1.166.009Z" transform="translate(-767.426 -1097.73)"/>
    <path id="패스_5907" data-name="패스 5907" class="cls-1" d="M826.733,1103.815l-.381.9-1.85-.785-1.3,3.059.259.109q.4.17.865.326.579.195,1.081.314l-.225.949a12.051,12.051,0,0,1-1.507-.453q-.547-.19-1.238-.483l-.689-.294,2.07-4.876Zm3.653.91c.022.039,0,.1-.075.173-.04.044-.073.082-.1.111a.9.9,0,0,0-.081.152l-2.719,6.4-1.049-.445,1.29-3.036-.524-.223-1.174,2.764-1.035-.44,2.765-6.51.71.3a1.162,1.162,0,0,1,.393.219c.02.031-.007.082-.081.152a.81.81,0,0,0-.1.1.69.69,0,0,0-.092.157l-1,2.36.524.223,1.262-2.972.659.279A1.416,1.416,0,0,1,830.386,1104.725Z" transform="translate(-786.374 -1100.867)"/>
    <path id="패스_5908" data-name="패스 5908" class="cls-1" d="M852.413,1126.471l-1.772,1.74-.809-.823,1.077-1.058-3.206-3.262.694-.683Zm.1-3.543a.968.968,0,0,1-.247.932.992.992,0,0,1-.947.241,2.581,2.581,0,0,1-1.309-.8,2.461,2.461,0,0,1-.746-1.294,1.016,1.016,0,0,1,.267-.932.991.991,0,0,1,.927-.241,2.543,2.543,0,0,1,1.269.78A2.661,2.661,0,0,1,852.513,1122.928Zm-1.809-1.117a.382.382,0,0,0-.365.1.4.4,0,0,0-.113.374,1,1,0,0,0,.3.512,1.149,1.149,0,0,0,.539.349.384.384,0,0,0,.387-.1.362.362,0,0,0,.093-.374,1.249,1.249,0,0,0-.344-.54A1.088,1.088,0,0,0,850.7,1121.811Zm3.418.776-.6.588-3.288-3.346.6-.589Zm-.068-1.567-.6.589-1.643-1.673.6-.589Zm1.835,1.818a.717.717,0,0,1,.119.188.091.091,0,0,1-.023.1.424.424,0,0,1-.126.071,1.509,1.509,0,0,0-.157.077.967.967,0,0,0-.168.131l-1.253,1.234.694.708-.73.718-.7-.708-.777.762-.808-.823,3.228-3.173.379.384C855.714,1122.649,855.819,1122.761,855.888,1122.838Z" transform="translate(-803.335 -1111.651)"/>
    <path id="패스_5909" data-name="패스 5909" class="cls-1" d="M864.76,1148.242l2.248-.906.23.57a1.887,1.887,0,0,1,.158.5c0,.047-.049.07-.138.072a.42.42,0,0,0-.116.005.549.549,0,0,0-.13.035l-1.843.741.353.876,2.248-.9.245.606a1.567,1.567,0,0,1,.15.5c0,.047-.053.064-.148.051a1.126,1.126,0,0,0-.119,0,.4.4,0,0,0-.132.028l-1.836.74,1.041,2.582-.935.377-2.806-6.968.936-.376Zm6.659,2.909a18.691,18.691,0,0,1-2.241.759,13.34,13.34,0,0,1-2.065.376l-.367-1.142a10.525,10.525,0,0,0,1.4-.2,10.892,10.892,0,0,0,1.886-.549l-1.805-4.481.935-.379Z" transform="translate(-813.383 -1128.668)"/>
  </g>
  <path id="패스_5910" data-name="패스 5910" class="cls-1" d="M864.421,1253.982l9.054,8.969a3.165,3.165,0,0,1,.646,1.024.972.972,0,0,1-.662.614c-.736.157-1.789-.643-2.133-.964-2.6-2.253-4.343-2.264-4.836-2.211l-4.641-5.142-.35.314,4.816,5.337.135-.03c.018,0,1.753-.356,4.559,2.081.051.048,1.418,1.313,2.545,1.074a1.458,1.458,0,0,0,1.033-.954l.024-.058-.008-.064a2.964,2.964,0,0,0-.785-1.343l-9.068-8.982Z" transform="translate(-805.325 -1195.079)"/>
</svg>
