<svg id="ls-8" xmlns="http://www.w3.org/2000/svg" width="67.483" height="70" viewBox="0 0 67.483 70">
  <defs>
    <style>
      .cls-1 {
        fill: #112d80;
      }
    </style>
  </defs>
  <path id="패스_5911" data-name="패스 5911" class="cls-1" d="M746.693,1433.6c-1.1-2.459-4.807-.771-4.807-.771,3.117,1.983,4.807.771,4.807.771m-6.128-.361a.7.7,0,1,0-.7-.7.7.7,0,0,0,.7.7m8.484.6a5.3,5.3,0,0,0-2.568.709l3.946.058c.069-.053.069-.053.139-.1,0,0-1.967-5.325-7.195-5.978a8.916,8.916,0,0,0,5.678,5.314m2.771,1.031a.522.522,0,1,0-.523.523.52.52,0,0,0,.523-.523m-21.07-.264,3.947-.058a5.308,5.308,0,0,0-2.569-.709,8.91,8.91,0,0,0,5.679-5.314c-5.229.653-7.195,5.978-7.195,5.978.07.05.072.05.139.1m-1.266.55a.522.522,0,1,0,.521-.522.522.522,0,0,0-.521.522m.324,4.209c-2.844-2.021-6.992-.455-6.992-.455a9.8,9.8,0,0,0,3.658-7.285c-4.689,2.4-4.717,8.077-4.717,8.077,5.738,1.7,8.052-.337,8.052-.337m1.582-1.108.042-1.918a10.339,10.339,0,0,0-4.294-.221,9.8,9.8,0,0,0,4.866-6.536c-5.032,1.55-6.047,7.134-6.047,7.134a12.978,12.978,0,0,0,5.433,1.541m22.721-2.454a6.838,6.838,0,0,0-3.871.216l0,1.972a10.734,10.734,0,0,0,5.07-1.622s-1.143-5.553-6.212-6.988a9.807,9.807,0,0,0,5.018,6.423m-19.629-1.974s1.733,1.144,4.775-.952c0,0-3.768-1.549-4.775.952m26.374,26.622h-2.205v2.788h2.205Zm-5.945-19.113-1.138,1.358,6.165,6.164,1.247-1.25Zm12-.187-5.65-5.649-5.062,5.5,5.431,5.36Zm-46.049-.628a.522.522,0,1,0,.523-.523.523.523,0,0,0-.523.523m41.821,5.953a15.568,15.568,0,0,0,3.624.543,11.075,11.075,0,0,0,.375-4.372l-1.906,1.825a8.6,8.6,0,0,0,.789,1.453,9.8,9.8,0,0,0-1.369-.9Zm-1.712,27.622h-2.2v2.788h2.2Zm-3.208-36.157,1.276-1.294a8.181,8.181,0,0,0-4.364-5.352,9.1,9.1,0,0,0,3.087,6.647m11.468,19.528a.522.522,0,1,0,.522-.523.522.522,0,0,0-.522.523m-6.871-25.913a3.127,3.127,0,0,0,2.975-.041,2.851,2.851,0,0,1,3.163.35,2.6,2.6,0,0,1,1.071,2.318c0,1.008-.29,1.078-.29,1.078-.611.421-.459-.291-.459-.291.017-.007.139-.5.139-.5a2.243,2.243,0,0,0-1.8-2.609,2.312,2.312,0,0,0-2.711,1.629,3.831,3.831,0,0,0-.087,1.47l-2.709-2.71.127,2.292,6.052,6.054h2.167l-2.2-2.2a9.251,9.251,0,0,0,2.178.4,3.6,3.6,0,0,0,3.415-3.145c.816-3.089-2.113-5.583-2.113-5.583a9.158,9.158,0,0,0-4.907-1.815c-4.2-.488-5.694-3.172-5.694-3.172a8.251,8.251,0,0,0-.363,3.029c.279,2.785,2.047,3.437,2.047,3.437m7.614,25.056s3.521-4.447,1.359-9.256a9.82,9.82,0,0,0-1.694,7.977s-2.26-3.811-5.743-4.012c0,0,.536,3.034,6.079,5.292m-3.576-8.16a.524.524,0,1,0-.523-.525.525.525,0,0,0,.523.525m-10.531-8.469,1.583-1.639c-1.346-.312-3.881-.759-5.928.767,0,0,1.052,1.191,4.345.872m12.688,11.672s2.7-4.992-.263-9.349a9.811,9.811,0,0,0-.283,8.147s-2.888-3.364-6.354-2.954c0,0,1.054,2.9,6.9,4.156m-18.483,38.131a.524.524,0,1,0,.523-.524.525.525,0,0,0-.523.524m2.624-.5s2.962-2.544,2.989-5.719l-1.058.043c-.957.84-2.356,2.619-3.135,6.227,0,0,5,2.7,9.352-.267a9.806,9.806,0,0,0-8.147-.284m-4.879,1.632s3.814-2.263,4.011-5.746c0,0-3.037.534-5.292,6.078,0,0,4.447,3.522,9.254,1.362a9.8,9.8,0,0,0-7.973-1.694m-5.119,1.088a8.724,8.724,0,0,0,4.842-4.916c-3.081.218-5.722,4.842-5.722,4.842a10.509,10.509,0,0,0,7.923,3.081c-2.054-2.711-7.043-3.006-7.043-3.006m-2.2-1.616v1.3c-.6-.949-2.955-4.386-5.61-4.555a8.723,8.723,0,0,0,4.879,4.877s-4.987.329-7.023,3.063a10.55,10.55,0,0,0,7.754-2.993v2.122h1.321v-3.818Zm18.27-12.031v2.788l12.474,10.344h2.5l-12.7-13.132Zm-1.547,8.474a10.021,10.021,0,0,0,1.693-3.268l-2.128-.032a15.037,15.037,0,0,0-.655,4.052s4.6,1.525,8.274-1.139l-1.416-1.136a9.288,9.288,0,0,0-5.768,1.524m-24.749,3.154a.524.524,0,1,0-.523.524.524.524,0,0,0,.523-.524m34.879-14.595s.718-4.374-1.822-6.763c0,0-1.542,2.667,1.253,7.957,0,0,5.558-1.142,6.991-6.215a9.814,9.814,0,0,0-6.422,5.021m-5.146,9.256-1.839-1.5c.039.471.1.963.186,1.493a9.57,9.57,0,0,0,1.653.005m-2.78.681a.524.524,0,1,0-.523-.523.524.524,0,0,0,.523.523M715.66,1477.7a.522.522,0,1,0,.523-.523.523.523,0,0,0-.523.523m-3.812-10.132c4.343-4.12,3.732-7.139,3.732-7.139-3.169,1.451-3.889,5.827-3.889,5.827a9.813,9.813,0,0,0-4.48-6.815c-.262,5.269,4.637,8.127,4.637,8.127m.013.725a.524.524,0,1,0,.525-.524.525.525,0,0,0-.525.524m7.455-32.686-4.046-4.083a4.684,4.684,0,0,0-5.477-.852l7.97,7.934a6.644,6.644,0,0,1,1.552-3m-3.112,2.507-6.878-6.884s-2.878,2.064-.641,6.884Zm-2.984,34.42c3.56-4.807,2.436-7.678,2.436-7.678-2.869,1.981-2.82,6.416-2.82,6.416a9.808,9.808,0,0,0-5.593-5.934c.657,5.232,5.977,7.2,5.977,7.2m3.193,13.632a6,6,0,0,1,2-.661l-1.309-.307-.127.163a1.493,1.493,0,0,1,.127-.163l-5.811,6.114s-.661.95-.035,1.576a1.156,1.156,0,0,0,1.392-.073l5.657-4.95a5.6,5.6,0,0,1-1.891-1.7m11.016-2.484-.741-.006c-.041,3.287,3.123,5.881,3.123,5.881a9.81,9.81,0,0,0-8.137.473c4.425,2.86,9.351.047,9.351.047-.96-4-2.641-5.711-3.6-6.395m-11.994-6.492c2.668-5.354,1.068-7.985,1.068-7.985-2.487,2.448-1.665,6.807-1.665,6.807a9.8,9.8,0,0,0-6.538-4.868c1.552,5.033,7.136,6.046,7.136,6.046m15.148,8.234c.28,3.476,4.144,5.646,4.144,5.646a9.824,9.824,0,0,0-7.933,1.883c4.856,2.046,9.221-1.579,9.221-1.579-2.386-5.486-5.431-5.95-5.431-5.95m-12.444-42.045c5.944.673,7.867-1.732,7.867-1.732-3.149-1.5-6.963.764-6.963.764a9.8,9.8,0,0,0,2.34-7.808c-4.2,3.178-3.244,8.776-3.244,8.776m.283,38.012c1.7-5.736-.337-8.05-.337-8.05-2.019,2.843-.455,6.99-.455,6.99a9.809,9.809,0,0,0-7.286-3.656c2.405,4.689,8.078,4.715,8.078,4.715m43.455-4.7a2.243,2.243,0,0,0-.495.982l1.107,1.15a5.44,5.44,0,0,0-.612-2.132m-36.971-22.956,2.038,1.8h4.6a5.36,5.36,0,0,1-.15-1.756Zm11.4-13.455v-2.569h8v3.671h2.641v2.642H744.38v1.174h2.567v2.861H744.38v8.585h-2.2l-3.047-3.045-2.786,2.788-2.018-2.018,4.622-4.623,2.384,2.385v-11.85Zm-4.111,12.3c0,6.091,3.818,8.9,8.526,8.9s8.536-2.806,8.536-8.9v-17.363H732.2s0,11.28,0,17.363m-6.288-10.021a4.064,4.064,0,0,1-2.476,1.177l2.476,2.29Zm21.814,25.35c.556,0,.556-.42.563-.847V1463.1h1.138v4.2c0,.611-.069,1.649-1.709,1.649-1.06,0-1.694-.5-1.694-1.574v-4.27h1.137v3.723c0,.435-.054,1.091.565,1.091m2.926,2.194v1.066H749.5v1.252h1.014v1.069H749.5v1.3h1.171v1.072H748.36v-5.755Zm-.308-7.008h1.279l.331.8a6.959,6.959,0,0,1,.275.877h.013a6.375,6.375,0,0,1,.26-.877l.344-.8h1.227l-1.227,2.785,1.318,2.966h-1.318l-.366-.912a8.971,8.971,0,0,1-.251-.862h-.016c-.084.286-.151.571-.252.862l-.338.912H750.34l1.217-2.966Zm3.462,12.763-.214-.971h-1.153l-.206.971H751.1l1.333-5.755h1.2l1.382,5.755Zm-7.283,0-.273-4.148h-.018l-.184,1.42-.486,2.728h-.878l-.558-2.758-.191-1.283v-.108h-.015l-.167,4.148h-1.224l.5-5.755h1.5l.557,3.4h.013l.46-3.4h1.527l.6,5.755Zm-3.688-12.763h1.138v4.685h1.189v1.066h-2.326Zm-1.46-.888v19.515a4.126,4.126,0,0,1,2.642-1.1h12.11v-24.217h-6.532a8.826,8.826,0,0,1-8.22,5.8m-4.891,2.507a.65.65,0,0,0-.769-.719h-.152v1.533l.2.007c.519,0,.723-.349.723-.821M753,1471.589h-.015l-.123.869-.243,1.533h.8l-.29-1.533Zm-30.635-25.636h0a7.519,7.519,0,0,1-3.874,1.757l.754.712,7.924-.04-2.459-2.457h0l-1.246-1.247a13.594,13.594,0,0,1-1.1,1.275m44.2,31.145a.522.522,0,1,0-.523.523.521.521,0,0,0,.523-.523m3.056-8.945a.524.524,0,1,0-.521-.526.525.525,0,0,0,.521.526m-3.358-3.894s-1.052,2.9,2.618,7.623c0,0,5.275-2.09,5.8-7.334a9.805,9.805,0,0,0-5.449,6.061s-.056-4.434-2.974-6.35m4,1.309s-.82-4.361-4.023-5.737c0,0-.539,3.034,3.9,7.051,0,0,4.835-2.976,4.446-8.23a9.817,9.817,0,0,0-4.32,6.915m-6.224,7.232s-1.98,2.364-.147,8.055c0,0,5.672-.159,7.963-4.9a9.811,9.811,0,0,0-7.2,3.829s1.468-4.184-.617-6.983m6.364-12.375s-1.566-4.148-4.964-4.952c0,0,0,3.084,5.066,6.27,0,0,4.243-3.771,2.948-8.879a9.81,9.81,0,0,0-3.05,7.562m-3.637,22.822a7.932,7.932,0,0,0,2.382-2.283,10.049,10.049,0,0,0-4.1.5Zm-33.027-10.823-.132-.875h-.016l-.12.875-.245,1.531h.8Zm-16.848-34.008c-3.586,3.862-1.67,9.2-1.67,9.2,5.971-.365,7.446-3.067,7.446-3.067-3.361-.927-6.724,1.961-6.724,1.961a9.808,9.808,0,0,0,.948-8.1m22.4,46.218h3.442s.227-1.5,1.2-1.5h14.294v-25.15l-1.421-1.5v24.921H744a4.9,4.9,0,0,0-3.071,1.8,4.418,4.418,0,0,0-3.289-1.719h-12.5v-24.775l-1.535,1.534v24.888h13.957s1.722.073,1.722,1.5m-26.751-26.471a.523.523,0,1,0-.523.52.523.523,0,0,0,.523-.52m-.462-2.157a9.8,9.8,0,0,0-1.879-7.928c-2.048,4.857,1.577,9.221,1.577,9.221,5.487-2.386,5.95-5.433,5.95-5.433-3.476.279-5.648,4.14-5.648,4.14m-3.866-2.378c-1.177,5.139,3.153,8.806,3.153,8.806,4.989-3.3,4.916-6.383,4.916-6.383-3.377.88-4.844,5.063-4.844,5.063a9.809,9.809,0,0,0-3.225-7.486m5.689-10.241s-.3-1.865,1.645-4.656h-6.565s.278.764,4.92,4.656m17.351,9.708v-.711l-3.414-3.414h-8l4.515,4.125Zm-8.241,28.875c.022.239.064-.053.064-.053v-3.4l-.56.621a12.173,12.173,0,0,1,.5,2.834m-8.4-33.442a.523.523,0,1,0,.523-.525.524.524,0,0,0-.523.525m8.373,37.256a.524.524,0,1,0-.521-.524.522.522,0,0,0,.521.524m3.648-38.976,4.624,4.545v-3.52l-4.624-4.623Zm-3.594,27.04h-2.2v2.785h2.2Zm30.634-29.938-3.595,3.909.036,6.249a7.161,7.161,0,0,1-.332,1.544h2.312l6.6-6.606Zm-19.475,19.154v1.071h-1.153v1.252h1.014v1.068h-1.014v1.3H734.2v1.068h-2.3v-5.747l-1.6,5.747h-.929l-1.663-5.756h1.216l.688,2.765c.1.326.139.656.209.982h.013c.062-.334.087-.661.178-1l.692-2.75Zm1.429,12.762h-1.213l-.214-.967h-1.153l-.206.967H731.7l1.336-5.754h1.2Zm-1.2-12.762h1.145c.724,0,2.021.077,2.021,1.652a1.594,1.594,0,0,1-.817,1.483l1,2.621h-1.2l-1-2.657h-.015v2.657h-1.138Zm3.575,0h1.138v5.756H738Zm-.841,12.855a1.741,1.741,0,0,1-.979-.291v-1.083a1.458,1.458,0,0,0,.863.307.618.618,0,0,0,.656-.628c0-.441-.353-.609-.672-.84a1.894,1.894,0,0,1-1.06-1.709,1.529,1.529,0,0,1,1.5-1.692,1.942,1.942,0,0,1,1.007.281v1.109a1.293,1.293,0,0,0-.823-.367.526.526,0,0,0-.575.563c0,.948,1.733,1,1.733,2.557a1.617,1.617,0,0,1-1.652,1.794m-5.658-4.776h-.9v4.683h-1.138v-4.683h-.892v-1.071H731.5Zm-5.68-14.724v24.217h11.995a5.661,5.661,0,0,1,2.754,1.1v-19.369c-7.266-.158-8.732-5.942-8.732-5.942Zm.521,31.514a13.988,13.988,0,0,0-.862-4.266l-2.127,0a10.533,10.533,0,0,0,1.882,3.54,9.81,9.81,0,0,0-8.1-.948c3.861,3.587,9.2,1.672,9.2,1.672m-7.216-38.789-1.066-1a9.729,9.729,0,0,0-4.465,2.949,9.573,9.573,0,0,0,.012-7.064l-.774-.635c-2.245,4.248.242,8.914.242,8.914,3.446-.83,5.2-2.19,6.051-3.165m-5.8,32.625c3.18,4.2,8.771,3.243,8.771,3.243.677-5.948-1.729-7.874-1.729-7.874-1.493,3.155.767,6.963.767,6.963a9.8,9.8,0,0,0-7.808-2.333m9.633-21.095h-2.2v2.791h2.2Z" transform="translate(-707.201 -1425.093)"/>
</svg>
