<svg id="ls-9" xmlns="http://www.w3.org/2000/svg" width="70" height="70" viewBox="0 0 70 70">
  <defs>
    <style>
      .cls-1 {
        fill: #005da6;
      }
    </style>
  </defs>
  <g id="그룹_170" data-name="그룹 170" transform="translate(0 0)">
    <g id="그룹_169" data-name="그룹 169">
      <g id="그룹_153" data-name="그룹 153">
        <path id="패스_5912" data-name="패스 5912" class="cls-1" d="M1284.532,129.8a35,35,0,1,1,35-35,35.038,35.038,0,0,1-35,35m0-69.242A34.242,34.242,0,1,0,1318.774,94.8,34.282,34.282,0,0,0,1284.532,60.562Z" transform="translate(-1249.533 -59.804)"/>
        <g id="그룹_152" data-name="그룹 152" transform="translate(5.811 42.901)">
          <rect id="사각형_1248" data-name="사각형 1248" class="cls-1" width="0.929" height="0.929" transform="translate(57.061 0.658) rotate(-45.033)"/>
          <rect id="사각형_1249" data-name="사각형 1249" class="cls-1" width="0.93" height="0.93" transform="matrix(0.707, -0.707, 0.707, 0.707, 0, 0.658)"/>
        </g>
        <path id="패스_5913" data-name="패스 5913" class="cls-1" d="M1329.818,199.453v-.909h1.666v4.13h-1.075v-3.221Z" transform="translate(-1301.724 -150.009)"/>
        <path id="패스_5914" data-name="패스 5914" class="cls-1" d="M1339.255,202.372l1.178-1.391-.011-.011a1.347,1.347,0,0,1-1.908-1.332,1.607,1.607,0,0,1,1.776-1.562,1.919,1.919,0,0,1,1.178.357,1.506,1.506,0,0,1,.552,1.139,2.843,2.843,0,0,1-.663,1.644l-.881,1.156Zm.377-2.767a.662.662,0,0,0,.663.68.679.679,0,1,0,0-1.358.661.661,0,0,0-.663.678" transform="translate(-1307.384 -149.707)"/>
        <path id="패스_5915" data-name="패스 5915" class="cls-1" d="M1351.731,199.453v-.909h1.667v4.13h-1.072v-3.221Z" transform="translate(-1315.969 -150.009)"/>
        <path id="패스_5916" data-name="패스 5916" class="cls-1" d="M1363.865,199.255a.984.984,0,0,1-.652.937v.011a1.112,1.112,0,0,1,.822,1.085c0,.854-.869,1.249-1.579,1.249s-1.577-.394-1.577-1.249a1.108,1.108,0,0,1,.82-1.085v-.011a.984.984,0,0,1-.652-.937,1.431,1.431,0,0,1,2.817,0m-1.9,1.9a.494.494,0,1,0,.494-.515.5.5,0,0,0-.494.515m.039-1.863a.455.455,0,1,0,.455-.466.459.459,0,0,0-.455.466" transform="translate(-1321.923 -149.708)"/>
        <path id="패스_5917" data-name="패스 5917" class="cls-1" d="M1339.4,122.9h-2.175v11.918l-1.55-.331V122.9h-2.838v10.982l-1.485-.312V122.9h-3.593v9.906l-1.164-.249V122.9h-4.443v8.712l-.941-.2V122.9h-5.01v7.449l.467.1v12.382h2.173V130.914l1.552.327v11.587h2.835V131.843l1.485.318v10.668h3.592v-9.905l1.166.248v9.657h4.444v-8.716l.938.2v8.512h5.013V135.38l-.468-.1Z" transform="translate(-1292.964 -100.887)"/>
        <path id="패스_5918" data-name="패스 5918" class="cls-1" d="M1293.259,126.021v16.808h.754V127.955a4.674,4.674,0,0,0,1.664,1.05v13.824h1.135v-13.46c.193.049.385.1.582.135l1.136.25v13.075h1.609V130.09l.4.084V122.9h-2.3c-3.547,0-4.981,1.347-4.981,3.121" transform="translate(-1277.969 -100.887)"/>
        <path id="패스_5919" data-name="패스 5919" class="cls-1" d="M1392.1,122.9v14.878a4.7,4.7,0,0,0-1.661-1.054V122.9H1389.3v13.46c-.191-.05-.382-.1-.579-.139l-1.139-.24V122.9h-1.608v12.737l-.405-.085v7.276h2.3c3.552,0,4.984-1.349,4.984-3.12V122.9Z" transform="translate(-1338.004 -100.887)"/>
      </g>
      <g id="그룹_155" data-name="그룹 155" transform="translate(10.577 52.147)">
        <g id="그룹_154" data-name="그룹 154">
          <path id="패스_5920" data-name="패스 5920" class="cls-1" d="M1286.8,215.114l-.52-.579-.572.515.52.579-2.553,2.3.569.634,4.057-3.653-.57-.634Z" transform="translate(-1282.302 -212.383)"/>
          <path id="패스_5921" data-name="패스 5921" class="cls-1" d="M1283.456,210.1l.621-.559-.573-.635-.621.559-.1.061-3.006,1.065.592.658,2.013-.754-.96,1.923.588.653,1.373-2.877Z" transform="translate(-1279.777 -208.911)"/>
        </g>
      </g>
      <g id="그룹_157" data-name="그룹 157" transform="translate(16.267 57.143)">
        <g id="그룹_156" data-name="그룹 156">
          <path id="패스_5922" data-name="패스 5922" class="cls-1" d="M1301.139,225.5a1.222,1.222,0,0,0-.185-1.462l.169-.271-.646-.4-.162.26a1.23,1.23,0,0,0-1.449.455,1.137,1.137,0,0,0-.122.908l-1.156-.725-.364.58,1.619,1.012-.22.352-1.249-.781-.313.5,2.569,1.605-.192.309-2.57-1.605-.826,1.323,3.211,2.007.316-.5-2.576-1.609.2-.318,2.574,1.609.821-1.314-1.25-.779.22-.352,1.619,1.01.361-.58-1.161-.725A1.123,1.123,0,0,0,1301.139,225.5Zm-.848-1.17a.545.545,0,1,1-.792.144A.57.57,0,0,1,1300.292,224.331Z" transform="translate(-1296.042 -223.364)"/>
        </g>
      </g>
      <g id="그룹_159" data-name="그룹 159" transform="translate(23.79 60.363)">
        <g id="그룹_158" data-name="그룹 158">
          <path id="패스_5923" data-name="패스 5923" class="cls-1" d="M1326.564,239.836l.813.249,1.6-5.22-.817-.249Z" transform="translate(-1323.384 -233.867)"/>
          <path id="패스_5924" data-name="패스 5924" class="cls-1" d="M1320.45,233.539l.243-.8-.817-.25-.243.8-.055.108-2.027,2.461.841.258,1.34-1.684.165,2.143.839.257-.3-3.173Z" transform="translate(-1317.551 -232.492)"/>
        </g>
      </g>
      <g id="그룹_161" data-name="그룹 161" transform="translate(32.918 61.866)">
        <g id="그룹_160" data-name="그룹 160">
          <path id="패스_5925" data-name="패스 5925" class="cls-1" d="M1346.994,239.033h-2.546v-.441h1.9V236.75h-2.716v.712h1.9v.414h-1.9v1.874h3.363v.734H1345v-.43h-.817v2.154h3.629V236.75h-.817Zm0,2.473H1345v-.332h1.995Z" transform="translate(-1343.631 -236.75)"/>
        </g>
      </g>
      <g id="그룹_164" data-name="그룹 164" transform="translate(40.504 60.179)">
        <g id="그룹_163" data-name="그룹 163">
          <g id="그룹_162" data-name="그룹 162">
            <path id="패스_5926" data-name="패스 5926" class="cls-1" d="M1368.993,233.351l-.387.113-.342-1.165-.754.221.884,3.018-1.358.4-.672-2.3.971-.284-.209-.717-1.786.523,1.094,3.741,2.17-.634.437,1.5.756-.22-.96-3.28.387-.113.96,3.28.75-.22-1.534-5.239-.748.219Z" transform="translate(-1365.34 -231.968)"/>
          </g>
        </g>
      </g>
      <g id="그룹_166" data-name="그룹 166" transform="translate(47.195 56.807)">
        <g id="그룹_165" data-name="그룹 165">
          <path id="패스_5927" data-name="패스 5927" class="cls-1" d="M1392.188,222.411l-.692.433,1.757,2.814-2.292,1.43.408.651,2.291-1.433.73,1.167.691-.433-1.907-3.052.552-.346-.4-.652-.554.347Z" transform="translate(-1388.675 -222.411)"/>
          <path id="패스_5928" data-name="패스 5928" class="cls-1" d="M1387.736,225.68a1.214,1.214,0,0,0-.9-.557l.48-.3-.358-.571-.87.544-.238-.381-.726.454.237.382-.875.546.357.57.481-.3a1.219,1.219,0,0,0,.105,1.055,1.364,1.364,0,0,0,2.308-1.442Zm-1.656,1.035a.592.592,0,1,1,.8.161A.575.575,0,0,1,1386.081,226.715Z" transform="translate(-1384.485 -223.603)"/>
        </g>
      </g>
      <g id="그룹_168" data-name="그룹 168" transform="translate(53.36 51.83)">
        <g id="그룹_167" data-name="그룹 167">
          <path id="패스_5929" data-name="패스 5929" class="cls-1" d="M1408.2,211.043l-3.311-3.032-2.514,2.745.577.528,1.945-2.121,2.73,2.5-.383.42-1.4-1.281-.554.6,1.4,1.281-.273.3-1.4-1.281-.553.6,1.4,1.281-.353.386.564.516,2.952-3.221-.565-.515Z" transform="translate(-1402.372 -208.011)"/>
        </g>
      </g>
    </g>
  </g>
  <g id="그룹_171" data-name="그룹 171" transform="translate(2.695 2.728)">
    <path id="패스_5930" data-name="패스 5930" class="cls-1" d="M1257.529,145.454l2.238.23a1.806,1.806,0,0,1,1.362.561,2.2,2.2,0,0,1-.271,2.641,1.81,1.81,0,0,1-1.447.273l-2.239-.23.106-1.035,2.1.216c.517.053,1.086.074,1.154-.592s-.492-.76-1.01-.813l-2.1-.215Z" transform="translate(-1257.172 -117.962)"/>
    <path id="패스_5931" data-name="패스 5931" class="cls-1" d="M1259.783,130.357l.314-.991,2.906-1.079,0-.01-2.332-.737.314-.991,3.814,1.2-.313.992-2.911,1.077,0,.011,2.337.738-.313.991Z" transform="translate(-1258.862 -105.727)"/>
    <path id="패스_5932" data-name="패스 5932" class="cls-1" d="M1270.546,118.514l-.471.928-3.568-1.815.471-.928Z" transform="translate(-1263.213 -99.353)"/>
    <path id="패스_5933" data-name="패스 5933" class="cls-1" d="M1274.252,104.246l-1.4-2.21.661-.916,2.247,3.726-.472.654-4.23-.975.661-.917Z" transform="translate(-1266.156 -89.271)"/>
    <path id="패스_5934" data-name="패스 5934" class="cls-1" d="M1283.988,93.078l.468.478.838-.82.617.629-.838.821.483.493.884-.866.617.63-1.627,1.593-2.8-2.858,1.627-1.595.616.629Z" transform="translate(-1273.646 -83.099)"/>
    <path id="패스_5935" data-name="패스 5935" class="cls-1" d="M1298.255,85.656l-1.061.742-1.688-.7-.009.006.883,1.262-.853.6-2.295-3.281,1.276-.892a1.206,1.206,0,0,1,1.846.212,1.074,1.074,0,0,1-.07,1.428Zm-3.142-.5.083-.058c.279-.2.556-.466.307-.823s-.6-.19-.879,0l-.083.058Z" transform="translate(-1280.629 -77.584)"/>
    <path id="패스_5936" data-name="패스 5936" class="cls-1" d="M1310.137,76.116a1.093,1.093,0,0,0-.737.051c-.173.081-.357.289-.263.491s.392.175.579.151l.275-.04a1.117,1.117,0,0,1,1.356.573,1.356,1.356,0,0,1,.08,1.15,1.751,1.751,0,0,1-.869.822,2.477,2.477,0,0,1-1.466.181l.049-.948a1.424,1.424,0,0,0,1.011-.015.443.443,0,0,0,.286-.578c-.124-.265-.537-.183-.766-.147-.669.107-1.13.135-1.458-.566a1.3,1.3,0,0,1,.682-1.8,2.747,2.747,0,0,1,1.274-.23Z" transform="translate(-1290.279 -72.499)"/>
    <path id="패스_5937" data-name="패스 5937" class="cls-1" d="M1323.134,74.987l-.993.305-1.173-3.821.993-.305Z" transform="translate(-1298.661 -69.886)"/>
    <path id="패스_5938" data-name="패스 5938" class="cls-1" d="M1332.862,72.266l-1.026.17-.51-3.076-.848.14-.144-.869,2.721-.45.144.868-.848.14Z" transform="translate(-1304.756 -67.954)"/>
    <path id="패스_5939" data-name="패스 5939" class="cls-1" d="M1343.9,67.537h1.247l.747,1.089.749-1.087,1.247,0-1.478,2.077,0,1.922-1.041,0,0-1.92Z" transform="translate(-1313.585 -67.537)"/>
    <path id="패스_5940" data-name="패스 5940" class="cls-1" d="M1374.547,74.215a2.217,2.217,0,1,1-1.46-2.644A2.125,2.125,0,0,1,1374.547,74.215Zm-3.176-1.036a1.131,1.131,0,1,0,2.146.7,1.132,1.132,0,0,0-2.146-.7Z" transform="translate(-1330.706 -70.072)"/>
    <path id="패스_5941" data-name="패스 5941" class="cls-1" d="M1388.027,78.648l-.321.587,1,.547-.423.772-1-.548-.754,1.378-.912-.5,1.921-3.509,2.015,1.1-.422.773Z" transform="translate(-1340.718 -73.904)"/>
    <path id="패스_5942" data-name="패스 5942" class="cls-1" d="M1407.419,94.513a1.091,1.091,0,0,0-.307-.671c-.136-.134-.4-.234-.552-.074s-.026.428.061.6l.134.243a1.118,1.118,0,0,1-.062,1.47,1.359,1.359,0,0,1-1.049.477,1.748,1.748,0,0,1-1.073-.526,2.471,2.471,0,0,1-.683-1.31l.905-.285a1.427,1.427,0,0,0,.368.941.442.442,0,0,0,.642.065c.2-.207-.016-.565-.13-.767-.335-.589-.523-1.011.02-1.563a1.3,1.3,0,0,1,1.923.009,2.73,2.73,0,0,1,.662,1.111Z" transform="translate(-1352.689 -83.812)"/>
    <path id="패스_5943" data-name="패스 5943" class="cls-1" d="M1415.91,103.96l-.538.4.7.945-.709.522-.7-.945-.556.409.733,1-.71.522-1.349-1.834L1416,102.6l1.349,1.834-.71.522Z" transform="translate(-1358.443 -90.229)"/>
    <path id="패스_5944" data-name="패스 5944" class="cls-1" d="M1424.5,120.032a2.219,2.219,0,1,1,.894-2.889A2.129,2.129,0,0,1,1424.5,120.032Zm-1.457-3.01a1.132,1.132,0,1,0,.982,2.037,1.133,1.133,0,0,0-.982-2.037Z" transform="translate(-1363.96 -98.802)"/>
    <path id="패스_5945" data-name="패스 5945" class="cls-1" d="M1431.946,136.023l-2.181.545a1.808,1.808,0,0,1-1.471-.065,2.2,2.2,0,0,1-.642-2.573,1.812,1.812,0,0,1,1.267-.748l2.182-.544.252,1.008-2.043.509c-.5.126-1.045.3-.883.948s.721.547,1.225.421l2.043-.51Z" transform="translate(-1367.945 -109.669)"/>
    <path id="패스_5946" data-name="패스 5946" class="cls-1" d="M1430.9,151.448l.092,1.243-.878.064-.168-2.28,3.988-.293.076,1.036Z" transform="translate(-1369.553 -121.022)"/>
  </g>
</svg>
